<!-- Generator: Adobe Illustrator 18.0.0, SVG Export Plug-In  -->
<svg version="1.1"
	 xmlns="http://www.w3.org/2000/svg" xmlns:xlink="http://www.w3.org/1999/xlink" xmlns:a="http://ns.adobe.com/AdobeSVGViewerExtensions/3.0/"
	 x="0px" y="0px" width="370.3px" height="64.3px" viewBox="0 0 370.3 64.3" enable-background="new 0 0 370.3 64.3"
	 xml:space="preserve">
<defs>
</defs>
<g>
	<g>
		<g>
			<path fill="#6EC1CD" d="M249,53.6v2.6c-1.2-0.7-2.2-1.1-3.1-1.1s-1.6,0.3-2.1,0.9c-0.5,0.6-0.8,1.4-0.8,2.4c0,1,0.3,1.7,0.8,2.3
				c0.6,0.6,1.3,0.9,2.2,0.9c0.8,0,1.8-0.3,2.9-1v2.6c-1.3,0.4-2.3,0.6-3.2,0.6c-1.5,0-2.7-0.5-3.7-1.6c-1-1.1-1.5-2.4-1.5-3.9
				c0-1.6,0.5-2.9,1.6-4c1-1.1,2.3-1.6,3.8-1.6C246.9,52.9,247.9,53.1,249,53.6z"/>
			<path fill="#6EC1CD" d="M254.7,63.8v-1.2h0c-0.3,0.5-0.7,0.8-1,1S253,64,252.5,64c-0.8,0-1.5-0.4-2.1-1.1s-0.9-1.6-0.9-2.6
				c0-1,0.3-1.9,0.9-2.6s1.4-1.1,2.2-1.1c0.4,0,0.8,0.1,1.1,0.3s0.7,0.5,1,0.9v-1h2.1v7.1H254.7z M253.2,58.7c-0.4,0-0.8,0.2-1,0.5
				c-0.3,0.3-0.4,0.8-0.4,1.3c0,0.5,0.1,0.9,0.4,1.1c0.3,0.3,0.6,0.4,1.1,0.4c0.4,0,0.8-0.2,1.1-0.5c0.3-0.3,0.4-0.7,0.4-1.2
				c0-0.4-0.1-0.8-0.4-1.1C253.9,58.9,253.6,58.7,253.2,58.7z"/>
			<path fill="#6EC1CD" d="M260.3,56.7v1h0c0.2-0.4,0.5-0.6,0.7-0.8c0.3-0.2,0.5-0.3,0.8-0.3c0.1,0,0.3,0,0.4,0V59
				c-0.2,0-0.3,0-0.5,0c-0.4,0-0.8,0.2-1,0.5c-0.2,0.3-0.4,0.7-0.4,1.3v3.2h-2.1v-7.1H260.3z"/>
			<path fill="#6EC1CD" d="M262.9,52.8h2.1v4.9c0.6-0.7,1.3-1.1,2.1-1.1c0.8,0,1.6,0.4,2.2,1.1c0.6,0.7,0.9,1.6,0.9,2.6
				c0,1-0.3,1.8-0.9,2.5c-0.6,0.7-1.3,1.1-2.1,1.1c-0.4,0-0.8-0.1-1.1-0.3c-0.3-0.2-0.7-0.5-1.1-1v1.1h-2.1V52.8z M266.5,58.7
				c-0.4,0-0.8,0.1-1,0.5c-0.3,0.3-0.4,0.7-0.4,1.2c0,0.5,0.1,0.9,0.4,1.2c0.3,0.3,0.7,0.5,1.1,0.5c0.4,0,0.7-0.2,1-0.5
				c0.3-0.3,0.4-0.7,0.4-1.2c0-0.5-0.1-0.9-0.4-1.2C267.3,58.9,266.9,58.7,266.5,58.7z"/>
			<path fill="#6EC1CD" d="M271,60.3c0-1.1,0.3-2,1-2.7c0.7-0.7,1.6-1,2.7-1c1,0,1.9,0.4,2.6,1.1c0.7,0.7,1,1.6,1,2.6
				c0,1.1-0.3,2-1,2.7c-0.7,0.7-1.6,1.1-2.6,1.1c-1.2,0-2.1-0.4-2.7-1.1C271.3,62.1,271,61.3,271,60.3z M276.3,60.3
				c0-0.5-0.2-0.9-0.5-1.3c-0.3-0.4-0.7-0.5-1.1-0.5c-0.4,0-0.8,0.2-1.1,0.5c-0.3,0.3-0.5,0.7-0.5,1.2c0,0.5,0.2,0.9,0.5,1.3
				c0.3,0.4,0.7,0.5,1.1,0.5c0.4,0,0.8-0.2,1.1-0.5S276.3,60.8,276.3,60.3z"/>
			<path fill="#6EC1CD" d="M281.8,56.7v0.8c0.7-0.7,1.5-1,2.3-1c0.7,0,1.2,0.3,1.7,0.8c0.4,0.6,0.7,1.3,0.7,2.1v4.3h-2.1v-4
				c0-0.4-0.1-0.8-0.3-1c-0.2-0.3-0.5-0.4-0.8-0.4c-0.4,0-0.7,0.2-1,0.5c-0.2,0.4-0.4,0.8-0.4,1.4v3.5h-2.1v-7.1H281.8z"/>
			<path fill="#6EC1CD" d="M292.5,63.8v-1.2h0c-0.3,0.5-0.7,0.8-1,1c-0.3,0.2-0.8,0.3-1.2,0.3c-0.8,0-1.5-0.4-2.1-1.1
				c-0.6-0.7-0.9-1.6-0.9-2.6c0-1,0.3-1.9,0.9-2.6c0.6-0.7,1.4-1.1,2.2-1.1c0.4,0,0.8,0.1,1.1,0.3c0.3,0.2,0.7,0.5,1,0.9v-1h2.1v7.1
				H292.5z M291,58.7c-0.4,0-0.8,0.2-1,0.5c-0.3,0.3-0.4,0.8-0.4,1.3c0,0.5,0.1,0.9,0.4,1.1c0.3,0.3,0.6,0.4,1.1,0.4
				c0.4,0,0.8-0.2,1.1-0.5c0.3-0.3,0.4-0.7,0.4-1.2c0-0.4-0.1-0.8-0.4-1.1C291.7,58.9,291.4,58.7,291,58.7z"/>
			<path fill="#6EC1CD" d="M296.4,54.3h2.1v2.4h1v1.9h-1v5.2h-2.1v-5.2h-0.8v-1.9h0.8V54.3z"/>
			<path fill="#6EC1CD" d="M299.9,60.3c0-1.1,0.3-2,1-2.7c0.7-0.7,1.6-1,2.7-1c1,0,1.9,0.4,2.6,1.1c0.7,0.7,1,1.6,1,2.6
				c0,1.1-0.3,2-1,2.7c-0.7,0.7-1.6,1.1-2.6,1.1c-1.2,0-2.1-0.4-2.7-1.1C300.2,62.1,299.9,61.3,299.9,60.3z M305.2,60.3
				c0-0.5-0.2-0.9-0.5-1.3c-0.3-0.4-0.7-0.5-1.1-0.5c-0.4,0-0.8,0.2-1.1,0.5c-0.3,0.3-0.5,0.7-0.5,1.2c0,0.5,0.2,0.9,0.5,1.3
				c0.3,0.4,0.7,0.5,1.1,0.5c0.4,0,0.8-0.2,1.1-0.5C305,61.2,305.2,60.8,305.2,60.3z"/>
			<path fill="#6EC1CD" d="M316.9,52.8h2.1v11H317v-1.2h0c-0.6,0.9-1.4,1.3-2.3,1.3c-0.8,0-1.5-0.4-2.1-1.1
				c-0.6-0.7-0.9-1.6-0.9-2.6c0-1,0.3-1.9,0.9-2.6s1.3-1.1,2.1-1.1c0.5,0,0.9,0.1,1.2,0.3c0.3,0.2,0.7,0.5,1,0.8V52.8z M315.4,58.7
				c-0.3,0-0.7,0.2-1,0.5c-0.3,0.3-0.5,0.8-0.5,1.3c0,0.4,0.1,0.8,0.4,1.1c0.3,0.3,0.6,0.5,1,0.5c0.5,0,0.8-0.2,1.1-0.5
				s0.5-0.7,0.5-1.2c0-0.4-0.1-0.8-0.4-1.1C316.2,58.8,315.8,58.7,315.4,58.7z"/>
			<path fill="#6EC1CD" d="M327.1,60.8h-5.1c0,0.5,0.2,0.8,0.5,1.1s0.6,0.4,1,0.4c0.7,0,1.2-0.3,1.5-0.9l1.9,0.6
				c-0.7,1.3-1.8,1.9-3.4,1.9c-1.1,0-2-0.3-2.7-1c-0.7-0.7-1-1.6-1-2.7c0-1,0.3-1.9,1-2.6s1.6-1,2.6-1c1,0,1.9,0.4,2.6,1.1
				s1,1.7,1,2.8V60.8z M322.1,59.4h2.9c-0.2-0.9-0.7-1.3-1.4-1.3c-0.4,0-0.7,0.1-1,0.3C322.3,58.6,322.1,59,322.1,59.4z"/>
			<path fill="#6EC1CD" d="M340,53.6v2.6c-1.2-0.7-2.2-1.1-3.1-1.1s-1.6,0.3-2.1,0.9s-0.8,1.4-0.8,2.4c0,1,0.3,1.7,0.8,2.3
				c0.6,0.6,1.3,0.9,2.2,0.9c0.8,0,1.8-0.3,2.9-1v2.6c-1.3,0.4-2.3,0.6-3.2,0.6c-1.5,0-2.7-0.5-3.7-1.6c-1-1.1-1.5-2.4-1.5-3.9
				c0-1.6,0.5-2.9,1.6-4c1-1.1,2.3-1.6,3.8-1.6C337.8,52.9,338.9,53.1,340,53.6z"/>
			<path fill="#6EC1CD" d="M345.7,63.8v-1.2h0c-0.3,0.5-0.7,0.8-1,1c-0.3,0.2-0.8,0.3-1.2,0.3c-0.8,0-1.5-0.4-2.1-1.1
				c-0.6-0.7-0.9-1.6-0.9-2.6c0-1,0.3-1.9,0.9-2.6s1.4-1.1,2.2-1.1c0.4,0,0.8,0.1,1.1,0.3c0.3,0.2,0.7,0.5,1,0.9v-1h2.1v7.1H345.7z
				 M344.1,58.7c-0.4,0-0.8,0.2-1,0.5c-0.3,0.3-0.4,0.8-0.4,1.3c0,0.5,0.1,0.9,0.4,1.1c0.3,0.3,0.6,0.4,1.1,0.4
				c0.4,0,0.8-0.2,1.1-0.5c0.3-0.3,0.4-0.7,0.4-1.2c0-0.4-0.1-0.8-0.4-1.1C344.9,58.9,344.5,58.7,344.1,58.7z"/>
			<path fill="#6EC1CD" d="M349.3,52.8h2.1v11h-2.1V52.8z"/>
			<path fill="#6EC1CD" d="M358.1,61.4v2.1c-0.7,0.3-1.3,0.5-1.8,0.5c-1.1,0-2-0.4-2.7-1.1s-1.1-1.6-1.1-2.6c0-1.1,0.3-1.9,1-2.6
				c0.7-0.7,1.5-1,2.5-1c0.7,0,1.4,0.2,2.1,0.5v2c-0.6-0.3-1.2-0.4-1.7-0.4c-0.5,0-0.9,0.1-1.1,0.4c-0.3,0.3-0.4,0.7-0.4,1.1
				c0,0.5,0.1,0.8,0.4,1.1s0.7,0.4,1.1,0.4C356.8,61.8,357.4,61.7,358.1,61.4z"/>
			<path fill="#6EC1CD" d="M358.9,54.1c0-0.4,0.1-0.7,0.4-0.9c0.3-0.3,0.6-0.4,0.9-0.4s0.7,0.1,0.9,0.4c0.3,0.3,0.4,0.6,0.4,0.9
				c0,0.4-0.1,0.7-0.4,0.9s-0.6,0.4-0.9,0.4s-0.7-0.1-0.9-0.4S358.9,54.5,358.9,54.1z M359.2,56.7h2.1v7.1h-2.1V56.7z"/>
			<path fill="#6EC1CD" d="M362.6,60.3c0-1.1,0.3-2,1-2.7c0.7-0.7,1.6-1,2.7-1c1,0,1.9,0.4,2.6,1.1c0.7,0.7,1,1.6,1,2.6
				c0,1.1-0.3,2-1,2.7c-0.7,0.7-1.6,1.1-2.6,1.1c-1.2,0-2.1-0.4-2.7-1.1C362.9,62.1,362.6,61.3,362.6,60.3z M367.9,60.3
				c0-0.5-0.2-0.9-0.5-1.3c-0.3-0.4-0.7-0.5-1.1-0.5c-0.4,0-0.8,0.2-1.1,0.5c-0.3,0.3-0.5,0.7-0.5,1.2c0,0.5,0.2,0.9,0.5,1.3
				c0.3,0.4,0.7,0.5,1.1,0.5c0.4,0,0.8-0.2,1.1-0.5C367.7,61.2,367.9,60.8,367.9,60.3z"/>
		</g>
		<g>
			<path fill="#44A19F" d="M98.7,2.5v9.2C94.6,9.3,91,8,87.9,8s-5.5,1.1-7.4,3.2c-1.8,2.1-2.8,4.9-2.8,8.5c0,3.4,1,6.1,2.9,8.1
				c1.9,2,4.5,3,7.8,3c2.8,0,6.2-1.1,10.2-3.4v9.1c-4.4,1.5-8.1,2.2-11.1,2.2c-5.1,0-9.4-1.9-12.9-5.6c-3.5-3.7-5.3-8.3-5.3-13.6
				c0-5.5,1.8-10.1,5.4-13.9c3.6-3.8,8-5.7,13.2-5.7C91.3,0,94.8,0.8,98.7,2.5z"/>
			<path fill="#44A19F" d="M117.9,0.5h6.3l15.4,37.7h-8.2l-3-7.4h-14.5l-3,7.4h-8.1L117.9,0.5z M121,12.9L116.6,24h9L121,12.9z"/>
			<path fill="#44A19F" d="M145.2,0.5h12.4c3.8,0,6.8,1,9,3c2.2,2,3.3,4.7,3.3,8.1c0,1.9-0.5,3.9-1.5,6s-2.9,3.7-5.6,4.9l10.6,15.7
				H164l-9.8-14.6h-0.9v14.6h-8.1V0.5z M153.4,7.2v9.8h1.8c4.2,0,6.4-1.7,6.4-5.2c0-1.4-0.6-2.5-1.7-3.4c-1.1-0.8-2.6-1.3-4.6-1.3
				H153.4z"/>
			<path fill="#44A19F" d="M179.5,0.5h11c4.6,0,7.7,1,9.4,2.9c1.7,1.9,2.5,4.2,2.5,6.7c0,1.6-0.3,3-0.9,4.1c-0.6,1.1-1.6,2.3-3,3.4
				c2.6,0.9,4.5,2.2,5.5,4c1.1,1.8,1.6,3.6,1.6,5.6c0,3.5-1.2,6.2-3.6,8.1c-2.4,1.9-5.7,2.9-10,2.9h-12.6V0.5z M187.7,6.8v8.3h1.9
				c1.4,0,2.5-0.4,3.5-1.3c0.9-0.9,1.4-2,1.4-3.2c0-1-0.5-1.9-1.4-2.6c-0.9-0.7-2.1-1.1-3.4-1.1H187.7z M187.7,21.5v10.4h2.9
				c4.5,0,6.7-1.6,6.7-4.9c0-1.8-0.5-3.1-1.6-4.1c-1.1-1-2.6-1.4-4.7-1.4H187.7z"/>
			<path fill="#44A19F" d="M209.6,19.4c0-5.6,1.8-10.2,5.5-13.8c3.7-3.6,8.1-5.4,13.1-5.4c5.6,0,10.2,1.8,13.9,5.5
				c3.7,3.7,5.5,8.3,5.5,13.8c0,5.5-1.8,10.1-5.4,13.8c-3.6,3.7-8.2,5.5-13.7,5.5c-5.5,0-10-1.8-13.6-5.5
				C211.4,29.6,209.6,25,209.6,19.4z M228.6,7.6c-3.2-0.1-5.7,1-7.6,3.3s-2.9,5.1-2.9,8.7c0,3.4,1,6.1,3,8.3c2,2.2,4.5,3.3,7.5,3.3
				c3.2,0,5.7-1.1,7.7-3.3c1.9-2.2,2.9-5,2.9-8.6c0-3.5-1-6.3-2.9-8.5C234.3,8.8,231.8,7.7,228.6,7.6z"/>
			<path fill="#44A19F" d="M254.6,0.5h12.9c3.5,0,6.3,1,8.4,3c2.1,2,3.2,4.7,3.2,8c0,2.2-0.5,4.2-1.6,6.2c-1,1.9-2.6,3.4-4.7,4.4
				c-2.1,1-3.9,1.5-5.4,1.5l-4.7,0.1v14.6h-8.1V0.5z M262.5,7.3V17h3.2c1.4,0,2.5-0.5,3.5-1.5s1.5-2.1,1.5-3.5
				c0-1.5-0.5-2.7-1.6-3.6c-1.1-0.8-2.6-1.3-4.7-1.3L262.5,7.3z"/>
			<path fill="#44A19F" d="M285.8,0.5h8.1v29.6H305v8.1h-19.2V0.5z"/>
			<path fill="#44A19F" d="M310.8,0.5h8v23.1c0,2.1,0.6,3.9,1.8,5.2c1.2,1.3,2.8,2,4.7,2c2.2,0,3.9-0.7,5.2-2
				c1.2-1.3,1.8-3.2,1.8-5.6V0.5h8V25c0,2.1-0.6,4.4-1.7,6.7c-1.1,2.3-2.8,4.1-5.1,5.3c-2.3,1.2-4.9,1.8-7.7,1.8
				c-5.2,0-9-1.4-11.4-4.3c-2.4-2.9-3.6-5.9-3.6-9.1V0.5z"/>
			<path fill="#44A19F" d="M369.3,3.9l-5.1,5.5c-2.7-1.6-4.6-2.4-5.7-2.4c-0.9,0-1.7,0.3-2.3,1c-0.7,0.7-1,1.5-1,2.4
				c0,1.9,1.7,3.5,5.1,4.8c2.5,1.1,4.3,2,5.6,2.9s2.3,2,3.2,3.6c0.9,1.5,1.3,3.2,1.3,4.9c0,3.2-1.3,6.1-3.9,8.5
				c-2.6,2.4-5.7,3.6-9.3,3.6c-3.9,0-7.8-1.8-11.6-5.5l5.3-6.2c2.4,2.5,4.6,3.7,6.7,3.7c1,0,1.9-0.4,2.8-1.3
				c0.9-0.9,1.4-1.8,1.4-2.7c0-2-2.1-3.7-6.2-5.2c-2.4-0.9-4.1-1.7-5.1-2.4c-1-0.8-1.8-1.9-2.5-3.3c-0.7-1.4-1-2.9-1-4.4
				c0-3.4,1.1-6.1,3.3-8.2c2.2-2.1,5-3.1,8.6-3.1C363,0,366.5,1.3,369.3,3.9z"/>
		</g>
		<rect x="69.7" y="45.8" fill="#6EC1CD" width="300.6" height="1.9"/>
	</g>
	<g>
		<g>
			<g>
				<g>
					<g>
						<path fill-rule="evenodd" clip-rule="evenodd" fill="#25211A" d="M20.2,25.5c0.1,0.1,0.2,0,0.3,0.1c0,0,0.1,0,0.1,0.1
							c0.1,0,0.1,0.1,0.1,0.1c0.1,0.1,0.1,0.2,0.1,0.3c0,0.1,0,0.2,0,0.3c0,0.2,0,0.4-0.1,0.5c-0.1,0.2-0.3,0.4-0.5,0.5
							c-0.3,0.1-0.6,0.1-0.9,0.1c-0.1,0-0.1,0-0.2,0c-0.2-0.1-0.4-0.2-0.5-0.3c-0.1-0.1-0.2-0.2-0.3-0.4c0-0.1,0.1-0.2,0.2-0.1
							c0.1,0.1,0.2,0.1,0.3,0.1c0.1-0.1,0.3-0.1,0.4,0c0.2,0.1,0.4,0,0.4-0.2c0-0.1,0.1-0.2,0.1-0.3c0-0.1,0.1-0.2,0.2-0.2
							c0.2-0.1,0.2-0.2,0.1-0.3C20.1,25.6,20,25.5,20.2,25.5z"/>
						<path fill-rule="evenodd" clip-rule="evenodd" fill="#25211A" d="M18.4,26.6c0-0.1,0-0.3,0-0.4c0.1-0.4,0.4-0.5,0.7-0.7
							c0.4-0.1,0.7-0.1,1,0c0,0-0.1,0,0,0.1c0,0.1,0.1,0.1,0.1,0.2c0,0.1,0,0.2-0.1,0.2c-0.1,0-0.2,0.2-0.2,0.3c0,0.1,0,0.1-0.1,0.3
							c-0.1,0.2-0.3,0.4-0.6,0.2c-0.1,0-0.2-0.1-0.2,0c-0.1,0.1-0.2,0-0.2,0.1c-0.1,0-0.1,0-0.1-0.1C18.5,26.7,18.5,26.6,18.4,26.6
							c0,0.1,0.1,0.1,0,0.1C18.3,26.7,18.4,26.6,18.4,26.6z"/>
						<path fill-rule="evenodd" clip-rule="evenodd" fill="#25211A" d="M18.9,25.7c0.2-0.3,0.7-0.3,0.9-0.1c0.1,0.1,0.1,0.1,0.1,0.2
							c-0.1,0.2-0.1,0.4-0.2,0.6c0,0.1-0.1,0.2-0.2,0.2c-0.1,0-0.2,0-0.2-0.1c-0.1-0.1-0.2-0.1-0.3,0c-0.1,0.1-0.3,0.1-0.3-0.1
							C18.4,26.2,18.6,25.8,18.9,25.7c0,0.1-0.1,0.2-0.1,0.2c0,0.1-0.1,0.1-0.1,0.2c0,0.1,0,0.2,0.2,0.1c0.1-0.1,0.2,0,0.3,0
							c0.1,0.1,0.2,0.1,0.2-0.1c0-0.1,0.1-0.2,0.1-0.2c0-0.1,0.1-0.2,0-0.3c-0.1-0.1-0.2-0.1-0.3-0.1C19.1,25.7,19,25.8,18.9,25.7z"
							/>
						<path fill-rule="evenodd" clip-rule="evenodd" fill="#25211A" d="M18.8,25.7c0.1,0,0.2-0.1,0.3-0.1c0.1,0,0.1,0,0.2,0
							c0.2,0,0.3,0.1,0.3,0.3c-0.1,0.3,0.2,0.2-0.2,0.5c-0.1,0.1-0.1,0.1-0.2,0c-0.2-0.1-0.2-0.1-0.4,0c-0.1,0.1-0.2,0-0.2-0.1
							c0-0.1,0.1-0.3,0.1-0.4C18.7,25.8,18.8,25.8,18.8,25.7L18.8,25.7z"/>
					</g>
					<path fill-rule="evenodd" clip-rule="evenodd" fill="#C9BC9F" d="M19.2,25.7c0.2,0,0.2,0,0.1,0.2c0,0,0,0.1,0,0.1
						c0,0.1-0.1,0.2-0.3,0.2c-0.1,0-0.1,0-0.2,0c-0.1,0-0.2-0.1-0.1-0.2c0-0.1,0.1-0.1,0.2-0.2C19,25.7,19.1,25.7,19.2,25.7z"/>
				</g>
				<g>
					<g>
						<g>
							<path fill-rule="evenodd" clip-rule="evenodd" fill="#E7E5E3" d="M59.3,17.9c-0.1,0-0.2-0.1-0.3-0.1l-3.5-0.9
								c-1-0.2-1.9-0.4-2.9-0.6c-0.7-0.1-1.4-0.3-2.1-0.4c-0.6-0.1-1.1-0.2-1.7-0.3c-0.5-0.1-1.1-0.2-1.6-0.3
								c-0.5-0.1-1-0.2-1.5-0.2c-0.5-0.1-1-0.1-1.4-0.2c-0.1,0-0.1,0-0.2,0c0,0-0.1,0-0.1,0c-0.1,0-0.1,0-0.2,0c0,0-0.1,0-0.1,0
								c-0.1,0-0.1,0-0.2,0c0,0-0.1,0-0.1,0c-0.1,0-0.3-0.1-0.4-0.1c0,0-0.1,0-0.1,0c-0.1,0-0.1,0-0.2,0c0,0-0.1,0-0.1,0
								c0,0-0.1,0-0.2,0c0,0-0.1,0-0.1,0c-0.1,0-0.1,0-0.2,0c-0.1,0-0.1,0-0.2,0c0,0-0.1,0-0.1,0c0,0-0.1,0-0.1,0
								c-0.1,0-0.1,0-0.2,0c0,0-0.1,0-0.1,0c-0.3-0.1-0.7-0.1-1-0.2c-0.4-0.1-0.9-0.1-1.3-0.2c-0.4,0-0.7-0.1-1.1-0.1
								c-0.4,0-0.8-0.1-1.2-0.1c-0.2-0.1-0.3-0.1-0.5-0.1c-0.2,0-0.5-0.1-0.7-0.1c-0.4,0-0.8-0.1-1.2-0.1c-0.4,0-0.8-0.1-1.1-0.1
								c-0.1,0-0.2,0-0.2,0c-0.1,0-0.2,0-0.3,0c-0.1,0-0.1,0-0.2,0c-0.1,0-0.2,0-0.3,0c-0.1-0.1-0.2,0-0.3,0c-0.2,0-0.4,0-0.6,0
								c-0.6,0-1.3-0.1-1.9-0.1c-0.7,0-1.4,0-2.1,0c-0.6,0-1.2,0-1.7,0c-0.9,0-1.9,0-2.8,0.1c-0.6,0-1.1,0.1-1.7,0.1
								c0,0-0.1,0-0.1,0c-0.1,0-0.2,0-0.3,0c-0.1,0-0.1,0-0.2,0c-0.2,0-0.4,0-0.6,0c-0.6,0-1.1,0.1-1.7,0.2
								c-0.6,0.1-1.3,0.2-1.9,0.3c-0.5,0.1-1.1,0.2-1.6,0.4c-0.1,0-0.3,0-0.4,0.1c0,0,0,0,0,0c0,0,0,0,0,0c0,0-0.1,0-0.1,0
								c-1.5,0.5-3,1.1-4.3,2c-0.3,0.2-0.7,0.5-1,0.7c0,0-0.1,0-0.1,0c-0.7,0.4-1.4,0.8-2,1.3c-0.7,0.6-1.3,1.4-1.7,2.2
								c-0.3,0.7-0.6,1.4-0.7,2.2c-0.1,0.4-0.1,0.9-0.1,1.3c0,0,0,0.1,0,0.1c0,0.3,0,0.5,0,0.7c0,0.1,0,0.2,0,0.4
								c0,0.2,0,0.5,0.1,0.7c0,0,0,0,0,0c0,0.1,0,0.1,0,0.2c0,0.3,0.1,0.5,0.1,0.8c0.2,1.1,0.7,2.2,1.5,3c0.2,0.2,0.3,0.3,0.5,0.5
								c0,0,0,0.1,0,0.1c0.2,0.2,0.4,0.4,0.6,0.5C7.7,31.7,8.3,32,9,32.3c0.5,0.2,1.1,0.4,1.7,0.6c0.4,0.1,0.7,0.2,1.1,0.2
								c0.3,0.1,0.7,0.1,1,0.1c0.5,0,1,0,1.6,0c0.4,0,0.7-0.1,1-0.2c1-0.3,2-0.7,2.9-1.2c0.6-0.3,1.1-0.5,1.7-0.8
								c0.5-0.2,1-0.5,1.5-0.7c0.3-0.2,0.7-0.2,1-0.1c0.1,0,0.1,0,0.2,0c0.3-0.1,0.7-0.1,1-0.3c0.1,0,0.2,0,0.3,0
								c0.2,0,0.5,0,0.7-0.1c0.1,0,0.2,0,0.2,0c0.1,0,0.2,0,0.2,0.1c0.1,0,0.2,0,0.2,0.1c0,0.1-0.1,0.1-0.2,0.1
								c-0.2,0.1-0.4,0.1-0.6,0.2c-0.1,0-0.1,0-0.2,0c-0.2-0.1-0.5,0-0.7,0.1c-0.1,0-0.2,0.1-0.3,0.1c-0.1,0-0.2,0-0.3,0
								c-0.1,0-0.2,0-0.3,0.1c0,0,0,0,0,0c-0.1,0-0.2,0-0.2,0.1c0,0.1-0.1,0-0.1,0c0,0,0-0.1,0-0.1c0,0,0.1,0,0.1-0.1
								c-0.1,0-0.2,0.1-0.2,0.2c0,0.1,0.1,0.1,0.2,0.2c0,0,0,0,0.1,0c0,0,0,0,0,0.1c0,0.2,0.1,0.2,0.3,0.3c0.3,0.1,0.6,0.1,0.9,0.1
								c0.5,0,1,0,1.4-0.1c0.2,0,0.4-0.1,0.6-0.2c0.1-0.1,0.2-0.1,0.4-0.1c0.2,0,0.4-0.1,0.5-0.3c0-0.1,0.1-0.1,0.2-0.1
								c0.1,0,0.2-0.1,0.3-0.1c0,0,0.1,0,0.1,0c0.1,0,0.3,0.1,0.4,0.1c0.1,0,0.1,0,0.1,0.1c-0.1,0-0.1,0-0.2,0.1
								c-0.4,0.2-0.7,0.3-1.1,0.5c-0.1,0-0.3,0.1-0.4,0.2c-0.1,0-0.1,0-0.1,0.1c0,0.1-0.1,0.1-0.2,0.1c-0.5,0-0.9,0.1-1.3,0.3
								c-0.1,0-0.1,0.1-0.2,0.1c-0.1,0-0.2,0.1-0.3,0.1c-0.7,0.3-1.6,1.3-1.5,1.8c0.1-0.1,0.1-0.2,0.2-0.3c0-0.1,0-0.1,0.1-0.2
								c0.1,0,0.2-0.1,0.2-0.2c0.1-0.1,0.3-0.3,0.5-0.4c0,0,0.1,0,0.1-0.1c0.2-0.2,0.5-0.3,0.7-0.5c0.2-0.1,0.4-0.2,0.6-0.2
								c-0.1,0.1-0.3,0.2-0.4,0.3c-0.2,0.1-0.5,0.2-0.7,0.4c-0.2,0.2-0.4,0.4-0.6,0.6c-0.1,0.1-0.1,0.1-0.2,0.2c0,0,0,0.1,0,0.1
								c0,0,0.1,0,0.1,0c0.1-0.1,0.1-0.1,0.2-0.2c0.1-0.1,0.2-0.2,0.3-0.2c0.2-0.1,0.4-0.3,0.6-0.4c0.2-0.1,0.4-0.3,0.6-0.3
								c0.4-0.1,0.7-0.2,1.1-0.3c0.1,0,0.3-0.1,0.4-0.1c0.1,0,0.3,0,0.4-0.1c0.3-0.1,0.5-0.1,0.8-0.2c0.3-0.1,0.7-0.2,1-0.3
								c0.1-0.2,0.3-0.4,0.5-0.5c0.1,0,0.2-0.1,0.3-0.2c0,0,0.1,0,0-0.1c0.1,0,0.1,0.1,0.2,0.1c0.2,0,0.3,0.2,0.4,0.4
								c0,0.1,0,0.1,0.1,0.1c0,0,0.1,0,0.1-0.1c0.3-0.2,0.2-0.2,0.5,0c0,0.1-0.1,0.1-0.2,0.1c0,0,0,0,0,0c0.3,0.1,0.3,0.2,0.2,0.4
								c0,0.1,0,0.3,0.1,0.4c0-0.1,0.1-0.1,0.1-0.2c0.1-0.1,0.2-0.2,0.2-0.4c0.1-0.2,0.1-0.2,0.2-0.1c0,0,0,0,0,0.1
								c-0.1,0.1-0.2,0.2-0.2,0.3c0,0,0.1,0,0.1,0c0,0,0.1-0.1,0.2-0.1l0,0c0.1-0.1,0.2-0.1,0.3-0.1c0.1,0,0.2,0.1,0.2,0.2
								c0.1,0.2,0.1,0.3,0.1,0.5c0,0.1,0,0.2,0.1,0.2c0.2-0.1,0.4-0.3,0.5-0.5c0-0.1,0.1-0.1,0.2-0.1c0,0,0.1,0,0.1,0
								c0,0,0.1,0,0.1,0c0,0,0,0,0,0c0,0,0,0,0.1,0c0,0,0,0,0.1,0c0,0,0,0,0.1,0c0.4,0,0.4,0,0.4,0.4c0,0.1,0,0.2,0.2,0.2
								c0.1,0,0.2,0,0.2-0.1c0,0,0,0,0,0c0.2-0.1,0.3-0.2,0.3-0.4c0-0.1,0.1-0.1,0.1-0.2c0.1,0,0.1,0,0.1,0.1c0,0.1-0.1,0.2,0,0.3
								c0,0,0-0.1,0-0.1c0-0.1,0-0.1,0.1-0.1c0,0,0,0,0,0c-0.1,0,0,0.1,0,0.2c0.1,0,0.2,0,0.3,0.2c0,0.1,0.1,0.2,0.1,0.3
								c0,0.1,0.1,0.1,0.2,0c0.1-0.1,0.1-0.1,0.1-0.2c0-0.1,0-0.2-0.1-0.3c-0.1-0.1-0.2-0.2-0.3-0.3c-0.1,0-0.2,0-0.3,0
								c0-0.1,0.1-0.1,0.2-0.1c0.1,0,0.2,0,0.3,0c0.2,0,0.2,0,0.3,0.2c0,0.1,0.1,0.2,0.2,0.3c0,0,0,0,0,0c0.1,0,0.1,0,0.2,0
								c0.1,0,0.1,0,0.1-0.1c0,0,0,0,0,0c0.2-0.2,0.4-0.4,0.4-0.7c0.1,0,0.1-0.1,0.2-0.1c-0.1,0.1-0.2,0.2-0.2,0.4
								c0,0.1,0,0.1,0,0.2c0,0.1,0.1,0.1,0.1,0.2c0,0,0,0,0,0c0,0,0.1,0,0.1,0c0.1,0,0.2,0,0.2,0.1c0,0,0,0.1,0.1,0.1
								c0.1,0.1,0.1,0.3,0.2,0.4c0,0.1,0,0.1,0.1,0.1c0.1,0.1,0.2,0.1,0.3,0c0.2-0.1,0.3-0.2,0.3-0.5c0,0,0,0,0,0
								c0-0.1,0.1-0.1,0.1-0.2c0,0,0,0,0,0c0.1,0,0.1-0.1,0.2,0c0.1,0,0.2,0,0.3,0c0.2-0.2,0.4-0.2,0.6-0.3c0,0,0,0,0,0c0,0,0,0,0,0
								c0,0,0,0,0,0c0.1,0.1,0.2,0,0.3,0c0,0,0,0,0,0c0,0,0.1-0.1,0.1-0.1c0.5-0.1,0.9-0.3,1.4-0.3c0.2,0,0.4,0.1,0.6,0.2
								c0,0,0,0,0,0c0,0.1,0,0.1,0,0.2c0,0,0,0,0,0c-0.2,0-0.3,0.1-0.4,0.2c-0.3,0.3-0.5,0.6-0.7,1c-0.1,0.2-0.3,0.5-0.4,0.7
								c-0.1,0.2-0.2,0.5-0.3,0.7c-0.1,0.2-0.2,0.5-0.2,0.7c0,0.1,0,0.3,0.1,0.3c0.1,0,0.2-0.1,0.3-0.2c0.1-0.1,0.1-0.2,0.2-0.2l0,0
								c0,0,0,0,0,0c0,0.1-0.1,0.2,0,0.3c0,0,0,0,0,0.1c0,0.3-0.1,0.6-0.1,1c0,0.3,0,0.6,0,0.9c0,0.3,0.1,0.6,0.2,0.9
								c0,0.1,0,0.1,0,0.2c-0.3,0.3-0.5,0.7-0.7,1.1c-0.2,0.2-0.3,0.5-0.4,0.8c0,0.2,0,0.3,0,0.5c0,0.1,0.1,0.3,0.2,0.3
								c0.2-0.1,0.3-0.2,0.5-0.4c0.3-0.3,0.5-0.6,0.8-0.8c0,0,0.1-0.1,0.2-0.1c0,0.2,0,0.4,0.2,0.6c0,0,0,0,0,0
								c0.1,0.1,0.1,0.1,0.2,0c0.1-0.1,0.2-0.2,0.2-0.3c0.1-0.2,0.2-0.3,0.3-0.5c0.4-0.6,0.7-1.1,1.2-1.6c0.3-0.3,0.6-0.5,0.8-0.9
								c0.1-0.1,0.1-0.2,0.3-0.2c0,0.1,0,0.1,0,0.1c0,0.1,0.1,0.2,0.2,0.3c0.1,0.1,0.2,0.2,0.3,0.3c0,0.1,0,0.2-0.1,0.2
								c-0.1,0.4-0.3,0.8-0.2,1.2c0,0.2,0,0.4,0.2,0.5c-0.2,0.3-0.4,0.6-0.5,1c0,0,0,0,0,0c-0.3,0.6-0.5,1.1-0.8,1.7
								c-0.2,0.4-0.3,0.7-0.4,1.1c-0.1,0.2-0.1,0.4-0.1,0.6c0,0,0,0.1,0,0.1c0,0.1-0.1,0.3,0,0.4c0,0,0,0.1,0,0.1
								c-0.1,0.1-0.1,0.1-0.2,0c-0.2,0-0.3,0-0.5,0.1c-0.1,0.1-0.2,0.1-0.4,0.1c-0.3,0.1-0.5,0.2-0.8,0.3c-0.2,0.1-0.4,0.2-0.6,0.3
								C40.1,46,40,46.1,40,46.2c0,0.1-0.1,0.1-0.2,0.2c-0.2,0-0.5,0.1-0.7,0.2c-1,0.5-1.9,1.1-2.8,1.8c-0.9,0.7-1.7,1.6-2.4,2.4
								c0,0.1-0.1,0.1-0.1,0.2c-0.2,0.2-0.2,0.5,0,0.7c0.1,0.2,0.2,0.3,0.4,0.5c0,0,0,0.1,0,0.1c0.3,0.4,0.6,0.6,1.1,0.5
								c0.1,0,0.2,0,0.2,0c0.3,0.2,0.5,0.2,0.8,0.2c0.3,0,0.7-0.1,1-0.2c0.5-0.1,0.9-0.3,1.4-0.5c0.5-0.2,0.9-0.4,1.4-0.6
								c1-0.5,2.1-1,3.1-1.6c0.6-0.4,1.3-0.7,1.8-1.1c0.2-0.2,0.5-0.4,0.7-0.6c0-0.1,0.1-0.1,0.1-0.1l0,0l0,0c0,0.1,0,0.1,0,0.2
								c0,0.1,0.1,0.2,0.2,0.2c0.2,0,0.4-0.1,0.6-0.3c0.5-0.3,0.9-0.7,1.2-1.1c0.5-0.6,0.9-1.3,1.4-2c0.5-0.8,1-1.7,1.4-2.5
								c0.2-0.4,0.3-0.7,0.4-1.1c0-0.1,0.1-0.2,0.2-0.3c0.2-0.2,0.3-0.4,0.4-0.6c0.3-0.6,0.6-1.2,0.9-1.8c0.2-0.5,0.5-1.1,0.7-1.6
								c0.1-0.3,0.1-0.6,0.3-0.9c0,0,0,0,0,0c0.1-0.6,0.1-1.1,0.2-1.7c0-0.4,0-0.8,0-1.2c0-0.2,0-0.4,0-0.6c0-0.2,0-0.5,0-0.7
								c0-0.3-0.1-0.7-0.2-1c0-0.1-0.1-0.3-0.2-0.4c0-0.1,0-0.1-0.1-0.2c-0.1-0.2-0.2-0.4-0.3-0.6c0.1-0.1,0.1-0.3,0-0.4
								c0-0.2-0.1-0.4-0.2-0.6c-0.2-0.5-0.6-1-1-1.5c-0.6-0.8-1.4-1.5-2.2-2.3c-0.3-0.3-0.7-0.6-1.1-0.8c0,0-0.1,0-0.1-0.1
								c-0.2-0.3-0.5-0.5-0.9-0.5c-0.8-0.1-1.5-0.3-2.3-0.4c-0.7-0.1-1.3-0.2-2-0.3c-0.2,0-0.3-0.1-0.5,0c0,0-0.1,0-0.1,0
								c0,0-0.1,0-0.1,0c0,0-0.1,0-0.1,0c0,0-0.1,0-0.1,0c0,0-0.1,0-0.1,0c0,0-0.1,0-0.1,0c-0.1,0-0.2,0-0.3,0c-0.1-0.1-0.3,0-0.4,0
								c-0.1,0-0.3,0-0.4,0c-0.1,0-0.3,0-0.4,0c0,0,0,0,0,0c-0.1,0-0.2,0-0.3,0c-0.1,0-0.1,0-0.2,0c-0.1,0-0.1,0-0.2,0
								c-0.1,0-0.1,0-0.2,0c-0.1,0-0.1,0-0.2,0c-0.1,0-0.1,0-0.2,0c0,0-0.1,0-0.1,0c0,0-0.1,0-0.1,0c0,0-0.1,0-0.1,0
								c0,0-0.1,0-0.1,0c-0.1,0-0.1,0-0.2,0.1c-0.2,0.1-0.4,0.2-0.6,0.2c-0.2,0-0.4,0-0.5,0c0,0-0.1,0-0.1,0c-0.1,0-0.1,0-0.2,0
								c-0.2,0-0.4,0.1-0.6,0.2c-0.1,0-0.2-0.1-0.4-0.1c-0.1-0.1-0.2-0.1-0.4-0.1c0,0-0.1,0-0.1,0c-0.3,0-0.7-0.1-1-0.1
								c-0.6,0-1.1,0-1.7,0.1c-0.2,0-0.5,0-0.7,0c-0.5,0.1-1,0-1.6,0c-0.3,0-0.6-0.1-0.8-0.1c-0.1,0-0.1,0-0.2,0c-0.1,0-0.1,0-0.2,0
								c-0.5-0.1-1.1-0.2-1.6-0.4c-0.1,0-0.1-0.1-0.2-0.1c-0.1,0.1,0,0.1,0,0.2c-0.2,0-0.4,0-0.6,0c-0.2-0.1-0.4-0.2-0.6-0.2
								c-0.1,0-0.2,0-0.2,0.1c0,0,0,0,0,0.1c-0.4,0-0.7,0-1.1-0.1c-0.1,0-0.1-0.1-0.2-0.1c-0.1,0-0.1-0.1-0.2,0c0,0.1,0,0.1,0,0.2
								c0,0,0,0,0,0c-0.2,0.1-0.4,0.1-0.7,0c-0.1,0-0.2-0.1-0.3-0.1c-0.1,0-0.1,0-0.1,0.1c0,0,0.1,0.1,0,0.1c-0.2,0-0.5,0-0.7,0
								c-0.1,0-0.2,0-0.3,0c-0.1,0-0.1,0-0.1,0.1c0,0,0,0,0,0.1c-0.3,0-0.6,0.1-1,0c-0.1,0-0.2,0-0.1,0.1c0,0,0,0,0,0.1
								c-0.3,0-0.6,0.1-1,0.1c-0.1,0-0.1,0-0.2,0c-0.1,0-0.1,0.1,0,0.1c0.1,0,0.1,0.1,0.2,0.1c-0.9,0.2-1.8,0.4-2.7,0.6
								c-0.9,0.3-1.8,0.5-2.7,0.8c-0.2,0-0.3,0.1-0.5,0.2c0,0-0.1,0-0.1,0.1c0,0,0.1,0,0.1,0c0.2,0,0.3-0.1,0.5-0.1c0,0,0.1,0,0.1,0
								c-0.1,0-0.1,0.1-0.2,0.1l0,0l0,0l0,0l0,0c0,0,0,0.1,0,0.1c0,0-0.1,0.1-0.1,0.1c0,0,0.1,0,0.1,0c0.1,0,0.1,0,0.2,0
								c0.2,0.1,0.4,0,0.5-0.1c0,0,0.1,0,0.1,0c0.8-0.3,1.6-0.4,2.5-0.5c0.3,0,0.6-0.1,0.9,0c0,0,0,0,0.1,0c0.3-0.1,0.6,0,0.9-0.1
								c0.3,0,0.7,0,1,0c0.2,0,0.4,0.1,0.7,0.1c0.1,0,0.1,0,0.1,0.1c0,0-0.1,0.1-0.1,0.1c0,0,0,0,0,0l0,0l0,0
								c-0.1,0.1-0.2,0.2-0.3,0.2c-0.1,0.1-0.2,0.1-0.3,0.1c-0.1,0-0.3,0-0.4,0c-0.4-0.1-0.8-0.1-1.2-0.1c0,0,0.1,0.1,0.1,0.1
								c0,0,0.1,0.1,0.1,0.1c0,0.1,0.1,0.2,0.1,0.2c0,0.1,0.1,0.2,0,0.4c-0.1,0.1,0,0.1,0,0.2c0,0.1,0,0.2-0.1,0.2
								c-0.1,0.2-0.3,0.4-0.6,0.5c-0.3,0.1-0.5,0.1-0.8,0.1c-0.1,0-0.1,0-0.2,0c-0.2-0.1-0.3-0.2-0.5-0.3c-0.1-0.1-0.2-0.2-0.2-0.4
								c0,0,0-0.1,0-0.1c0,0,0,0,0,0c0,0,0,0,0,0c0-0.1,0.1-0.3,0-0.4c-0.1,0-0.2,0-0.3,0c-0.5,0-0.9,0.2-1.3,0.5
								c-0.1,0.1-0.2,0.1-0.3,0.1c-0.3,0.1-0.7,0.1-1,0.2c0,0,0,0,0,0c-0.4,0.1-0.8,0.1-1.3,0c-0.5-0.1-1-0.2-1.5-0.4
								c0,0-0.1-0.1-0.2,0c0.2,0.1,0.4,0.3,0.5,0.3c0.7,0.2,1.3,0.4,2,0.4c0.3,0,0.5-0.1,0.8-0.1l0,0c0,0,0,0,0,0l0,0
								c-0.2,0.1-0.5,0.2-0.7,0.3c-0.4,0.1-0.8,0.1-1.2,0.2c-0.4,0.1-0.8,0.3-1.1,0.6c-0.1,0.1-0.1,0.1-0.1,0.2
								c0.2-0.2,0.3-0.3,0.5-0.4c0.3-0.2,0.7-0.3,1.1-0.4c0.3-0.1,0.6-0.1,1-0.1l0,0l0,0c0,0.1,0.1,0,0.2,0.1c0,0,0,0,0,0
								c-0.2,0-0.4,0.2-0.6,0.2c-0.1,0-0.2,0-0.2,0.1c0,0.1,0.1,0.1,0.2,0.1c0,0,0,0,0,0c0,0.1,0.1,0,0.1,0.1
								c-0.1,0.2-0.1,0.2,0.1,0.3c0.1,0,0.2,0.1,0.3,0.1c0.4,0.1,0.9,0.2,1.3,0.3c0.4,0,0.9,0.1,1.3,0.2c0.2,0,0.3,0,0.5,0
								c0.2,0,0.4,0,0.7,0.1c0.2,0,0.5,0,0.7,0.1c0.3,0,0.7,0.1,1,0.1c0.1,0,0.1,0,0.2,0.1c-0.2,0.1-0.4,0.1-0.5,0.2
								c-1.7,0.6-3.3,1.2-5,1.7c-0.3,0.1-0.7,0.2-1.1,0.2c-0.9,0.1-1.7,0-2.5-0.3c-1.7-0.5-3.2-1.4-4.3-2.7
								c-0.1-0.1-0.1-0.2-0.2-0.3c0-0.1,0-0.1-0.1-0.2c0,0,0-0.1,0-0.1c-0.2-0.3-0.4-0.6-0.5-0.9c0-0.1-0.1-0.1-0.1-0.2
								c-0.1-0.3-0.3-0.6-0.4-1c0-0.1,0-0.2-0.1-0.3C6.1,25.2,6,24.6,5.9,24c0-0.6,0.1-1.3,0.2-1.9c0.4-1.4,1.2-2.6,2.2-3.7
								c0.3-0.3,0.7-0.6,1-0.9c0,0,0,0,0.1-0.1c0.4-0.2,0.8-0.3,1.2-0.5c0,0,0.1,0,0.1,0c0.6-0.2,1.2-0.3,1.8-0.5
								c0.6-0.1,1.1-0.2,1.7-0.3c0.4-0.1,0.8-0.1,1.2-0.1c0.4,0,0.8-0.1,1.2-0.1c0.2,0,0.4,0,0.6,0c0.4-0.1,0.9-0.1,1.3-0.1
								c0.3,0,0.7,0,1-0.1c0.4,0,0.8,0,1.2,0c0,0,0.1,0,0.1,0c0.3,0,0.6,0,0.9,0c0,0,0.1,0,0.1,0c0.3,0,0.5,0,0.8,0
								c0.4,0,0.9,0,1.3,0c0.2,0,0.5,0,0.7,0c0.1,0.1,0.2,0,0.3,0c0.2,0,0.4,0,0.6,0c0.1,0.1,0.2,0,0.2,0c0.2,0,0.4,0,0.6,0
								c0.1,0.1,0.2,0,0.2,0c0.2,0,0.3,0,0.5,0c0.1,0,0.1,0,0.2,0c0.1,0,0.3,0,0.4,0c0.1,0.1,0.2,0,0.2,0c0.1,0,0.3,0,0.4,0
								c0.1,0,0.1,0,0.2,0c0.1,0,0.3,0,0.4,0c0,0,0.1,0,0.2,0c0.1,0,0.3,0,0.4,0c0,0,0.1,0,0.1,0c0.1,0,0.2,0,0.4,0c0,0,0.1,0,0.2,0
								c0.1,0,0.2,0,0.4,0c0,0,0.1,0,0.1,0c0.1,0,0.2,0,0.3,0c0,0,0.1,0,0.2,0c0.1,0,0.2,0,0.3,0c0,0,0.1,0,0.1,0c0.1,0,0.2,0,0.3,0
								c0,0,0.1,0,0.1,0c0.1,0,0.2,0,0.3,0c0,0,0.1,0,0.2,0c0.1,0,0.2,0,0.3,0c0,0,0.1,0,0.1,0c0.3,0,0.7,0.1,1,0.1c0,0,0.1,0,0.1,0
								c0.1,0,0.1,0,0.2,0c0,0,0.1,0,0.1,0c0.1,0,0.1,0,0.2,0c0.3,0,0.6,0.1,0.9,0.1c0,0,0.1,0,0.1,0c0.1,0,0.2,0,0.3,0
								c0.3,0,0.7,0.1,1,0.1c0.3,0,0.6,0.1,1,0.1c0,0,0.1,0,0.1,0c0.1,0,0.1,0,0.2,0c0.4,0.1,0.7,0.1,1.1,0.2
								c0.4,0.1,0.8,0.1,1.1,0.2c0.3,0.1,0.5,0.1,0.8,0.2c0,0,0,0,0,0c0,0,0.1,0,0.1,0c0,0,0.1,0,0.1,0c0,0,0,0,0,0c0,0,0.1,0,0.1,0
								c0.1,0,0.2,0,0.2,0.1c0.1,0,0.1,0,0.2,0c1,0.3,2,0.6,3,0.9c1.4,0.5,2.7,1,4.1,1.6c1,0.5,2,1,2.9,1.6c0.7,0.5,1.3,1,1.9,1.5
								c0.4,0.4,0.8,0.7,1.1,1.2c0,0.1,0.1,0.2,0.2,0.1c0.1-0.1,0-0.1-0.1-0.2c-0.4-0.7-1-1.3-1.6-1.8c-0.6-0.6-1.3-1-2.1-1.5
								c-1.7-1-3.4-1.7-5.2-2.4c-1.2-0.4-2.3-0.8-3.5-1.2c-0.3-0.1-0.6-0.2-0.9-0.2c-0.1-0.1-0.2-0.1-0.4-0.1
								c-1.2-0.3-2.3-0.6-3.5-0.8c-0.8-0.1-1.6-0.3-2.4-0.4c-0.6-0.1-1.2-0.1-1.8-0.2c-0.6-0.1-1.3-0.1-1.9-0.2c-0.2,0-0.4,0-0.6,0
								c-0.4,0-0.8-0.1-1.2-0.1c-0.5,0-1-0.1-1.4-0.1c-0.5,0-1.1-0.1-1.6-0.1c-0.5,0-1.1,0-1.6-0.1c-0.7,0-1.4-0.1-2-0.1
								c-1.2,0-2.3,0-3.5,0c-0.6,0-1.2,0-1.8,0.1c-0.4,0-0.7,0-1.1,0.1c-0.2,0-0.5,0-0.7,0c-0.5,0-0.9,0.1-1.4,0.1
								c-0.4,0-0.7,0.1-1.1,0.1c-0.3,0-0.6,0.1-0.9,0.1c0-0.1,0.1-0.1,0.2-0.1c0.4-0.2,0.8-0.3,1.2-0.5c0.5-0.2,0.9-0.3,1.4-0.4
								c0.3-0.1,0.7-0.2,1-0.2c0.3,0,0.6-0.1,0.9-0.1c0.2,0,0.5-0.1,0.7-0.1c0.2,0,0.5-0.1,0.7-0.1c0.3,0,0.6-0.1,0.9-0.1
								c0.2,0,0.4,0,0.6,0c0.4-0.1,0.7-0.1,1.1-0.1c0.3,0,0.6-0.1,0.9-0.1c0,0,0.1,0,0.1,0c0.3-0.1,0.7,0,1-0.1c0.3,0,0.6,0,0.9,0
								c0.5,0,1,0,1.5,0c1.1,0,2.2,0,3.3,0c0.4,0,0.9,0,1.3,0c0.5,0,1.1,0,1.6,0c0.3,0,0.6,0.1,0.9,0c0,0,0,0,0,0
								c0.3,0,0.6,0.1,0.8,0.1c0.2,0,0.5,0,0.7,0.1c0.2,0,0.3,0,0.5,0c0.2,0,0.4,0,0.6,0.1c0.2,0,0.4,0,0.7,0.1c0.2,0,0.3,0,0.5,0
								c0.2,0,0.4,0.1,0.6,0.1c0.3,0,0.7,0.1,1,0.1c0.1,0,0.3,0,0.4,0c0.2,0,0.4,0,0.7,0.1c0.2,0,0.4,0,0.6,0.1
								c0.3,0,0.6,0.1,0.9,0.1c0.4,0,0.7,0.1,1.1,0.2c0.2,0,0.4,0.1,0.6,0.1c0.3,0,0.7,0.1,1,0.1c0.4,0.1,0.8,0.1,1.2,0.2
								c0.3,0,0.6,0.1,0.9,0.1c0.3,0,0.6,0.1,0.9,0.2c0.3,0.1,0.7,0.1,1,0.1c0.4,0.1,0.8,0.1,1.3,0.2c0.5,0.1,1.1,0.2,1.6,0.3
								c0.5,0.1,1,0.2,1.5,0.3c0.5,0.1,1,0.2,1.5,0.3c0.7,0.1,1.3,0.3,2,0.4c0.8,0.2,1.5,0.4,2.3,0.6c0.5,0.1,1,0.3,1.5,0.4
								c0.1,0,0.1,0,0.2,0c-0.1-0.1-0.2-0.1-0.3-0.2c-0.2-0.1-0.5-0.1-0.7-0.2c-0.4-0.1-0.8-0.2-1.1-0.3c-0.5-0.1-0.9-0.2-1.4-0.3
								c-0.8-0.2-1.7-0.4-2.5-0.5c-0.1,0-0.3-0.1-0.4-0.1c-0.4-0.1-0.8-0.2-1.2-0.2c-0.2,0-0.4-0.1-0.6-0.1c-0.2,0-0.4-0.1-0.6-0.1
								c-0.2-0.1-0.5-0.1-0.7-0.1c-0.2,0-0.5-0.1-0.7-0.1c-0.4,0-0.8-0.2-1.2-0.2c0,0-0.1,0-0.1,0c-0.1-0.1-0.3-0.1-0.4-0.1
								c-0.3,0-0.5-0.1-0.7-0.1c-0.2,0-0.5-0.1-0.7-0.1c-0.1,0-0.3,0-0.4-0.1c-0.3-0.1-0.5-0.1-0.8-0.1c-0.4-0.1-0.9-0.1-1.4-0.2
								c-0.1,0-0.2,0-0.3,0c-0.2,0-0.3,0-0.5-0.1c-0.2,0-0.4-0.1-0.6-0.1c-0.2,0-0.3,0-0.5-0.1c-0.2,0-0.5-0.1-0.7-0.1
								c-0.2,0-0.5,0-0.7-0.1c-0.2-0.1-0.5-0.1-0.7-0.1c-0.2,0-0.3-0.1-0.5-0.1c0.4,0,0.8,0.1,1.1,0.1c0.4,0,0.8,0.1,1.1,0.1
								c0.4,0.1,0.9,0.1,1.3,0.2c0.4,0.1,0.8,0.1,1.2,0.2c0.4,0.1,0.8,0.1,1.2,0.2c0.5,0.1,0.9,0.1,1.4,0.2c0.5,0.1,0.9,0.1,1.4,0.2
								c0.3,0,0.7,0.1,1,0.1c0,0,0,0,0,0c0.2,0.1,0.5,0.1,0.7,0.1c0.6,0.1,1.2,0.2,1.8,0.3c0.7,0.1,1.4,0.2,2.1,0.4
								c0.9,0.2,1.8,0.4,2.6,0.6c1,0.2,2.1,0.5,3.1,0.8c0.1,0,0.2,0,0.3,0.1C59.3,18,59.3,18,59.3,17.9
								C59.3,17.9,59.3,17.9,59.3,17.9z M52.4,37.4C52.4,37.4,52.4,37.4,52.4,37.4C52.4,37.4,52.4,37.4,52.4,37.4
								C52.4,37.4,52.4,37.4,52.4,37.4z M51.3,34.9C51.3,34.9,51.3,34.9,51.3,34.9C51.3,34.9,51.3,34.9,51.3,34.9L51.3,34.9z
								 M11.7,32.4C11.7,32.4,11.7,32.4,11.7,32.4L11.7,32.4C11.7,32.4,11.7,32.4,11.7,32.4z M40.2,34.5
								C40.2,34.5,40.2,34.6,40.2,34.5C40.2,34.6,40.2,34.6,40.2,34.5C40.2,34.6,40.2,34.6,40.2,34.5z M29.2,30.3
								C29.2,30.3,29.2,30.3,29.2,30.3C29.2,30.3,29.2,30.3,29.2,30.3C29.2,30.3,29.2,30.3,29.2,30.3z M24.1,27.1
								C24.1,27.1,24.1,27.1,24.1,27.1C24.1,27.1,24.1,27.1,24.1,27.1C24.1,27.1,24.1,27.1,24.1,27.1z M29.2,30.2
								C29.2,30.2,29.2,30.2,29.2,30.2L29.2,30.2C29.2,30.2,29.2,30.2,29.2,30.2z M22.8,26.5C22.8,26.5,22.8,26.5,22.8,26.5
								C22.8,26.5,22.8,26.5,22.8,26.5C22.8,26.5,22.8,26.5,22.8,26.5z M31.2,28.7C31.2,28.7,31.2,28.7,31.2,28.7c0,0-0.1,0-0.1,0
								c0,0,0,0,0,0C31.2,28.7,31.2,28.7,31.2,28.7C31.2,28.7,31.2,28.7,31.2,28.7C31.2,28.7,31.2,28.7,31.2,28.7z M14.1,32.5
								C14.1,32.5,14.1,32.5,14.1,32.5C14.1,32.5,14.1,32.5,14.1,32.5C14.1,32.5,14.1,32.5,14.1,32.5z M42.7,45.5
								C42.7,45.5,42.7,45.5,42.7,45.5C42.7,45.5,42.7,45.5,42.7,45.5C42.7,45.5,42.7,45.5,42.7,45.5z M44.7,29.5
								C44.7,29.5,44.7,29.5,44.7,29.5C44.7,29.5,44.7,29.5,44.7,29.5C44.7,29.5,44.7,29.5,44.7,29.5z M41.4,40
								C41.4,40,41.4,40,41.4,40C41.4,40,41.4,40,41.4,40z M41.7,47.2L41.7,47.2L41.7,47.2L41.7,47.2z M41.9,48.1
								C41.9,48.1,41.9,48.1,41.9,48.1C41.9,48.1,41.9,48.1,41.9,48.1C41.9,48.1,41.9,48.1,41.9,48.1z M40.8,47.6
								C40.8,47.6,40.8,47.6,40.8,47.6C40.8,47.6,40.8,47.6,40.8,47.6C40.8,47.6,40.8,47.6,40.8,47.6z M40.3,48.5
								C40.3,48.5,40.3,48.5,40.3,48.5C40.3,48.5,40.3,48.6,40.3,48.5C40.3,48.5,40.3,48.5,40.3,48.5z M41.6,39.4
								C41.6,39.4,41.6,39.4,41.6,39.4C41.6,39.4,41.6,39.4,41.6,39.4C41.6,39.4,41.6,39.4,41.6,39.4z M40.9,38.9
								C40.9,38.9,40.9,38.9,40.9,38.9C40.9,39,40.9,39,40.9,38.9C40.9,38.9,40.9,38.9,40.9,38.9L40.9,38.9L40.9,38.9L40.9,38.9z
								 M41.4,39.3L41.4,39.3C41.4,39.3,41.4,39.3,41.4,39.3C41.4,39.3,41.4,39.3,41.4,39.3C41.4,39.3,41.4,39.3,41.4,39.3
								L41.4,39.3L41.4,39.3z M43.1,36.3L43.1,36.3L43.1,36.3L43.1,36.3z M46.2,34.9C46.2,34.9,46.2,34.9,46.2,34.9
								C46.2,34.9,46.2,34.9,46.2,34.9C46.2,34.9,46.2,34.9,46.2,34.9z M46.2,34.9C46.2,34.9,46.2,34.9,46.2,34.9
								C46.2,34.9,46.2,34.9,46.2,34.9C46.2,34.9,46.2,34.9,46.2,34.9z M46,35.8C46,35.8,46,35.8,46,35.8C46,35.8,46,35.8,46,35.8
								C46,35.8,46,35.8,46,35.8z M49.1,39.2C49.1,39.2,49.1,39.2,49.1,39.2C49.1,39.2,49.1,39.2,49.1,39.2L49.1,39.2
								C49.1,39.2,49.1,39.2,49.1,39.2z M44.8,34.7C44.8,34.7,44.8,34.7,44.8,34.7C44.8,34.7,44.8,34.7,44.8,34.7
								C44.8,34.7,44.8,34.7,44.8,34.7z M49.1,40C49.1,40,49.1,39.9,49.1,40C49.1,39.9,49.1,39.9,49.1,40C49.1,40,49.1,40,49.1,40z
								 M41.3,37C41.3,37,41.3,37,41.3,37C41.3,37,41.3,37,41.3,37C41.3,37,41.3,37,41.3,37z M40.9,36.9
								C40.9,36.9,40.9,36.9,40.9,36.9C40.9,36.9,40.9,36.9,40.9,36.9z M44.8,34.7C44.8,34.7,44.8,34.7,44.8,34.7
								C44.8,34.7,44.8,34.7,44.8,34.7C44.8,34.7,44.8,34.7,44.8,34.7z M44.1,28.5C44.1,28.5,44.1,28.5,44.1,28.5
								C44.1,28.5,44.1,28.5,44.1,28.5C44.1,28.5,44.1,28.5,44.1,28.5z M44.2,41C44.2,41.1,44.2,41.1,44.2,41
								C44.2,41.1,44.2,41.1,44.2,41C44.2,41.1,44.2,41.1,44.2,41z M46.7,34.4L46.7,34.4L46.7,34.4L46.7,34.4z M45.2,28
								C45.2,28,45.2,28,45.2,28C45.2,28,45.2,28,45.2,28z M40.5,34.1C40.5,34.1,40.5,34.1,40.5,34.1C40.5,34.1,40.5,34.1,40.5,34.1
								C40.5,34.1,40.5,34.1,40.5,34.1z M44.9,36.3C44.9,36.3,44.9,36.3,44.9,36.3C44.9,36.3,44.9,36.3,44.9,36.3z M43.2,43.3
								C43.2,43.3,43.2,43.3,43.2,43.3L43.2,43.3C43.2,43.3,43.2,43.3,43.2,43.3C43.2,43.3,43.2,43.3,43.2,43.3z M40.3,35.9
								C40.3,35.9,40.3,35.9,40.3,35.9C40.3,35.9,40.3,35.9,40.3,35.9C40.3,35.9,40.3,35.9,40.3,35.9z M22.8,30.6
								C22.8,30.6,22.8,30.6,22.8,30.6C22.8,30.6,22.8,30.6,22.8,30.6C22.8,30.6,22.8,30.6,22.8,30.6z M43,43.7
								C43,43.7,43,43.7,43,43.7C43,43.7,43,43.7,43,43.7C43,43.7,43,43.7,43,43.7z M49.7,33.5C49.7,33.5,49.7,33.5,49.7,33.5
								C49.7,33.5,49.7,33.5,49.7,33.5C49.7,33.5,49.7,33.5,49.7,33.5z M48.6,29.9C48.6,29.9,48.6,29.9,48.6,29.9
								C48.6,29.9,48.6,29.9,48.6,29.9z M48.5,29.3C48.5,29.3,48.5,29.3,48.5,29.3C48.5,29.3,48.5,29.3,48.5,29.3
								C48.5,29.3,48.5,29.3,48.5,29.3z M48.3,29.6C48.3,29.6,48.3,29.6,48.3,29.6C48.3,29.6,48.2,29.6,48.3,29.6
								C48.3,29.6,48.3,29.6,48.3,29.6z M48.1,27L48.1,27L48.1,27C48.1,27,48.1,27,48.1,27z M47.6,29.4
								C47.6,29.4,47.6,29.4,47.6,29.4C47.6,29.4,47.6,29.4,47.6,29.4C47.6,29.4,47.6,29.4,47.6,29.4z M45.5,25.8
								C45.5,25.9,45.5,25.9,45.5,25.8C45.5,25.9,45.5,25.8,45.5,25.8C45.5,25.8,45.5,25.8,45.5,25.8z M45.2,25.7
								C45.2,25.7,45.2,25.7,45.2,25.7C45.2,25.7,45.2,25.7,45.2,25.7C45.2,25.7,45.2,25.7,45.2,25.7z M43.6,25.4
								C43.6,25.4,43.6,25.4,43.6,25.4C43.6,25.4,43.6,25.4,43.6,25.4C43.6,25.4,43.6,25.4,43.6,25.4z M41.4,25.2
								C41.4,25.2,41.4,25.2,41.4,25.2C41.4,25.2,41.4,25.2,41.4,25.2z M40.4,27.5C40.4,27.5,40.4,27.5,40.4,27.5
								C40.4,27.5,40.4,27.5,40.4,27.5C40.4,27.5,40.4,27.5,40.4,27.5z M37,29.8C37,29.8,37,29.8,37,29.8L37,29.8L37,29.8z
								 M36.6,31.1C36.6,31.1,36.6,31.1,36.6,31.1C36.6,31.1,36.6,31.1,36.6,31.1C36.6,31.1,36.6,31.1,36.6,31.1z M34.4,30.2
								C34.4,30.2,34.4,30.2,34.4,30.2C34.4,30.2,34.4,30.2,34.4,30.2C34.4,30.2,34.4,30.2,34.4,30.2C34.4,30.2,34.4,30.2,34.4,30.2
								L34.4,30.2L34.4,30.2L34.4,30.2C34.4,30.2,34.4,30.2,34.4,30.2C34.4,30.2,34.4,30.2,34.4,30.2z M33.5,30.7L33.5,30.7
								C33.5,30.7,33.5,30.7,33.5,30.7C33.5,30.7,33.5,30.7,33.5,30.7z M23,25.1C23,25.1,23,25.1,23,25.1C23,25.1,23,25.1,23,25.1
								C23,25.1,23,25.1,23,25.1C23,25.1,23,25.1,23,25.1z M5.6,21.9c0,0.1,0,0.1,0,0.2c-0.1,0.3-0.1,0.6-0.2,0.9c0,0.1,0,0.1,0,0.2
								c-0.1,0.6,0,1.2,0.1,1.8c0.2,1.1,0.6,2.2,1.3,3.2c0.2,0.3,0.4,0.7,0.7,0.9c0.1,0.1,0.1,0.2,0.2,0.3c0,0,0,0.1,0,0.1
								c0.1,0.1,0.2,0.3,0.3,0.4c0.2,0.2,0.4,0.4,0.7,0.6c0.5,0.4,1,0.8,1.6,1c0.6,0.3,1.2,0.5,1.8,0.7c0.5,0.1,0.9,0.3,1.4,0.3
								c0,0,0.1,0,0.1,0c0,0,0,0,0,0c-0.3,0-0.7,0-1,0c-0.1,0-0.2,0-0.2,0c0,0,0,0-0.1,0c0,0,0,0,0,0c0,0,0,0,0,0
								c0-0.1-0.1-0.1-0.2-0.1c0,0-0.1,0-0.1,0c0,0,0,0-0.1,0c0,0,0,0,0,0c0,0,0,0,0,0c0-0.1-0.1-0.1-0.2,0c0,0-0.1,0-0.1,0
								c0,0,0,0,0,0h0c0,0,0,0,0,0c0,0-0.1-0.1-0.1-0.1c-0.2,0-0.5-0.1-0.7-0.1c-1.3-0.3-2.5-0.7-3.6-1.5C6.4,30,5.7,29.1,5.3,28
								c0,0,0-0.1,0-0.1c0,0,0-0.1,0-0.1c-0.1-0.2-0.1-0.5-0.1-0.7c0-0.2-0.1-0.5-0.1-0.7c0-0.3-0.1-0.7-0.1-1c0-0.5,0-1.1,0.1-1.6
								c0-0.2,0.1-0.5,0.1-0.7c0.1-0.6,0.3-1.1,0.5-1.6c0.1-0.2,0.2-0.4,0.3-0.6c0,0,0-0.1,0.1-0.1c0,0,0,0,0,0
								C5.8,21.2,5.7,21.5,5.6,21.9z M21.1,13.4C21.1,13.4,21.1,13.4,21.1,13.4C21.1,13.4,21.1,13.4,21.1,13.4
								C21.1,13.4,21.1,13.4,21.1,13.4z"/>
						</g>
						<polygon fill-rule="evenodd" clip-rule="evenodd" fill="#E7E5E3" points="29.2,31 29.2,31 29.2,31 						"/>
						<path fill-rule="evenodd" clip-rule="evenodd" fill="#E7E5E3" d="M29.1,31C29.1,31,29.1,31,29.1,31C29.2,31.1,29.2,31,29.1,31
							C29.2,31,29.2,31,29.1,31z"/>
						<path fill-rule="evenodd" clip-rule="evenodd" fill="#E7E5E3" d="M26.2,33.3C26.2,33.3,26.2,33.3,26.2,33.3
							C26.2,33.4,26.2,33.4,26.2,33.3C26.2,33.4,26.3,33.4,26.2,33.3C26.3,33.3,26.3,33.3,26.2,33.3z"/>
						<path fill-rule="evenodd" clip-rule="evenodd" fill="#E7E5E3" d="M26.3,33.3C26.3,33.3,26.3,33.3,26.3,33.3
							C26.3,33.3,26.4,33.3,26.3,33.3C26.4,33.3,26.4,33.3,26.3,33.3C26.3,33.3,26.3,33.3,26.3,33.3z"/>
						<path fill-rule="evenodd" clip-rule="evenodd" fill="#E7E5E3" d="M39.9,32.2c-0.1,0-0.1,0-0.2,0
							C39.8,32.2,39.8,32.2,39.9,32.2z"/>
					</g>
					<g>
						<path fill-rule="evenodd" clip-rule="evenodd" fill="#F2F0EF" d="M37.9,43.5c0,0-0.1,0-0.1,0c-0.1,0-0.1,0.1-0.2,0.1
							c-0.1,0-0.2,0.1-0.2-0.1l0,0l0,0c0.1-0.1,0.2-0.2,0.3-0.3c0.1,0,0.1-0.1,0.1-0.1c0-0.1,0-0.1,0-0.1c-0.1,0-0.1,0-0.1,0.1
							c-0.2,0.1-0.4,0.3-0.6,0.3c0.1-0.1,0.1-0.1,0.2-0.2c0,0,0.1-0.1,0.1-0.1c0-0.1-0.1,0-0.1,0c-0.2,0.1-0.4,0.2-0.5,0.3
							c-0.1,0-0.2,0.1-0.4,0.1c-0.4,0.2-0.7,0.3-1.1,0.4c0,0,0,0,0,0c-0.1-0.2-0.2-0.3-0.3-0.5c-0.3-0.3-0.5-0.6-0.8-1
							c-0.1-0.2-0.3-0.3-0.5-0.5c0-0.2,0-0.4,0-0.6c-0.2-0.8-0.5-1.6-0.7-2.4c0-0.1,0-0.2,0.1-0.3c0.1-0.1,0.3-0.3,0.3-0.5
							c0.3-0.7,0.6-1.4,0.8-2.1c0.1-0.2,0.2-0.4,0.2-0.6c0-0.1,0-0.1,0.1-0.1c0.1,0,0.1-0.1,0.2-0.1c0.3-0.3,0.6-0.8,0.8-1.2
							c0.1-0.1,0.1-0.2,0.2-0.2c0.3,0,0.5-0.3,0.5-0.6c0-0.1,0.1-0.2,0.2-0.2c0.2,0,0.2-0.2,0.3-0.3c0.1-0.1,0.1-0.2,0.2-0.3
							c0-0.1-0.1-0.1-0.1-0.2c0,0,0-0.1,0-0.1c0-0.2,0.1-0.3,0.1-0.4c-0.1,0-0.2,0-0.2,0.1c-0.1,0.2-0.1,0.4-0.3,0.5
							c-0.1,0.1-0.1,0.1-0.2,0.2c0,0.1-0.1,0.1-0.2,0.1c0,0-0.1,0-0.1,0c0,0,0,0,0,0c-0.1-0.1-0.1-0.2-0.2-0.3
							c0-0.1-0.1-0.2-0.3-0.2c-0.2,0-0.4-0.1-0.5,0.1c0,0,0,0,0,0.1c0.1,0,0.2,0,0.3,0c0.2,0,0.4,0.5,0.3,0.6c0,0.1-0.1,0.1-0.2,0
							c0-0.3-0.4-0.4-0.4-0.7c0,0,0,0-0.1,0c-0.1,0-0.1,0.1-0.1,0.1c0-0.1,0-0.2,0.1-0.3c-0.1,0-0.2,0-0.2,0
							c-0.2,0.2-0.3,0.4-0.4,0.6c-0.1,0.1-0.2,0-0.2,0c0,0-0.1-0.1-0.1-0.1c0-0.1,0-0.2,0-0.2c0-0.2-0.1-0.3-0.3-0.3
							c-0.1,0-0.1,0-0.2,0c0,0,0,0,0,0c0,0-0.1,0-0.1-0.1c0,0-0.1,0-0.1,0c0,0-0.1,0-0.1,0c-0.1,0-0.2,0-0.2,0.1
							c-0.2,0.2-0.3,0.3-0.5,0.4c0-0.1,0-0.2,0-0.3c0-0.2-0.1-0.3-0.2-0.5c-0.1-0.2-0.4-0.2-0.5,0c0,0,0,0,0,0c0,0,0,0,0,0l0,0
							c0,0,0,0,0,0c-0.1-0.1-0.1,0-0.2,0c0-0.1,0.1-0.1,0.1-0.1c0.1-0.1,0.1-0.1,0-0.2c-0.1-0.1-0.2-0.1-0.3,0.1
							c-0.1,0.1-0.1,0.3-0.2,0.4c0,0-0.1,0.1-0.1,0.1c0-0.1,0-0.3,0-0.4c0-0.2,0-0.3-0.2-0.4c0.1,0,0.1,0,0.1-0.1
							c-0.2-0.2-0.3-0.2-0.5-0.1c0,0-0.1,0.1-0.1,0.1c0,0,0-0.1-0.1-0.1c-0.1-0.3-0.3-0.4-0.6-0.5c-0.2,0.1-0.4,0.2-0.5,0.3
							c-0.2,0.1-0.3,0.2-0.3,0.4c0,0,0,0.1,0,0.1c-0.4,0.3-0.8,0.6-1.2,0.9c-0.3,0.2-0.6,0.5-0.9,0.7c-0.2,0.1-0.4,0.2-0.6,0.3
							c-0.1,0.1-0.3,0.1-0.4,0.3c-0.1,0.1-0.1,0.2,0,0.3c0,0.1,0,0.1,0,0.2c-0.3,0.2-0.5,0.4-0.8,0.5c-0.4,0.3-0.8,0.4-1.2,0.8
							c0,0-0.1,0-0.1,0c0,0-0.1-0.1,0-0.1c0,0,0.1-0.1,0.1-0.1c0.5-0.3,0.9-0.6,1.4-0.9c0.1,0,0.2-0.1,0.2-0.2
							c-0.1,0-0.2,0.1-0.3,0.1c-0.4,0.3-0.8,0.5-1.2,0.8c-0.3,0.2-0.3,0.2-0.5,0.6c0,0,0,0,0.1,0c0,0,0.1,0,0.1,0c0,0,0,0.1,0,0.1
							c0,0-0.1,0.1-0.1,0.1c-0.1,0.1-0.2,0.2-0.3,0.3c-0.4,0.3-0.8,0.7-1.2,1.1c-0.1,0.1-0.2,0.2-0.3,0.3c-0.1,0.1-0.1,0.1-0.3,0.1
							c0,0-0.1,0-0.1,0.1c0,0-0.1,0-0.1,0.1c-0.2,0.3-0.4,0.6-0.6,0.9c-0.2,0.3-0.3,0.6-0.5,0.9c0,0.2,0,0.4,0.1,0.5
							c0.1,0.4,0.2,0.8,0.3,1.1c0,0.1,0,0.1,0.1,0.2c0-0.2,0-0.3,0-0.5c0.1,0,0.1,0.2,0.3,0.2c0-0.1,0-0.1,0-0.2
							c-0.1-0.2-0.1-0.4-0.2-0.6c0-0.1,0-0.2,0.1-0.3c0.1-0.2,0.2-0.4,0.3-0.6c0.2-0.4,0.4-0.7,0.6-1.1c0-0.1,0.1-0.2,0.2-0.3
							c0.3-0.2,0.6-0.4,0.9-0.7c0.2-0.2,0.4-0.3,0.6-0.5c0.2-0.2,0.5-0.4,0.6-0.6c0-0.1,0.1-0.1,0.2-0.2c0.1,0,0.2-0.1,0.3-0.1
							c0.3-0.2,0.5-0.3,0.8-0.5c0.3-0.2,0.6-0.3,0.9-0.6c0.1-0.1,0.2-0.2,0.4-0.3c0.1,0,0.1,0,0.1-0.1c0.4-0.2,0.8-0.5,1.2-0.8
							c0.4-0.3,0.8-0.6,1.1-0.9c0.1-0.1,0.2-0.2,0.3-0.3c0,0,0.1-0.1,0.1-0.1c0,0,0.1,0,0.1,0c0,0,0,0.1-0.1,0.1
							c-0.1,0.1-0.2,0.1-0.2,0.2c-0.1,0.1-0.2,0.1-0.2,0.2c-0.2,0.1-0.3,0.3-0.4,0.5c0,0.1-0.1,0.1-0.1,0.2
							c-0.6,0.4-1.2,0.7-1.7,1.1c-0.2,0.1-0.4,0.3-0.4,0.5c0,0,0,0.1-0.1,0.1c-0.3,0.3-0.6,0.6-0.9,0.9c-0.3,0.3-0.5,0.6-0.6,1
							c0,0.1-0.1,0.2,0,0.3c0,0,0,0,0,0c-0.1,0,0,0.1,0,0.2c0,0.1-0.1,0.1-0.1,0.2c-0.1,0.2-0.2,0.3-0.2,0.5c0,0,0,0,0,0
							c-0.1,0.1-0.1,0.2-0.1,0.3c-0.1,0.3-0.2,0.5-0.1,0.8c0,0,0,0.1,0,0.1c0.1,0,0.1-0.1,0.1-0.1c0.1-0.2,0.1-0.3,0.2-0.5
							c0,0,0,0,0,0c0,0,0.1,0,0.1,0c0,0.2,0,0.3-0.1,0.5c0,0.1,0,0.2,0,0.3c0,0,0,0.1,0.1,0.1c0,0,0,0,0.1,0c0.1-0.1,0-0.2,0.1-0.3
							c0-0.1,0.1-0.1,0.1,0c0.1,0.1,0.1,0,0.1,0c0.1-0.1,0.1-0.2,0.2-0.3c0.1-0.2,0.2-0.5,0.2-0.7c0-0.2,0.1-0.3,0.2-0.4
							c0.1-0.1,0.3-0.3,0.4-0.4c0.2-0.2,0.3-0.5,0.5-0.7c0.2-0.3,0.4-0.6,0.5-0.9c0.1-0.2,0.2-0.3,0.3-0.4c0.5-0.2,1-0.5,1.4-0.8
							c0.2-0.2,0.5-0.4,0.5-0.7c0-0.1,0.1-0.2,0.2-0.1c0.1,0,0.2,0,0.3-0.1c0.3-0.1,0.5-0.3,0.7-0.5c0.2-0.2,0.5-0.4,0.7-0.5
							c0,0,0,0,0.1,0c-0.2,0.3-0.5,0.5-0.7,0.8c-0.1,0.1-0.2,0.2-0.3,0.4c-0.1,0,0,0.1,0,0.2c-0.2,0.1-0.3,0.2-0.4,0.4
							c-0.6,0.6-1.2,1.2-1.8,1.8c-0.2,0.2-0.3,0.4-0.5,0.6c0,0.1-0.1,0.1-0.1,0.2c0,0,0,0,0,0c-0.1,0.1-0.1,0.2,0,0.3c0,0,0,0,0,0.1
							l0,0c-0.1,0-0.2,0.1-0.2,0.1c-0.1,0.1-0.1,0.2-0.1,0.3c0,0.6,0,1.2,0,1.8c0,0.3,0.1,0.5,0,0.8c0,0,0,0,0,0c0,0.1,0,0.1,0,0.2
							c0.1,0.5,0.1,1,0.2,1.4c0,0.2,0,0.4,0.3,0.5c0,0,0,0,0,0c0.1,0.1,0.2,0.2,0.3,0.3c0,0.2,0.2,0.3,0.3,0.4
							c0.3,0.2,0.6,0.4,0.9,0.6c0.1,0,0.1,0.1,0.2,0.1c0.1,0.1,0.1,0,0.2-0.1c0,0,0,0,0,0c0,0,0,0,0,0c0.1,0,0.1,0.1,0.2,0.1
							c0.1,0,0.1,0.1,0.2,0.1c0.1-0.1-0.1-0.1,0-0.2c0,0,0-0.1,0-0.1c-0.2-0.2-0.3-0.4-0.5-0.6c-0.4-0.3-0.8-0.6-1.2-0.8
							c0-0.2,0-0.4,0-0.6c-0.1-0.4-0.1-0.8-0.1-1.2c0-0.2,0-0.4-0.1-0.7c0-0.2,0-0.3,0-0.5c0-0.3-0.1-0.6-0.1-0.9c0-0.1,0-0.2,0-0.3
							c0-0.2,0-0.4,0.2-0.5c0.1,0,0.1-0.1,0.1-0.1c0.4-0.4,0.8-0.8,1.2-1.2c0.2-0.3,0.5-0.5,0.7-0.8c0.2-0.2,0.3-0.4,0.5-0.7
							c0.1-0.1,0.1-0.2,0.2-0.3c0.1,0,0.2-0.1,0.2-0.2c0.2-0.3,0.5-0.6,0.8-0.8c0.1-0.1,0.2-0.1,0.3-0.1c0.1,0,0.2,0,0.2-0.1
							c0.1-0.1,0.2-0.3,0.3-0.5c0.1-0.3,0.3-0.5,0.6-0.6c0,0,0,0.1,0,0.1c-0.1,0.1,0,0.2-0.1,0.3c0,0,0,0,0,0
							c-0.1,0.1-0.1,0.2-0.1,0.2c-0.3,0.3-0.6,0.6-0.8,0.8c-0.2,0.3-0.4,0.5-0.6,0.8c0,0.1-0.1,0.1-0.1,0.2c0,0.1,0,0.1-0.1,0.2
							c-0.2,0.2-0.4,0.5-0.7,0.8c-0.4,0.5-0.8,1-1.1,1.5c-0.3,0.4-0.6,0.8-0.8,1.2c0,0,0,0,0,0c-0.2,0.2-0.3,0.5-0.2,0.7
							c-0.1,0.1,0,0.2,0,0.2c0.1,0.3,0.2,0.5,0.3,0.7c0.5,0.8,1,1.6,1.5,2.4c0.5,0.8,1,1.6,1.6,2.4c0.3,0.5,0.6,0.9,1,1.4
							c0,0.1,0.1,0.2,0.2,0.2c0.1,0.2,0.3,0.4,0.6,0.4c0,0,0.1,0,0.1,0c0.1,0.1,0.3,0.1,0.4,0.1c0.6,0.1,1.1,0.2,1.7,0.2
							c0.1,0,0.2,0,0.3,0c0.2,0,0.5-0.1,0.7-0.1c0.1,0,0.1-0.1,0.2-0.1c0.1,0,0.1-0.1,0.1-0.2c0-0.1-0.1-0.1-0.1-0.1
							c-0.1,0-0.1,0-0.2,0c0.1-0.1,0.1-0.1,0.1-0.3c0-0.1,0-0.1-0.1-0.1c-0.3,0.1-0.7,0-1,0c-0.3,0-0.5-0.1-0.8-0.1
							c-0.3,0-0.7-0.1-1-0.1c-0.1,0-0.3,0-0.4,0.1c-0.2-0.3-0.4-0.6-0.5-0.8c-0.5-0.8-1-1.5-1.5-2.3c-0.6-0.9-1.2-1.7-1.7-2.6
							c-0.2-0.3-0.3-0.5-0.5-0.8c0.1-0.1,0.2-0.2,0.3-0.4c0.1-0.2,0.3-0.4,0.4-0.6c0.3-0.4,0.6-0.8,1-1.3c0.3-0.4,0.6-0.8,0.9-1.2
							c0.1-0.2,0.3-0.4,0.4-0.7c0,0,0-0.1,0.1-0.1c0.3-0.3,0.6-0.6,0.9-0.9c0.1-0.1,0.2-0.3,0.3-0.4c0.1-0.1,0.2-0.1,0.3-0.1
							c0.2,0,0.4-0.1,0.5-0.3c0.1-0.2,0.1-0.4,0.2-0.7c0-0.1,0-0.2,0.1-0.2c0.2,0,0.3-0.1,0.3-0.2c0,0,0.1-0.1,0.1-0.1
							c0,0.1,0,0.1-0.1,0.2c-0.1,0.2-0.2,0.3-0.3,0.5c-0.1,0.2-0.3,0.5-0.4,0.7c-0.1,0.1-0.1,0.2-0.2,0.3c-0.1,0.1-0.2,0.2-0.2,0.4
							c0,0,0,0.1-0.1,0.1c0,0-0.1,0.1-0.1,0.1c-0.1,0.2-0.3,0.4-0.4,0.6c-0.3,0.5-0.6,1-0.8,1.5c-0.1,0.2-0.2,0.4-0.3,0.6
							c-0.1,0.2,0,0.3,0.1,0.5c0.1,0.1,0.1,0.2,0.1,0.4c0,0.5,0,0.9,0,1.4c0.1,0.5,0.2,1,0.5,1.5c0.1,0.1,0.1,0.2,0.2,0.3
							c0.1,0.1,0.1,0.1,0.2,0.2c0.3,0.6,0.6,1.2,1.1,1.7c0,0,0,0,0,0.1c0.2,0.2,0.4,0.5,0.7,0.6c0.3,0.1,0.5,0.2,0.8,0.2
							c0.3,0.1,0.6,0.1,0.9,0c0.5-0.2,0.9-0.5,1.3-0.8c0.1-0.1,0.1-0.1,0.2-0.2C38,43.5,38,43.5,37.9,43.5z M27.3,37.3L27.3,37.3
							C27.3,37.3,27.3,37.3,27.3,37.3C27.3,37.3,27.3,37.3,27.3,37.3z M28.2,43.5C28.2,43.5,28.2,43.5,28.2,43.5L28.2,43.5
							C28.2,43.5,28.2,43.5,28.2,43.5C28.2,43.5,28.2,43.5,28.2,43.5C28.2,43.5,28.2,43.5,28.2,43.5C28.2,43.5,28.2,43.5,28.2,43.5z
							"/>
						<rect x="28.2" y="43.5" fill-rule="evenodd" clip-rule="evenodd" fill="#F2F0EF" width="0" height="0"/>
						<path fill-rule="evenodd" clip-rule="evenodd" fill="#F2F0EF" d="M41.8,32c-0.1,0-0.2-0.1-0.3-0.1c-0.1,0-0.2-0.1-0.3-0.1
							c-0.1,0-0.3,0-0.4,0c-0.3,0.1-0.6,0.1-0.8,0.2c-0.1,0-0.2,0.1-0.3,0.1c-0.1,0,0,0.1,0,0.1c0,0,0,0,0,0c-0.1,0-0.2,0.1-0.3,0
							c0,0,0,0,0,0c0,0,0,0,0,0c0,0,0,0,0,0c-0.1,0-0.2,0-0.3,0c-0.1,0-0.2,0-0.3,0.1c-0.1,0.1-0.3,0.2-0.4,0.1
							c-0.1,0-0.1,0-0.2,0.1c-0.1,0.1-0.2,0.1-0.2,0.3c0,0.1,0,0.1-0.1,0.2c0,0.1-0.1,0.2-0.2,0.2c-0.1,0.1-0.1,0-0.2,0l0,0
							c0-0.1,0-0.2-0.1-0.2c0-0.1,0-0.2-0.2-0.3c0,0,0,0,0,0c0,0,0-0.1,0-0.1c0-0.2-0.1-0.2-0.2-0.1c0,0-0.1,0-0.1,0
							c-0.1,0.3-0.2,0.6-0.4,0.8c-0.2,0.4-0.4,0.7-0.5,1.1c0,0.1-0.1,0.2-0.1,0.3c0,0.1,0,0.2-0.1,0.3c-0.1,0.2-0.2,0.4-0.4,0.6
							c-0.4,0.7-0.7,1.3-0.8,2.1c0,0.2-0.1,0.4,0.1,0.6c0,0,0,0,0,0c0,0,0,0.1,0,0.1c0,0,0,0.1,0,0.1c0,0,0,0.1,0,0.1
							c0,0.2,0.1,0.3,0.1,0.5c0.3,0.8,0.7,1.6,1.3,2.2c0.1,0.3,0.4,0.5,0.6,0.7c0,0,0,0,0,0c0.2,0,0.3,0.1,0.4,0.2
							c0.2,0.1,0.4,0.2,0.5,0.2c0.5,0.2,1.1,0.3,1.7,0.3c0.2,0,0.4,0,0.6-0.1c0,0,0.1,0,0.1,0c0.6-0.1,1.1-0.3,1.5-0.6
							c0,0,0.1-0.1,0.1-0.1c0.1-0.1,0.2-0.1,0.1-0.2c-0.1-0.1-0.1,0-0.2,0c-0.1,0-0.1,0.1-0.2,0.1c-0.1,0-0.1,0-0.1-0.1
							c0.1-0.1,0.2-0.2,0.3-0.3c0-0.1,0.1-0.1,0-0.2c-0.1,0-0.2,0-0.1,0.1c0,0.1,0,0.1-0.1,0.1c-0.1,0.1-0.2,0.1-0.2,0.2
							c-0.2,0.1-0.5,0.2-0.7,0.2c-0.1,0-0.2,0.1-0.3,0.1c-0.2,0.1-0.4,0.1-0.5,0.2c-0.1,0.1-0.1,0-0.1-0.1c0,0,0-0.1,0-0.1
							c-0.1,0-0.1-0.1-0.2,0c0,0,0,0,0,0c-0.2-0.2-0.4-0.2-0.6-0.3c-0.5-0.1-1-0.2-1.5-0.3c-0.1,0-0.2,0-0.2-0.1
							c-0.1-0.4-0.3-0.6-0.5-0.8c0,0,0,0,0,0c0-0.1-0.1-0.1-0.1-0.2c-0.3-0.5-0.6-0.9-0.9-1.4c0,0,0,0,0,0c0.1-0.1,0.2-0.2,0.2-0.3
							c0.1-0.2,0.2-0.4,0.2-0.6c0.1-0.3,0.2-0.6,0.3-0.9c0.2-0.5,0.3-1,0.4-1.5c0-0.1,0-0.1,0.1-0.2c0.3-0.2,0.6-0.5,0.7-0.8
							c0.1-0.2,0.2-0.5,0.3-0.8c0-0.1,0.1-0.2,0.2-0.2c0,0.1,0.2,0.2,0.2,0.4c-0.1,0.1-0.2,0.3-0.3,0.5c-0.3,0.7-0.5,1.3-0.6,2
							c-0.1,0.6-0.2,1.3-0.2,1.9c0,0.3,0.1,0.6,0.4,0.8c0,0.1,0.1,0.2,0.1,0.2c0.1,0.1,0.1,0.1,0.2,0.1c0.1,0,0.2-0.1,0.2-0.2
							c0-0.2,0-0.3,0-0.5c0-0.2,0.1-0.5,0.1-0.7c0.1-0.2,0.1-0.5,0.2-0.7c0,0,0-0.1,0-0.1c0-0.1,0-0.2,0.1-0.3c0-0.1,0.1-0.2,0-0.3
							c0-0.1,0-0.2,0.1-0.3c0.1-0.1,0.1-0.2,0.1-0.3c0.1-0.2,0.2-0.4,0.2-0.7c0,0,0,0,0,0c0.1-0.1,0.1-0.3,0.1-0.5
							c0-0.1,0.1-0.2,0.2-0.2c0.1,0,0.1,0,0.2,0c0.3-0.1,0.7-0.2,0.9-0.4c0,0,0.1-0.1,0.2-0.1c0.1,0,0.1-0.1,0.1-0.1
							c0.2-0.3,0.3-0.6,0.5-0.8c0.2-0.4,0.5-0.8,0.9-1C41.9,32.2,41.9,32.1,41.8,32z M35.7,40.5C35.7,40.5,35.7,40.5,35.7,40.5
							C35.7,40.5,35.7,40.5,35.7,40.5C35.7,40.5,35.7,40.5,35.7,40.5z M39.2,42.5C39.2,42.5,39.2,42.5,39.2,42.5
							C39.2,42.5,39.2,42.5,39.2,42.5C39.2,42.5,39.2,42.5,39.2,42.5z"/>
					</g>
					<path fill-rule="evenodd" clip-rule="evenodd" fill="#DAD4D2" d="M37.1,24.1l1,1.4l0.5,0.7v1l-0.2,0.9l0,0.9l0.3,0.5
						c0,0,0.1,0.2,0.5,0.3c0.3,0.1,0.8,0.3,1.1,0.3c0.3,0,0.6,0,0.9,0c0.4,0,0,0,0.8,0c0.7,0,0.8-0.2,0.8-0.2s0.3-0.1,0.4-0.3
						c0.1-0.2,0.1,0,0.2-0.3c0-0.3,0.2-0.5,0.1-0.7c0-0.2,0-0.4,0-0.6c0-0.3,0.1-0.2,0-0.7c-0.1-0.5,0-0.5-0.1-0.8
						c-0.1-0.3-0.1-0.4-0.1-0.7c-0.1-0.3-0.1-0.6-0.1-0.9c0-0.3-0.1-0.2-0.1-0.4c0-0.2-0.1-0.4-0.1-0.5c0-0.1,0-0.2-0.1-0.3
						c-0.1-0.1,0.2-0.3-0.2-0.3c-0.4,0.1-0.8,0-0.8,0s-0.3,0-0.4,0c-0.2,0-0.2,0.1-0.4,0c-0.3-0.1-0.6,0-1,0c-0.4,0-0.5-0.2-0.9,0
						c-0.4,0.2-1.4,0.4-1.4,0.4s0,0-0.1,0c-0.2,0-0.6,0.2-0.6,0.2L37.1,24.1z"/>
					<path fill-rule="evenodd" clip-rule="evenodd" fill="#DAD4D2" d="M43.1,23.6c0,0,0,0,0.1,0.1c0.1,0.1,0-0.1,0.1,0.1
						c0,0.2,0.1,0.2,0.1,0.4c0,0.2,0,0.1,0.1,0.3c0,0.1,0.1,0.4,0.1,0.4c0,0.1,0.1,0.2,0.1,0.4c0,0.1,0.1,0.1,0.1,0.3
						c0,0.2,0.1,0.3,0,0.6c0,0.3,0,0.3,0,0.4c0,0.2,0,0.5,0,0.5c0,0,0,0.4,0,0.7c0,0.3,0,0.3,0,0.5c0,0.2,0.1,0.5,0.1,0.6
						c0,0.1,0.2,0,0,0.3c-0.2,0.3-0.1,0-0.2,0.3c-0.1,0.3-0.2,0.2-0.1,0.3c0.1,0.2,0,0.1,0.2,0.3c0.2,0.2-0.2,0.2,0.4,0.4
						c0.6,0.2,0.2,0.2,0.8,0.3c0.7,0.1,0.8,0.2,1.1,0.1c0.3,0,0.4,0.2,0.7,0c0.3-0.2,0.4-0.2,0.7-0.6c0.4-0.3,0.7-0.6,0.7-1.1
						c-0.1-0.4,0-0.3,0-0.7c0-0.4,0.1-0.5,0-1c-0.1-0.5,0-1.7,0-1.7s0-0.5,0-0.6c0-0.1,0-0.2,0-0.4c0-0.2,0.1-0.2,0-0.4
						c-0.2-0.1-0.1-0.2-0.4-0.3c-0.3-0.1-0.4-0.2-0.7-0.2c-0.2,0-0.6,0-0.8-0.1c-0.3-0.1-0.3-0.3-0.7-0.3c-0.4,0-0.2,0-0.8-0.1
						c-0.6-0.1-0.4-0.2-0.8-0.2c-0.4,0-0.7,0.2-0.7,0.2L43.1,23.6z"/>
				</g>
			</g>
			<path fill-rule="evenodd" clip-rule="evenodd" fill="#DAD4D2" d="M49.6,25.6v0.3c0,0-0.5,0.2-0.4,0.4c0.1,0.2-0.3-0.3-0.1,0.2
				c0.2,0.6-0.2,0.8-0.2,1.1c0,0.3-0.1,0.2-0.1,0.5c0,0.3,0,0.1,0,0.6c0,0.4-0.2,0.7-0.2,0.7c0,0-0.2,0.1-0.3,0.4
				c-0.1,0.3-0.1,0.3-0.1,0.5c0,0.2,0.1-0.3,0,0.2c-0.1,0.6,0.1,0.9,0.3,1c0.3,0.1-0.4,0.1,0.3,0.1c0.7,0,0.2-0.1,1,0
				c0.8,0.1,1.1,0.4,1.4,0.1c0.3-0.3,0.3-0.2,0.6-0.7c0.3-0.4,0.5-0.4,0.6-0.9c0.1-0.5,1-0.8,0.1-1.5c0,0-0.4-0.5-0.7-0.9
				c-0.3-0.4-1.1-0.9-1.1-0.9s-0.4-0.4-0.5-0.5C50,26,49.8,25.7,49.6,25.6c-0.1,0-0.2-0.5-0.2-0.5L49.6,25.6z"/>
			<path fill-rule="evenodd" clip-rule="evenodd" fill="#DAD4D2" d="M53.6,30.4l-0.8,0.4l-0.7,0.6c0,0-0.2,0.2-0.5,0.5
				c-0.3,0.3-0.4,0.3-0.4,0.3s-0.3,0.2-0.6,0.4c-0.3,0.2-0.4,0.3-0.6,0.2c-0.2,0-0.6-0.1-0.8-0.1c-0.1,0-0.4,0.1-0.4,0.1
				s-0.1-0.2-0.2,0.4c-0.1,0.6,0,0.6,0,1c0,0.3-0.2-0.2,0,0.3c0.2,0.5-0.1,0.4,0.3,0.9c0.4,0.5,0.2,0.5,0.4,0.5
				c0.2,0-0.2-0.3,0.4,0.2c0.6,0.5-0.2,0.3,0.8,0.3c1.1,0,1-0.3,1.4-0.2c0.4,0.1,0.8,0.3,0.8-0.1c0-0.3-0.1,0.1,0.3-0.6
				c0.3-0.7,0.6-0.6,0.6-1.2c0-0.6,0-1,0-1s0.4-0.5,0.2-1.2c-0.2-0.6-0.2-1.5-0.2-1.5V30.4z"/>
			<path fill-rule="evenodd" clip-rule="evenodd" fill="#DAD4D2" d="M52.4,37.4c0,0,0.1-0.4,0,0.4c-0.1,0.8-0.3,1.1-0.4,1.3
				c-0.1,0.3-0.6,0.8-0.7,1.2c-0.1,0.3-0.4,0.6-0.4,0.6h-0.3c0,0-0.8,0.1-1.1-0.5c-0.3-0.5-0.5-0.4-0.5-0.8c0-0.4,0.3-0.4,0.1-0.8
				c-0.1-0.4-0.2-0.9-0.1-1c0.2,0,0.2-0.2,0.6-0.2c0.5,0-0.2-0.2,0.7-0.1c1,0.1,1.1,0.1,1.3,0c0.3-0.1,0.3-0.1,0.3-0.1L52.4,37.4z"
				/>
			<path fill-rule="evenodd" clip-rule="evenodd" fill="#DAD4D2" d="M50.4,41.8c0,0-0.1-0.2-0.4,0.5c-0.3,0.6-1,1.7-1,1.7
				s0.3,0.3,0.1,0.5c-0.3,0.3-0.3,0-0.5,0.5c-0.3,0.5-0.6,1-0.7,1c-0.1,0.1,0.2,0-0.4,0.4c-0.6,0.4-0.6,0.1-0.7,0.4
				c-0.1,0.3-0.5,0.1-0.5,0.1s-0.3-0.2-0.2-0.3c0.1-0.1,0,0.2,0-0.5c-0.1-0.6,0-0.6,0.2-1c0.1-0.4-0.3-0.9,0.4-1.3
				c0.8-0.4,0.4-0.4,0.8-0.8c0.4-0.4,0.3,0,0.7-0.5c0.4-0.5,0.3-0.4,0.6-0.6c0.3-0.2,0.1-0.2,0.4-0.3c0.3-0.1,0.9-0.2,0.9-0.2
				L50.4,41.8z"/>
			<path fill-rule="evenodd" clip-rule="evenodd" fill="#DAD4D2" d="M30.3,25.1c0.1,0.5,0.1,0.9,0.1,0.9s0.1-0.6,0,0.5
				c-0.1,1.1-0.3,1,0,1.6c0.3,0.7,0.3,0.6,0.7,1.1c0.5,0.4,0.2,0.2,0.8,0.3c0.6,0.1,0-0.1,1.3,0c1.3,0.1,1.6-0.1,1.9,0
				c0.4,0.1,0.3,0.1,0.8,0.1c0.5,0,1.5-0.2,1.5-0.2l0.4-0.2c0,0,0.1-0.1,0-0.7c-0.1-0.6-0.3-0.4-0.3-1c0-0.6-0.1-0.8-0.2-1.2
				c-0.1-0.4,0.1-0.2-0.1-0.6c-0.2-0.4-0.2-0.4-0.3-0.7c-0.1-0.3-0.2-0.4-0.2-0.6c0-0.2,0.3-0.1,0-0.2c-0.3-0.1-1-0.3-1-0.3
				s-0.4-0.1-0.8-0.2c-0.4-0.1-2.8,0-2.8,0c-0.2-0.2-0.8,0.1-1.2,0c-0.4-0.1-0.6,0-0.7,0c-0.1-0.1-0.4,0.1-0.4,0.1l-0.2,0.3
				c0,0-0.2,0,0.1,0.3c0.3,0.3,0-0.2,0.3,0.3C30.3,25.1,30.3,25.1,30.3,25.1z"/>
		</g>
		<path fill="#6EC1CD" d="M32.2,0C14.4,0,0,14.4,0,32.2c0,17.8,14.4,32.2,32.2,32.2s32.2-14.4,32.2-32.2C64.3,14.4,49.9,0,32.2,0z
			 M32.2,63.3C15,63.3,1,49.4,1,32.2S15,1,32.2,1s31.2,14,31.2,31.2S49.4,63.3,32.2,63.3z"/>
	</g>
</g>
</svg>
