<!-- Generator: Adobe Illustrator 18.0.0, SVG Export Plug-In  -->
<svg version="1.1"
	 xmlns="http://www.w3.org/2000/svg" xmlns:xlink="http://www.w3.org/1999/xlink" xmlns:a="http://ns.adobe.com/AdobeSVGViewerExtensions/3.0/"
	 x="0px" y="0px" width="70px" height="70px" viewBox="0 0 70 70" enable-background="new 0 0 70 70" xml:space="preserve">
<defs>
</defs>
<g>
	<g>
		<g>
			<g>
				<g>
					<path fill-rule="evenodd" clip-rule="evenodd" fill="#252324" d="M21.9,27.7c0.1,0.1,0.2,0,0.3,0.1c0,0,0.1,0,0.2,0.1
						c0.1,0,0.1,0.1,0.1,0.1c0.1,0.1,0.1,0.2,0.1,0.3c0,0.1,0.1,0.2,0,0.4c0,0.2,0,0.4-0.1,0.6c-0.1,0.2-0.3,0.4-0.6,0.5
						c-0.3,0.1-0.6,0.2-0.9,0.1c-0.1,0-0.2,0-0.2,0c-0.2-0.1-0.4-0.2-0.6-0.3C20.1,29.4,20,29.2,20,29c0-0.1,0.1-0.2,0.2-0.1
						c0.1,0.1,0.2,0.1,0.4,0.1c0.1-0.1,0.3-0.1,0.4,0c0.2,0.1,0.4,0,0.5-0.2c0-0.1,0.1-0.2,0.1-0.3c0-0.1,0.1-0.2,0.2-0.3
						c0.2-0.1,0.2-0.2,0.1-0.4C21.8,27.8,21.7,27.7,21.9,27.7z"/>
					<path fill-rule="evenodd" clip-rule="evenodd" fill="#252324" d="M20,28.9c0-0.2,0-0.3,0-0.5c0.1-0.4,0.4-0.6,0.8-0.7
						c0.4-0.1,0.8-0.1,1.1,0c0,0-0.1,0-0.1,0.1c0,0.1,0.1,0.1,0.1,0.2c0,0.1,0,0.2-0.2,0.3c-0.1,0-0.2,0.2-0.3,0.3
						c0,0.1,0,0.1-0.1,0.3c-0.1,0.2-0.3,0.4-0.6,0.2c-0.1,0-0.2-0.1-0.3,0c-0.1,0.1-0.2,0-0.3,0.1c-0.1,0-0.1,0-0.1-0.1
						C20.2,29,20.1,29,20,28.9c0,0.1,0.1,0.1,0,0.1C20,29,20,29,20,28.9z"/>
					<path fill-rule="evenodd" clip-rule="evenodd" fill="#252324" d="M20.5,28c0.2-0.3,0.8-0.4,1-0.1c0.1,0.1,0.1,0.1,0.1,0.2
						c-0.1,0.2-0.1,0.4-0.2,0.6c0,0.1-0.1,0.2-0.2,0.3c-0.1,0-0.2,0-0.3-0.1c-0.2-0.2-0.2-0.2-0.3,0c-0.1,0.1-0.3,0.1-0.3-0.1
						C20.1,28.5,20.2,28.1,20.5,28c0,0.1-0.1,0.2-0.1,0.2c0,0.1-0.1,0.1-0.1,0.2c0,0.1,0,0.2,0.2,0.1c0.1-0.1,0.2-0.1,0.4,0
						c0.2,0.1,0.2,0.1,0.3-0.1c0-0.1,0.1-0.2,0.2-0.3c0-0.1,0.1-0.2,0-0.3c-0.1-0.1-0.2-0.1-0.3-0.1C20.8,27.9,20.7,28.1,20.5,28z"
						/>
					<path fill-rule="evenodd" clip-rule="evenodd" fill="#252324" d="M20.4,28c0.1,0,0.2-0.1,0.4-0.1c0.1,0,0.1,0,0.2,0
						c0.2,0,0.3,0.1,0.3,0.3c-0.1,0.3,0.2,0.2-0.2,0.6c-0.1,0.1-0.1,0.1-0.2,0c-0.2-0.2-0.2-0.1-0.4,0c-0.1,0.1-0.2,0-0.2-0.1
						c0-0.2,0.1-0.3,0.2-0.4C20.4,28.1,20.4,28.1,20.4,28L20.4,28z"/>
				</g>
				<path fill-rule="evenodd" clip-rule="evenodd" fill="#B4AA91" d="M20.8,28c0.2,0,0.2,0,0.2,0.2c0,0,0,0.1,0,0.1
					c0,0.1-0.1,0.2-0.3,0.2c-0.1,0-0.1,0-0.2,0c-0.1,0-0.2-0.1-0.2-0.2c0-0.1,0.1-0.2,0.2-0.2C20.6,28,20.8,28,20.8,28z"/>
			</g>
			<g>
				<g>
					<g>
						<path fill-rule="evenodd" clip-rule="evenodd" fill="#D3D0CE" d="M64.5,19.4c-0.1,0-0.2-0.1-0.3-0.1l-3.8-1
							c-1.1-0.2-2.1-0.5-3.2-0.7c-0.8-0.1-1.5-0.3-2.3-0.4c-0.6-0.1-1.2-0.2-1.9-0.3c-0.6-0.1-1.2-0.2-1.7-0.3
							c-0.5-0.1-1.1-0.2-1.6-0.2c-0.5-0.1-1-0.1-1.6-0.2c-0.1,0-0.1,0-0.2,0c0,0-0.1,0-0.1,0c-0.1,0-0.1,0-0.2,0c0,0-0.1,0-0.1,0
							c-0.1,0-0.1,0-0.2,0c0,0-0.1,0-0.1,0C47.2,16,47,16,46.8,16c0,0-0.1,0-0.1,0c-0.1,0-0.1,0-0.2,0c0,0-0.1,0-0.1,0
							c-0.1,0-0.1,0-0.2,0c0,0-0.1,0-0.1,0c-0.1,0-0.1,0-0.2,0c-0.1,0-0.1,0-0.2,0c0,0-0.1,0-0.1,0c0,0-0.1,0-0.1,0
							c-0.1,0-0.1,0-0.2,0c0,0-0.1,0-0.1,0c-0.4-0.1-0.7-0.1-1.1-0.2c-0.5-0.1-0.9-0.1-1.4-0.2c-0.4-0.1-0.8-0.1-1.2-0.2
							c-0.4-0.1-0.9-0.1-1.3-0.2C39.9,15,39.7,15,39.6,15c-0.3,0-0.5-0.1-0.8-0.1c-0.4-0.1-0.9-0.1-1.3-0.1c-0.4,0-0.8-0.1-1.2-0.1
							c-0.1-0.1-0.2,0-0.3,0c-0.1,0-0.2,0-0.3,0c-0.1-0.1-0.1,0-0.2,0c-0.1,0-0.2,0-0.3,0c-0.1-0.1-0.2,0-0.3,0c-0.2,0-0.4,0-0.7,0
							c-0.7,0-1.4-0.1-2.1-0.1c-0.8,0-1.6,0-2.3,0c-0.6,0-1.3,0-1.9,0c-1,0-2.1,0-3.1,0.1c-0.6,0-1.2,0.1-1.8,0.1c0,0-0.1,0-0.1,0
							c-0.1,0-0.2,0-0.3,0c-0.1,0-0.1,0-0.2,0c-0.2,0-0.4,0-0.6,0c-0.6,0-1.2,0.1-1.8,0.2c-0.7,0.1-1.4,0.2-2.1,0.3
							c-0.6,0.1-1.2,0.2-1.8,0.4c-0.1,0-0.3,0-0.4,0.1c0,0,0,0,0,0c0,0,0,0,0,0c0,0-0.1,0-0.1,0c-1.7,0.5-3.2,1.2-4.7,2.2
							c-0.4,0.3-0.7,0.6-1.1,0.8c0,0-0.1,0-0.1,0c-0.8,0.4-1.5,0.8-2.1,1.4c-0.8,0.7-1.4,1.5-1.9,2.4c-0.4,0.8-0.6,1.5-0.8,2.4
							c-0.1,0.5-0.1,1-0.1,1.4c0,0,0,0.1,0,0.1c0,0.3,0,0.5,0,0.8c0,0.1,0,0.3,0,0.4c0,0.3,0.1,0.5,0.1,0.8c0,0,0,0,0,0
							c0,0.1,0,0.1,0,0.2c0,0.3,0.1,0.6,0.1,0.8c0.3,1.2,0.8,2.3,1.7,3.3c0.2,0.2,0.3,0.3,0.5,0.5c0,0,0,0.1,0,0.1
							c0.2,0.2,0.4,0.4,0.7,0.6c0.6,0.5,1.3,0.9,2,1.2c0.6,0.2,1.2,0.5,1.8,0.6c0.4,0.1,0.8,0.2,1.2,0.2c0.4,0.1,0.7,0.1,1.1,0.1
							c0.6,0,1.1,0,1.7,0c0.4,0,0.8-0.1,1.1-0.2c1.1-0.3,2.1-0.8,3.2-1.3c0.6-0.3,1.2-0.6,1.9-0.9c0.5-0.3,1.1-0.5,1.6-0.8
							c0.4-0.2,0.7-0.2,1.1-0.1c0.1,0,0.2,0,0.2,0c0.4-0.1,0.7-0.2,1.1-0.3c0.1,0,0.2,0,0.4,0c0.3,0,0.5,0,0.8-0.1
							c0.1-0.1,0.2-0.1,0.3,0c0.1,0,0.2,0,0.2,0.1c0.1,0,0.2,0,0.2,0.1c0,0.1-0.2,0.1-0.2,0.1c-0.2,0.1-0.5,0.1-0.7,0.2
							c-0.1,0-0.1,0-0.2,0c-0.3-0.1-0.5,0-0.7,0.1c-0.1,0-0.2,0.1-0.4,0.1c-0.1,0-0.2-0.1-0.4,0c-0.1,0-0.3,0-0.3,0.1c0,0,0,0,0,0
							c-0.1,0-0.2,0-0.2,0.1c0,0.1-0.1,0-0.1,0c0,0,0-0.1,0-0.1c0,0,0.1,0,0.1-0.1c-0.1,0-0.2,0.1-0.2,0.2c0,0.1,0.1,0.2,0.2,0.2
							c0,0,0,0,0.1,0c0,0,0,0.1,0,0.1c0,0.2,0.1,0.3,0.3,0.3c0.3,0.1,0.6,0.1,1,0.2c0.5,0,1,0,1.6-0.1c0.2,0,0.5-0.1,0.7-0.2
							c0.1-0.1,0.3-0.1,0.4-0.2c0.2,0,0.4-0.1,0.6-0.3c0-0.1,0.1-0.1,0.2-0.1c0.1,0,0.3-0.1,0.4-0.1c0,0,0.1,0,0.1,0
							c0.2,0,0.3,0.1,0.5,0.1c0.1,0,0.1,0,0.1,0.1c-0.1,0-0.2,0-0.2,0.1c-0.4,0.2-0.8,0.4-1.2,0.5c-0.2,0.1-0.3,0.1-0.5,0.2
							c-0.1,0-0.1,0-0.1,0.1c0,0.1-0.1,0.1-0.2,0.1c-0.5,0-1,0.1-1.4,0.3c-0.1,0-0.1,0.1-0.2,0.2c-0.1,0-0.2,0.1-0.3,0.1
							c-0.8,0.3-1.7,1.4-1.7,2c0.1-0.1,0.1-0.3,0.2-0.4c0-0.1,0-0.1,0.1-0.2c0.1,0,0.2-0.1,0.3-0.2c0.2-0.1,0.3-0.3,0.5-0.4
							c0,0,0.1,0,0.1-0.1c0.2-0.2,0.5-0.3,0.8-0.5c0.2-0.1,0.4-0.2,0.6-0.2c-0.1,0.1-0.3,0.2-0.5,0.3c-0.3,0.1-0.5,0.2-0.7,0.4
							c-0.2,0.2-0.4,0.4-0.6,0.7c-0.1,0.1-0.2,0.1-0.2,0.3c0,0,0,0.1,0,0.1c0,0,0.1,0,0.1,0c0.1-0.1,0.1-0.1,0.2-0.2
							c0.1-0.1,0.2-0.2,0.3-0.3c0.3-0.1,0.5-0.3,0.7-0.5c0.2-0.1,0.4-0.3,0.7-0.4c0.4-0.1,0.8-0.2,1.2-0.3c0.2,0,0.3-0.1,0.5-0.1
							c0.1,0,0.3,0,0.4-0.1c0.3-0.1,0.6-0.1,0.8-0.2c0.4-0.1,0.8-0.2,1.1-0.3c0.1-0.3,0.3-0.4,0.5-0.5c0.1,0,0.2-0.1,0.3-0.2
							c0.1,0,0.1-0.1,0-0.1c0.1,0,0.1,0.1,0.2,0.1c0.3,0,0.4,0.2,0.4,0.4c0,0.1,0,0.2,0.1,0.2c0,0,0.1,0,0.1-0.1
							c0.4-0.2,0.2-0.2,0.6,0c0,0.1-0.1,0.1-0.2,0.1c0,0,0,0,0,0c0.3,0.1,0.3,0.2,0.2,0.5c0,0.2,0,0.3,0.1,0.5
							c0-0.1,0.1-0.1,0.1-0.2c0.1-0.1,0.2-0.2,0.3-0.4c0.1-0.2,0.1-0.2,0.3-0.1c0,0,0,0,0,0.1c-0.1,0.1-0.2,0.2-0.3,0.4
							c0,0,0.1,0,0.1,0c0,0,0.1-0.1,0.2-0.1l0,0c0.1-0.1,0.2-0.1,0.3-0.1c0.1,0,0.2,0.1,0.2,0.2c0.1,0.2,0.1,0.3,0.1,0.5
							c0,0.1,0,0.2,0.1,0.2c0.2-0.1,0.4-0.3,0.6-0.5c0.1-0.1,0.1-0.1,0.2-0.1c0,0,0.1,0,0.1,0c0,0,0.1,0,0.1,0l0,0c0,0,0,0,0.1,0
							c0,0,0,0,0.1,0c0,0,0,0,0.1,0c0.4,0,0.4,0,0.5,0.4c0,0.1,0,0.2,0.2,0.2c0.1,0,0.2,0,0.2-0.1c0,0,0,0,0,0
							c0.2-0.1,0.3-0.2,0.4-0.4c0-0.1,0.1-0.1,0.1-0.2c0.1,0,0.1,0,0.1,0.1c0,0.1-0.1,0.3,0,0.4c0.1,0,0-0.1,0-0.2
							c0-0.1,0-0.1,0.1-0.1c0,0,0,0,0,0c-0.1,0-0.1,0.1-0.1,0.2c0.1,0,0.2,0,0.3,0.2c0,0.1,0.1,0.2,0.1,0.3c0,0.1,0.1,0.2,0.2,0
							c0.1-0.1,0.1-0.1,0.1-0.2c0-0.1,0-0.2-0.1-0.3c-0.1-0.1-0.2-0.3-0.4-0.3c-0.1,0-0.2,0-0.3,0c0-0.1,0.1-0.1,0.2-0.1
							c0.1,0,0.2,0,0.3,0c0.2,0,0.2,0,0.3,0.2c0,0.1,0.1,0.2,0.2,0.3c0,0,0,0,0,0c0.1,0,0.1,0,0.2,0c0.1,0,0.1,0,0.2-0.1
							c0,0,0,0,0,0c0.2-0.2,0.4-0.5,0.5-0.8c0.1,0,0.2-0.1,0.2-0.1c-0.1,0.1-0.2,0.2-0.2,0.4c0,0.1,0,0.1,0,0.2
							c0,0.1,0.1,0.1,0.1,0.2c0,0,0,0,0,0c0,0,0.1,0,0.1,0c0.1,0,0.2,0,0.2,0.1c0,0,0,0.1,0.1,0.1c0.1,0.1,0.2,0.3,0.2,0.4
							c0,0.1,0,0.1,0.1,0.1c0.1,0.1,0.2,0.1,0.3,0c0.2-0.1,0.3-0.3,0.3-0.5c0,0,0,0,0,0c0-0.1,0.1-0.2,0.1-0.2c0,0,0,0,0,0
							c0.1,0,0.1-0.1,0.2,0c0.1,0,0.2,0,0.3,0c0.2-0.2,0.4-0.2,0.7-0.3c0,0,0,0,0,0c0,0,0,0,0,0c0,0,0,0,0,0c0.1,0.1,0.2,0,0.3,0
							c0,0,0,0,0-0.1c0,0,0.1-0.1,0.1-0.1c0.5-0.1,1-0.3,1.5-0.3c0.2,0,0.4,0.1,0.7,0.2c0,0,0,0,0,0c0,0.1,0,0.1,0,0.2c0,0,0,0,0,0
							c-0.2,0-0.3,0.1-0.5,0.2c-0.3,0.3-0.5,0.7-0.8,1.1c-0.2,0.3-0.3,0.5-0.5,0.8c-0.1,0.2-0.2,0.5-0.3,0.8
							c-0.1,0.3-0.2,0.5-0.2,0.8c0,0.2,0,0.3,0.1,0.4c0.1,0,0.2-0.1,0.3-0.2c0.1-0.1,0.1-0.2,0.2-0.3l0,0c0,0,0,0,0,0
							c0,0.1-0.1,0.2,0,0.3c0,0,0,0.1,0,0.1c0,0.4-0.1,0.7-0.1,1.1c0,0.3,0,0.7,0,1c0,0.3,0.1,0.7,0.2,1c0,0.1,0,0.2,0,0.2
							c-0.3,0.4-0.6,0.8-0.8,1.2c-0.2,0.3-0.3,0.5-0.4,0.8c0,0.2,0,0.3,0,0.5c0,0.2,0.1,0.3,0.2,0.4c0.2-0.1,0.4-0.3,0.5-0.4
							c0.3-0.3,0.6-0.6,0.9-0.9c0,0,0.1-0.1,0.2-0.1c0,0.2,0,0.4,0.2,0.6c0,0,0,0,0,0c0.1,0.1,0.2,0.1,0.3,0
							c0.1-0.1,0.2-0.2,0.2-0.3c0.1-0.2,0.2-0.4,0.3-0.5c0.4-0.6,0.8-1.2,1.3-1.8c0.3-0.3,0.6-0.6,0.9-1c0.1-0.1,0.2-0.2,0.3-0.3
							c0,0.1,0,0.1,0,0.1c0,0.1,0.1,0.2,0.2,0.3c0.1,0.1,0.2,0.2,0.3,0.3c0,0.1,0,0.2-0.1,0.2c-0.2,0.4-0.3,0.8-0.3,1.3
							c0,0.2,0.1,0.4,0.3,0.5c-0.2,0.3-0.4,0.7-0.6,1.1c0,0,0,0,0,0c-0.3,0.6-0.6,1.2-0.8,1.8c-0.2,0.4-0.3,0.8-0.4,1.2
							c-0.1,0.2-0.1,0.5-0.1,0.7c0,0,0,0.1,0,0.1c0,0.2-0.1,0.3,0,0.5c0,0,0,0.1,0,0.1c-0.1,0.1-0.1,0.1-0.2,0c-0.2,0-0.4,0-0.5,0.1
							c-0.1,0.1-0.3,0.1-0.4,0.1c-0.3,0.1-0.6,0.2-0.8,0.4c-0.2,0.1-0.4,0.2-0.6,0.3c-0.1,0.1-0.2,0.2-0.3,0.3
							c0,0.1-0.1,0.1-0.2,0.2c-0.3,0-0.5,0.1-0.7,0.2c-1.1,0.5-2.1,1.2-3.1,2c-1,0.8-1.8,1.7-2.6,2.6c0,0.1-0.1,0.1-0.1,0.2
							c-0.2,0.2-0.2,0.5,0,0.8c0.1,0.2,0.2,0.3,0.4,0.5c0,0,0,0.1,0,0.1c0.3,0.4,0.7,0.6,1.2,0.5c0.1,0,0.2,0,0.2,0
							c0.3,0.2,0.6,0.2,0.9,0.2c0.4,0,0.7-0.2,1.1-0.3c0.5-0.2,1-0.4,1.5-0.6c0.5-0.2,1-0.4,1.5-0.7c1.1-0.5,2.3-1.1,3.4-1.8
							c0.7-0.4,1.4-0.8,2-1.2c0.3-0.2,0.5-0.4,0.7-0.7c0-0.1,0.1-0.1,0.1-0.1l0,0l0,0c0,0.1,0,0.1,0,0.2c0,0.1,0.1,0.2,0.2,0.2
							c0.2-0.1,0.5-0.1,0.7-0.3c0.5-0.3,0.9-0.8,1.3-1.2c0.5-0.7,1-1.4,1.5-2.2c0.6-0.9,1.1-1.8,1.5-2.7c0.2-0.4,0.3-0.8,0.5-1.2
							c0-0.1,0.1-0.3,0.2-0.4c0.2-0.2,0.3-0.4,0.4-0.7c0.4-0.6,0.6-1.3,0.9-2c0.3-0.6,0.5-1.2,0.8-1.8c0.1-0.3,0.2-0.6,0.3-0.9
							c0,0,0,0,0,0c0.1-0.6,0.2-1.2,0.2-1.8c0-0.4,0-0.9,0-1.3c0-0.2,0-0.4,0-0.6c0-0.2,0-0.5,0-0.8c0-0.4-0.1-0.7-0.2-1.1
							c0-0.2-0.1-0.3-0.2-0.4c0-0.1-0.1-0.1-0.1-0.2c-0.1-0.2-0.2-0.5-0.4-0.7c0.1-0.1,0.1-0.3,0-0.4c-0.1-0.2-0.1-0.4-0.2-0.6
							c-0.3-0.6-0.6-1.1-1-1.6c-0.7-0.9-1.5-1.7-2.4-2.5c-0.4-0.3-0.7-0.6-1.2-0.9c0,0-0.1-0.1-0.1-0.1c-0.2-0.3-0.6-0.5-1-0.6
							c-0.8-0.2-1.6-0.3-2.5-0.5c-0.7-0.1-1.5-0.2-2.2-0.3c-0.2,0-0.3-0.1-0.5,0c0,0-0.1,0-0.1,0.1c-0.1,0-0.1,0-0.1,0
							c0,0-0.1,0-0.1,0c0,0-0.1,0-0.1,0c0,0-0.1,0-0.1,0c0,0-0.1,0-0.1,0c-0.1,0-0.2,0-0.3,0c-0.1-0.1-0.3,0-0.4,0
							c-0.2,0-0.3,0-0.5,0c-0.2,0-0.3,0-0.5,0l0,0c-0.1,0-0.2,0-0.3,0c-0.1,0-0.2,0-0.2,0c-0.1,0-0.1,0-0.2,0c-0.1,0-0.2,0-0.2,0
							c-0.1,0-0.1,0-0.2,0c-0.1,0-0.1,0-0.2,0c0,0-0.1,0-0.1,0c0,0-0.1,0-0.1,0c0,0-0.1,0-0.1,0c-0.1,0-0.1,0-0.1,0
							c-0.1,0-0.1,0-0.2,0.1c-0.2,0.2-0.4,0.2-0.6,0.2c-0.2,0-0.4,0-0.6,0c0,0-0.1,0-0.1,0c-0.1,0-0.2,0-0.2,0
							c-0.2,0-0.4,0.1-0.7,0.2c-0.1,0-0.3-0.1-0.4-0.1c-0.1-0.1-0.3-0.1-0.4-0.1c0,0-0.1,0-0.1,0c-0.4,0-0.7-0.1-1.1-0.1
							c-0.6,0-1.2,0-1.8,0.1c-0.3,0-0.5,0-0.8,0c-0.6,0.1-1.1,0-1.7,0c-0.3,0-0.6-0.1-0.9-0.1c-0.1,0-0.1,0-0.2,0
							c-0.1,0-0.1,0-0.2,0c-0.6-0.1-1.2-0.2-1.7-0.4c-0.1,0-0.1-0.1-0.2-0.1c-0.1,0.1,0,0.1,0,0.2c-0.2,0-0.4,0-0.6,0
							c-0.2-0.1-0.5-0.2-0.7-0.2c-0.1,0-0.2,0-0.2,0.1c0,0,0,0,0,0.1c-0.4,0-0.8,0-1.2-0.1c-0.1,0-0.1-0.1-0.2-0.1
							c-0.1,0-0.1-0.1-0.2,0c0,0.1,0,0.1,0.1,0.2c0,0,0,0,0,0c-0.2,0.1-0.5,0.1-0.7,0c-0.1,0-0.2-0.1-0.4-0.1c-0.1,0-0.1,0-0.1,0.1
							c0,0,0.1,0.1,0.1,0.2c-0.2,0-0.5,0-0.7,0c-0.1,0-0.2,0-0.3,0c-0.1,0-0.1,0-0.1,0.1c0,0,0,0,0,0.1c-0.3,0-0.7,0.1-1.1,0
							c-0.2,0-0.2,0-0.1,0.2c0,0,0,0,0,0.1c-0.3,0-0.7,0.1-1,0.1c-0.1,0-0.1,0-0.2,0c-0.1,0-0.1,0.1,0,0.1c0.1,0.1,0.1,0.1,0.2,0.2
							c-1,0.2-2,0.4-3,0.7c-1,0.3-1.9,0.6-2.9,0.9c-0.2,0-0.3,0.1-0.5,0.2c0,0-0.1,0-0.1,0.1c0,0.1,0.1,0,0.1,0
							c0.2,0,0.4-0.1,0.6-0.1c0.1,0,0.1,0,0.2,0c-0.1,0.1-0.2,0.1-0.2,0.2l0,0l0,0l0,0l0,0c0,0.1,0,0.1,0,0.1c0,0-0.1,0.1-0.1,0.1
							c0,0,0.1,0,0.1,0c0.1,0,0.2,0,0.2,0c0.2,0.1,0.4,0,0.6-0.1c0,0,0.1,0,0.1,0c0.9-0.3,1.8-0.4,2.7-0.5c0.3,0,0.6-0.1,1-0.1
							c0,0,0,0,0.1,0c0.3-0.1,0.6,0,1-0.1c0.4,0,0.7,0,1.1,0c0.2,0,0.5,0.1,0.7,0.1c0.1,0,0.1,0,0.1,0.1c0,0-0.1,0.1-0.1,0.1
							c0,0,0,0,0,0l0,0l0,0c-0.1,0.1-0.2,0.2-0.4,0.3c-0.1,0.1-0.2,0.1-0.3,0.1c-0.2,0-0.3,0-0.5,0c-0.4-0.1-0.9-0.1-1.3-0.1
							c0,0,0.1,0.1,0.1,0.1c0,0,0.1,0.1,0.1,0.1c0,0.1,0.1,0.2,0.1,0.3c0,0.1,0.1,0.3,0,0.4c-0.1,0.1,0,0.2,0,0.2
							c0,0.1,0,0.2-0.1,0.3c-0.1,0.3-0.3,0.5-0.6,0.6c-0.3,0.1-0.6,0.1-0.9,0.1c-0.1,0-0.1,0-0.2,0c-0.2-0.1-0.4-0.2-0.5-0.3
							c-0.1-0.1-0.2-0.3-0.3-0.4c0,0,0-0.1,0-0.1c0,0,0,0,0,0c0,0,0,0,0,0c0-0.1,0.1-0.3,0-0.4c-0.1,0-0.2,0-0.3,0
							c-0.5,0-1,0.2-1.5,0.5c-0.1,0.1-0.2,0.1-0.3,0.1c-0.4,0.1-0.7,0.1-1.1,0.2c0,0,0,0,0,0c-0.5,0.1-0.9,0.1-1.4,0
							c-0.5-0.1-1.1-0.2-1.6-0.4c-0.1,0-0.1-0.1-0.2,0c0.2,0.2,0.4,0.3,0.6,0.4c0.7,0.3,1.4,0.4,2.2,0.5c0.3,0,0.6-0.1,0.9-0.1l0,0
							c0,0,0,0,0,0l0,0c-0.2,0.2-0.5,0.2-0.8,0.3c-0.4,0.1-0.9,0.2-1.3,0.3c-0.5,0.1-0.9,0.3-1.2,0.7c-0.1,0.1-0.1,0.1-0.1,0.2
							c0.2-0.2,0.4-0.4,0.6-0.5c0.4-0.2,0.8-0.3,1.2-0.4c0.3-0.1,0.7-0.1,1-0.1l0,0l0,0c0,0.1,0.1,0,0.2,0.1c0,0,0,0,0,0
							c-0.2,0-0.4,0.2-0.6,0.3c-0.1,0-0.2,0-0.2,0.1c0,0.1,0.1,0.1,0.2,0.1c0,0,0,0,0,0c0,0.1,0.1,0,0.1,0.1
							c-0.1,0.2-0.1,0.2,0.2,0.3c0.1,0,0.2,0.1,0.4,0.1c0.5,0.1,1,0.2,1.4,0.3c0.5,0.1,0.9,0.1,1.4,0.2c0.2,0,0.3,0,0.5,0
							c0.2,0,0.5,0.1,0.7,0.1c0.3,0,0.5,0,0.8,0.1c0.4,0,0.7,0.1,1.1,0.1c0.1,0,0.1,0,0.2,0.1c-0.2,0.1-0.4,0.2-0.6,0.2
							c-1.8,0.7-3.6,1.4-5.5,1.9c-0.4,0.1-0.8,0.2-1.1,0.2c-0.9,0.1-1.8-0.1-2.7-0.3c-1.9-0.5-3.5-1.5-4.7-3
							c-0.1-0.1-0.1-0.2-0.3-0.3c0-0.1-0.1-0.1-0.1-0.2c0,0,0-0.1,0-0.1c-0.2-0.3-0.4-0.6-0.6-0.9c0-0.1-0.1-0.1-0.1-0.2
							c-0.2-0.3-0.3-0.7-0.4-1c0-0.1,0-0.2-0.1-0.3c-0.2-0.6-0.3-1.3-0.4-2c0-0.7,0.1-1.4,0.2-2c0.4-1.6,1.3-2.9,2.4-4
							c0.3-0.3,0.7-0.6,1-1c0,0,0.1-0.1,0.1-0.1c0.4-0.2,0.8-0.4,1.3-0.5c0,0,0.1,0,0.1,0c0.6-0.2,1.3-0.4,1.9-0.5
							c0.6-0.1,1.2-0.2,1.8-0.3c0.4-0.1,0.9-0.1,1.3-0.2c0.4,0,0.9-0.1,1.3-0.1c0.2,0,0.4,0,0.6,0c0.5-0.1,1-0.1,1.4-0.1
							c0.4,0,0.7,0,1.1-0.1c0.4,0,0.9,0,1.3,0c0,0,0.1,0,0.1,0c0.3,0,0.6,0,0.9,0c0,0,0.1,0,0.1,0c0.3,0,0.6,0,0.9,0
							c0.5,0,1,0,1.4,0c0.3,0,0.5,0,0.8,0c0.1,0.1,0.2,0,0.3,0c0.2,0,0.5,0,0.7,0c0.1,0.1,0.2,0,0.3,0c0.2,0,0.4,0,0.6,0
							c0.1,0.1,0.2,0,0.3,0c0.2,0,0.3,0,0.5,0c0.1,0.1,0.1,0,0.2,0c0.2,0,0.3,0,0.5,0c0.1,0.1,0.2,0,0.3,0c0.1,0,0.3,0,0.4,0
							c0.1,0.1,0.1,0,0.2,0c0.1,0,0.3,0,0.4,0c0.1,0,0.1,0,0.2,0c0.1,0,0.3,0,0.4,0c0,0,0.1,0,0.1,0c0.1,0,0.3,0,0.4,0
							c0.1,0,0.1,0,0.2,0c0.1,0,0.3,0,0.4,0c0,0,0.1,0,0.1,0c0.1,0,0.2,0,0.3,0c0.1,0,0.1,0,0.2,0c0.1,0,0.2,0,0.3,0
							c0,0,0.1,0,0.1,0c0.1,0,0.2,0,0.3,0c0,0,0.1,0,0.1,0c0.1,0,0.2,0,0.3,0c0.1,0,0.1,0,0.2,0c0.1,0,0.2,0,0.3,0c0,0,0.1,0,0.1,0
							c0.4,0,0.7,0.1,1.1,0.1c0,0,0.1,0,0.1,0c0.1,0,0.1,0,0.2,0c0,0,0.1,0,0.1,0c0.1,0,0.2,0,0.2,0c0.3,0,0.7,0.1,1,0.1
							c0,0,0.1,0,0.1,0c0.1,0,0.2,0,0.3,0.1c0.4,0.1,0.7,0.1,1.1,0.2c0.3,0,0.7,0.1,1,0.2c0,0,0.1,0,0.1,0c0.1,0,0.2,0,0.2,0
							c0.4,0.1,0.8,0.1,1.2,0.2c0.4,0.1,0.8,0.2,1.2,0.2c0.3,0.1,0.6,0.1,0.9,0.2c0,0,0,0,0,0c0,0,0.1,0,0.1,0c0,0,0.1,0,0.1,0
							c0,0,0,0,0,0c0,0,0.1,0,0.1,0c0.1,0,0.2,0,0.3,0.1c0.1,0,0.1,0,0.2,0c1.1,0.3,2.2,0.6,3.3,1c1.5,0.5,3,1.1,4.4,1.8
							c1.1,0.5,2.2,1.1,3.2,1.8c0.7,0.5,1.4,1.1,2.1,1.7c0.4,0.4,0.8,0.8,1.2,1.3c0,0.1,0.1,0.2,0.2,0.1c0.1-0.1,0-0.2-0.1-0.2
							c-0.4-0.8-1-1.4-1.7-2c-0.7-0.6-1.5-1.1-2.3-1.6c-1.8-1.1-3.7-1.9-5.7-2.6c-1.3-0.5-2.5-0.9-3.8-1.3c-0.3-0.1-0.7-0.2-1-0.3
							C45,19,44.9,19,44.7,19c-1.3-0.3-2.5-0.6-3.8-0.8c-0.9-0.2-1.7-0.3-2.6-0.4c-0.7-0.1-1.3-0.2-2-0.2c-0.7-0.1-1.4-0.1-2.1-0.2
							c-0.2,0-0.4,0-0.6,0c-0.4,0-0.9-0.1-1.3-0.1c-0.5,0-1-0.1-1.6-0.1c-0.6,0-1.2-0.1-1.8-0.1c-0.6,0-1.2-0.1-1.7-0.1
							c-0.7,0-1.5-0.1-2.2-0.1c-1.3,0-2.5,0-3.8,0c-0.7,0-1.3,0-2,0.1c-0.4,0-0.8,0-1.2,0.1c-0.3,0-0.5,0-0.8,0.1
							c-0.5,0-1,0.1-1.5,0.2c-0.4,0-0.8,0.1-1.2,0.2c-0.3,0-0.7,0.1-1,0.2c0-0.1,0.1-0.1,0.2-0.1c0.4-0.2,0.9-0.4,1.3-0.5
							c0.5-0.2,1-0.3,1.5-0.5c0.4-0.1,0.7-0.2,1.1-0.2c0.3,0,0.6-0.1,0.9-0.2c0.2,0,0.5-0.1,0.7-0.1c0.3,0,0.5-0.1,0.8-0.1
							c0.3-0.1,0.7-0.1,1-0.1c0.2,0,0.4,0,0.6-0.1c0.4-0.1,0.8-0.1,1.2-0.1c0.3,0,0.6-0.1,1-0.1c0,0,0.1,0,0.1,0
							c0.4-0.1,0.7,0,1.1-0.1c0.3-0.1,0.7,0,1,0c0.5,0,1.1,0,1.6,0c1.2,0,2.4,0,3.6,0c0.5,0,1,0,1.5,0c0.6,0,1.2,0,1.8,0
							c0.3,0,0.6,0.1,1,0.1c0,0,0,0,0,0c0.3,0,0.6,0.1,0.9,0.1c0.2,0,0.5,0,0.7,0.1c0.2,0,0.4,0,0.5,0c0.2,0.1,0.5,0,0.7,0.1
							c0.2,0,0.5,0,0.7,0.1c0.2,0,0.4,0,0.5,0c0.2,0,0.4,0.1,0.6,0.1c0.4,0,0.7,0.1,1.1,0.1c0.2,0,0.3,0,0.5,0c0.2,0,0.5,0,0.7,0.1
							c0.2,0,0.4,0,0.6,0.1c0.3,0,0.6,0.1,1,0.1c0.4,0.1,0.8,0.1,1.2,0.2c0.2,0,0.5,0.1,0.7,0.1c0.4,0,0.7,0.1,1.1,0.1
							c0.4,0.1,0.9,0.1,1.3,0.2c0.3,0,0.6,0.1,1,0.1c0.3,0.1,0.6,0.1,1,0.2c0.4,0.1,0.7,0.1,1.1,0.2c0.5,0.1,0.9,0.2,1.4,0.2
							c0.6,0.1,1.2,0.2,1.7,0.3c0.5,0.1,1.1,0.2,1.6,0.3c0.5,0.1,1.1,0.2,1.6,0.3c0.7,0.1,1.4,0.3,2.1,0.5c0.8,0.2,1.7,0.4,2.5,0.6
							c0.5,0.1,1.1,0.3,1.6,0.4c0.1,0,0.2,0,0.3,0c-0.1-0.1-0.2-0.1-0.4-0.2c-0.3-0.1-0.5-0.1-0.8-0.2c-0.4-0.1-0.8-0.2-1.2-0.3
							c-0.5-0.1-1-0.2-1.5-0.4c-0.9-0.2-1.8-0.4-2.7-0.6c-0.1,0-0.3-0.1-0.4-0.1c-0.4-0.1-0.9-0.2-1.3-0.2c-0.2,0-0.4-0.1-0.6-0.1
							c-0.2,0-0.4-0.1-0.7-0.1c-0.2-0.1-0.5-0.1-0.7-0.1c-0.3,0-0.5-0.1-0.8-0.1c-0.4,0-0.8-0.2-1.3-0.2c-0.1,0-0.1,0-0.1,0
							C51.8,17,51.7,17,51.5,17c-0.3,0-0.5-0.1-0.8-0.1c-0.3,0-0.5-0.1-0.8-0.1c-0.2,0-0.3,0-0.5-0.1c-0.3-0.1-0.6-0.1-0.8-0.1
							c-0.5-0.1-1-0.2-1.5-0.2c-0.1,0-0.2-0.1-0.3,0c-0.2,0-0.4,0-0.5-0.1c-0.2,0-0.5-0.1-0.7-0.1c-0.2,0-0.4-0.1-0.6-0.1
							c-0.3,0-0.5-0.1-0.8-0.1c-0.3,0-0.5,0-0.8-0.1c-0.3-0.1-0.5-0.1-0.8-0.1c-0.2,0-0.4-0.1-0.5-0.1c0.4,0,0.8,0.1,1.2,0.1
							c0.4,0,0.8,0.1,1.2,0.2c0.5,0.1,0.9,0.1,1.4,0.2c0.4,0.1,0.9,0.1,1.3,0.2c0.4,0.1,0.9,0.1,1.3,0.2c0.5,0.1,1,0.2,1.5,0.2
							c0.5,0.1,1,0.2,1.5,0.2c0.4,0.1,0.7,0.1,1.1,0.2c0,0,0,0,0,0c0.2,0.1,0.5,0.1,0.7,0.1c0.7,0.1,1.3,0.2,2,0.3
							c0.8,0.1,1.5,0.2,2.3,0.4c1,0.2,1.9,0.4,2.9,0.7c1.1,0.3,2.2,0.6,3.4,0.8c0.1,0,0.2,0,0.3,0.1C64.5,19.5,64.5,19.5,64.5,19.4
							C64.6,19.5,64.5,19.4,64.5,19.4z M57,40.7L57,40.7C57,40.7,57,40.7,57,40.7C57,40.7,57,40.7,57,40.7z M55.8,37.9
							C55.8,37.9,55.8,38,55.8,37.9C55.8,38,55.8,37.9,55.8,37.9C55.8,37.9,55.8,37.9,55.8,37.9z M12.7,35.2
							C12.7,35.2,12.7,35.2,12.7,35.2L12.7,35.2C12.7,35.2,12.7,35.2,12.7,35.2z M43.7,37.6C43.7,37.6,43.8,37.6,43.7,37.6
							C43.8,37.6,43.7,37.6,43.7,37.6C43.7,37.6,43.7,37.6,43.7,37.6z M31.8,33C31.8,33,31.8,33,31.8,33L31.8,33
							C31.8,33,31.8,33,31.8,33z M26.2,29.5C26.2,29.5,26.2,29.5,26.2,29.5C26.2,29.5,26.2,29.5,26.2,29.5
							C26.2,29.5,26.2,29.5,26.2,29.5z M31.8,32.8L31.8,32.8L31.8,32.8C31.8,32.8,31.8,32.8,31.8,32.8z M24.8,28.8
							C24.8,28.8,24.8,28.8,24.8,28.8C24.8,28.8,24.8,28.8,24.8,28.8L24.8,28.8z M34,31.2L34,31.2c0,0-0.1,0-0.1,0c0,0,0,0,0,0
							C33.9,31.2,33.9,31.2,34,31.2C34,31.2,34,31.2,34,31.2L34,31.2z M15.3,35.3C15.3,35.3,15.3,35.3,15.3,35.3
							C15.3,35.3,15.3,35.3,15.3,35.3C15.3,35.3,15.3,35.3,15.3,35.3z M46.4,49.5C46.4,49.5,46.4,49.5,46.4,49.5L46.4,49.5
							C46.4,49.5,46.4,49.5,46.4,49.5z M48.6,32.1C48.6,32.1,48.6,32.1,48.6,32.1C48.6,32.1,48.6,32.1,48.6,32.1
							C48.6,32.1,48.6,32.1,48.6,32.1z M45,43.5C45,43.5,45,43.5,45,43.5C45,43.5,45,43.5,45,43.5z M45.4,51.3L45.4,51.3L45.4,51.3
							L45.4,51.3z M45.6,52.3C45.6,52.3,45.6,52.3,45.6,52.3L45.6,52.3C45.6,52.3,45.6,52.3,45.6,52.3z M44.4,51.7
							C44.4,51.7,44.4,51.7,44.4,51.7C44.4,51.7,44.4,51.7,44.4,51.7C44.4,51.7,44.4,51.7,44.4,51.7z M43.8,52.8
							C43.8,52.8,43.8,52.8,43.8,52.8C43.8,52.8,43.8,52.8,43.8,52.8C43.8,52.8,43.8,52.8,43.8,52.8z M45.3,42.9
							C45.3,42.9,45.3,42.9,45.3,42.9L45.3,42.9C45.3,42.9,45.3,42.9,45.3,42.9z M44.5,42.4C44.5,42.4,44.5,42.4,44.5,42.4
							C44.5,42.4,44.5,42.4,44.5,42.4C44.5,42.4,44.5,42.4,44.5,42.4L44.5,42.4L44.5,42.4L44.5,42.4z M45.1,42.8L45.1,42.8
							C45,42.8,45,42.8,45.1,42.8C45,42.8,45,42.8,45.1,42.8L45.1,42.8L45.1,42.8L45.1,42.8z M46.9,39.4L46.9,39.4L46.9,39.4
							L46.9,39.4z M50.2,38C50.2,38,50.2,38,50.2,38C50.2,38,50.2,38,50.2,38C50.2,38,50.2,38,50.2,38z M50.2,38
							C50.2,38,50.2,38,50.2,38C50.2,38,50.2,38,50.2,38L50.2,38z M50,38.9C50,38.9,50,38.9,50,38.9C50,38.9,50,38.9,50,38.9
							C50,38.9,50,38.9,50,38.9z M53.5,42.7C53.5,42.7,53.5,42.7,53.5,42.7L53.5,42.7L53.5,42.7C53.5,42.7,53.5,42.7,53.5,42.7z
							 M48.8,37.7L48.8,37.7C48.8,37.7,48.8,37.7,48.8,37.7C48.8,37.7,48.8,37.7,48.8,37.7z M53.4,43.5
							C53.4,43.5,53.4,43.5,53.4,43.5C53.4,43.5,53.4,43.5,53.4,43.5C53.4,43.5,53.4,43.5,53.4,43.5z M44.9,40.3
							C44.9,40.3,44.9,40.3,44.9,40.3C44.9,40.3,44.9,40.3,44.9,40.3C44.9,40.3,44.9,40.3,44.9,40.3z M44.5,40.1
							C44.5,40.1,44.5,40.1,44.5,40.1C44.5,40.1,44.5,40.1,44.5,40.1z M48.8,37.7C48.8,37.7,48.7,37.7,48.8,37.7
							C48.7,37.7,48.7,37.7,48.8,37.7C48.7,37.7,48.7,37.7,48.8,37.7z M48,31C48,31,48,31,48,31C48,31,48,31,48,31
							C48,31,48,31,48,31z M48.1,44.7C48.1,44.7,48.1,44.7,48.1,44.7C48.1,44.7,48.1,44.7,48.1,44.7C48.1,44.7,48.1,44.7,48.1,44.7z
							 M50.8,37.4L50.8,37.4L50.8,37.4L50.8,37.4z M49.2,30.4C49.2,30.5,49.2,30.5,49.2,30.4C49.2,30.5,49.2,30.5,49.2,30.4z
							 M44.1,37.1C44.1,37.1,44.1,37.1,44.1,37.1L44.1,37.1C44.1,37.1,44.1,37.1,44.1,37.1z M48.9,39.5
							C48.9,39.5,48.8,39.5,48.9,39.5C48.8,39.5,48.9,39.5,48.9,39.5z M47,47.1C47,47.1,47,47.1,47,47.1L47,47.1L47,47.1
							C47,47.1,47,47.1,47,47.1z M43.8,39C43.8,39,43.8,39,43.8,39L43.8,39C43.8,39,43.8,39,43.8,39z M24.8,33.3
							C24.8,33.3,24.8,33.3,24.8,33.3C24.8,33.3,24.8,33.3,24.8,33.3L24.8,33.3z M46.7,47.5L46.7,47.5
							C46.7,47.5,46.7,47.5,46.7,47.5C46.7,47.5,46.7,47.5,46.7,47.5z M54.1,36.4C54.1,36.4,54.1,36.4,54.1,36.4
							C54.1,36.4,54.1,36.4,54.1,36.4C54.1,36.4,54.1,36.4,54.1,36.4z M52.8,32.5C52.8,32.5,52.8,32.5,52.8,32.5
							C52.8,32.5,52.8,32.5,52.8,32.5z M52.8,31.9C52.8,31.9,52.8,31.9,52.8,31.9C52.8,31.9,52.8,31.9,52.8,31.9
							C52.8,31.9,52.8,31.9,52.8,31.9z M52.5,32.1C52.5,32.2,52.5,32.2,52.5,32.1C52.5,32.2,52.5,32.2,52.5,32.1
							C52.5,32.1,52.5,32.1,52.5,32.1z M52.3,29.4L52.3,29.4C52.3,29.4,52.3,29.4,52.3,29.4C52.3,29.4,52.3,29.4,52.3,29.4z
							 M51.8,32L51.8,32C51.8,32,51.8,32,51.8,32C51.8,32,51.8,32,51.8,32z M49.5,28.1C49.5,28.1,49.5,28.1,49.5,28.1
							C49.5,28.1,49.4,28.1,49.5,28.1C49.5,28.1,49.5,28.1,49.5,28.1z M49.2,27.9C49.2,27.9,49.2,27.9,49.2,27.9
							C49.2,27.9,49.2,27.9,49.2,27.9C49.2,27.9,49.2,27.9,49.2,27.9z M47.4,27.6C47.4,27.6,47.4,27.6,47.4,27.6
							C47.4,27.6,47.4,27.6,47.4,27.6C47.4,27.6,47.4,27.6,47.4,27.6z M45,27.4C45,27.4,45,27.4,45,27.4C45,27.4,45,27.4,45,27.4z
							 M43.9,30C43.9,30,43.9,30,43.9,30C43.9,30,43.9,30,43.9,30C43.9,30,43.9,30,43.9,30z M40.2,32.4L40.2,32.4L40.2,32.4
							L40.2,32.4z M39.8,33.8C39.8,33.8,39.8,33.8,39.8,33.8C39.8,33.8,39.8,33.8,39.8,33.8L39.8,33.8z M37.5,32.9
							C37.5,32.9,37.5,32.9,37.5,32.9C37.5,32.9,37.5,32.9,37.5,32.9C37.5,32.9,37.5,32.9,37.5,32.9C37.5,32.9,37.5,32.9,37.5,32.9
							L37.5,32.9L37.5,32.9L37.5,32.9C37.5,32.9,37.5,32.9,37.5,32.9C37.5,32.9,37.5,32.9,37.5,32.9z M36.5,33.4L36.5,33.4
							C36.5,33.4,36.5,33.4,36.5,33.4C36.5,33.4,36.5,33.4,36.5,33.4z M25.1,27.3C25.1,27.3,25.1,27.3,25.1,27.3
							C25.1,27.3,25.1,27.3,25.1,27.3C25.1,27.3,25.1,27.3,25.1,27.3C25.1,27.3,25.1,27.3,25.1,27.3z M6.1,23.8c0,0.1,0,0.1,0,0.2
							c-0.1,0.3-0.2,0.7-0.2,1c0,0.1,0,0.1,0,0.2c-0.1,0.6,0,1.3,0.1,1.9c0.2,1.3,0.7,2.4,1.4,3.5c0.2,0.4,0.5,0.7,0.8,1
							c0.1,0.1,0.1,0.2,0.2,0.3c0,0,0,0.1,0,0.1c0.1,0.1,0.2,0.3,0.4,0.4c0.2,0.2,0.5,0.4,0.7,0.6c0.5,0.4,1.1,0.8,1.8,1.1
							c0.6,0.3,1.3,0.6,1.9,0.7c0.5,0.1,1,0.3,1.5,0.3c0,0,0.1,0,0.1,0c0,0,0,0,0,0c-0.4,0-0.7,0-1.1,0c-0.1,0-0.2,0-0.2,0
							c0,0,0,0-0.1,0c0,0,0,0,0,0c0,0,0,0,0,0c-0.1-0.1-0.1-0.1-0.2-0.1c-0.1,0-0.1,0-0.1,0c0,0,0,0-0.1,0l0,0c0,0,0,0,0,0
							c0-0.1-0.1-0.1-0.2,0c0,0-0.1,0-0.1,0c0,0,0,0,0,0h0c0,0,0,0,0,0c0-0.1-0.1-0.1-0.1-0.1c-0.3,0-0.5-0.1-0.7-0.1
							c-1.4-0.3-2.7-0.8-3.9-1.7c-1-0.7-1.8-1.7-2.3-2.9c0,0,0-0.1,0-0.1c0-0.1,0-0.1,0-0.2c-0.1-0.3-0.1-0.5-0.2-0.8
							c0-0.2-0.1-0.5-0.1-0.7c0-0.4-0.1-0.7-0.1-1.1c0-0.6,0-1.2,0.1-1.7c0-0.3,0.1-0.5,0.1-0.8c0.1-0.6,0.3-1.2,0.6-1.7
							c0.1-0.2,0.2-0.4,0.4-0.6c0,0,0-0.1,0.1-0.1c0,0,0,0,0,0C6.4,23,6.2,23.4,6.1,23.8z M22.9,14.6C22.9,14.6,22.9,14.6,22.9,14.6
							C22.9,14.6,22.9,14.6,22.9,14.6C22.9,14.6,22.9,14.6,22.9,14.6z"/>
					</g>
					<polygon fill-rule="evenodd" clip-rule="evenodd" fill="#D3D0CE" points="31.8,33.7 31.8,33.7 31.8,33.7 					"/>
					<path fill-rule="evenodd" clip-rule="evenodd" fill="#D3D0CE" d="M31.7,33.7C31.7,33.7,31.7,33.8,31.7,33.7
						C31.7,33.8,31.7,33.8,31.7,33.7C31.7,33.7,31.7,33.7,31.7,33.7z"/>
					<path fill-rule="evenodd" clip-rule="evenodd" fill="#D3D0CE" d="M28.6,36.2C28.5,36.2,28.5,36.3,28.6,36.2
						C28.5,36.3,28.5,36.3,28.6,36.2C28.5,36.3,28.6,36.3,28.6,36.2C28.6,36.2,28.6,36.2,28.6,36.2z"/>
					<path fill-rule="evenodd" clip-rule="evenodd" fill="#D3D0CE" d="M28.6,36.2C28.6,36.2,28.6,36.2,28.6,36.2
						C28.7,36.2,28.7,36.2,28.6,36.2C28.7,36.2,28.7,36.2,28.6,36.2C28.7,36.2,28.6,36.2,28.6,36.2z"/>
					<path fill-rule="evenodd" clip-rule="evenodd" fill="#D3D0CE" d="M43.4,35c-0.1,0-0.2,0-0.2,0C43.2,35,43.3,35.1,43.4,35z"/>
				</g>
				<g>
					<path fill-rule="evenodd" clip-rule="evenodd" fill="#DFDDDB" d="M41.3,47.3c0,0-0.1,0-0.1,0c-0.1,0.1-0.2,0.1-0.2,0.1
						c-0.1,0-0.2,0.1-0.2-0.1l0,0l0,0c0.1-0.1,0.2-0.2,0.3-0.3c0.1,0,0.1-0.1,0.1-0.2c0-0.1,0-0.1,0-0.2c-0.1,0-0.1,0-0.1,0.1
						c-0.2,0.2-0.4,0.3-0.6,0.4c0.1-0.1,0.2-0.1,0.2-0.2c0,0,0.1-0.1,0.1-0.1c0-0.1-0.1,0-0.1,0c-0.2,0.1-0.4,0.2-0.6,0.3
						c-0.1,0-0.3,0.1-0.4,0.1c-0.4,0.2-0.8,0.3-1.2,0.4c0,0,0,0,0,0c-0.1-0.2-0.2-0.4-0.3-0.5c-0.3-0.3-0.5-0.7-0.8-1
						c-0.2-0.2-0.3-0.3-0.5-0.5c0-0.2,0-0.4,0-0.6c-0.2-0.9-0.5-1.7-0.8-2.6c0-0.1,0-0.2,0.1-0.3c0.2-0.1,0.3-0.3,0.4-0.5
						c0.3-0.8,0.6-1.5,0.9-2.3c0.1-0.2,0.2-0.4,0.2-0.7c0-0.1,0-0.1,0.1-0.2c0.1,0,0.1-0.1,0.2-0.1c0.4-0.4,0.6-0.8,0.8-1.3
						c0.1-0.1,0.1-0.2,0.3-0.2c0.3,0,0.5-0.3,0.6-0.6c0-0.1,0.1-0.2,0.2-0.2c0.2,0,0.3-0.2,0.4-0.3c0.1-0.1,0.1-0.2,0.2-0.3
						c0-0.1-0.1-0.2-0.1-0.2c0,0,0-0.1,0-0.1c0-0.2,0.2-0.3,0.2-0.4c-0.1-0.1-0.2,0-0.2,0.1c-0.1,0.2-0.2,0.4-0.3,0.6
						c-0.1,0.1-0.2,0.1-0.2,0.2c0,0.1-0.1,0.1-0.2,0.1c0,0-0.1,0-0.2,0c0,0,0,0,0,0c-0.1-0.1-0.1-0.2-0.2-0.3c0-0.1-0.2-0.2-0.3-0.2
						c-0.2,0-0.4-0.1-0.6,0.1c0,0,0,0,0,0.1c0.1,0,0.2,0,0.3,0c0.3,0,0.5,0.5,0.3,0.7c0,0.1-0.2,0.1-0.2,0c0-0.3-0.4-0.4-0.4-0.7
						c0,0,0,0-0.1,0c-0.1,0-0.1,0.1-0.1,0.2c0-0.1,0-0.3,0.1-0.4c-0.1,0-0.2,0-0.2,0c-0.2,0.2-0.3,0.4-0.5,0.6c-0.1,0.1-0.2,0-0.3,0
						c-0.1,0-0.1-0.1-0.1-0.1c0-0.1,0-0.2,0-0.3c0-0.2-0.1-0.3-0.3-0.3c-0.1,0-0.2,0-0.2,0c0,0,0,0,0,0c0,0-0.1,0-0.1-0.1
						c0,0-0.1,0-0.1,0c-0.1,0-0.1,0-0.1,0c-0.1,0-0.2,0-0.2,0.1c-0.2,0.2-0.4,0.3-0.5,0.5c0-0.1,0-0.2,0-0.3c0-0.2-0.1-0.4-0.2-0.5
						c-0.2-0.2-0.4-0.2-0.6,0c0,0,0,0,0,0c0,0,0,0,0,0l0,0c0,0,0,0,0,0c-0.1-0.1-0.1,0-0.2,0c0-0.1,0.1-0.1,0.1-0.2
						c0.1-0.1,0.1-0.2,0-0.3c-0.1-0.1-0.2-0.1-0.3,0.1c-0.1,0.1-0.1,0.3-0.3,0.4c0,0-0.1,0.1-0.1,0.1c0-0.1,0-0.3,0-0.4
						c0-0.3,0-0.4-0.3-0.4c0.1,0,0.1-0.1,0.1-0.1c-0.2-0.2-0.3-0.2-0.6-0.1c-0.1,0-0.1,0.1-0.2,0.1c0-0.1,0-0.1-0.1-0.2
						c-0.1-0.3-0.3-0.5-0.6-0.5c-0.2,0.2-0.4,0.2-0.6,0.3c-0.2,0.1-0.4,0.2-0.4,0.5c0,0,0,0.1,0,0.1c-0.5,0.3-0.9,0.7-1.3,1
						c-0.3,0.3-0.6,0.5-1,0.7c-0.2,0.1-0.4,0.2-0.6,0.3c-0.1,0.1-0.3,0.1-0.4,0.3c-0.1,0.1-0.1,0.2,0,0.3c0.1,0.1,0,0.1,0,0.2
						c-0.3,0.2-0.6,0.4-0.9,0.6c-0.4,0.3-0.9,0.5-1.3,0.8c-0.1,0.1-0.1,0-0.2,0c-0.1,0-0.1-0.1,0-0.1c0,0,0.1-0.1,0.1-0.1
						c0.5-0.3,1-0.7,1.5-1c0.1,0,0.2-0.1,0.2-0.2c-0.1,0.1-0.2,0.1-0.3,0.2c-0.4,0.3-0.8,0.6-1.3,0.8c-0.4,0.2-0.4,0.2-0.6,0.7
						c0,0,0,0,0.1,0c0,0,0.1,0,0.1,0c0,0,0,0.1,0,0.1c0,0-0.1,0.1-0.1,0.1c-0.1,0.1-0.2,0.2-0.4,0.3c-0.5,0.4-0.9,0.7-1.3,1.2
						c-0.1,0.1-0.2,0.2-0.3,0.3c-0.1,0.1-0.2,0.1-0.3,0.1c0,0-0.1,0-0.1,0.1c0,0-0.1,0.1-0.1,0.1c-0.2,0.3-0.5,0.6-0.7,1
						c-0.2,0.3-0.4,0.6-0.5,0.9c0,0.2,0,0.4,0.1,0.6c0.1,0.4,0.2,0.8,0.3,1.2c0,0.1,0,0.2,0.1,0.2c0-0.2,0-0.3,0-0.5
						c0.1,0,0.1,0.2,0.3,0.2c0-0.1,0-0.2,0-0.2c-0.1-0.2-0.1-0.4-0.2-0.6c0-0.1,0-0.2,0.1-0.4c0.1-0.2,0.3-0.4,0.4-0.6
						c0.2-0.4,0.5-0.8,0.6-1.2c0-0.1,0.1-0.2,0.2-0.3c0.4-0.2,0.7-0.5,1-0.7c0.2-0.2,0.5-0.4,0.7-0.6c0.2-0.2,0.5-0.4,0.6-0.7
						c0-0.1,0.1-0.1,0.2-0.2c0.1,0,0.2-0.1,0.3-0.1c0.3-0.2,0.6-0.3,0.8-0.5c0.3-0.2,0.7-0.4,0.9-0.7c0.1-0.1,0.3-0.3,0.5-0.3
						c0.1,0,0.1,0,0.2-0.1c0.5-0.3,0.9-0.6,1.3-0.9c0.4-0.3,0.8-0.6,1.2-1c0.1-0.1,0.2-0.2,0.3-0.3c0,0,0.1-0.1,0.2-0.1
						c0.1,0,0.1,0,0.1,0.1c0,0,0,0.1-0.1,0.1c-0.1,0.1-0.2,0.1-0.3,0.2c-0.1,0.1-0.2,0.1-0.3,0.2c-0.2,0.2-0.4,0.3-0.5,0.6
						c0,0.1-0.1,0.1-0.2,0.2c-0.6,0.4-1.3,0.8-1.9,1.2c-0.2,0.1-0.4,0.3-0.5,0.6c0,0,0,0.1-0.1,0.1c-0.3,0.3-0.6,0.6-0.9,1
						c-0.3,0.3-0.5,0.7-0.7,1.1c0,0.1-0.1,0.2-0.1,0.3c0,0,0,0,0,0c-0.1,0,0,0.1,0,0.2c0,0.1-0.1,0.1-0.1,0.2
						c-0.1,0.2-0.2,0.3-0.2,0.5c0,0,0,0,0,0c-0.1,0.1-0.1,0.2-0.1,0.3c-0.1,0.3-0.2,0.6-0.2,0.9c0,0,0,0.1,0,0.1
						c0.1,0,0.1-0.1,0.1-0.1c0.1-0.2,0.1-0.3,0.2-0.5c0,0,0,0,0,0c0,0,0.1,0,0.1,0c0,0.2,0,0.4-0.1,0.5c0,0.1,0,0.2,0,0.3
						c0,0,0,0.1,0.1,0.1c0,0,0,0,0.1-0.1c0.1-0.1,0-0.2,0.1-0.3c0-0.1,0.1-0.1,0.1,0c0.1,0.1,0.1,0,0.2,0c0.1-0.1,0.1-0.2,0.2-0.3
						c0.1-0.3,0.3-0.5,0.3-0.8c0-0.2,0.1-0.3,0.2-0.4c0.1-0.1,0.3-0.3,0.4-0.5c0.2-0.2,0.4-0.5,0.6-0.8c0.2-0.3,0.4-0.6,0.5-1
						c0.1-0.2,0.2-0.3,0.4-0.4c0.5-0.2,1.1-0.5,1.5-0.9c0.2-0.2,0.5-0.4,0.6-0.7c0-0.1,0.1-0.2,0.2-0.2c0.1,0,0.2,0,0.3-0.1
						c0.3-0.1,0.5-0.3,0.7-0.5c0.2-0.2,0.5-0.4,0.8-0.6c0,0,0,0,0.1,0c-0.2,0.3-0.5,0.6-0.7,0.9c-0.1,0.1-0.3,0.2-0.3,0.4
						c-0.1,0.1,0,0.1,0,0.2c-0.2,0.1-0.3,0.2-0.5,0.4c-0.6,0.6-1.3,1.3-1.9,1.9c-0.2,0.2-0.4,0.4-0.5,0.6c0,0.1-0.1,0.1-0.1,0.2
						c0,0,0,0,0,0c-0.1,0.1-0.1,0.2,0,0.3c0,0,0,0.1,0,0.1l0,0c-0.1,0-0.2,0.1-0.2,0.1c-0.1,0.1-0.1,0.2-0.1,0.3c0,0.7,0.1,1.3,0,2
						c0,0.3,0.1,0.6,0,0.9c0,0,0,0,0,0.1c0,0.1,0,0.1,0,0.2c0.1,0.5,0.2,1.1,0.3,1.6c0,0.2,0.1,0.5,0.3,0.5c0,0,0,0,0,0
						c0.1,0.2,0.2,0.2,0.3,0.4c0,0.2,0.2,0.3,0.3,0.4c0.3,0.3,0.7,0.4,1,0.7c0.1,0.1,0.2,0.1,0.2,0.1c0.1,0.1,0.1,0,0.2-0.1
						c0,0,0,0,0,0c0,0,0,0,0,0c0.1,0,0.1,0.1,0.2,0.1c0.1,0,0.1,0.1,0.2,0.1c0.1-0.1-0.1-0.1-0.1-0.2c0,0,0-0.1,0-0.1
						c-0.2-0.2-0.4-0.4-0.6-0.6c-0.4-0.3-0.9-0.6-1.3-0.9c0-0.2,0-0.4-0.1-0.6c-0.1-0.4-0.1-0.9-0.1-1.3c0-0.2,0-0.5-0.1-0.7
						c0-0.2,0-0.4,0-0.6c0-0.3-0.1-0.6-0.1-0.9c0-0.1,0-0.2,0-0.3c0-0.2,0-0.5,0.2-0.6c0.1,0,0.1-0.1,0.1-0.1
						c0.4-0.5,0.9-0.9,1.3-1.4c0.2-0.3,0.5-0.5,0.8-0.8c0.2-0.2,0.4-0.4,0.5-0.7c0.1-0.1,0.1-0.2,0.3-0.3c0.1,0,0.2-0.1,0.2-0.2
						c0.3-0.3,0.6-0.6,0.8-0.9c0.1-0.1,0.2-0.1,0.3-0.1c0.1,0,0.2,0,0.2-0.1c0.1-0.2,0.2-0.3,0.3-0.5c0.1-0.3,0.3-0.5,0.6-0.6
						c0,0,0,0.1,0,0.1c-0.1,0.1,0,0.2-0.1,0.3c0,0,0,0,0,0c-0.1,0.1-0.1,0.2-0.1,0.3c-0.3,0.3-0.6,0.6-0.9,0.9
						c-0.2,0.3-0.5,0.5-0.7,0.8c0,0.1-0.1,0.1-0.1,0.2c0,0.1,0,0.1-0.1,0.2c-0.3,0.2-0.5,0.5-0.7,0.8c-0.4,0.5-0.8,1-1.2,1.6
						c-0.3,0.4-0.6,0.9-0.9,1.3c0,0,0,0,0,0c-0.2,0.2-0.3,0.5-0.2,0.8c-0.1,0.1,0,0.2,0,0.3c0.1,0.3,0.2,0.5,0.4,0.8
						c0.5,0.9,1.1,1.7,1.6,2.6c0.6,0.9,1.1,1.7,1.7,2.6c0.4,0.5,0.7,1,1.1,1.5c0,0.1,0.1,0.2,0.2,0.3c0.1,0.2,0.3,0.4,0.6,0.4
						c0,0,0.1,0,0.1,0c0.1,0.1,0.3,0.1,0.4,0.2c0.6,0.2,1.2,0.3,1.8,0.2c0.1,0,0.2,0,0.3,0c0.3,0,0.5-0.1,0.8-0.1
						c0.1,0,0.2-0.1,0.2-0.1c0.1-0.1,0.1-0.1,0.1-0.2c0-0.1-0.1-0.1-0.2-0.1c-0.1,0-0.1,0-0.2,0c0.1-0.1,0.1-0.1,0.1-0.3
						c0-0.1,0-0.1-0.1-0.1c-0.4,0.1-0.7,0-1.1,0c-0.3,0-0.6-0.1-0.8-0.2c-0.4,0-0.7-0.1-1.1-0.1c-0.2,0-0.3,0-0.5,0.1
						c-0.2-0.3-0.4-0.6-0.6-0.9c-0.5-0.8-1.1-1.7-1.7-2.5c-0.6-1-1.3-1.9-1.9-2.9c-0.2-0.3-0.4-0.6-0.5-0.9c0.1-0.1,0.2-0.3,0.3-0.4
						c0.1-0.2,0.3-0.4,0.4-0.6c0.3-0.5,0.7-0.9,1-1.4c0.3-0.4,0.6-0.9,1-1.3c0.2-0.2,0.4-0.4,0.4-0.7c0,0,0-0.1,0.1-0.1
						c0.3-0.3,0.6-0.6,0.9-0.9c0.1-0.1,0.2-0.3,0.4-0.4c0.1-0.1,0.2-0.2,0.3-0.2c0.3,0,0.4-0.2,0.5-0.3c0.2-0.2,0.1-0.5,0.2-0.7
						c0-0.1,0-0.2,0.1-0.2c0.2,0,0.3-0.1,0.4-0.2c0,0,0.1-0.1,0.1-0.1c0,0.1,0,0.2-0.1,0.2c-0.1,0.2-0.2,0.4-0.3,0.5
						c-0.2,0.3-0.3,0.5-0.5,0.8c-0.1,0.1-0.2,0.2-0.2,0.4c-0.1,0.1-0.2,0.2-0.2,0.4c0,0,0,0.1-0.1,0.1c0,0-0.1,0.1-0.1,0.1
						c-0.1,0.2-0.3,0.4-0.4,0.6c-0.3,0.5-0.6,1.1-0.9,1.6c-0.1,0.2-0.2,0.4-0.3,0.7c-0.1,0.2,0,0.4,0.1,0.5c0.1,0.1,0.1,0.3,0.1,0.4
						c0,0.5,0,1,0,1.5c0.1,0.6,0.3,1.1,0.5,1.6c0.1,0.1,0.1,0.2,0.2,0.3c0.1,0.1,0.1,0.2,0.2,0.2c0.3,0.7,0.7,1.3,1.2,1.9
						c0,0,0,0,0,0.1c0.2,0.3,0.4,0.5,0.8,0.6c0.3,0.1,0.6,0.2,0.8,0.2c0.3,0.1,0.7,0.1,1,0c0.5-0.2,1-0.5,1.4-0.8
						c0.1-0.1,0.2-0.1,0.2-0.2C41.3,47.4,41.3,47.3,41.3,47.3z M29.7,40.6L29.7,40.6C29.7,40.6,29.7,40.6,29.7,40.6L29.7,40.6z
						 M30.7,47.3L30.7,47.3L30.7,47.3L30.7,47.3C30.7,47.3,30.7,47.3,30.7,47.3C30.7,47.3,30.7,47.3,30.7,47.3L30.7,47.3z"/>
					<rect x="30.7" y="47.3" fill-rule="evenodd" clip-rule="evenodd" fill="#DFDDDB" width="0" height="0"/>
					<path fill-rule="evenodd" clip-rule="evenodd" fill="#DFDDDB" d="M45.4,34.8c-0.1,0-0.3-0.1-0.4-0.1c-0.1,0-0.2-0.1-0.3-0.1
						c-0.1,0-0.3,0-0.4,0c-0.3,0.1-0.6,0.1-0.9,0.2c-0.1,0-0.2,0.1-0.4,0.1c-0.1,0,0,0.1,0,0.1c0,0,0,0,0,0c-0.1,0-0.2,0.1-0.3,0
						c0,0,0,0,0,0c0,0,0,0,0,0c0,0,0,0,0,0c-0.1,0-0.2,0-0.3,0c-0.2,0-0.3,0-0.4,0.2c-0.1,0.1-0.3,0.2-0.5,0.1
						c-0.1-0.1-0.1,0-0.2,0.1c-0.1,0.1-0.2,0.2-0.2,0.3c0,0.1,0,0.1-0.1,0.2c-0.1,0.1-0.1,0.2-0.2,0.3c-0.1,0.1-0.2-0.1-0.2,0l0,0
						c0-0.1,0-0.2-0.1-0.3c0-0.1-0.1-0.3-0.2-0.3c0,0,0,0,0,0c0,0,0-0.1,0-0.1c0-0.2-0.1-0.2-0.3-0.1c0,0-0.1,0-0.1,0
						c-0.1,0.3-0.3,0.6-0.4,0.9c-0.2,0.4-0.4,0.8-0.6,1.2c0,0.1-0.1,0.2-0.1,0.3c0,0.1,0,0.3-0.1,0.4c-0.2,0.2-0.3,0.4-0.4,0.7
						c-0.4,0.7-0.8,1.5-0.9,2.3c0,0.2-0.1,0.5,0.1,0.7c0,0,0,0,0,0c0,0,0,0.1,0,0.1c0,0,0,0.1,0,0.1c0,0,0,0.1,0,0.1
						c0,0.2,0.1,0.4,0.1,0.5c0.3,0.9,0.8,1.7,1.4,2.4c0.1,0.3,0.4,0.5,0.7,0.8c0,0,0,0,0,0c0.2,0,0.3,0.1,0.5,0.2
						c0.2,0.1,0.4,0.2,0.6,0.2c0.6,0.3,1.2,0.3,1.9,0.3c0.2,0,0.4,0,0.6-0.1c0,0,0.1,0,0.1,0c0.6-0.1,1.2-0.3,1.7-0.7
						c0.1,0,0.1-0.1,0.2-0.1c0.1-0.1,0.2-0.1,0.1-0.2c-0.1-0.1-0.2,0-0.2,0c-0.1,0-0.1,0.1-0.2,0.1c-0.1,0-0.1,0-0.1-0.1
						c0.1-0.1,0.3-0.2,0.3-0.3c0-0.1,0.1-0.1,0-0.2c-0.1,0-0.2,0-0.1,0.1c0,0.1,0,0.1-0.1,0.1c-0.1,0.1-0.2,0.1-0.3,0.2
						c-0.2,0.1-0.5,0.2-0.8,0.3c-0.1,0-0.2,0.1-0.3,0.1c-0.2,0.1-0.4,0.1-0.6,0.2c-0.1,0.1-0.2,0-0.2-0.1c0,0,0-0.1,0-0.1
						c-0.1,0-0.1-0.1-0.2,0c0,0,0,0,0,0c-0.2-0.2-0.4-0.2-0.7-0.3c-0.5-0.1-1.1-0.2-1.6-0.3c-0.1,0-0.2,0-0.2-0.1
						c-0.1-0.4-0.3-0.6-0.6-0.9c0,0,0,0-0.1,0c0-0.1-0.1-0.2-0.1-0.2c-0.3-0.5-0.7-1-1-1.5c0,0,0,0,0,0c0.1-0.1,0.2-0.2,0.2-0.3
						c0.1-0.2,0.2-0.4,0.2-0.6c0.1-0.3,0.2-0.6,0.3-1c0.2-0.5,0.4-1.1,0.5-1.7c0-0.1,0.1-0.1,0.1-0.2c0.4-0.2,0.6-0.5,0.8-0.9
						c0.1-0.3,0.2-0.6,0.3-0.8c0-0.1,0.1-0.2,0.2-0.2c0,0.1,0.2,0.2,0.2,0.4c-0.2,0.2-0.3,0.3-0.3,0.6c-0.3,0.7-0.5,1.5-0.7,2.2
						c-0.2,0.7-0.2,1.4-0.2,2.1c0,0.3,0.1,0.6,0.4,0.9c0,0.1,0.1,0.2,0.1,0.3c0.1,0.1,0.2,0.1,0.3,0.1c0.1,0,0.2-0.1,0.2-0.2
						c0-0.2,0.1-0.4,0-0.6c0-0.3,0.1-0.5,0.1-0.8c0.1-0.3,0.1-0.5,0.2-0.8c0,0,0-0.1,0-0.1c0-0.1,0-0.2,0.1-0.4
						c0.1-0.1,0.1-0.2,0-0.4c0-0.1,0-0.2,0.1-0.3c0.1-0.1,0.1-0.2,0.1-0.3c0.1-0.2,0.2-0.5,0.2-0.7c0,0,0,0,0,0
						c0.1-0.2,0.1-0.3,0.1-0.5c0-0.1,0.1-0.2,0.2-0.2c0.1,0,0.1,0,0.2,0c0.4-0.1,0.7-0.2,1-0.5c0,0,0.1-0.1,0.2-0.1
						c0.1,0,0.1-0.1,0.1-0.1c0.2-0.3,0.3-0.6,0.5-0.9c0.3-0.4,0.5-0.9,1-1C45.6,35,45.6,35,45.4,34.8z M38.8,44.1
						C38.8,44.1,38.8,44.1,38.8,44.1L38.8,44.1C38.8,44.1,38.8,44.1,38.8,44.1z M42.7,46.3C42.7,46.3,42.7,46.3,42.7,46.3L42.7,46.3
						C42.7,46.3,42.7,46.3,42.7,46.3z"/>
				</g>
				<path fill-rule="evenodd" clip-rule="evenodd" fill="#C5BFBD" d="M40.3,26.2l1.5,1.5l1,0.8v1.1l-0.6,0.9l-0.3,1l0.2,0.5
					c0,0,0.1,0.2,0.5,0.3c0.4,0.1,0.8,0.4,1.1,0.4c0.3,0,0.6,0,1,0c0.4,0,0,0,0.8,0c0.8,0,0.9-0.2,0.9-0.2s0.3-0.1,0.4-0.4
					c0.1-0.2,0.2,0,0.2-0.4c0-0.3,0.2-0.5,0.1-0.7c0-0.2,0-0.4,0-0.7c0-0.3,0.1-0.3,0-0.8c-0.1-0.5-0.1-0.6-0.1-0.9
					c-0.1-0.3-0.1-0.4-0.2-0.8C47,27.6,47,27.3,47,27.1c0-0.3-0.1-0.2-0.1-0.5c0-0.3-0.1-0.4-0.1-0.5c0-0.1,0-0.3-0.1-0.3
					c-0.1-0.1,0.2-0.3-0.2-0.3c-0.5,0.1-0.9,0-0.9,0s-0.3,0-0.5,0c-0.2,0-0.2,0.1-0.5,0c-0.3-0.1-0.6,0-1,0c-0.4,0-0.5-0.2-1,0
					c-0.4,0.2-1.6,0.4-1.6,0.4s0,0-0.2,0c-0.2,0-0.7,0.2-0.7,0.2L40.3,26.2z"/>
				<path fill-rule="evenodd" clip-rule="evenodd" fill="#C5BFBD" d="M46.9,25.6c0,0,0,0,0.1,0.1c0.1,0.1,0-0.1,0.1,0.1
					c0,0.2,0.1,0.2,0.1,0.4c0,0.2,0,0.1,0.1,0.3c0,0.1,0.1,0.4,0.2,0.5c0,0.1,0.1,0.2,0.2,0.4c0,0.1,0.1,0.1,0.1,0.3
					c0,0.2,0.1,0.3,0,0.6c0,0.3,0,0.3,0,0.5c0,0.2,0,0.5,0,0.5c0,0-0.1,0.5,0,0.7c0,0.3,0,0.3,0,0.5c0,0.2,0.1,0.6,0.1,0.7
					c0,0.1,0.2,0,0,0.3c-0.2,0.3-0.1,0-0.2,0.3c-0.1,0.4-0.2,0.2-0.1,0.4c0.1,0.2,0,0.1,0.2,0.3c0.2,0.2-0.2,0.2,0.4,0.4
					c0.7,0.3,0.2,0.2,0.9,0.3c0.7,0.1,0.9,0.2,1.2,0.1c0.4,0,0.4,0.3,0.8,0c0.3-0.2,0.4-0.3,0.8-0.6c0.4-0.4,0.8-0.7,0.7-1.2
					c-0.1-0.5,0-0.4,0-0.8c0-0.5,0.1-0.6,0-1.1c-0.1-0.5,0-1.9,0-1.9s0-0.5,0-0.7c0-0.1,0-0.2,0-0.4c0-0.2,0.1-0.2,0-0.4
					c-0.2-0.1-0.1-0.2-0.4-0.3c-0.3-0.1-0.5-0.2-0.7-0.2c-0.3,0-0.6,0-0.9-0.1c-0.3-0.1-0.4-0.3-0.8-0.3c-0.4,0-0.3,0-0.9-0.1
					c-0.6-0.1-0.4-0.2-0.9-0.2c-0.5,0-0.8,0.2-0.8,0.2L46.9,25.6z"/>
			</g>
		</g>
		<path fill-rule="evenodd" clip-rule="evenodd" fill="#C5BFBD" d="M55.9,27.8v0.3c0,0-1.5,0.2-1.4,0.4c0.1,0.2-0.8-0.4-0.6,0.2
			c0.2,0.6-0.5,0.9-0.5,1.2c0,0.3-0.2,0.3-0.2,0.6c0,0.3-0.1,0.1-0.1,0.6c0,0.5-0.2,0.7-0.3,0.7c0,0-0.3,0.1-0.4,0.5
			c-0.1,0.4-0.1,0.3-0.1,0.6c0,0.2,0.1-0.4,0,0.2c-0.1,0.6,0.1,1,0.4,1c0.3,0.1-0.5,0.1,0.3,0.1c0.8,0,0.2-0.1,1.1,0
			c0.9,0.1,1.2,0.4,1.6,0.1c0.4-0.3,0.3-0.2,0.6-0.7c0.3-0.5,0.5-0.4,0.7-1c0.1-0.6,1.1-0.9,0.1-1.6c0,0-0.5-0.6-0.8-1
			c-0.3-0.5-1.2-1-1.2-1s-0.4-0.4-0.5-0.6c-0.1-0.2-0.3-0.5-0.5-0.6c-0.2-0.1,0.7-0.6,0.7-0.6L55.9,27.8z"/>
		<path fill-rule="evenodd" clip-rule="evenodd" fill="#C5BFBD" d="M57.9,33.1l-0.6,0.5l-0.7,0.7c0,0-0.2,0.2-0.5,0.5
			c-0.3,0.3-0.4,0.3-0.4,0.3s-0.3,0.3-0.6,0.5c-0.3,0.2-0.4,0.3-0.6,0.3c-0.2,0-0.7-0.1-0.8-0.1c-0.2,0-0.5,0.2-0.5,0.2
			s-0.1-0.2-0.2,0.4c-0.1,0.7,0,0.7,0,1c0,0.4-0.2-0.2,0,0.4c0.2,0.6-0.1,0.4,0.3,0.9c0.4,0.5,0.2,0.6,0.4,0.5
			c0.2,0-0.2-0.4,0.4,0.2c0.6,0.6-0.3,0.3,0.9,0.4c1.2,0,1.1-0.3,1.5-0.2c0.4,0.1,0.8,0.3,0.8-0.1c0-0.4-0.3,0.1,0.1-0.7
			c0.4-0.8,0.4-0.7,0.4-1.3s0-1.1,0-1.1s0.4-0.6,0.2-1.3c-0.2-0.7-0.2-1.6-0.2-1.6V33.1z"/>
		<path fill-rule="evenodd" clip-rule="evenodd" fill="#C5BFBD" d="M57,40.7c0,0,0.1-0.4,0,0.4c-0.1,0.9-0.3,1.2-0.4,1.4
			c-0.1,0.3-0.6,1.1-0.8,1.5c-0.2,0.4-0.4,0.9-0.4,0.9H55c0,0-0.9-0.2-1.2-0.8c-0.3-0.6-0.5-0.5-0.5-1c0-0.4,0.3-0.5,0.1-1
			c-0.1-0.5-0.3-1.1-0.1-1.1c0.2,0,0.2-0.2,0.7-0.2s-0.3-0.2,0.8-0.2c1.1,0.1,1.2,0.1,1.5,0c0.3-0.1,0.3-0.1,0.3-0.1L57,40.7z"/>
		<path fill-rule="evenodd" clip-rule="evenodd" fill="#C5BFBD" d="M54.8,45.5c0,0-0.1-0.2-0.4,0.5c-0.3,0.7-1.1,1.9-1.1,1.9
			s0.3,0.3,0.1,0.5c-0.3,0.3-0.3,0-0.6,0.6c-0.3,0.6-0.6,1.1-0.8,1.1c-0.1,0.1,0.2,0-0.4,0.5c-0.6,0.5-0.7,0.1-0.8,0.4
			c-0.1,0.3-0.5,0.1-0.5,0.1s-0.3-0.2-0.2-0.3c0.1-0.1,0,0.2,0-0.5c-0.1-0.7,0-0.6,0.2-1.1c0.2-0.4-0.4-1,0.5-1.4
			c0.8-0.4,0.4-0.4,0.9-0.9c0.5-0.4,0.3,0,0.7-0.5c0.4-0.5,0.3-0.5,0.6-0.6c0.3-0.2,0.1-0.2,0.4-0.3c0.4-0.1,1-0.2,1-0.2L54.8,45.5z
			"/>
		<path fill-rule="evenodd" clip-rule="evenodd" fill="#C5BFBD" d="M32.9,27.3c0.1,0.6,0.1,0.9,0.1,0.9s0.1-0.7,0,0.5
			c-0.1,1.2-0.3,1.1,0,1.8c0.3,0.7,0.3,0.7,0.8,1.1c0.5,0.4,0.2,0.2,0.8,0.3c0.6,0.1,0-0.1,1.5,0c1.5,0.1,1.7-0.1,2.1,0
			c0.4,0.1,0.3,0.1,0.8,0.1c0.5,0,1.6-0.2,1.6-0.2l0.5-0.2c0,0,0.2-0.2,0-0.8c-0.2-0.6-0.3-0.4-0.3-1c-0.1-0.6-0.1-0.8-0.2-1.3
			c-0.1-0.4,0.1-0.2-0.1-0.7c-0.2-0.5-0.2-0.4-0.3-0.8c-0.1-0.4-0.3-0.4-0.3-0.6c0-0.2,0.3-0.1,0-0.2c-0.3-0.1-1.1-0.4-1.1-0.4
			s-0.5-0.1-0.9-0.2c-0.4-0.1-3.1,0-3.1,0c-0.2-0.2-0.9,0.1-1.3,0c-0.4-0.2-0.6,0-0.8,0c-0.2-0.1-0.5,0.1-0.5,0.1l-0.2,0.4
			c0,0-0.3,0,0.1,0.3c0.3,0.3,0-0.2,0.3,0.3C32.9,27.3,32.9,27.3,32.9,27.3z"/>
	</g>
	<path fill="#80B9C2" d="M35,0C15.7,0,0,15.7,0,35c0,19.3,15.7,35,35,35s35-15.7,35-35C70,15.7,54.3,0,35,0z M35,68.9
		C16.3,68.9,1.1,53.7,1.1,35S16.3,1.1,35,1.1S68.9,16.3,68.9,35S53.7,68.9,35,68.9z"/>
</g>
</svg>
