<!-- Generator: Adobe Illustrator 18.0.0, SVG Export Plug-In  -->
<svg version="1.1"
	 xmlns="http://www.w3.org/2000/svg" xmlns:xlink="http://www.w3.org/1999/xlink" xmlns:a="http://ns.adobe.com/AdobeSVGViewerExtensions/3.0/"
	 x="0px" y="0px" width="136.5px" height="145.2px" viewBox="0 0 136.5 145.2" enable-background="new 0 0 136.5 145.2"
	 xml:space="preserve">
<defs>
</defs>
<g>
	<defs>
		<ellipse id="SVGID_1_" cx="66.1" cy="80.6" rx="64" ry="64.3"/>
	</defs>
	<clipPath id="SVGID_2_">
		<use xlink:href="#SVGID_1_"  overflow="visible"/>
	</clipPath>
	<path clip-path="url(#SVGID_2_)" fill="none" stroke="#BBC26B" stroke-miterlimit="10" d="M118.4,32.4"/>
	<ellipse clip-path="url(#SVGID_2_)" fill="#E4B44B" cx="66.1" cy="80.6" rx="64" ry="64.3"/>
	<g clip-path="url(#SVGID_2_)">
		<path fill="#F5EEAB" d="M46.8,83c0,6.7-5.4,12.1-12,12.1c-6.7,0-12-5.4-12-12.1c0-6.7,5.4-12.1,12-12.1
			C41.4,70.9,46.8,76.3,46.8,83z"/>
		<g>
			<polygon fill="#F5EFB0" points="25.1,76.4 30.6,72.2 29.9,69.7 23.7,74.6 			"/>
			<path fill="#F5EFAF" d="M24.9,76.2l5.6-4.3l-0.7-2.5c0,0-6.2,5-6.2,5.1L24.9,76.2z"/>
			<path fill="#F5EFAE" d="M24.7,76l5.6-4.5L29.7,69c0,0-6.2,5-6.3,5.2L24.7,76z"/>
			<path fill="#F5EFAD" d="M24.6,75.8l5.7-4.6l-0.7-2.5c0,0-6.2,5-6.3,5.4L24.6,75.8z"/>
			<path fill="#F5EFAC" d="M24.4,75.6l5.7-4.7l-0.7-2.5c0,0-6.2,5.1-6.4,5.5L24.4,75.6z"/>
			<path fill="#F5EFAB" d="M24.3,75.4l5.8-4.9L29.4,68c0,0-6.2,5.1-6.4,5.7L24.3,75.4z"/>
			<path fill="#F5EFAA" d="M24.1,75.2l5.9-5l-0.7-2.5c0,0-6.3,5.1-6.5,5.8L24.1,75.2z"/>
			<path fill="#F6EFA9" d="M24,75l5.9-5.2l-0.7-2.5c0,0-6.3,5.2-6.5,6L24,75z"/>
			<path fill="#F6EFA8" d="M23.8,74.8l6-5.3l-0.7-2.5c0,0-6.3,5.2-6.6,6.1L23.8,74.8z"/>
			<path fill="#F6EFA7" d="M23.6,74.6l6-5.5L29,66.6c0,0-6.3,5.2-6.7,6.3L23.6,74.6z"/>
			<path fill="#F6EEA6" d="M23.5,74.3l6.1-5.6l-0.7-2.5c0,0-6.3,5.3-6.7,6.4L23.5,74.3z"/>
			<path fill="#F6EEA5" d="M23.3,74.1l6.2-5.7l-0.7-2.6c0,0-6.4,5.3-6.8,6.6L23.3,74.1z"/>
			<path fill="#F6EEA4" d="M23.2,73.9l6.2-5.9l-0.7-2.6c0,0-6.4,5.3-6.8,6.7L23.2,73.9z"/>
			<path fill="#F6EEA3" d="M23,73.7l6.3-6l-0.7-2.6c0,0-6.4,5.4-6.9,6.9L23,73.7z"/>
			<path fill="#F6EEA2" d="M22.9,73.5l6.3-6.2l-0.7-2.6c0,0-6.4,5.4-6.9,7L22.9,73.5z"/>
			<path fill="#F6EEA1" d="M22.7,73.3l6.4-6.3l-0.7-2.6c0,0-6.4,5.4-7,7.2L22.7,73.3z"/>
			<path fill="#F6EEA0" d="M22.5,73.1l6.5-6.5l-0.7-2.6c0,0-6.5,5.5-7.1,7.3L22.5,73.1z"/>
			<path fill="#F6EE9F" d="M22.4,72.9l6.5-6.6l-0.7-2.6c0,0-6.5,5.5-7.1,7.5L22.4,72.9z"/>
			<path fill="#F6EE9E" d="M22.2,72.7l6.6-6.7l-0.7-2.6c0,0-6.5,5.5-7.2,7.6L22.2,72.7z"/>
			<path fill="#F6EE9D" d="M22.1,72.5l6.6-6.9L28,63.1c0,0-6.5,5.6-7.2,7.8L22.1,72.5z"/>
			<path fill="#F7EE9C" d="M21.9,72.3l6.7-7l-0.8-2.6c0,0-6.5,5.6-7.3,7.9L21.9,72.3z"/>
			<path fill="#F7EE9B" d="M21.8,72.1l6.8-7.2l-0.8-2.6c0,0-6.6,5.6-7.4,8.1L21.8,72.1z"/>
			<path fill="#F7EE9A" d="M21.6,71.9l6.8-7.3L27.7,62c0,0-6.6,5.7-7.4,8.2L21.6,71.9z"/>
			<path fill="#F7EE99" d="M21.4,71.7l6.9-7.4l-0.8-2.6c0,0-6.6,5.7-7.5,8.4L21.4,71.7z"/>
			<path fill="#F7EE98" d="M21.3,71.5l6.9-7.6l-0.8-2.6c0,0-6.6,5.7-7.5,8.5L21.3,71.5z"/>
			<path fill="#F7EE97" d="M21.1,71.3l7-7.7L27.4,61c0,0-6.6,5.7-7.6,8.6L21.1,71.3z"/>
			<path fill="#F7EE96" d="M21,71.1l7.1-7.9l-0.8-2.7c0,0-6.7,5.8-7.6,8.8L21,71.1z"/>
			<path fill="#F7EE95" d="M20.8,70.9l7.1-8l-0.8-2.7c0,0-6.7,5.8-7.7,8.9L20.8,70.9z"/>
			<path fill="#F7EE94" d="M20.7,70.7l7.2-8.2l-0.8-2.7c0,0-6.7,5.8-7.8,9.1L20.7,70.7z"/>
			<path fill="#F7ED93" d="M20.5,70.5l7.2-8.3L27,59.6c0,0-6.7,5.9-7.8,9.2L20.5,70.5z"/>
			<path fill="#F7ED92" d="M20.4,70.3l7.3-8.4l-0.8-2.7c0,0-6.7,5.9-7.9,9.4L20.4,70.3z"/>
			<path fill="#F7ED91" d="M20.2,70.1l7.4-8.6l-0.8-2.7c0,0-6.8,5.9-7.9,9.5L20.2,70.1z"/>
			<path fill="#F7ED90" d="M20,69.9l7.4-8.7l-0.8-2.7c0,0-6.8,6-8,9.7L20,69.9z"/>
			<path fill="#F8ED8F" d="M19.9,69.7l7.5-8.9l-0.8-2.7c0,0-6.8,6-8,9.8L19.9,69.7z"/>
			<path fill="#F8ED8E" d="M19.7,69.5l7.5-9l-0.8-2.7c0,0-6.8,6-8.1,10L19.7,69.5z"/>
			<path fill="#F8ED8D" d="M19.6,69.3l7.6-9.1l-0.8-2.7c0,0-6.8,6.1-8.2,10.1L19.6,69.3z"/>
			<path fill="#F8ED8C" d="M19.4,69.1l7.7-9.3l-0.8-2.7c0,0-6.9,6.1-8.2,10.3L19.4,69.1z"/>
			<path fill="#F8ED8B" d="M19.3,68.9l7.7-9.4l-0.8-2.7c0,0-6.9,6.1-8.3,10.4L19.3,68.9z"/>
			<path fill="#F8ED8A" d="M19.1,68.7l7.8-9.6l-0.8-2.7c0,0-6.9,6.2-8.3,10.6L19.1,68.7z"/>
			<path fill="#F8ED89" d="M18.9,68.5l7.8-9.7L26,56.1c0,0-6.9,6.2-8.4,10.7L18.9,68.5z"/>
			<path fill="#F8ED88" d="M18.8,68.3l7.9-9.9l-0.8-2.8c0,0-6.9,6.2-8.5,10.9L18.8,68.3z"/>
			<path fill="#F8ED87" d="M18.6,68.1l8-10l-0.8-2.8c0,0-7,6.3-8.5,11L18.6,68.1z"/>
			<path fill="#F8ED86" d="M18.5,67.9l8-10.1L25.7,55c0,0-7,6.3-8.6,11.2L18.5,67.9z"/>
			<path fill="#F8ED85" d="M18.3,67.7l8.1-10.3l-0.8-2.8c0,0-7,6.3-8.6,11.3L18.3,67.7z"/>
			<path fill="#F8ED84" d="M18.2,67.5l8.1-10.4l-0.8-2.8c0,0-7,6.4-8.7,11.5L18.2,67.5z"/>
			<path fill="#F8ED83" d="M18,67.3l8.2-10.6L25.4,54c0,0-7.1,6.4-8.7,11.6L18,67.3z"/>
			<path fill="#F9ED82" d="M17.8,67.1l8.3-10.7l-0.8-2.8c0,0-7.1,6.4-8.8,11.8L17.8,67.1z"/>
			<path fill="#F9EC81" d="M17.7,66.9L26,56.1l-0.8-2.8c0,0-7.1,6.5-8.9,11.9L17.7,66.9z"/>
			<path fill="#F9EC80" d="M17.5,66.7l8.4-11l-0.8-2.8c0,0-7.1,6.5-8.9,12.1L17.5,66.7z"/>
			<path fill="#F9EC7F" d="M17.4,66.5l8.4-11.1L25,52.6c0,0-7.1,6.5-9,12.2L17.4,66.5z"/>
			<path fill="#F9EC7E" d="M17.2,66.3l8.5-11.3l-0.8-2.8c0,0-7.2,6.5-9,12.3L17.2,66.3z"/>
			<path fill="#F9EC7D" d="M17.1,66.1l8.6-11.4l-0.8-2.8c0,0-7.2,6.6-9.1,12.5L17.1,66.1z"/>
			<path fill="#F9EC7C" d="M16.9,65.9l8.6-11.6l-0.8-2.8c0,0-7.2,6.6-9.1,12.6L16.9,65.9z"/>
			<path fill="#F9EC7B" d="M16.7,65.7L25.4,54l-0.8-2.8c0,0-7.2,6.6-9.2,12.8L16.7,65.7z"/>
			<path fill="#F9EC7A" d="M16.6,65.5l8.7-11.8l-0.8-2.8c0,0-7.2,6.7-9.3,12.9L16.6,65.5z"/>
			<path fill="#F9EC79" d="M16.4,65.3l8.8-12l-0.8-2.9c0,0-7.3,6.7-9.3,13.1L16.4,65.3z"/>
			<path fill="#F9EC78" d="M16.3,65.1L25.1,53l-0.8-2.9c0,0-7.3,6.7-9.4,13.2L16.3,65.1z"/>
			<path fill="#F9EC77" d="M16.1,64.9L25,52.7l-0.8-2.9c0,0-7.3,6.8-9.4,13.4L16.1,64.9z"/>
			<path fill="#F9EC76" d="M16,64.7l9-12.4l-0.9-2.9c0,0-7.3,6.8-9.5,13.5L16,64.7z"/>
			<path fill="#FAEC75" d="M15.8,64.5l9-12.6L24,49.1c0,0-7.3,6.8-9.5,13.7L15.8,64.5z"/>
			<path fill="#FAEC74" d="M15.7,64.3l9.1-12.7l-0.9-2.9c0,0-7.4,6.9-9.6,13.8L15.7,64.3z"/>
			<path fill="#FAEC73" d="M15.5,64.1l9.2-12.8l-0.9-2.9c0,0-7.4,6.9-9.7,14L15.5,64.1z"/>
			<path fill="#FAEC72" d="M15.3,63.9l9.2-13l-0.9-2.9c0,0-7.4,6.9-9.7,14.1L15.3,63.9z"/>
			<path fill="#FAEC71" d="M15.2,63.7l9.3-13.1l-0.9-2.9c0,0-7.4,7-9.8,14.3L15.2,63.7z"/>
			<path fill="#FAEC70" d="M15,63.5l9.3-13.3l-0.9-2.9c0,0-7.4,7-9.8,14.4L15,63.5z"/>
			<path fill="#FAEC6F" d="M14.9,63.3l9.4-13.4L23.4,47c0,0-7.5,7-9.9,14.6L14.9,63.3z"/>
			<path fill="#FAEB6E" d="M14.7,63.1l9.5-13.5l-0.9-2.9c0,0-7.5,7.1-10,14.7L14.7,63.1z"/>
			<path fill="#FAEB6D" d="M14.6,62.9l9.5-13.7l-0.9-2.9c0,0-7.5,7.1-10,14.9L14.6,62.9z"/>
			<path fill="#FAEB6C" d="M14.4,62.7L24,48.9L23.1,46c0,0-7.5,7.1-10.1,15L14.4,62.7z"/>
			<path fill="#FAEB6B" d="M14.2,62.5l9.6-14l-0.9-3c0,0-7.5,7.2-10.1,15.2L14.2,62.5z"/>
			<path fill="#FAEB6A" d="M14.1,62.3l9.7-14.1l-0.9-3c0,0-7.6,7.2-10.2,15.3L14.1,62.3z"/>
			<path fill="#FAEB69" d="M13.9,62.1l9.8-14.3l-0.9-3c0,0-7.6,7.2-10.2,15.5L13.9,62.1z"/>
			<path fill="#FAEB68" d="M13.8,61.9l9.8-14.4l-0.9-3c0,0-7.6,7.3-10.3,15.6L13.8,61.9z"/>
			<path fill="#FBEB67" d="M13.6,61.7l9.9-14.5l-0.9-3c0,0-7.6,7.3-10.4,15.8L13.6,61.7z"/>
			<path fill="#FBEB66" d="M13.5,61.5l9.9-14.7l-0.9-3c0,0-7.6,7.3-10.4,15.9L13.5,61.5z"/>
			<path fill="#FBEB65" d="M13.3,61.3l10-14.8l-0.9-3c0,0-7.7,7.3-10.5,16L13.3,61.3z"/>
			<path fill="#FBEB64" d="M13.1,61.1l10.1-15l-0.9-3c0,0-7.7,7.4-10.5,16.2L13.1,61.1z"/>
			<path fill="#FBEB63" d="M13,60.9l10.1-15.1l-0.9-3c0,0-7.7,7.4-10.6,16.3L13,60.9z"/>
			<path fill="#FBEB62" d="M12.8,60.7L23,45.5l-0.9-3c0,0-7.7,7.4-10.6,16.5L12.8,60.7z"/>
			<path fill="#FBEB61" d="M12.7,60.5l10.2-15.4l-0.9-3c0,0-7.7,7.5-10.7,16.6L12.7,60.5z"/>
			<path fill="#FBEB60" d="M12.5,60.3l10.3-15.5l-0.9-3c0,0-7.8,7.5-10.8,16.8L12.5,60.3z"/>
			<path fill="#FBEB5F" d="M12.4,60.1l10.4-15.7l-0.9-3c0,0-7.8,7.5-10.8,16.9L12.4,60.1z"/>
			<path fill="#FBEB5E" d="M12.2,59.9l10.4-15.8l-0.9-3c0,0-7.8,7.6-10.9,17.1L12.2,59.9z"/>
			<path fill="#FBEB5D" d="M12,59.7l10.5-16l-0.9-3c0,0-7.8,7.6-10.9,17.2L12,59.7z"/>
			<path fill="#FBEB5C" d="M11.9,59.5l10.5-16.1l-0.9-3.1c0,0-7.8,7.6-11,17.4L11.9,59.5z"/>
			<path fill="#FBEA5B" d="M11.7,59.3l10.6-16.2L21.4,40c0,0-7.9,7.7-11,17.5L11.7,59.3z"/>
			<path fill="#FCEA5A" d="M11.6,59.1l10.7-16.4l-0.9-3.1c0,0-7.9,7.7-11.1,17.7L11.6,59.1z"/>
			<path fill="#FCEA59" d="M11.4,58.9l10.7-16.5l-0.9-3.1c0,0-7.9,7.7-11.2,17.8L11.4,58.9z"/>
			<path fill="#FCEA58" d="M11.3,58.7L22,42.1L21.1,39c0,0-7.9,7.8-11.2,18L11.3,58.7z"/>
			<path fill="#FCEA57" d="M11.1,58.5l10.8-16.8L21,38.6c0,0-7.9,7.8-11.3,18.1L11.1,58.5z"/>
			<path fill="#FCEA56" d="M10.9,58.3l10.9-16.9l-0.9-3.1c0,0-8,7.8-11.3,18.3L10.9,58.3z"/>
			<path fill="#FCEA55" d="M10.8,58.1l11-17.1l-0.9-3.1c0,0-8,7.9-11.4,18.4L10.8,58.1z"/>
			<path fill="#FCEA54" d="M10.6,57.9l11-17.2l-0.9-3.1c0,0-8,7.9-11.5,18.6L10.6,57.9z"/>
			<path fill="#FCEA53" d="M10.5,57.7l11.1-17.4l-0.9-3.1c0,0-8,7.9-11.5,18.7L10.5,57.7z"/>
			<path fill="#FCEA52" d="M10.3,57.5L21.5,40l-0.9-3.1c0,0-8,8-11.6,18.9L10.3,57.5z"/>
			<path fill="#FCEA51" d="M10.2,57.3l11.2-17.7l-0.9-3.1c0,0-8.1,8-11.6,19L10.2,57.3z"/>
			<path fill="#FCEA50" d="M10,57.1l11.3-17.8l-1-3.1c0,0-8.1,8-11.7,19.2L10,57.1z"/>
			<path fill="#FCEA4F" d="M9.9,56.9L21.2,39l-1-3.1c0,0-8.1,8-11.7,19.3L9.9,56.9z"/>
			<path fill="#FCEA4E" d="M9.7,56.7l11.4-18.1l-1-3.2c0,0-8.1,8.1-11.8,19.5L9.7,56.7z"/>
			<path fill="#FDEA4D" d="M9.5,56.5L21,38.3l-1-3.2c0,0-8.1,8.1-11.9,19.6L9.5,56.5z"/>
			<path fill="#FDEA4C" d="M9.4,56.3L20.9,38l-1-3.2c0,0-8.2,8.1-11.9,19.7L9.4,56.3z"/>
			<path fill="#FDEA4B" d="M9.2,56.1l11.6-18.5l-1-3.2c0,0-8.2,8.2-12,19.9L9.2,56.1z"/>
			<path fill="#FDEA4A" d="M9.1,55.9l11.6-18.7l-1-3.2c0,0-8.2,8.2-12,20L9.1,55.9z"/>
			<path fill="#FDE949" d="M8.9,55.7l11.7-18.8l-1-3.2c0,0-8.2,8.2-12.1,20.2L8.9,55.7z"/>
			<path fill="#FDE948" d="M8.8,55.5l11.7-18.9l-1-3.2c0,0-8.2,8.3-12.1,20.3L8.8,55.5z"/>
			<path fill="#FDE947" d="M8.6,55.3l11.8-19.1l-1-3.2c0,0-8.3,8.3-12.2,20.5L8.6,55.3z"/>
			<path fill="#FDE946" d="M8.4,55.1l11.9-19.2l-1-3.2c0,0-8.3,8.3-12.3,20.6L8.4,55.1z"/>
			<path fill="#FDE945" d="M8.3,54.9l11.9-19.4l-1-3.2c0,0-8.3,8.4-12.3,20.8L8.3,54.9z"/>
			<path fill="#FDE944" d="M8.1,54.7l12-19.5l-1-3.2c0,0-8.3,8.4-12.4,20.9L8.1,54.7z"/>
			<path fill="#FDE943" d="M8,54.5l12-19.6l-1-3.2c0,0-8.3,8.4-12.4,21.1L8,54.5z"/>
			<path fill="#FDE942" d="M7.8,54.3l12.1-19.8l-1-3.2c0,0-8.4,8.5-12.5,21.2L7.8,54.3z"/>
			<path fill="#FDE941" d="M7.7,54.1l12.2-19.9l-1-3.2c0,0-8.4,8.5-12.6,21.4L7.7,54.1z"/>
			<path fill="#FEE940" d="M7.5,53.9l12.2-20.1l-1-3.2c0,0-8.4,8.5-12.6,21.5L7.5,53.9z"/>
			<path fill="#FEE93F" d="M7.3,53.7l12.3-20.2l-1-3.3c0,0-8.4,8.6-12.7,21.7L7.3,53.7z"/>
			<path fill="#FEE93E" d="M7.2,53.5l12.3-20.4l-1-3.3c0,0-8.4,8.6-12.7,21.8L7.2,53.5z"/>
			<path fill="#FEE93D" d="M7,53.3l12.4-20.5l-1-3.3c0,0-8.5,8.6-12.8,22L7,53.3z"/>
			<path fill="#FEE93C" d="M6.9,53.1l12.5-20.6l-1-3.3c0,0-8.5,8.7-12.8,22.1L6.9,53.1z"/>
			<path fill="#FEE93B" d="M6.7,52.9l12.5-20.8l-1-3.3c0,0-8.5,8.7-12.9,22.3L6.7,52.9z"/>
			<path fill="#FEE93A" d="M6.6,52.7l12.6-20.9l-1-3.3c0,0-8.5,8.7-13,22.4L6.6,52.7z"/>
			<path fill="#FEE939" d="M6.4,52.5L19,31.5l-1-3.3c0,0-8.5,8.8-13,22.6L6.4,52.5z"/>
			<path fill="#FEE938" d="M6.2,52.3l12.7-21.2l-1-3.3c0,0-8.6,8.8-13.1,22.7L6.2,52.3z"/>
			<path fill="#FEE937" d="M6.1,52.1l12.8-21.3l-1-3.3c0,0-8.6,8.8-13.1,22.9L6.1,52.1z"/>
			<path fill="#FEE836" d="M5.9,51.9l12.8-21.5l-1-3.3c0,0-8.6,8.8-13.2,23L5.9,51.9z"/>
			<path fill="#FEE835" d="M5.8,51.7l12.9-21.6l-1-3.3c0,0-8.6,8.9-13.2,23.2L5.8,51.7z"/>
			<path fill="#FEE834" d="M5.6,51.5l12.9-21.8l-1-3.3c0,0-8.6,8.9-13.3,23.3L5.6,51.5z"/>
			<path fill="#FFE833" d="M5.5,51.3l13-21.9l-1-3.3c0,0-8.7,8.9-13.4,23.4L5.5,51.3z"/>
			<path fill="#FFE832" d="M5.3,51.1l13.1-22.1l-1-3.3c0,0-8.7,9-13.4,23.6L5.3,51.1z"/>
			<path fill="#FFE831" d="M5.1,50.9l13.1-22.2l-1-3.4c0,0-8.7,9-13.5,23.7L5.1,50.9z"/>
			<path fill="#FFE830" d="M5,50.7l13.2-22.3l-1-3.4c0,0-8.7,9-13.5,23.9L5,50.7z"/>
			<path fill="#FFE82F" d="M4.8,50.5L18.1,28l-1-3.4c0,0-8.7,9.1-13.6,24L4.8,50.5z"/>
			<path fill="#FFE82E" d="M4.7,50.3L18,27.7l-1-3.4c0,0-8.8,9.1-13.6,24.2L4.7,50.3z"/>
			<path fill="#FFE82D" d="M4.5,50.1l13.4-22.8l-1-3.4c0,0-8.8,9.1-13.7,24.3L4.5,50.1z"/>
		</g>
		<g>
			<polygon fill="#F5EEAB" points="37.5,71.4 43.9,75 52,62.9 39.1,55 			"/>
			<path fill="#F5EEAA" d="M37.5,71c0,0,6.5,3.5,6.7,3.6l8.2-12.1c0,0-13-7.9-13.3-7.8L37.5,71z"/>
			<path fill="#F5EEA9" d="M37.6,70.6c0,0,6.6,3.5,6.9,3.6L52.7,62c0,0-13.1-8-13.6-7.8L37.6,70.6z"/>
			<path fill="#F5EEA8" d="M37.6,70.2c0,0,6.8,3.5,7.2,3.6l8.3-12.2c0,0-13.2-8-13.9-7.8L37.6,70.2z"/>
			<path fill="#F5EEA7" d="M37.6,69.7c0,0,6.9,3.5,7.5,3.7l8.3-12.3c0,0-13.3-8.1-14.3-7.7L37.6,69.7z"/>
			<path fill="#F5EEA6" d="M37.7,69.3c0,0,7,3.5,7.8,3.7l8.4-12.3c0,0-13.4-8.1-14.6-7.7L37.7,69.3z"/>
			<path fill="#F5EEA5" d="M37.7,68.9c0,0,7.1,3.5,8,3.7l8.5-12.4c0,0-13.5-8.2-14.9-7.6L37.7,68.9z"/>
			<path fill="#F6EEA4" d="M37.8,68.4c0,0,7.3,3.5,8.3,3.7l8.5-12.4c0,0-13.6-8.2-15.3-7.6L37.8,68.4z"/>
			<path fill="#F6EEA3" d="M37.8,68c0,0,7.4,3.5,8.6,3.8L55,59.3c0,0-13.8-8.3-15.6-7.6L37.8,68z"/>
			<path fill="#F6EEA2" d="M37.8,67.6c0,0,7.5,3.5,8.9,3.8l8.6-12.5c0,0-13.9-8.4-16-7.5L37.8,67.6z"/>
			<path fill="#F6EEA1" d="M37.9,67.2c0,0,7.6,3.5,9.1,3.8l8.7-12.6c0,0-14-8.4-16.3-7.5L37.9,67.2z"/>
			<path fill="#F6EDA0" d="M37.9,66.7c0,0,7.8,3.5,9.4,3.8l8.8-12.6c0,0-14.1-8.5-16.6-7.4L37.9,66.7z"/>
			<path fill="#F6ED9F" d="M37.9,66.3c0,0,7.9,3.5,9.7,3.9l8.8-12.7c0,0-14.2-8.5-17-7.4L37.9,66.3z"/>
			<path fill="#F6ED9E" d="M38,65.9c0,0,8,3.5,10,3.9l8.9-12.8c0,0-14.3-8.6-17.3-7.4L38,65.9z"/>
			<path fill="#F6ED9D" d="M38,65.5c0,0,8.1,3.5,10.3,3.9l8.9-12.8c0,0-14.4-8.6-17.7-7.3L38,65.5z"/>
			<path fill="#F6ED9C" d="M38.1,65.1c0,0,8.3,3.5,10.5,4l9-12.9c0,0-14.5-8.7-18-7.3L38.1,65.1z"/>
			<path fill="#F6ED9B" d="M38.1,64.6c0,0,8.4,3.5,10.8,4L58,55.7c0,0-14.6-8.7-18.3-7.2L38.1,64.6z"/>
			<path fill="#F6ED9A" d="M38.1,64.2c0,0,8.5,3.5,11.1,4l9.1-13c0,0-14.7-8.8-18.7-7.2L38.1,64.2z"/>
			<path fill="#F6ED99" d="M38.2,63.8c0,0,8.6,3.5,11.4,4l9.2-13c0,0-14.8-8.8-19-7.2L38.2,63.8z"/>
			<path fill="#F6ED98" d="M38.2,63.4c0,0,8.8,3.5,11.6,4.1l9.2-13.1c0,0-14.9-8.9-19.4-7.1L38.2,63.4z"/>
			<path fill="#F7ED97" d="M38.3,63c0,0,8.9,3.5,11.9,4.1l9.3-13.1c0,0-15-8.9-19.7-7.1L38.3,63z"/>
			<path fill="#F7ED96" d="M38.3,62.5c0,0,9,3.5,12.2,4.1l9.3-13.2c0,0-15.1-9-20-7L38.3,62.5z"/>
			<path fill="#F7ED95" d="M38.3,62.1c0,0,9.1,3.5,12.5,4.2L60.2,53c0,0-15.2-9-20.4-7L38.3,62.1z"/>
			<path fill="#F7ED94" d="M38.4,61.7c0,0,9.3,3.5,12.7,4.2l9.5-13.3c0,0-15.3-9.1-20.7-6.9L38.4,61.7z"/>
			<path fill="#F7ED93" d="M38.4,61.3c0,0,9.4,3.5,13,4.2L61,52.2c0,0-15.4-9.1-21.1-6.9L38.4,61.3z"/>
			<path fill="#F7ED92" d="M38.5,60.9c0,0,9.5,3.5,13.3,4.2l9.6-13.4c0,0-15.5-9.2-21.4-6.9L38.5,60.9z"/>
			<path fill="#F7ED91" d="M38.5,60.4c0,0,9.6,3.5,13.6,4.3l9.6-13.4c0,0-15.7-9.2-21.7-6.8L38.5,60.4z"/>
			<path fill="#F7ED90" d="M38.5,60c0,0,9.8,3.5,13.8,4.3l9.7-13.5c0,0-15.8-9.3-22.1-6.8L38.5,60z"/>
			<path fill="#F7ED8F" d="M38.6,59.6c0,0,9.9,3.5,14.1,4.3l9.8-13.5c0,0-15.9-9.4-22.4-6.7L38.6,59.6z"/>
			<path fill="#F7ED8E" d="M38.6,59.2c0,0,10,3.5,14.4,4.3l9.8-13.6c0,0-16-9.4-22.8-6.7L38.6,59.2z"/>
			<path fill="#F7ED8D" d="M38.7,58.8c0,0,10.1,3.5,14.7,4.4l9.9-13.6c0,0-16.1-9.5-23.1-6.7L38.7,58.8z"/>
			<path fill="#F7ED8C" d="M38.7,58.4c0,0,10.2,3.5,14.9,4.4l9.9-13.7c0,0-16.2-9.5-23.4-6.6L38.7,58.4z"/>
			<path fill="#F8EC8B" d="M38.7,57.9c0,0,10.4,3.5,15.2,4.4l10-13.7c0,0-16.3-9.6-23.8-6.6L38.7,57.9z"/>
			<path fill="#F8EC8A" d="M38.8,57.5c0,0,10.5,3.5,15.5,4.5l10.1-13.8c0,0-16.4-9.6-24.1-6.5L38.8,57.5z"/>
			<path fill="#F8EC89" d="M38.8,57.1c0,0,10.6,3.5,15.8,4.5l10.1-13.9c0,0-16.5-9.7-24.5-6.5L38.8,57.1z"/>
			<path fill="#F8EC88" d="M38.8,56.7c0,0,10.7,3.5,16.1,4.5l10.2-13.9c0,0-16.6-9.7-24.8-6.5L38.8,56.7z"/>
			<path fill="#F8EC87" d="M38.9,56.3c0,0,10.9,3.5,16.3,4.5l10.2-14c0,0-16.7-9.8-25.1-6.4L38.9,56.3z"/>
			<path fill="#F8EC86" d="M38.9,55.9c0,0,11,3.5,16.6,4.6l10.3-14c0,0-16.8-9.8-25.5-6.4L38.9,55.9z"/>
			<path fill="#F8EC85" d="M39,55.4c0,0,11.1,3.5,16.9,4.6L66.2,46c0,0-16.9-9.9-25.8-6.3L39,55.4z"/>
			<path fill="#F8EC84" d="M39,55c0,0,11.2,3.4,17.2,4.6l10.4-14.1c0,0-17-9.9-26.2-6.3L39,55z"/>
			<path fill="#F8EC83" d="M39,54.6c0,0,11.4,3.4,17.4,4.7l10.5-14.2c0,0-17.1-10-26.5-6.3L39,54.6z"/>
			<path fill="#F8EC82" d="M39.1,54.2c0,0,11.5,3.4,17.7,4.7l10.5-14.2c0,0-17.2-10-26.8-6.2L39.1,54.2z"/>
			<path fill="#F8EC81" d="M39.1,53.8c0,0,11.6,3.4,18,4.7l10.6-14.3c0,0-17.3-10.1-27.2-6.2L39.1,53.8z"/>
			<path fill="#F8EC80" d="M39.2,53.4c0,0,11.7,3.4,18.3,4.7l10.6-14.3c0,0-17.4-10.1-27.5-6.1L39.2,53.4z"/>
			<path fill="#F8EC7F" d="M39.2,53c0,0,11.9,3.4,18.5,4.8l10.7-14.4c0,0-17.6-10.2-27.9-6.1L39.2,53z"/>
			<path fill="#F9EC7E" d="M39.2,52.6c0,0,12,3.4,18.8,4.8l10.8-14.4c0,0-17.7-10.2-28.2-6.1L39.2,52.6z"/>
			<path fill="#F9EC7D" d="M39.3,52.1c0,0,12.1,3.4,19.1,4.8l10.8-14.5c0,0-17.8-10.3-28.5-6L39.3,52.1z"/>
			<path fill="#F9EC7C" d="M39.3,51.7c0,0,12.2,3.4,19.4,4.9L69.6,42c0,0-17.9-10.3-28.9-6L39.3,51.7z"/>
			<path fill="#F9EC7B" d="M39.4,51.3c0,0,12.4,3.4,19.6,4.9l10.9-14.6c0,0-18-10.4-29.2-5.9L39.4,51.3z"/>
			<path fill="#F9EC7A" d="M39.4,50.9c0,0,12.5,3.4,19.9,4.9l11-14.6c0,0-18.1-10.5-29.5-5.9L39.4,50.9z"/>
			<path fill="#F9EC79" d="M39.4,50.5c0,0,12.6,3.4,20.2,4.9l11.1-14.7c0,0-18.2-10.5-29.9-5.9L39.4,50.5z"/>
			<path fill="#F9EC78" d="M39.5,50.1c0,0,12.7,3.4,20.5,5l11.1-14.7c0,0-18.3-10.6-30.2-5.8L39.5,50.1z"/>
			<path fill="#F9EC77" d="M39.5,49.7c0,0,12.9,3.4,20.8,5l11.2-14.8c0,0-18.4-10.6-30.6-5.8L39.5,49.7z"/>
			<path fill="#F9EB76" d="M39.6,49.3c0,0,13,3.4,21,5l11.2-14.9c0,0-18.5-10.7-30.9-5.7L39.6,49.3z"/>
			<path fill="#F9EB75" d="M39.6,48.8c0,0,13.1,3.4,21.3,5L72.2,39c0,0-18.6-10.7-31.2-5.7L39.6,48.8z"/>
			<path fill="#F9EB74" d="M39.6,48.4c0,0,13.2,3.4,21.6,5.1l11.3-15c0,0-18.7-10.8-31.6-5.7L39.6,48.4z"/>
			<path fill="#F9EB73" d="M39.7,48c0,0,13.4,3.4,21.9,5.1l11.4-15c0,0-18.8-10.8-31.9-5.6L39.7,48z"/>
			<path fill="#F9EB72" d="M39.7,47.6c0,0,13.5,3.4,22.1,5.1l11.5-15.1c0,0-18.9-10.9-32.3-5.6L39.7,47.6z"/>
			<path fill="#FAEB71" d="M39.8,47.2c0,0,13.6,3.4,22.4,5.2l11.5-15.1c0,0-19-10.9-32.6-5.5L39.8,47.2z"/>
			<path fill="#FAEB70" d="M39.8,46.8c0,0,13.7,3.4,22.7,5.2l11.6-15.2c0,0-19.1-11-32.9-5.5L39.8,46.8z"/>
			<path fill="#FAEB6F" d="M39.8,46.4c0,0,13.9,3.4,23,5.2l11.6-15.2c0,0-19.2-11-33.3-5.4L39.8,46.4z"/>
			<path fill="#FAEB6E" d="M39.9,46c0,0,14,3.4,23.2,5.2l11.7-15.3c0,0-19.3-11.1-33.6-5.4L39.9,46z"/>
			<path fill="#FAEB6D" d="M39.9,45.6c0,0,14.1,3.4,23.5,5.3l11.8-15.3c0,0-19.5-11.1-34-5.4L39.9,45.6z"/>
			<path fill="#FAEB6C" d="M39.9,45.1c0,0,14.2,3.4,23.8,5.3l11.8-15.4c0,0-19.6-11.2-34.3-5.3L39.9,45.1z"/>
			<path fill="#FAEB6C" d="M40,44.7c0,0,14.4,3.4,24.1,5.3l11.9-15.4c0,0-19.7-11.2-34.6-5.3L40,44.7z"/>
			<path fill="#FAEB6B" d="M40,44.3c0,0,14.5,3.4,24.3,5.4l11.9-15.5c0,0-19.8-11.3-35-5.2L40,44.3z"/>
			<path fill="#FAEB6A" d="M40.1,43.9c0,0,14.6,3.4,24.6,5.4l12-15.5c0,0-19.9-11.3-35.3-5.2L40.1,43.9z"/>
			<path fill="#FAEB69" d="M40.1,43.5c0,0,14.7,3.4,24.9,5.4l12.1-15.6c0,0-20-11.4-35.7-5.2L40.1,43.5z"/>
			<path fill="#FAEB68" d="M40.1,43.1c0,0,14.9,3.4,25.2,5.4l12.1-15.6c0,0-20.1-11.5-36-5.1L40.1,43.1z"/>
			<path fill="#FAEB67" d="M40.2,42.7c0,0,15,3.4,25.4,5.5l12.2-15.7c0,0-20.2-11.5-36.3-5.1L40.2,42.7z"/>
			<path fill="#FBEB66" d="M40.2,42.3c0,0,15.1,3.4,25.7,5.5L78.2,32c0,0-20.3-11.6-36.7-5L40.2,42.3z"/>
			<path fill="#FBEB65" d="M40.3,41.9c0,0,15.2,3.4,26,5.5l12.3-15.8c0,0-20.4-11.6-37-5L40.3,41.9z"/>
			<path fill="#FBEB64" d="M40.3,41.4c0,0,15.4,3.4,26.3,5.5l12.3-15.8c0,0-20.5-11.7-37.4-5L40.3,41.4z"/>
			<path fill="#FBEB63" d="M40.3,41c0,0,15.5,3.4,26.6,5.6l12.4-15.9c0,0-20.6-11.7-37.7-4.9L40.3,41z"/>
			<path fill="#FBEB62" d="M40.4,40.6c0,0,15.6,3.4,26.8,5.6l12.5-16c0,0-20.7-11.8-38-4.9L40.4,40.6z"/>
			<path fill="#FBEA61" d="M40.4,40.2c0,0,15.7,3.4,27.1,5.6l12.5-16c0,0-20.8-11.8-38.4-4.8L40.4,40.2z"/>
			<path fill="#FBEA60" d="M40.5,39.8c0,0,15.9,3.4,27.4,5.7l12.6-16.1c0,0-20.9-11.9-38.7-4.8L40.5,39.8z"/>
			<path fill="#FBEA5F" d="M40.5,39.4c0,0,16,3.4,27.7,5.7L80.8,29c0,0-21-11.9-39.1-4.8L40.5,39.4z"/>
			<path fill="#FBEA5E" d="M40.5,39c0,0,16.1,3.4,27.9,5.7l12.7-16.2c0,0-21.1-12-39.4-4.7L40.5,39z"/>
			<path fill="#FBEA5D" d="M40.6,38.6c0,0,16.2,3.4,28.2,5.7l12.8-16.2c0,0-21.2-12-39.7-4.7L40.6,38.6z"/>
			<path fill="#FBEA5C" d="M40.6,38.2c0,0,16.4,3.4,28.5,5.8l12.8-16.3c0,0-21.3-12.1-40.1-4.6L40.6,38.2z"/>
			<path fill="#FBEA5B" d="M40.7,37.8c0,0,16.5,3.3,28.8,5.8l12.9-16.3c0,0-21.5-12.1-40.4-4.6L40.7,37.8z"/>
			<path fill="#FBEA5A" d="M40.7,37.4c0,0,16.6,3.3,29,5.8l12.9-16.4c0,0-21.6-12.2-40.8-4.6L40.7,37.4z"/>
			<path fill="#FCEA59" d="M40.7,36.9c0,0,16.7,3.3,29.3,5.9l13-16.4c0,0-21.7-12.2-41.1-4.5L40.7,36.9z"/>
			<path fill="#FCEA58" d="M40.8,36.5c0,0,16.9,3.3,29.6,5.9l13.1-16.5c0,0-21.8-12.3-41.4-4.5L40.8,36.5z"/>
			<path fill="#FCEA57" d="M40.8,36.1c0,0,17,3.3,29.9,5.9l13.1-16.5c0,0-21.9-12.3-41.8-4.4L40.8,36.1z"/>
			<path fill="#FCEA56" d="M40.8,35.7c0,0,17.1,3.3,30.1,5.9l13.2-16.6c0,0-22-12.4-42.1-4.4L40.8,35.7z"/>
			<path fill="#FCEA55" d="M40.9,35.3c0,0,17.2,3.3,30.4,6l13.2-16.6c0,0-22.1-12.5-42.5-4.4L40.9,35.3z"/>
			<path fill="#FCEA54" d="M40.9,34.9c0,0,17.4,3.3,30.7,6l13.3-16.7c0,0-22.2-12.5-42.8-4.3L40.9,34.9z"/>
			<path fill="#FCEA53" d="M41,34.5c0,0,17.5,3.3,31,6l13.3-16.7c0,0-22.3-12.6-43.1-4.3L41,34.5z"/>
			<path fill="#FCEA52" d="M41,34.1c0,0,17.6,3.3,31.3,6.1l13.4-16.8c0,0-22.4-12.6-43.5-4.2L41,34.1z"/>
			<path fill="#FCEA51" d="M41,33.7c0,0,17.7,3.3,31.5,6.1L86,22.9c0,0-22.5-12.7-43.8-4.2L41,33.7z"/>
			<path fill="#FCEA50" d="M41.1,33.3c0,0,17.9,3.3,31.8,6.1l13.5-16.9c0,0-22.6-12.7-44.1-4.2L41.1,33.3z"/>
			<path fill="#FCEA4F" d="M41.1,32.9c0,0,18,3.3,32.1,6.1l13.6-17c0,0-22.7-12.8-44.5-4.1L41.1,32.9z"/>
			<path fill="#FCEA4E" d="M41.2,32.5c0,0,18.1,3.3,32.4,6.2l13.6-17c0,0-22.8-12.8-44.8-4.1L41.2,32.5z"/>
			<path fill="#FCEA4D" d="M41.2,32c0,0,18.2,3.3,32.6,6.2l13.7-17.1c0,0-22.9-12.9-45.2-4L41.2,32z"/>
			<path fill="#FDE94C" d="M41.2,31.6c0,0,18.4,3.3,32.9,6.2l13.8-17.1c0,0-23-12.9-45.5-4L41.2,31.6z"/>
			<path fill="#FDE94B" d="M41.3,31.2c0,0,18.5,3.3,33.2,6.2l13.8-17.2c0,0-23.1-13-45.8-4L41.3,31.2z"/>
			<path fill="#FDE94A" d="M41.3,30.8c0,0,18.6,3.3,33.5,6.3l13.9-17.2c0,0-23.2-13-46.2-3.9L41.3,30.8z"/>
			<path fill="#FDE949" d="M41.4,30.4c0,0,18.7,3.3,33.7,6.3L89,19.5c0,0-23.4-13.1-46.5-3.9L41.4,30.4z"/>
			<path fill="#FDE948" d="M41.4,30c0,0,18.9,3.3,34,6.3l14-17.3c0,0-23.5-13.1-46.9-3.8L41.4,30z"/>
			<path fill="#FDE947" d="M41.4,29.6c0,0,19,3.3,34.3,6.4l14.1-17.4c0,0-23.6-13.2-47.2-3.8L41.4,29.6z"/>
			<path fill="#FDE946" d="M41.5,29.2c0,0,19.1,3.3,34.6,6.4l14.1-17.4c0,0-23.7-13.2-47.5-3.7L41.5,29.2z"/>
			<path fill="#FDE945" d="M41.5,28.8c0,0,19.2,3.3,34.8,6.4l14.2-17.5c0,0-23.8-13.3-47.9-3.7L41.5,28.8z"/>
			<path fill="#FDE944" d="M41.6,28.4c0,0,19.4,3.3,35.1,6.4l14.2-17.5c0,0-23.9-13.3-48.2-3.7L41.6,28.4z"/>
			<path fill="#FDE943" d="M41.6,28c0,0,19.5,3.3,35.4,6.5l14.3-17.6c0,0-24-13.4-48.6-3.6L41.6,28z"/>
			<path fill="#FDE942" d="M41.6,27.6c0,0,19.6,3.3,35.7,6.5l14.3-17.6c0,0-24.1-13.5-48.9-3.6L41.6,27.6z"/>
			<path fill="#FDE941" d="M41.7,27.2c0,0,19.7,3.3,35.9,6.5L92,16c0,0-24.2-13.5-49.2-3.5L41.7,27.2z"/>
			<path fill="#FEE940" d="M41.7,26.7c0,0,19.9,3.3,36.2,6.6l14.5-17.7c0,0-24.3-13.6-49.6-3.5L41.7,26.7z"/>
			<path fill="#FEE93F" d="M41.7,26.3c0,0,20,3.3,36.5,6.6l14.5-17.8c0,0-24.4-13.6-49.9-3.5L41.7,26.3z"/>
			<path fill="#FEE93E" d="M41.8,25.9c0,0,20.1,3.3,36.8,6.6l14.6-17.8c0,0-24.5-13.7-50.3-3.4L41.8,25.9z"/>
			<path fill="#FEE93D" d="M41.8,25.5c0,0,20.2,3.3,37.1,6.6l14.6-17.9c0,0-24.6-13.7-50.6-3.4L41.8,25.5z"/>
			<path fill="#FEE93C" d="M41.9,25.1c0,0,20.4,3.3,37.3,6.7l14.7-18c0,0-24.7-13.8-50.9-3.3L41.9,25.1z"/>
			<path fill="#FEE93B" d="M41.9,24.7c0,0,20.5,3.3,37.6,6.7l14.8-18c0,0-24.8-13.8-51.3-3.3L41.9,24.7z"/>
			<path fill="#FEE93A" d="M41.9,24.3c0,0,20.6,3.3,37.9,6.7L94.6,13c0,0-24.9-13.9-51.6-3.3L41.9,24.3z"/>
			<path fill="#FEE939" d="M42,23.9c0,0,20.7,3.3,38.2,6.7L95,12.5c0,0-25-13.9-52-3.2L42,23.9z"/>
			<path fill="#FEE938" d="M42,23.5c0,0,20.9,3.3,38.4,6.8l14.9-18.2c0,0-25.1-14-52.3-3.2L42,23.5z"/>
			<path fill="#FEE837" d="M42.1,23.1c0,0,21,3.3,38.7,6.8l15-18.2c0,0-25.3-14-52.6-3.1L42.1,23.1z"/>
			<path fill="#FEE836" d="M42.1,22.7c0,0,21.1,3.3,39,6.8l15.1-18.3c0,0-25.4-14.1-53-3.1L42.1,22.7z"/>
			<path fill="#FEE835" d="M42.1,22.3c0,0,21.2,3.3,39.3,6.9l15.1-18.3c0,0-25.5-14.1-53.3-3.1L42.1,22.3z"/>
			<path fill="#FEE834" d="M42.2,21.9c0,0,21.4,3.3,39.5,6.9l15.2-18.4c0,0-25.6-14.2-53.7-3L42.2,21.9z"/>
			<path fill="#FFE833" d="M42.2,21.5c0,0,21.5,3.3,39.8,6.9L97.3,10c0,0-25.7-14.2-54-3L42.2,21.5z"/>
			<path fill="#FFE832" d="M42.3,21.1c0,0,21.6,3.3,40.1,6.9L97.6,9.5c0,0-25.8-14.3-54.3-2.9L42.3,21.1z"/>
			<path fill="#FFE831" d="M42.3,20.7c0,0,21.7,3.3,40.4,7L98,9.1c0,0-25.9-14.3-54.7-2.9L42.3,20.7z"/>
			<path fill="#FFE830" d="M42.3,20.3c0,0,21.9,3.2,40.6,7L98.4,8.7c0,0-26-14.4-55-2.9L42.3,20.3z"/>
			<path fill="#FFE82F" d="M42.4,19.8c0,0,22,3.2,40.9,7L98.8,8.2c0,0-26.1-14.4-55.4-2.8L42.4,19.8z"/>
			<path fill="#FFE82E" d="M42.4,19.4c0,0,22.1,3.2,41.2,7.1L99.1,7.8c0,0-26.2-14.5-55.7-2.8L42.4,19.4z"/>
			<path fill="#FFE82D" d="M42.5,19c0,0,22.2,3.2,41.5,7.1L99.5,7.4c0,0-26.3-14.6-56-2.7L42.5,19z"/>
		</g>
		<g>
			<path fill="#F5EEAB" d="M21.6,78.9c0,0-0.7,2.8-0.8,6.3l2.2-0.2l0.8-5.6L21.6,78.9z"/>
			<path fill="#F5EEA9" d="M20.5,85.2l2.2-0.2c0,0,0.8-5.7,0.8-5.7l-2.2-0.4C21.3,78.8,20.6,81.7,20.5,85.2z"/>
			<path fill="#F5EEA8" d="M20.3,85.2l2.2-0.2c0,0,0.7-5.7,0.8-5.8L21,78.8C21,78.8,20.3,81.7,20.3,85.2z"/>
			<path fill="#F5EEA6" d="M20,85.2l2.2-0.2c0,0,0.7-5.7,0.7-5.8l-2.3-0.4C20.7,78.7,20.1,81.8,20,85.2z"/>
			<path fill="#F5EEA5" d="M19.8,85.2l2.2-0.2c0,0,0.7-5.8,0.7-5.9l-2.3-0.4C20.5,78.7,19.8,81.8,19.8,85.2z"/>
			<path fill="#F6EEA3" d="M19.6,85.3l2.2-0.2c0,0,0.7-5.8,0.7-6l-2.3-0.4C20.2,78.6,19.5,81.8,19.6,85.3z"/>
			<path fill="#F6EEA2" d="M19.3,85.3l2.3-0.2c0,0,0.6-5.8,0.7-6l-2.3-0.4C19.9,78.6,19.3,81.8,19.3,85.3z"/>
			<path fill="#F6EDA0" d="M19.1,85.3l2.3-0.2c0,0,0.6-5.9,0.6-6.1l-2.4-0.4C19.6,78.5,19,81.8,19.1,85.3z"/>
			<path fill="#F6ED9F" d="M18.9,85.3l2.3-0.2c0,0,0.6-5.9,0.6-6.2l-2.4-0.4C19.4,78.5,18.8,81.9,18.9,85.3z"/>
			<path fill="#F6ED9D" d="M18.6,85.4l2.3-0.2c0,0,0.5-5.9,0.6-6.2l-2.4-0.4C19.1,78.4,18.5,81.9,18.6,85.4z"/>
			<path fill="#F6ED9B" d="M18.4,85.4l2.3-0.2c0,0,0.5-6,0.6-6.3l-2.4-0.4C18.8,78.4,18.3,81.9,18.4,85.4z"/>
			<path fill="#F6ED9A" d="M18.2,85.4l2.3-0.2c0,0,0.5-6,0.6-6.4l-2.4-0.4C18.6,78.4,18,81.9,18.2,85.4z"/>
			<path fill="#F6ED98" d="M18,85.4l2.3-0.2c0,0,0.5-6,0.5-6.5l-2.5-0.4C18.3,78.3,17.7,81.9,18,85.4z"/>
			<path fill="#F7ED97" d="M17.7,85.4l2.3-0.2c0,0,0.4-6.1,0.5-6.5L18,78.3C18,78.3,17.5,82,17.7,85.4z"/>
			<path fill="#F7ED95" d="M17.5,85.5l2.3-0.2c0,0,0.4-6.1,0.5-6.6l-2.5-0.4C17.8,78.2,17.2,82,17.5,85.5z"/>
			<path fill="#F7ED94" d="M17.3,85.5l2.3-0.2c0,0,0.4-6.1,0.5-6.7l-2.5-0.5C17.5,78.2,17,82,17.3,85.5z"/>
			<path fill="#F7ED92" d="M17,85.5l2.3-0.2c0,0,0.4-6.2,0.4-6.7l-2.5-0.5C17.2,78.1,16.7,82,17,85.5z"/>
			<path fill="#F7ED91" d="M16.8,85.5l2.3-0.2c0,0,0.3-6.2,0.4-6.8L17,78.1C17,78.1,16.5,82,16.8,85.5z"/>
			<path fill="#F7ED8F" d="M16.6,85.6l2.3-0.2c0,0,0.3-6.2,0.4-6.9L16.7,78C16.7,78,16.2,82.1,16.6,85.6z"/>
			<path fill="#F7ED8D" d="M16.4,85.6l2.3-0.2c0,0,0.3-6.3,0.4-6.9L16.4,78C16.4,78,16,82.1,16.4,85.6z"/>
			<path fill="#F7ED8C" d="M16.1,85.6l2.3-0.2c0,0,0.2-6.3,0.3-7l-2.6-0.5C16.2,77.9,15.7,82.1,16.1,85.6z"/>
			<path fill="#F8EC8A" d="M15.9,85.6l2.3-0.2c0,0,0.2-6.3,0.3-7.1l-2.6-0.5C15.9,77.9,15.5,82.1,15.9,85.6z"/>
			<path fill="#F8EC89" d="M15.7,85.7l2.3-0.2c0,0,0.2-6.4,0.3-7.1l-2.7-0.5C15.6,77.8,15.2,82.1,15.7,85.7z"/>
			<path fill="#F8EC87" d="M15.5,85.7l2.3-0.2c0,0,0.2-6.4,0.3-7.2l-2.7-0.5C15.4,77.8,15,82.1,15.5,85.7z"/>
			<path fill="#F8EC86" d="M15.2,85.7l2.3-0.2c0,0,0.1-6.4,0.3-7.3l-2.7-0.5C15.1,77.7,14.7,82.2,15.2,85.7z"/>
			<path fill="#F8EC84" d="M15,85.7l2.3-0.2c0,0,0.1-6.5,0.2-7.3l-2.7-0.5C14.8,77.7,14.5,82.2,15,85.7z"/>
			<path fill="#F8EC83" d="M14.8,85.7l2.3-0.2c0,0,0.1-6.5,0.2-7.4l-2.7-0.5C14.6,77.6,14.2,82.2,14.8,85.7z"/>
			<path fill="#F8EC81" d="M14.6,85.8l2.3-0.2c0,0,0-6.5,0.2-7.5l-2.8-0.5C14.3,77.6,14,82.2,14.6,85.8z"/>
			<path fill="#F8EC7F" d="M14.4,85.8l2.3-0.2c0,0,0-6.6,0.2-7.5l-2.8-0.5C14.1,77.5,13.8,82.2,14.4,85.8z"/>
			<path fill="#F9EC7E" d="M14.1,85.8l2.3-0.2c0,0,0-6.6,0.1-7.6l-2.8-0.5C13.8,77.5,13.5,82.3,14.1,85.8z"/>
			<path fill="#F9EC7C" d="M13.9,85.8l2.3-0.2c0,0,0-6.6,0.1-7.7l-2.8-0.5C13.5,77.4,13.3,82.3,13.9,85.8z"/>
			<path fill="#F9EC7B" d="M13.7,85.9l2.3-0.2c0,0-0.1-6.7,0.1-7.7l-2.9-0.5C13.3,77.4,13,82.3,13.7,85.9z"/>
			<path fill="#F9EC79" d="M13.5,85.9l2.3-0.2c0,0-0.1-6.7,0.1-7.8L13,77.3C13,77.3,12.8,82.3,13.5,85.9z"/>
			<path fill="#F9EC78" d="M13.3,85.9l2.3-0.2c0,0-0.1-6.7,0.1-7.9l-2.9-0.5C12.8,77.3,12.5,82.3,13.3,85.9z"/>
			<path fill="#F9EB76" d="M13,85.9l2.3-0.2c0,0-0.2-6.8,0-7.9l-2.9-0.5C12.5,77.3,12.3,82.4,13,85.9z"/>
			<path fill="#F9EB75" d="M12.8,85.9l2.3-0.2c0,0-0.2-6.8,0-8l-2.9-0.5C12.3,77.2,12.1,82.4,12.8,85.9z"/>
			<path fill="#F9EB73" d="M12.6,86l2.4-0.2c0,0-0.2-6.8,0-8.1l-3-0.5C12,77.2,11.8,82.4,12.6,86z"/>
			<path fill="#FAEB71" d="M12.4,86l2.4-0.2c0,0-0.2-6.9,0-8.1l-3-0.5C11.7,77.1,11.5,82.4,12.4,86z"/>
			<path fill="#FAEB70" d="M12.1,86l2.4-0.2c0,0-0.3-6.9-0.1-8.2l-3-0.5C11.4,77.1,11.3,82.4,12.1,86z"/>
			<path fill="#FAEB6E" d="M11.9,86l2.4-0.2c0,0-0.3-6.9-0.1-8.3l-3-0.5C11.2,77,11,82.5,11.9,86z"/>
			<path fill="#FAEB6D" d="M11.7,86.1l2.4-0.2c0,0-0.3-7-0.1-8.3l-3-0.5C10.9,77,10.8,82.5,11.7,86.1z"/>
			<path fill="#FAEB6B" d="M11.5,86.1l2.4-0.2c0,0-0.4-7-0.1-8.4l-3.1-0.5C10.6,76.9,10.5,82.5,11.5,86.1z"/>
			<path fill="#FAEB6A" d="M11.2,86.1l2.4-0.2c0,0-0.4-7-0.2-8.5l-3.1-0.6C10.4,76.9,10.3,82.5,11.2,86.1z"/>
			<path fill="#FAEB68" d="M11,86.1l2.4-0.2c0,0-0.4-7.1-0.2-8.5l-3.1-0.6C10.1,76.8,10,82.5,11,86.1z"/>
			<path fill="#FAEB67" d="M10.8,86.1l2.4-0.2c0,0-0.4-7.1-0.2-8.6l-3.1-0.6C9.8,76.8,9.8,82.6,10.8,86.1z"/>
			<path fill="#FBEB65" d="M10.6,86.2l2.4-0.2c0,0-0.5-7.1-0.2-8.7l-3.1-0.6C9.6,76.7,9.5,82.6,10.6,86.2z"/>
			<path fill="#FBEB63" d="M10.3,86.2l2.4-0.2c0,0-0.5-7.2-0.2-8.7l-3.2-0.6C9.3,76.7,9.3,82.6,10.3,86.2z"/>
			<path fill="#FBEB62" d="M10.1,86.2l2.4-0.2c0,0-0.5-7.2-0.3-8.8L9,76.6C9,76.6,9,82.6,10.1,86.2z"/>
			<path fill="#FBEA60" d="M9.9,86.2l2.4-0.2c0,0-0.5-7.2-0.3-8.9l-3.2-0.6C8.8,76.6,8.8,82.6,9.9,86.2z"/>
			<path fill="#FBEA5F" d="M9.7,86.3l2.4-0.2c0,0-0.6-7.3-0.3-8.9l-3.2-0.6C8.5,76.5,8.5,82.7,9.7,86.3z"/>
			<path fill="#FBEA5D" d="M9.4,86.3l2.4-0.2c0,0-0.6-7.3-0.3-9l-3.2-0.6C8.3,76.5,8.3,82.7,9.4,86.3z"/>
			<path fill="#FBEA5C" d="M9.2,86.3l2.4-0.2c0,0-0.6-7.3-0.4-9.1L8,76.4C8,76.4,8,82.7,9.2,86.3z"/>
			<path fill="#FBEA5A" d="M9,86.3l2.4-0.2c0,0-0.7-7.4-0.4-9.1l-3.3-0.6C7.7,76.4,7.8,82.7,9,86.3z"/>
			<path fill="#FCEA59" d="M8.7,86.4l2.4-0.2c0,0-0.7-7.4-0.4-9.2l-3.3-0.6C7.5,76.3,7.5,82.7,8.7,86.4z"/>
			<path fill="#FCEA57" d="M8.5,86.4l2.4-0.2c0,0-0.7-7.4-0.4-9.3l-3.3-0.6C7.2,76.3,7.3,82.8,8.5,86.4z"/>
			<path fill="#FCEA55" d="M8.3,86.4l2.4-0.2c0,0-0.7-7.5-0.4-9.3l-3.3-0.6C6.9,76.2,7,82.8,8.3,86.4z"/>
			<path fill="#FCEA54" d="M8.1,86.4l2.4-0.2c0,0-0.8-7.5-0.5-9.4l-3.4-0.6C6.7,76.2,6.8,82.8,8.1,86.4z"/>
			<path fill="#FCEA52" d="M7.8,86.4l2.4-0.2c0,0-0.8-7.5-0.5-9.5l-3.4-0.6C6.4,76.1,6.5,82.8,7.8,86.4z"/>
			<path fill="#FCEA51" d="M7.6,86.5l2.4-0.2c0,0-0.8-7.6-0.5-9.6l-3.4-0.6C6.1,76.1,6.3,82.8,7.6,86.5z"/>
			<path fill="#FCEA4F" d="M7.4,86.5l2.4-0.2c0,0-0.9-7.6-0.5-9.6l-3.4-0.6C5.9,76.1,6,82.8,7.4,86.5z"/>
			<path fill="#FCEA4E" d="M7.2,86.5l2.4-0.2c0,0-0.9-7.6-0.6-9.7L5.6,76C5.6,76,5.8,82.9,7.2,86.5z"/>
			<path fill="#FDE94C" d="M6.9,86.5l2.4-0.2c0,0-0.9-7.7-0.6-9.8L5.3,76C5.3,76,5.5,82.9,6.9,86.5z"/>
			<path fill="#FDE94B" d="M6.7,86.6l2.4-0.2c0,0-0.9-7.7-0.6-9.8l-3.5-0.6C5.1,75.9,5.3,82.9,6.7,86.6z"/>
			<path fill="#FDE949" d="M6.5,86.6l2.4-0.2c0,0-1-7.7-0.6-9.9l-3.5-0.6C4.8,75.9,5,82.9,6.5,86.6z"/>
			<path fill="#FDE947" d="M6.3,86.6l2.4-0.2c0,0-1-7.8-0.7-10l-3.5-0.6C4.5,75.8,4.8,82.9,6.3,86.6z"/>
			<path fill="#FDE946" d="M6,86.6l2.5-0.2c0,0-1-7.8-0.7-10l-3.5-0.6C4.3,75.8,4.5,83,6,86.6z"/>
			<path fill="#FDE944" d="M5.8,86.6l2.5-0.2c0,0-1.1-7.8-0.7-10.1L4,75.7C4,75.7,4.3,83,5.8,86.6z"/>
			<path fill="#FDE943" d="M5.6,86.7L8,86.5c0,0-1.1-7.9-0.7-10.2l-3.6-0.6C3.7,75.7,4,83,5.6,86.7z"/>
			<path fill="#FDE941" d="M5.4,86.7l2.5-0.2c0,0-1.1-7.9-0.7-10.2l-3.6-0.6C3.5,75.6,3.8,83,5.4,86.7z"/>
			<path fill="#FEE940" d="M5.1,86.7l2.5-0.2c0,0-1.1-7.9-0.8-10.3l-3.6-0.7C3.2,75.6,3.5,83,5.1,86.7z"/>
			<path fill="#FEE93E" d="M4.9,86.7l2.5-0.2c0,0-1.2-8-0.8-10.4l-3.7-0.7C2.9,75.5,3.3,83.1,4.9,86.7z"/>
			<path fill="#FEE93D" d="M4.7,86.8l2.5-0.2c0,0-1.2-8-0.8-10.4l-3.7-0.7C2.7,75.5,3,83.1,4.7,86.8z"/>
			<path fill="#FEE93B" d="M4.4,86.8l2.5-0.2c0,0-1.2-8-0.8-10.5l-3.7-0.7C2.4,75.4,2.7,83.1,4.4,86.8z"/>
			<path fill="#FEE939" d="M4.2,86.8l2.5-0.2c0,0-1.3-8.1-0.9-10.6l-3.7-0.7C2.1,75.4,2.5,83.1,4.2,86.8z"/>
			<path fill="#FEE938" d="M4,86.8l2.5-0.2c0,0-1.3-8.1-0.9-10.6l-3.7-0.7C1.9,75.3,2.2,83.1,4,86.8z"/>
			<path fill="#FEE836" d="M3.8,86.9l2.5-0.2c0,0-1.3-8.1-0.9-10.7l-3.8-0.7C1.6,75.3,2,83.2,3.8,86.9z"/>
			<path fill="#FEE835" d="M3.5,86.9L6,86.7c0,0-1.3-8.2-0.9-10.8l-3.8-0.7C1.3,75.2,1.7,83.2,3.5,86.9z"/>
			<path fill="#FFE833" d="M3.3,86.9l2.5-0.2c0,0-1.4-8.2-0.9-10.8l-3.8-0.7C1.1,75.2,1.5,83.2,3.3,86.9z"/>
			<path fill="#FFE832" d="M3.1,86.9l2.5-0.2c0,0-1.4-8.2-1-10.9l-3.8-0.7C0.8,75.1,1.2,83.2,3.1,86.9z"/>
			<path fill="#FFE830" d="M2.9,86.9l2.5-0.2c0,0-1.4-8.3-1-11l-3.8-0.7C0.5,75.1,1,83.2,2.9,86.9z"/>
			<path fill="#FFE82F" d="M2.6,87l2.5-0.2c0,0-1.4-8.3-1-11L0.3,75C0.3,75,0.7,83.3,2.6,87z"/>
			<path fill="#FFE82D" d="M2.4,87l2.5-0.2c0,0-1.5-8.3-1-11.1L0,75C0,75,0.5,83.3,2.4,87z"/>
		</g>
		<g>
			<polygon fill="#F5EEAB" points="45.8,77.8 71.7,65.9 74.1,79.1 45.7,82.3 			"/>
			<path fill="#F5EEA9" d="M46.5,77.5l25.9-11.8c0.1,0.1,2.4,13.4,2.4,13.4l-28.4,3.2L46.5,77.5z"/>
			<path fill="#F5EEA8" d="M47.1,77.2l26-11.8c0.1,0.3,2.5,13.6,2.5,13.6l-28.5,3.1L47.1,77.2z"/>
			<path fill="#F5EEA6" d="M47.8,76.9l26-11.8c0.2,0.4,2.5,13.7,2.5,13.7L47.9,82L47.8,76.9z"/>
			<path fill="#F5EEA5" d="M48.5,76.6l26.1-11.8c0.3,0.5,2.5,13.9,2.5,13.9l-28.5,3.1L48.5,76.6z"/>
			<path fill="#F6EEA3" d="M49.2,76.3l26.2-11.8c0.4,0.7,2.5,14.1,2.5,14.1l-28.5,3.1L49.2,76.3z"/>
			<path fill="#F6EEA2" d="M49.9,76l26.2-11.8c0.4,0.8,2.6,14.3,2.6,14.3l-28.6,3.1L49.9,76z"/>
			<path fill="#F6EDA0" d="M50.6,75.7l26.3-11.8c0.5,0.9,2.6,14.5,2.6,14.5l-28.6,3.1L50.6,75.7z"/>
			<path fill="#F6ED9F" d="M51.3,75.5l26.3-11.8c0.6,1.1,2.6,14.6,2.6,14.6l-28.6,3.1L51.3,75.5z"/>
			<path fill="#F6ED9D" d="M51.9,75.2l26.4-11.8C79,64.5,81,78.2,81,78.2l-28.6,3.1L51.9,75.2z"/>
			<path fill="#F6ED9B" d="M52.6,74.9L79.1,63c0.7,1.3,2.7,15,2.7,15l-28.7,3.1L52.6,74.9z"/>
			<path fill="#F6ED9A" d="M53.3,74.6l26.5-11.8c0.8,1.5,2.7,15.2,2.7,15.2l-28.7,3.1L53.3,74.6z"/>
			<path fill="#F6ED98" d="M54,74.3l26.5-11.8c0.9,1.6,2.7,15.4,2.7,15.4L54.6,81L54,74.3z"/>
			<path fill="#F7ED97" d="M54.7,74l26.6-11.8c1,1.7,2.8,15.6,2.8,15.6l-28.7,3.1L54.7,74z"/>
			<path fill="#F7ED95" d="M55.4,73.7L82,61.9c1,1.9,2.8,15.7,2.8,15.7l-28.7,3.1L55.4,73.7z"/>
			<path fill="#F7ED94" d="M56.1,73.4l26.7-11.8c1.1,2,2.8,15.9,2.8,15.9l-28.8,3.1L56.1,73.4z"/>
			<path fill="#F7ED92" d="M56.8,73.2l26.8-11.8c1.2,2.1,2.8,16.1,2.8,16.1l-28.8,3.1L56.8,73.2z"/>
			<path fill="#F7ED91" d="M57.4,72.9L84.3,61c1.3,2.3,2.9,16.3,2.9,16.3l-28.8,3.1L57.4,72.9z"/>
			<path fill="#F7ED8F" d="M58.1,72.6L85,60.7c1.3,2.4,2.9,16.5,2.9,16.5l-28.8,3.1L58.1,72.6z"/>
			<path fill="#F7ED8D" d="M58.8,72.3l26.9-11.9c1.4,2.5,2.9,16.6,2.9,16.6l-28.9,3.1L58.8,72.3z"/>
			<path fill="#F7ED8C" d="M59.5,72l27-11.9C88,62.8,89.4,77,89.4,77l-28.9,3.1L59.5,72z"/>
			<path fill="#F8EC8A" d="M60.2,71.7l27-11.9c1.6,2.8,3,17,3,17L61.3,80L60.2,71.7z"/>
			<path fill="#F8EC89" d="M60.9,71.4L88,59.6c1.6,2.9,3,17.2,3,17.2L62,79.9L60.9,71.4z"/>
			<path fill="#F8EC87" d="M61.6,71.1l27.2-11.9c1.7,3.1,3,17.4,3,17.4l-29,3.1L61.6,71.1z"/>
			<path fill="#F8EC86" d="M62.3,70.9L89.5,59c1.8,3.2,3,17.6,3,17.6l-29,3.1L62.3,70.9z"/>
			<path fill="#F8EC84" d="M62.9,70.6l27.3-11.9c1.9,3.3,3.1,17.7,3.1,17.7l-29,3.1L62.9,70.6z"/>
			<path fill="#F8EC83" d="M63.6,70.3L91,58.4c1.9,3.5,3.1,17.9,3.1,17.9l-29,3.1L63.6,70.3z"/>
			<path fill="#F8EC81" d="M64.3,70l27.4-11.9c2,3.6,3.1,18.1,3.1,18.1l-29.1,3.1L64.3,70z"/>
			<path fill="#F8EC7F" d="M65,69.7l27.4-11.9c2.1,3.7,3.2,18.3,3.2,18.3l-29.1,3.1L65,69.7z"/>
			<path fill="#F9EC7E" d="M65.7,69.4l27.5-11.9c2.2,3.9,3.2,18.5,3.2,18.5l-29.1,3.1L65.7,69.4z"/>
			<path fill="#F9EC7C" d="M66.4,69.1l27.5-11.9c2.2,4,3.2,18.7,3.2,18.7L68,79L66.4,69.1z"/>
			<path fill="#F9EC7B" d="M67.1,68.8L94.7,57c2.3,4.1,3.2,18.8,3.2,18.8l-29.2,3.1L67.1,68.8z"/>
			<path fill="#F9EC79" d="M67.8,68.6l27.7-11.9c2.4,4.3,3.3,19,3.3,19l-29.2,3.1L67.8,68.6z"/>
			<path fill="#F9EC78" d="M68.4,68.3l27.7-11.9c2.4,4.4,3.3,19.2,3.3,19.2l-29.2,3.1L68.4,68.3z"/>
			<path fill="#F9EB76" d="M69.1,68l27.8-11.9c2.5,4.5,3.3,19.4,3.3,19.4L71,78.6L69.1,68z"/>
			<path fill="#F9EB75" d="M69.8,67.7l27.8-11.9c2.6,4.7,3.3,19.6,3.3,19.6l-29.3,3.1L69.8,67.7z"/>
			<path fill="#F9EB73" d="M70.5,67.4l27.9-11.9c2.7,4.8,3.4,19.7,3.4,19.7l-29.3,3.1L70.5,67.4z"/>
			<path fill="#FAEB71" d="M71.2,67.1l27.9-11.9c2.7,4.9,3.4,19.9,3.4,19.9l-29.3,3.1L71.2,67.1z"/>
			<path fill="#FAEB70" d="M71.9,66.8l28-11.9c2.8,5.1,3.4,20.1,3.4,20.1L74,78.2L71.9,66.8z"/>
			<path fill="#FAEB6E" d="M72.6,66.5l28-11.9c2.9,5.2,3.4,20.3,3.4,20.3L74.7,78L72.6,66.5z"/>
			<path fill="#FAEB6D" d="M73.3,66.3l28.1-11.9c3,5.3,3.5,20.5,3.5,20.5l-29.4,3.1L73.3,66.3z"/>
			<path fill="#FAEB6B" d="M73.9,66l28.2-11.9c3,5.5,3.5,20.7,3.5,20.7l-29.4,3.1L73.9,66z"/>
			<path fill="#FAEB6A" d="M74.6,65.7l28.2-11.9c3.1,5.6,3.5,20.8,3.5,20.8L77,77.7L74.6,65.7z"/>
			<path fill="#FAEB68" d="M75.3,65.4l28.3-11.9c3.2,5.7,3.6,21,3.6,21l-29.4,3.1L75.3,65.4z"/>
			<path fill="#FAEB67" d="M76,65.1l28.3-11.9c3.3,5.9,3.6,21.2,3.6,21.2l-29.5,3.1L76,65.1z"/>
			<path fill="#FBEB65" d="M76.7,64.8l28.4-11.9c3.3,6,3.6,21.4,3.6,21.4l-29.5,3.1L76.7,64.8z"/>
			<path fill="#FBEB63" d="M77.4,64.5l28.4-11.9c3.4,6.1,3.6,21.6,3.6,21.6l-29.5,3.1L77.4,64.5z"/>
			<path fill="#FBEB62" d="M78.1,64.2l28.5-11.9c3.5,6.3,3.7,21.7,3.7,21.7l-29.5,3.1L78.1,64.2z"/>
			<path fill="#FBEA60" d="M78.8,64l28.5-11.9C110.9,58.5,111,74,111,74l-29.6,3.1L78.8,64z"/>
			<path fill="#FBEA5F" d="M79.4,63.7l28.6-11.9c3.6,6.5,3.7,22.1,3.7,22.1L82.2,77L79.4,63.7z"/>
			<path fill="#FBEA5D" d="M80.1,63.4l28.7-11.9c3.7,6.7,3.7,22.3,3.7,22.3l-29.6,3.1L80.1,63.4z"/>
			<path fill="#FBEA5C" d="M80.8,63.1l28.7-11.9c3.8,6.8,3.8,22.5,3.8,22.5l-29.6,3.1L80.8,63.1z"/>
			<path fill="#FBEA5A" d="M81.5,62.8l28.8-11.9c3.9,6.9,3.8,22.7,3.8,22.7l-29.7,3.1L81.5,62.8z"/>
			<path fill="#FCEA59" d="M82.2,62.5L111,50.6c3.9,7.1,3.8,22.8,3.8,22.8l-29.7,3.1L82.2,62.5z"/>
			<path fill="#FCEA57" d="M82.9,62.2l28.9-11.9c4,7.2,3.8,23,3.8,23l-29.7,3.1L82.9,62.2z"/>
			<path fill="#FCEA55" d="M83.6,61.9L112.5,50c4.1,7.3,3.9,23.2,3.9,23.2l-29.7,3.1L83.6,61.9z"/>
			<path fill="#FCEA54" d="M84.3,61.7l29-11.9c4.2,7.5,3.9,23.4,3.9,23.4l-29.8,3.1L84.3,61.7z"/>
			<path fill="#FCEA52" d="M84.9,61.4L114,49.5c4.2,7.6,3.9,23.6,3.9,23.6l-29.8,3.1L84.9,61.4z"/>
			<path fill="#FCEA51" d="M85.6,61.1l29.1-11.9c4.3,7.7,4,23.7,4,23.7L88.9,76L85.6,61.1z"/>
			<path fill="#FCEA4F" d="M86.3,60.8l29.2-11.9c4.4,7.9,4,23.9,4,23.9l-29.8,3.1L86.3,60.8z"/>
			<path fill="#FCEA4E" d="M87,60.5l29.2-11.9c4.4,8,4,24.1,4,24.1l-29.9,3.1L87,60.5z"/>
			<path fill="#FDE94C" d="M87.7,60.2L117,48.3c4.5,8.1,4,24.3,4,24.3l-29.9,3.1L87.7,60.2z"/>
			<path fill="#FDE94B" d="M88.4,59.9L117.7,48c4.6,8.3,4.1,24.5,4.1,24.5l-29.9,3.1L88.4,59.9z"/>
			<path fill="#FDE949" d="M89.1,59.6l29.4-11.9c4.7,8.4,4.1,24.7,4.1,24.7l-29.9,3.1L89.1,59.6z"/>
			<path fill="#FDE947" d="M89.8,59.4l29.4-11.9c4.7,8.5,4.1,24.8,4.1,24.8l-29.9,3.1L89.8,59.4z"/>
			<path fill="#FDE946" d="M90.4,59.1l29.5-11.9c4.8,8.7,4.1,25,4.1,25l-30,3.1L90.4,59.1z"/>
			<path fill="#FDE944" d="M91.1,58.8l29.6-11.9c4.9,8.8,4.2,25.2,4.2,25.2l-30,3.1L91.1,58.8z"/>
			<path fill="#FDE943" d="M91.8,58.5l29.6-11.9c5,9,4.2,25.4,4.2,25.4l-30,3.1L91.8,58.5z"/>
			<path fill="#FDE941" d="M92.5,58.2l29.7-11.9c5,9.1,4.2,25.6,4.2,25.6l-30,3.1L92.5,58.2z"/>
			<path fill="#FEE940" d="M93.2,57.9L122.9,46c5.1,9.2,4.2,25.7,4.2,25.7l-30.1,3.1L93.2,57.9z"/>
			<path fill="#FEE93E" d="M93.9,57.6l29.8-11.9c5.2,9.4,4.3,25.9,4.3,25.9l-30.1,3.1L93.9,57.6z"/>
			<path fill="#FEE93D" d="M94.5,57.3l29.8-11.9c5.3,9.5,4.3,26.1,4.3,26.1l-30.1,3.1L94.5,57.3z"/>
			<path fill="#FEE93B" d="M95.2,57.1l29.9-11.9c5.3,9.6,4.3,26.3,4.3,26.3l-30.1,3.1L95.2,57.1z"/>
			<path fill="#FEE939" d="M95.9,56.8l29.9-12c5.4,9.8,4.4,26.5,4.4,26.5L100,74.4L95.9,56.8z"/>
			<path fill="#FEE938" d="M96.6,56.5l30-12c5.5,9.9,4.4,26.7,4.4,26.7l-30.2,3.1L96.6,56.5z"/>
			<path fill="#FEE836" d="M97.3,56.2l30.1-12c5.6,10,4.4,26.8,4.4,26.8l-30.2,3.1L97.3,56.2z"/>
			<path fill="#FEE835" d="M98,55.9l30.1-12c5.6,10.2,4.4,27,4.4,27L102.3,74L98,55.9z"/>
			<path fill="#FFE833" d="M98.6,55.6l30.2-12c5.7,10.3,4.5,27.2,4.5,27.2L103,73.9L98.6,55.6z"/>
			<path fill="#FFE832" d="M99.3,55.3l30.2-12c5.8,10.4,4.5,27.4,4.5,27.4l-30.3,3.1L99.3,55.3z"/>
			<path fill="#FFE830" d="M100,55l30.3-12c5.9,10.6,4.5,27.6,4.5,27.6l-30.3,3.1L100,55z"/>
			<path fill="#FFE82F" d="M100.7,54.8l30.3-12c5.9,10.7,4.5,27.7,4.5,27.7l-30.3,3.1L100.7,54.8z"/>
			<path fill="#FFE82D" d="M101.4,54.5l4.6,19l30.4-3c0,0,1.4-17.1-4.6-27.9L101.4,54.5z"/>
		</g>
	</g>
	<path clip-path="url(#SVGID_2_)" fill="#BBC26B" d="M2,83.4c0,0,22.4,17.5,64.8-2c25.3-11.6,63.3,0,63.3,0s2.6,62.4-63.5,63.7
		C66.6,145,7.5,147.7,2,83.4z"/>
	<g clip-path="url(#SVGID_2_)">
		<path fill="#7D9A51" d="M3,84.1c0,0,22.1,12.8,52.6,1.3s47.3-15.1,74.5-4.1c0,0-0.9,17-4.6,24.1c0,0-18.8-12.8-55.4-8.6
			S17.8,101.1,3,84.1z"/>
		<path fill="#99B54E" d="M3,85.8c0,0,10.9,19,44.4,16.8c33.5-2.3,51.5-4.1,76,7.4c0,0-9.6,17.9-21.4,24.3c0,0-10-10.2-34.1-15.4
			C44.1,113.7,11.6,110,3,85.8z"/>
		<path fill="#BFCF4C" d="M97.1,137c0,0-16.4-11.9-46.8-17.9S9.6,103.4,2,86.5c0,0-0.7,35.8,35.9,52.7C69.9,153.9,97.1,137,97.1,137
			z"/>
	</g>
</g>
</svg>
