<!-- Generator: Adobe Illustrator 18.0.0, SVG Export Plug-In  -->
<svg version="1.1"
	 xmlns="http://www.w3.org/2000/svg" xmlns:xlink="http://www.w3.org/1999/xlink" xmlns:a="http://ns.adobe.com/AdobeSVGViewerExtensions/3.0/"
	 x="0px" y="0px" width="318px" height="72.8px" viewBox="0 0 318 72.8" enable-background="new 0 0 318 72.8" xml:space="preserve"
	>
<defs>
</defs>
<rect x="1" y="8.2" fill="none" width="317" height="64.6"/>
<g>
	<g>
		<defs>
			<ellipse id="SVGID_1_" cx="33" cy="40.3" rx="32" ry="32.2"/>
		</defs>
		<clipPath id="SVGID_2_">
			<use xlink:href="#SVGID_1_"  overflow="visible"/>
		</clipPath>
		<path clip-path="url(#SVGID_2_)" fill="none" stroke="#BBC26B" stroke-miterlimit="10" d="M59.2,16.2"/>
		<ellipse clip-path="url(#SVGID_2_)" fill="#E4B44B" cx="33" cy="40.3" rx="32" ry="32.2"/>
		<g clip-path="url(#SVGID_2_)">
			<ellipse fill="#F5EEAB" cx="17.4" cy="41.5" rx="6" ry="6"/>
			<g>
				<polygon fill="#F5EFB0" points="12.5,38.2 15.3,36.1 14.9,34.8 11.9,37.3 				"/>
				<path fill="#F5EFAF" d="M12.5,38.1l2.8-2.2l-0.4-1.2c0,0-3.1,2.5-3.1,2.5L12.5,38.1z"/>
				<path fill="#F5EFAE" d="M12.4,38l2.8-2.2l-0.4-1.2c0,0-3.1,2.5-3.1,2.6L12.4,38z"/>
				<path fill="#F5EFAD" d="M12.3,37.9l2.8-2.3l-0.4-1.2c0,0-3.1,2.5-3.2,2.7L12.3,37.9z"/>
				<path fill="#F5EFAC" d="M12.2,37.8l2.9-2.4l-0.4-1.3c0,0-3.1,2.5-3.2,2.8L12.2,37.8z"/>
				<path fill="#F5EFAB" d="M12.1,37.7l2.9-2.4L14.7,34c0,0-3.1,2.6-3.2,2.8L12.1,37.7z"/>
				<path fill="#F5EFAA" d="M12.1,37.6l2.9-2.5l-0.4-1.3c0,0-3.1,2.6-3.2,2.9L12.1,37.6z"/>
				<path fill="#F6EFA9" d="M12,37.5l3-2.6l-0.4-1.3c0,0-3.1,2.6-3.3,3L12,37.5z"/>
				<path fill="#F6EFA8" d="M11.9,37.4l3-2.7l-0.4-1.3c0,0-3.2,2.6-3.3,3.1L11.9,37.4z"/>
				<path fill="#F6EFA7" d="M11.8,37.3l3-2.7l-0.4-1.3c0,0-3.2,2.6-3.3,3.1L11.8,37.3z"/>
				<path fill="#F6EEA6" d="M11.8,37.2l3.1-2.8l-0.4-1.3c0,0-3.2,2.6-3.4,3.2L11.8,37.2z"/>
				<path fill="#F6EEA5" d="M11.7,37.1l3.1-2.9l-0.4-1.3c0,0-3.2,2.6-3.4,3.3L11.7,37.1z"/>
				<path fill="#F6EEA4" d="M11.6,37l3.1-2.9l-0.4-1.3c0,0-3.2,2.7-3.4,3.4L11.6,37z"/>
				<path fill="#F6EEA3" d="M11.5,36.9l3.1-3l-0.4-1.3c0,0-3.2,2.7-3.4,3.4L11.5,36.9z"/>
				<path fill="#F6EEA2" d="M11.4,36.8l3.2-3.1l-0.4-1.3c0,0-3.2,2.7-3.5,3.5L11.4,36.8z"/>
				<path fill="#F6EEA1" d="M11.4,36.7l3.2-3.2l-0.4-1.3c0,0-3.2,2.7-3.5,3.6L11.4,36.7z"/>
				<path fill="#F6EEA0" d="M11.3,36.6l3.2-3.2l-0.4-1.3c0,0-3.2,2.7-3.5,3.7L11.3,36.6z"/>
				<path fill="#F6EE9F" d="M11.2,36.5l3.3-3.3l-0.4-1.3c0,0-3.2,2.7-3.6,3.7L11.2,36.5z"/>
				<path fill="#F6EE9E" d="M11.1,36.4l3.3-3.4L14,31.7c0,0-3.3,2.8-3.6,3.8L11.1,36.4z"/>
				<path fill="#F6EE9D" d="M11,36.3l3.3-3.4L14,31.5c0,0-3.3,2.8-3.6,3.9L11,36.3z"/>
				<path fill="#F7EE9C" d="M11,36.2l3.4-3.5l-0.4-1.3c0,0-3.3,2.8-3.6,4L11,36.2z"/>
				<path fill="#F7EE9B" d="M10.9,36.1l3.4-3.6l-0.4-1.3c0,0-3.3,2.8-3.7,4L10.9,36.1z"/>
				<path fill="#F7EE9A" d="M10.8,36l3.4-3.7L13.8,31c0,0-3.3,2.8-3.7,4.1L10.8,36z"/>
				<path fill="#F7EE99" d="M10.7,35.9l3.4-3.7l-0.4-1.3c0,0-3.3,2.8-3.7,4.2L10.7,35.9z"/>
				<path fill="#F7EE98" d="M10.7,35.8l3.5-3.8l-0.4-1.3c0,0-3.3,2.9-3.8,4.2L10.7,35.8z"/>
				<path fill="#F7EE97" d="M10.6,35.7l3.5-3.9l-0.4-1.3c0,0-3.3,2.9-3.8,4.3L10.6,35.7z"/>
				<path fill="#F7EE96" d="M10.5,35.6l3.5-3.9l-0.4-1.3c0,0-3.3,2.9-3.8,4.4L10.5,35.6z"/>
				<path fill="#F7EE95" d="M10.4,35.5l3.6-4l-0.4-1.3c0,0-3.3,2.9-3.8,4.5L10.4,35.5z"/>
				<path fill="#F7EE94" d="M10.3,35.4l3.6-4.1L13.5,30c0,0-3.4,2.9-3.9,4.5L10.3,35.4z"/>
				<path fill="#F7ED93" d="M10.3,35.3l3.6-4.1l-0.4-1.3c0,0-3.4,2.9-3.9,4.6L10.3,35.3z"/>
				<path fill="#F7ED92" d="M10.2,35.2l3.7-4.2l-0.4-1.3c0,0-3.4,3-3.9,4.7L10.2,35.2z"/>
				<path fill="#F7ED91" d="M10.1,35.1l3.7-4.3l-0.4-1.3c0,0-3.4,3-4,4.8L10.1,35.1z"/>
				<path fill="#F7ED90" d="M10,35l3.7-4.4l-0.4-1.3c0,0-3.4,3-4,4.8L10,35z"/>
				<path fill="#F8ED8F" d="M9.9,34.9l3.7-4.4l-0.4-1.4c0,0-3.4,3-4,4.9L9.9,34.9z"/>
				<path fill="#F8ED8E" d="M9.9,34.8l3.8-4.5l-0.4-1.4c0,0-3.4,3-4.1,5L9.9,34.8z"/>
				<path fill="#F8ED8D" d="M9.8,34.7l3.8-4.6l-0.4-1.4c0,0-3.4,3-4.1,5.1L9.8,34.7z"/>
				<path fill="#F8ED8C" d="M9.7,34.6l3.8-4.6l-0.4-1.4c0,0-3.4,3-4.1,5.1L9.7,34.6z"/>
				<path fill="#F8ED8B" d="M9.6,34.5l3.9-4.7l-0.4-1.4c0,0-3.4,3.1-4.1,5.2L9.6,34.5z"/>
				<path fill="#F8ED8A" d="M9.6,34.4l3.9-4.8L13,28.2c0,0-3.5,3.1-4.2,5.3L9.6,34.4z"/>
				<path fill="#F8ED89" d="M9.5,34.3l3.9-4.9L13,28c0,0-3.5,3.1-4.2,5.4L9.5,34.3z"/>
				<path fill="#F8ED88" d="M9.4,34.2l4-4.9l-0.4-1.4c0,0-3.5,3.1-4.2,5.4L9.4,34.2z"/>
				<path fill="#F8ED87" d="M9.3,34.1l4-5l-0.4-1.4c0,0-3.5,3.1-4.3,5.5L9.3,34.1z"/>
				<path fill="#F8ED86" d="M9.2,34l4-5.1l-0.4-1.4c0,0-3.5,3.1-4.3,5.6L9.2,34z"/>
				<path fill="#F8ED85" d="M9.2,33.9l4-5.1l-0.4-1.4c0,0-3.5,3.2-4.3,5.7L9.2,33.9z"/>
				<path fill="#F8ED84" d="M9.1,33.8l4.1-5.2l-0.4-1.4c0,0-3.5,3.2-4.3,5.7L9.1,33.8z"/>
				<path fill="#F8ED83" d="M9,33.7l4.1-5.3L12.7,27c0,0-3.5,3.2-4.4,5.8L9,33.7z"/>
				<path fill="#F9ED82" d="M8.9,33.6l4.1-5.4l-0.4-1.4c0,0-3.5,3.2-4.4,5.9L8.9,33.6z"/>
				<path fill="#F9EC81" d="M8.9,33.5L13,28l-0.4-1.4c0,0-3.5,3.2-4.4,6L8.9,33.5z"/>
				<path fill="#F9EC80" d="M8.8,33.4l4.2-5.5l-0.4-1.4c0,0-3.6,3.2-4.5,6L8.8,33.4z"/>
				<path fill="#F9EC7F" d="M8.7,33.3l4.2-5.6l-0.4-1.4c0,0-3.6,3.3-4.5,6.1L8.7,33.3z"/>
				<path fill="#F9EC7E" d="M8.6,33.2l4.3-5.6l-0.4-1.4c0,0-3.6,3.3-4.5,6.2L8.6,33.2z"/>
				<path fill="#F9EC7D" d="M8.5,33.1l4.3-5.7l-0.4-1.4c0,0-3.6,3.3-4.5,6.2L8.5,33.1z"/>
				<path fill="#F9EC7C" d="M8.5,33l4.3-5.8l-0.4-1.4c0,0-3.6,3.3-4.6,6.3L8.5,33z"/>
				<path fill="#F9EC7B" d="M8.4,32.9l4.3-5.9l-0.4-1.4c0,0-3.6,3.3-4.6,6.4L8.4,32.9z"/>
				<path fill="#F9EC7A" d="M8.3,32.8l4.4-5.9l-0.4-1.4c0,0-3.6,3.3-4.6,6.5L8.3,32.8z"/>
				<path fill="#F9EC79" d="M8.2,32.7l4.4-6l-0.4-1.4c0,0-3.6,3.4-4.7,6.5L8.2,32.7z"/>
				<path fill="#F9EC78" d="M8.1,32.6l4.4-6.1l-0.4-1.4c0,0-3.6,3.4-4.7,6.6L8.1,32.6z"/>
				<path fill="#F9EC77" d="M8.1,32.5l4.5-6.1l-0.4-1.4c0,0-3.6,3.4-4.7,6.7L8.1,32.5z"/>
				<path fill="#F9EC76" d="M8,32.4l4.5-6.2l-0.4-1.4c0,0-3.7,3.4-4.7,6.8L8,32.4z"/>
				<path fill="#FAEC75" d="M7.9,32.3l4.5-6.3L12,24.6c0,0-3.7,3.4-4.8,6.8L7.9,32.3z"/>
				<path fill="#FAEC74" d="M7.8,32.2l4.6-6.3L12,24.4c0,0-3.7,3.4-4.8,6.9L7.8,32.2z"/>
				<path fill="#FAEC73" d="M7.8,32.1l4.6-6.4l-0.4-1.4c0,0-3.7,3.4-4.8,7L7.8,32.1z"/>
				<path fill="#FAEC72" d="M7.7,32l4.6-6.5L11.9,24c0,0-3.7,3.5-4.9,7.1L7.7,32z"/>
				<path fill="#FAEC71" d="M7.6,31.9l4.6-6.6l-0.4-1.5c0,0-3.7,3.5-4.9,7.1L7.6,31.9z"/>
				<path fill="#FAEC70" d="M7.5,31.8l4.7-6.6l-0.4-1.5c0,0-3.7,3.5-4.9,7.2L7.5,31.8z"/>
				<path fill="#FAEC6F" d="M7.4,31.7l4.7-6.7l-0.4-1.5c0,0-3.7,3.5-4.9,7.3L7.4,31.7z"/>
				<path fill="#FAEB6E" d="M7.4,31.6l4.7-6.8l-0.4-1.5c0,0-3.7,3.5-5,7.4L7.4,31.6z"/>
				<path fill="#FAEB6D" d="M7.3,31.5l4.8-6.8l-0.4-1.5c0,0-3.7,3.5-5,7.4L7.3,31.5z"/>
				<path fill="#FAEB6C" d="M7.2,31.4l4.8-6.9L11.6,23c0,0-3.8,3.6-5,7.5L7.2,31.4z"/>
				<path fill="#FAEB6B" d="M7.1,31.3l4.8-7l-0.4-1.5c0,0-3.8,3.6-5.1,7.6L7.1,31.3z"/>
				<path fill="#FAEB6A" d="M7,31.2l4.9-7.1l-0.4-1.5c0,0-3.8,3.6-5.1,7.7L7,31.2z"/>
				<path fill="#FAEB69" d="M7,31.1l4.9-7.1l-0.4-1.5c0,0-3.8,3.6-5.1,7.7L7,31.1z"/>
				<path fill="#FAEB68" d="M6.9,31l4.9-7.2l-0.4-1.5c0,0-3.8,3.6-5.1,7.8L6.9,31z"/>
				<path fill="#FBEB67" d="M6.8,30.9l4.9-7.3l-0.4-1.5c0,0-3.8,3.6-5.2,7.9L6.8,30.9z"/>
				<path fill="#FBEB66" d="M6.7,30.8l5-7.3l-0.4-1.5c0,0-3.8,3.7-5.2,7.9L6.7,30.8z"/>
				<path fill="#FBEB65" d="M6.7,30.7l5-7.4l-0.4-1.5c0,0-3.8,3.7-5.2,8L6.7,30.7z"/>
				<path fill="#FBEB64" d="M6.6,30.6l5-7.5l-0.4-1.5c0,0-3.8,3.7-5.3,8.1L6.6,30.6z"/>
				<path fill="#FBEB63" d="M6.5,30.5l5.1-7.6l-0.5-1.5c0,0-3.8,3.7-5.3,8.2L6.5,30.5z"/>
				<path fill="#FBEB62" d="M6.4,30.4l5.1-7.6l-0.5-1.5c0,0-3.9,3.7-5.3,8.2L6.4,30.4z"/>
				<path fill="#FBEB61" d="M6.3,30.3l5.1-7.7L11,21.1c0,0-3.9,3.7-5.4,8.3L6.3,30.3z"/>
				<path fill="#FBEB60" d="M6.3,30.2l5.2-7.8L11,20.9c0,0-3.9,3.8-5.4,8.4L6.3,30.2z"/>
				<path fill="#FBEB5F" d="M6.2,30.1l5.2-7.8l-0.5-1.5c0,0-3.9,3.8-5.4,8.5L6.2,30.1z"/>
				<path fill="#FBEB5E" d="M6.1,30l5.2-7.9l-0.5-1.5c0,0-3.9,3.8-5.4,8.5L6.1,30z"/>
				<path fill="#FBEB5D" d="M6,29.9l5.2-8l-0.5-1.5c0,0-3.9,3.8-5.5,8.6L6,29.9z"/>
				<path fill="#FBEB5C" d="M6,29.8l5.3-8l-0.5-1.5c0,0-3.9,3.8-5.5,8.7L6,29.8z"/>
				<path fill="#FBEA5B" d="M5.9,29.7l5.3-8.1L10.7,20c0,0-3.9,3.8-5.5,8.8L5.9,29.7z"/>
				<path fill="#FCEA5A" d="M5.8,29.6l5.3-8.2l-0.5-1.5c0,0-3.9,3.8-5.6,8.8L5.8,29.6z"/>
				<path fill="#FCEA59" d="M5.7,29.5l5.4-8.3l-0.5-1.5c0,0-4,3.9-5.6,8.9L5.7,29.5z"/>
				<path fill="#FCEA58" d="M5.6,29.4L11,21l-0.5-1.5c0,0-4,3.9-5.6,9L5.6,29.4z"/>
				<path fill="#FCEA57" d="M5.6,29.3l5.4-8.4l-0.5-1.5c0,0-4,3.9-5.6,9.1L5.6,29.3z"/>
				<path fill="#FCEA56" d="M5.5,29.2l5.5-8.5l-0.5-1.5c0,0-4,3.9-5.7,9.1L5.5,29.2z"/>
				<path fill="#FCEA55" d="M5.4,29.1l5.5-8.5L10.4,19c0,0-4,3.9-5.7,9.2L5.4,29.1z"/>
				<path fill="#FCEA54" d="M5.3,29l5.5-8.6l-0.5-1.6c0,0-4,3.9-5.7,9.3L5.3,29z"/>
				<path fill="#FCEA53" d="M5.2,28.9l5.5-8.7l-0.5-1.6c0,0-4,4-5.8,9.4L5.2,28.9z"/>
				<path fill="#FCEA52" d="M5.2,28.8l5.6-8.8l-0.5-1.6c0,0-4,4-5.8,9.4L5.2,28.8z"/>
				<path fill="#FCEA51" d="M5.1,28.7l5.6-8.8l-0.5-1.6c0,0-4,4-5.8,9.5L5.1,28.7z"/>
				<path fill="#FCEA50" d="M5,28.6l5.6-8.9l-0.5-1.6c0,0-4,4-5.8,9.6L5,28.6z"/>
				<path fill="#FCEA4F" d="M4.9,28.5l5.7-9l-0.5-1.6c0,0-4.1,4-5.9,9.7L4.9,28.5z"/>
				<path fill="#FCEA4E" d="M4.9,28.4l5.7-9l-0.5-1.6c0,0-4.1,4-5.9,9.7L4.9,28.4z"/>
				<path fill="#FDEA4D" d="M4.8,28.3l5.7-9.1L10,17.6c0,0-4.1,4.1-5.9,9.8L4.8,28.3z"/>
				<path fill="#FDEA4C" d="M4.7,28.2l5.8-9.2L10,17.4c0,0-4.1,4.1-6,9.9L4.7,28.2z"/>
				<path fill="#FDEA4B" d="M4.6,28.1l5.8-9.3l-0.5-1.6c0,0-4.1,4.1-6,9.9L4.6,28.1z"/>
				<path fill="#FDEA4A" d="M4.5,28l5.8-9.3l-0.5-1.6c0,0-4.1,4.1-6,10L4.5,28z"/>
				<path fill="#FDE949" d="M4.5,27.9l5.8-9.4l-0.5-1.6c0,0-4.1,4.1-6,10.1L4.5,27.9z"/>
				<path fill="#FDE948" d="M4.4,27.8l5.9-9.5l-0.5-1.6c0,0-4.1,4.1-6.1,10.2L4.4,27.8z"/>
				<path fill="#FDE947" d="M4.3,27.7l5.9-9.5l-0.5-1.6c0,0-4.1,4.2-6.1,10.2L4.3,27.7z"/>
				<path fill="#FDE946" d="M4.2,27.6l5.9-9.6l-0.5-1.6c0,0-4.1,4.2-6.1,10.3L4.2,27.6z"/>
				<path fill="#FDE945" d="M4.1,27.5l6-9.7l-0.5-1.6c0,0-4.2,4.2-6.2,10.4L4.1,27.5z"/>
				<path fill="#FDE944" d="M4.1,27.4l6-9.8L9.6,16c0,0-4.2,4.2-6.2,10.5L4.1,27.4z"/>
				<path fill="#FDE943" d="M4,27.3l6-9.8l-0.5-1.6c0,0-4.2,4.2-6.2,10.5L4,27.3z"/>
				<path fill="#FDE942" d="M3.9,27.2l6.1-9.9l-0.5-1.6c0,0-4.2,4.2-6.2,10.6L3.9,27.2z"/>
				<path fill="#FDE941" d="M3.8,27.1l6.1-10l-0.5-1.6c0,0-4.2,4.2-6.3,10.7L3.8,27.1z"/>
				<path fill="#FEE940" d="M3.8,27l6.1-10l-0.5-1.6c0,0-4.2,4.3-6.3,10.8L3.8,27z"/>
				<path fill="#FEE93F" d="M3.7,26.9l6.1-10.1l-0.5-1.6c0,0-4.2,4.3-6.3,10.8L3.7,26.9z"/>
				<path fill="#FEE93E" d="M3.6,26.8l6.2-10.2L9.3,15c0,0-4.2,4.3-6.4,10.9L3.6,26.8z"/>
				<path fill="#FEE93D" d="M3.5,26.7l6.2-10.2l-0.5-1.6c0,0-4.2,4.3-6.4,11L3.5,26.7z"/>
				<path fill="#FEE93C" d="M3.4,26.6l6.2-10.3l-0.5-1.6c0,0-4.2,4.3-6.4,11.1L3.4,26.6z"/>
				<path fill="#FEE93B" d="M3.4,26.5l6.3-10.4l-0.5-1.6c0,0-4.3,4.3-6.4,11.1L3.4,26.5z"/>
				<path fill="#FEE93A" d="M3.3,26.4l6.3-10.5l-0.5-1.6c0,0-4.3,4.4-6.5,11.2L3.3,26.4z"/>
				<path fill="#FEE939" d="M3.2,26.3l6.3-10.5L9,14.1c0,0-4.3,4.4-6.5,11.3L3.2,26.3z"/>
				<path fill="#FEE938" d="M3.1,26.2l6.4-10.6L9,13.9c0,0-4.3,4.4-6.5,11.4L3.1,26.2z"/>
				<path fill="#FEE937" d="M3.1,26.1l6.4-10.7l-0.5-1.7c0,0-4.3,4.4-6.6,11.4L3.1,26.1z"/>
				<path fill="#FEE836" d="M3,26l6.4-10.7l-0.5-1.7c0,0-4.3,4.4-6.6,11.5L3,26z"/>
				<path fill="#FEE835" d="M2.9,25.9L9.3,15l-0.5-1.7c0,0-4.3,4.4-6.6,11.6L2.9,25.9z"/>
				<path fill="#FEE834" d="M2.8,25.8l6.5-10.9l-0.5-1.7c0,0-4.3,4.5-6.7,11.6L2.8,25.8z"/>
				<path fill="#FFE833" d="M2.7,25.7l6.5-11L8.7,13c0,0-4.3,4.5-6.7,11.7L2.7,25.7z"/>
				<path fill="#FFE832" d="M2.7,25.6l6.5-11l-0.5-1.7c0,0-4.3,4.5-6.7,11.8L2.7,25.6z"/>
				<path fill="#FFE831" d="M2.6,25.5l6.6-11.1l-0.5-1.7c0,0-4.4,4.5-6.7,11.9L2.6,25.5z"/>
				<path fill="#FFE830" d="M2.5,25.4l6.6-11.2l-0.5-1.7c0,0-4.4,4.5-6.8,11.9L2.5,25.4z"/>
				<path fill="#FFE82F" d="M2.4,25.3L9,14l-0.5-1.7c0,0-4.4,4.5-6.8,12L2.4,25.3z"/>
				<path fill="#FFE82E" d="M2.3,25.2L9,13.9l-0.5-1.7c0,0-4.4,4.6-6.8,12.1L2.3,25.2z"/>
				<path fill="#FFE82D" d="M2.3,25.1l6.7-11.4L8.4,12c0,0-4.4,4.6-6.9,12.2L2.3,25.1z"/>
			</g>
			<g>
				<polygon fill="#F5EEAB" points="18.7,35.7 21.9,37.5 26,31.5 19.5,27.5 				"/>
				<path fill="#F5EEAA" d="M18.8,35.5c0,0,3.3,1.8,3.3,1.8l4.1-6.1c0,0-6.5-4-6.6-3.9L18.8,35.5z"/>
				<path fill="#F5EEA9" d="M18.8,35.3c0,0,3.3,1.8,3.5,1.8l4.1-6.1c0,0-6.6-4-6.8-3.9L18.8,35.3z"/>
				<path fill="#F5EEA8" d="M18.8,35.1c0,0,3.4,1.8,3.6,1.8l4.1-6.1c0,0-6.6-4-7-3.9L18.8,35.1z"/>
				<path fill="#F5EEA7" d="M18.8,34.9c0,0,3.4,1.8,3.7,1.8l4.2-6.1c0,0-6.7-4-7.1-3.9L18.8,34.9z"/>
				<path fill="#F5EEA6" d="M18.8,34.7c0,0,3.5,1.8,3.9,1.8l4.2-6.2c0,0-6.7-4.1-7.3-3.8L18.8,34.7z"/>
				<path fill="#F5EEA5" d="M18.9,34.5c0,0,3.6,1.8,4,1.9l4.2-6.2c0,0-6.8-4.1-7.5-3.8L18.9,34.5z"/>
				<path fill="#F6EEA4" d="M18.9,34.2c0,0,3.6,1.8,4.2,1.9l4.3-6.2c0,0-6.8-4.1-7.6-3.8L18.9,34.2z"/>
				<path fill="#F6EEA3" d="M18.9,34c0,0,3.7,1.8,4.3,1.9l4.3-6.2c0,0-6.9-4.2-7.8-3.8L18.9,34z"/>
				<path fill="#F6EEA2" d="M18.9,33.8c0,0,3.8,1.8,4.4,1.9l4.3-6.3c0,0-6.9-4.2-8-3.8L18.9,33.8z"/>
				<path fill="#F6EEA1" d="M18.9,33.6c0,0,3.8,1.8,4.6,1.9l4.3-6.3c0,0-7-4.2-8.2-3.7L18.9,33.6z"/>
				<path fill="#F6EDA0" d="M19,33.4c0,0,3.9,1.8,4.7,1.9l4.4-6.3c0,0-7-4.2-8.3-3.7L19,33.4z"/>
				<path fill="#F6ED9F" d="M19,33.2c0,0,3.9,1.8,4.8,1.9l4.4-6.3c0,0-7.1-4.3-8.5-3.7L19,33.2z"/>
				<path fill="#F6ED9E" d="M19,33c0,0,4,1.8,5,2l4.4-6.4c0,0-7.1-4.3-8.7-3.7L19,33z"/>
				<path fill="#F6ED9D" d="M19,32.7c0,0,4.1,1.8,5.1,2l4.5-6.4c0,0-7.2-4.3-8.8-3.7L19,32.7z"/>
				<path fill="#F6ED9C" d="M19,32.5c0,0,4.1,1.8,5.3,2l4.5-6.4c0,0-7.2-4.3-9-3.6L19,32.5z"/>
				<path fill="#F6ED9B" d="M19.1,32.3c0,0,4.2,1.8,5.4,2l4.5-6.5c0,0-7.3-4.4-9.2-3.6L19.1,32.3z"/>
				<path fill="#F6ED9A" d="M19.1,32.1c0,0,4.3,1.7,5.5,2l4.6-6.5c0,0-7.4-4.4-9.3-3.6L19.1,32.1z"/>
				<path fill="#F6ED99" d="M19.1,31.9c0,0,4.3,1.7,5.7,2l4.6-6.5c0,0-7.4-4.4-9.5-3.6L19.1,31.9z"/>
				<path fill="#F6ED98" d="M19.1,31.7c0,0,4.4,1.7,5.8,2l4.6-6.5c0,0-7.5-4.4-9.7-3.6L19.1,31.7z"/>
				<path fill="#F7ED97" d="M19.1,31.5c0,0,4.4,1.7,6,2l4.6-6.6c0,0-7.5-4.5-9.9-3.5L19.1,31.5z"/>
				<path fill="#F7ED96" d="M19.2,31.3c0,0,4.5,1.7,6.1,2.1l4.7-6.6c0,0-7.6-4.5-10-3.5L19.2,31.3z"/>
				<path fill="#F7ED95" d="M19.2,31.1c0,0,4.6,1.7,6.2,2.1l4.7-6.6c0,0-7.6-4.5-10.2-3.5L19.2,31.1z"/>
				<path fill="#F7ED94" d="M19.2,30.8c0,0,4.6,1.7,6.4,2.1l4.7-6.6c0,0-7.7-4.5-10.4-3.5L19.2,30.8z"/>
				<path fill="#F7ED93" d="M19.2,30.6c0,0,4.7,1.7,6.5,2.1l4.8-6.7c0,0-7.7-4.6-10.5-3.5L19.2,30.6z"/>
				<path fill="#F7ED92" d="M19.2,30.4c0,0,4.8,1.7,6.6,2.1l4.8-6.7c0,0-7.8-4.6-10.7-3.4L19.2,30.4z"/>
				<path fill="#F7ED91" d="M19.3,30.2c0,0,4.8,1.7,6.8,2.1l4.8-6.7c0,0-7.8-4.6-10.9-3.4L19.3,30.2z"/>
				<path fill="#F7ED90" d="M19.3,30c0,0,4.9,1.7,6.9,2.1l4.8-6.7c0,0-7.9-4.6-11-3.4L19.3,30z"/>
				<path fill="#F7ED8F" d="M19.3,29.8c0,0,4.9,1.7,7.1,2.2l4.9-6.8c0,0-7.9-4.7-11.2-3.4L19.3,29.8z"/>
				<path fill="#F7ED8E" d="M19.3,29.6c0,0,5,1.7,7.2,2.2l4.9-6.8c0,0-8-4.7-11.4-3.4L19.3,29.6z"/>
				<path fill="#F7ED8D" d="M19.3,29.4c0,0,5.1,1.7,7.3,2.2l4.9-6.8c0,0-8-4.7-11.5-3.3L19.3,29.4z"/>
				<path fill="#F7ED8C" d="M19.4,29.2c0,0,5.1,1.7,7.5,2.2l5-6.8c0,0-8.1-4.8-11.7-3.3L19.4,29.2z"/>
				<path fill="#F8EC8B" d="M19.4,29c0,0,5.2,1.7,7.6,2.2l5-6.9c0,0-8.1-4.8-11.9-3.3L19.4,29z"/>
				<path fill="#F8EC8A" d="M19.4,28.8c0,0,5.2,1.7,7.8,2.2l5-6.9c0,0-8.2-4.8-12.1-3.3L19.4,28.8z"/>
				<path fill="#F8EC89" d="M19.4,28.6c0,0,5.3,1.7,7.9,2.2l5.1-6.9c0,0-8.2-4.8-12.2-3.3L19.4,28.6z"/>
				<path fill="#F8EC88" d="M19.4,28.3c0,0,5.4,1.7,8,2.3l5.1-7c0,0-8.3-4.9-12.4-3.2L19.4,28.3z"/>
				<path fill="#F8EC87" d="M19.5,28.1c0,0,5.4,1.7,8.2,2.3l5.1-7c0,0-8.4-4.9-12.6-3.2L19.5,28.1z"/>
				<path fill="#F8EC86" d="M19.5,27.9c0,0,5.5,1.7,8.3,2.3l5.1-7c0,0-8.4-4.9-12.7-3.2L19.5,27.9z"/>
				<path fill="#F8EC85" d="M19.5,27.7c0,0,5.6,1.7,8.4,2.3l5.2-7c0,0-8.5-4.9-12.9-3.2L19.5,27.7z"/>
				<path fill="#F8EC84" d="M19.5,27.5c0,0,5.6,1.7,8.6,2.3l5.2-7.1c0,0-8.5-5-13.1-3.2L19.5,27.5z"/>
				<path fill="#F8EC83" d="M19.5,27.3c0,0,5.7,1.7,8.7,2.3l5.2-7.1c0,0-8.6-5-13.2-3.1L19.5,27.3z"/>
				<path fill="#F8EC82" d="M19.5,27.1c0,0,5.7,1.7,8.9,2.3l5.3-7.1c0,0-8.6-5-13.4-3.1L19.5,27.1z"/>
				<path fill="#F8EC81" d="M19.6,26.9c0,0,5.8,1.7,9,2.4l5.3-7.1c0,0-8.7-5-13.6-3.1L19.6,26.9z"/>
				<path fill="#F8EC80" d="M19.6,26.7c0,0,5.9,1.7,9.1,2.4l5.3-7.2c0,0-8.7-5.1-13.8-3.1L19.6,26.7z"/>
				<path fill="#F8EC7F" d="M19.6,26.5c0,0,5.9,1.7,9.3,2.4l5.3-7.2c0,0-8.8-5.1-13.9-3L19.6,26.5z"/>
				<path fill="#F9EC7E" d="M19.6,26.3c0,0,6,1.7,9.4,2.4l5.4-7.2c0,0-8.8-5.1-14.1-3L19.6,26.3z"/>
				<path fill="#F9EC7D" d="M19.6,26.1c0,0,6.1,1.7,9.5,2.4l5.4-7.2c0,0-8.9-5.1-14.3-3L19.6,26.1z"/>
				<path fill="#F9EC7C" d="M19.7,25.9c0,0,6.1,1.7,9.7,2.4l5.4-7.3c0,0-8.9-5.2-14.4-3L19.7,25.9z"/>
				<path fill="#F9EC7B" d="M19.7,25.7c0,0,6.2,1.7,9.8,2.4l5.5-7.3c0,0-9-5.2-14.6-3L19.7,25.7z"/>
				<path fill="#F9EC7A" d="M19.7,25.5c0,0,6.2,1.7,10,2.5l5.5-7.3c0,0-9-5.2-14.8-2.9L19.7,25.5z"/>
				<path fill="#F9EC79" d="M19.7,25.2c0,0,6.3,1.7,10.1,2.5l5.5-7.3c0,0-9.1-5.3-14.9-2.9L19.7,25.2z"/>
				<path fill="#F9EC78" d="M19.7,25c0,0,6.4,1.7,10.2,2.5l5.6-7.4c0,0-9.1-5.3-15.1-2.9L19.7,25z"/>
				<path fill="#F9EC77" d="M19.8,24.8c0,0,6.4,1.7,10.4,2.5l5.6-7.4c0,0-9.2-5.3-15.3-2.9L19.8,24.8z"/>
				<path fill="#F9EB76" d="M19.8,24.6c0,0,6.5,1.7,10.5,2.5l5.6-7.4c0,0-9.3-5.3-15.5-2.9L19.8,24.6z"/>
				<path fill="#F9EB75" d="M19.8,24.4c0,0,6.6,1.7,10.7,2.5l5.6-7.5c0,0-9.3-5.4-15.6-2.8L19.8,24.4z"/>
				<path fill="#F9EB74" d="M19.8,24.2c0,0,6.6,1.7,10.8,2.5l5.7-7.5c0,0-9.4-5.4-15.8-2.8L19.8,24.2z"/>
				<path fill="#F9EB73" d="M19.8,24c0,0,6.7,1.7,10.9,2.6l5.7-7.5c0,0-9.4-5.4-16-2.8L19.8,24z"/>
				<path fill="#F9EB72" d="M19.9,23.8c0,0,6.7,1.7,11.1,2.6l5.7-7.5c0,0-9.5-5.4-16.1-2.8L19.9,23.8z"/>
				<path fill="#FAEB71" d="M19.9,23.6c0,0,6.8,1.7,11.2,2.6l5.8-7.6c0,0-9.5-5.5-16.3-2.8L19.9,23.6z"/>
				<path fill="#FAEB70" d="M19.9,23.4c0,0,6.9,1.7,11.3,2.6l5.8-7.6c0,0-9.6-5.5-16.5-2.7L19.9,23.4z"/>
				<path fill="#FAEB6F" d="M19.9,23.2c0,0,6.9,1.7,11.5,2.6l5.8-7.6c0,0-9.6-5.5-16.6-2.7L19.9,23.2z"/>
				<path fill="#FAEB6E" d="M19.9,23c0,0,7,1.7,11.6,2.6l5.8-7.6c0,0-9.7-5.5-16.8-2.7L19.9,23z"/>
				<path fill="#FAEB6D" d="M20,22.8c0,0,7.1,1.7,11.8,2.6l5.9-7.7c0,0-9.7-5.6-17-2.7L20,22.8z"/>
				<path fill="#FAEB6C" d="M20,22.6c0,0,7.1,1.7,11.9,2.6l5.9-7.7c0,0-9.8-5.6-17.2-2.7L20,22.6z"/>
				<path fill="#FAEB6C" d="M20,22.4c0,0,7.2,1.7,12,2.7l5.9-7.7c0,0-9.8-5.6-17.3-2.6L20,22.4z"/>
				<path fill="#FAEB6B" d="M20,22.2c0,0,7.2,1.7,12.2,2.7l6-7.7c0,0-9.9-5.6-17.5-2.6L20,22.2z"/>
				<path fill="#FAEB6A" d="M20,22c0,0,7.3,1.7,12.3,2.7l6-7.8c0,0-9.9-5.7-17.7-2.6L20,22z"/>
				<path fill="#FAEB69" d="M20.1,21.7c0,0,7.4,1.7,12.4,2.7l6-7.8c0,0-10-5.7-17.8-2.6L20.1,21.7z"/>
				<path fill="#FAEB68" d="M20.1,21.5c0,0,7.4,1.7,12.6,2.7l6.1-7.8c0,0-10-5.7-18-2.6L20.1,21.5z"/>
				<path fill="#FAEB67" d="M20.1,21.3c0,0,7.5,1.7,12.7,2.7l6.1-7.8c0,0-10.1-5.8-18.2-2.5L20.1,21.3z"/>
				<path fill="#FBEB66" d="M20.1,21.1c0,0,7.6,1.7,12.9,2.7l6.1-7.9c0,0-10.1-5.8-18.3-2.5L20.1,21.1z"/>
				<path fill="#FBEB65" d="M20.1,20.9c0,0,7.6,1.7,13,2.8l6.1-7.9c0,0-10.2-5.8-18.5-2.5L20.1,20.9z"/>
				<path fill="#FBEB64" d="M20.2,20.7c0,0,7.7,1.7,13.1,2.8l6.2-7.9c0,0-10.3-5.8-18.7-2.5L20.2,20.7z"/>
				<path fill="#FBEB63" d="M20.2,20.5c0,0,7.7,1.7,13.3,2.8l6.2-8c0,0-10.3-5.9-18.8-2.5L20.2,20.5z"/>
				<path fill="#FBEB62" d="M20.2,20.3c0,0,7.8,1.7,13.4,2.8l6.2-8c0,0-10.4-5.9-19-2.4L20.2,20.3z"/>
				<path fill="#FBEA61" d="M20.2,20.1c0,0,7.9,1.7,13.6,2.8l6.3-8c0,0-10.4-5.9-19.2-2.4L20.2,20.1z"/>
				<path fill="#FBEA60" d="M20.2,19.9c0,0,7.9,1.7,13.7,2.8l6.3-8c0,0-10.5-5.9-19.4-2.4L20.2,19.9z"/>
				<path fill="#FBEA5F" d="M20.3,19.7c0,0,8,1.7,13.8,2.8l6.3-8.1c0,0-10.5-6-19.5-2.4L20.3,19.7z"/>
				<path fill="#FBEA5E" d="M20.3,19.5c0,0,8.1,1.7,14,2.9l6.3-8.1c0,0-10.6-6-19.7-2.4L20.3,19.5z"/>
				<path fill="#FBEA5D" d="M20.3,19.3c0,0,8.1,1.7,14.1,2.9l6.4-8.1c0,0-10.6-6-19.9-2.3L20.3,19.3z"/>
				<path fill="#FBEA5C" d="M20.3,19.1c0,0,8.2,1.7,14.2,2.9l6.4-8.1c0,0-10.7-6-20-2.3L20.3,19.1z"/>
				<path fill="#FBEA5B" d="M20.3,18.9c0,0,8.2,1.7,14.4,2.9l6.4-8.2c0,0-10.7-6.1-20.2-2.3L20.3,18.9z"/>
				<path fill="#FBEA5A" d="M20.4,18.7c0,0,8.3,1.7,14.5,2.9l6.5-8.2c0,0-10.8-6.1-20.4-2.3L20.4,18.7z"/>
				<path fill="#FCEA59" d="M20.4,18.5c0,0,8.4,1.7,14.7,2.9l6.5-8.2c0,0-10.8-6.1-20.5-2.3L20.4,18.5z"/>
				<path fill="#FCEA58" d="M20.4,18.3c0,0,8.4,1.7,14.8,2.9l6.5-8.2c0,0-10.9-6.1-20.7-2.2L20.4,18.3z"/>
				<path fill="#FCEA57" d="M20.4,18.1c0,0,8.5,1.7,14.9,3l6.6-8.3c0,0-10.9-6.2-20.9-2.2L20.4,18.1z"/>
				<path fill="#FCEA56" d="M20.4,17.9c0,0,8.6,1.7,15.1,3l6.6-8.3c0,0-11-6.2-21.1-2.2L20.4,17.9z"/>
				<path fill="#FCEA55" d="M20.5,17.7c0,0,8.6,1.7,15.2,3l6.6-8.3c0,0-11-6.2-21.2-2.2L20.5,17.7z"/>
				<path fill="#FCEA54" d="M20.5,17.5c0,0,8.7,1.7,15.3,3l6.6-8.3c0,0-11.1-6.3-21.4-2.2L20.5,17.5z"/>
				<path fill="#FCEA53" d="M20.5,17.2c0,0,8.7,1.7,15.5,3l6.7-8.4c0,0-11.1-6.3-21.6-2.1L20.5,17.2z"/>
				<path fill="#FCEA52" d="M20.5,17c0,0,8.8,1.7,15.6,3l6.7-8.4c0,0-11.2-6.3-21.7-2.1L20.5,17z"/>
				<path fill="#FCEA51" d="M20.5,16.8c0,0,8.9,1.7,15.8,3l6.7-8.4c0,0-11.3-6.3-21.9-2.1L20.5,16.8z"/>
				<path fill="#FCEA50" d="M20.5,16.6c0,0,8.9,1.7,15.9,3.1l6.8-8.5c0,0-11.3-6.4-22.1-2.1L20.5,16.6z"/>
				<path fill="#FCEA4F" d="M20.6,16.4c0,0,9,1.7,16,3.1l6.8-8.5c0,0-11.4-6.4-22.2-2.1L20.6,16.4z"/>
				<path fill="#FCEA4E" d="M20.6,16.2c0,0,9.1,1.7,16.2,3.1l6.8-8.5c0,0-11.4-6.4-22.4-2L20.6,16.2z"/>
				<path fill="#FCEA4D" d="M20.6,16c0,0,9.1,1.7,16.3,3.1l6.8-8.5c0,0-11.5-6.4-22.6-2L20.6,16z"/>
				<path fill="#FDE94C" d="M20.6,15.8c0,0,9.2,1.7,16.5,3.1l6.9-8.6c0,0-11.5-6.5-22.8-2L20.6,15.8z"/>
				<path fill="#FDE94B" d="M20.6,15.6c0,0,9.2,1.7,16.6,3.1l6.9-8.6c0,0-11.6-6.5-22.9-2L20.6,15.6z"/>
				<path fill="#FDE94A" d="M20.7,15.4c0,0,9.3,1.7,16.7,3.1l6.9-8.6c0,0-11.6-6.5-23.1-2L20.7,15.4z"/>
				<path fill="#FDE949" d="M20.7,15.2c0,0,9.4,1.7,16.9,3.2l7-8.6c0,0-11.7-6.5-23.3-1.9L20.7,15.2z"/>
				<path fill="#FDE948" d="M20.7,15c0,0,9.4,1.7,17,3.2l7-8.7c0,0-11.7-6.6-23.4-1.9L20.7,15z"/>
				<path fill="#FDE947" d="M20.7,14.8c0,0,9.5,1.7,17.1,3.2l7-8.7c0,0-11.8-6.6-23.6-1.9L20.7,14.8z"/>
				<path fill="#FDE946" d="M20.7,14.6c0,0,9.6,1.7,17.3,3.2l7.1-8.7c0,0-11.8-6.6-23.8-1.9L20.7,14.6z"/>
				<path fill="#FDE945" d="M20.8,14.4c0,0,9.6,1.6,17.4,3.2l7.1-8.7c0,0-11.9-6.6-23.9-1.9L20.8,14.4z"/>
				<path fill="#FDE944" d="M20.8,14.2c0,0,9.7,1.6,17.6,3.2l7.1-8.8c0,0-11.9-6.7-24.1-1.8L20.8,14.2z"/>
				<path fill="#FDE943" d="M20.8,14c0,0,9.7,1.6,17.7,3.2l7.1-8.8c0,0-12-6.7-24.3-1.8L20.8,14z"/>
				<path fill="#FDE942" d="M20.8,13.8c0,0,9.8,1.6,17.8,3.2l7.2-8.8c0,0-12-6.7-24.5-1.8L20.8,13.8z"/>
				<path fill="#FDE941" d="M20.8,13.6c0,0,9.9,1.6,18,3.3L46,8c0,0-12.1-6.8-24.6-1.8L20.8,13.6z"/>
				<path fill="#FEE940" d="M20.9,13.4c0,0,9.9,1.6,18.1,3.3l7.2-8.9c0,0-12.2-6.8-24.8-1.8L20.9,13.4z"/>
				<path fill="#FEE93F" d="M20.9,13.2c0,0,10,1.6,18.3,3.3l7.3-8.9c0,0-12.2-6.8-25-1.7L20.9,13.2z"/>
				<path fill="#FEE93E" d="M20.9,13c0,0,10.1,1.6,18.4,3.3l7.3-8.9c0,0-12.3-6.8-25.1-1.7L20.9,13z"/>
				<path fill="#FEE93D" d="M20.9,12.8c0,0,10.1,1.6,18.5,3.3l7.3-8.9c0,0-12.3-6.9-25.3-1.7L20.9,12.8z"/>
				<path fill="#FEE93C" d="M20.9,12.6c0,0,10.2,1.6,18.7,3.3L47,7c0,0-12.4-6.9-25.5-1.7L20.9,12.6z"/>
				<path fill="#FEE93B" d="M21,12.4c0,0,10.2,1.6,18.8,3.3l7.4-9c0,0-12.4-6.9-25.6-1.7L21,12.4z"/>
				<path fill="#FEE93A" d="M21,12.2c0,0,10.3,1.6,18.9,3.4l7.4-9c0,0-12.5-6.9-25.8-1.6L21,12.2z"/>
				<path fill="#FEE939" d="M21,12c0,0,10.4,1.6,19.1,3.4l7.4-9.1c0,0-12.5-7-26-1.6L21,12z"/>
				<path fill="#FEE938" d="M21,11.8c0,0,10.4,1.6,19.2,3.4l7.5-9.1c0,0-12.6-7-26.1-1.6L21,11.8z"/>
				<path fill="#FEE837" d="M21,11.6c0,0,10.5,1.6,19.4,3.4l7.5-9.1c0,0-12.6-7-26.3-1.6L21,11.6z"/>
				<path fill="#FEE836" d="M21.1,11.4c0,0,10.6,1.6,19.5,3.4l7.5-9.1c0,0-12.7-7-26.5-1.5L21.1,11.4z"/>
				<path fill="#FEE835" d="M21.1,11.2c0,0,10.6,1.6,19.6,3.4l7.6-9.2c0,0-12.7-7.1-26.7-1.5L21.1,11.2z"/>
				<path fill="#FEE834" d="M21.1,11c0,0,10.7,1.6,19.8,3.4l7.6-9.2c0,0-12.8-7.1-26.8-1.5L21.1,11z"/>
				<path fill="#FFE833" d="M21.1,10.7c0,0,10.7,1.6,19.9,3.5L48.6,5c0,0-12.8-7.1-27-1.5L21.1,10.7z"/>
				<path fill="#FFE832" d="M21.1,10.5c0,0,10.8,1.6,20,3.5l7.6-9.2c0,0-12.9-7.1-27.2-1.5L21.1,10.5z"/>
				<path fill="#FFE831" d="M21.2,10.3c0,0,10.9,1.6,20.2,3.5L49,4.6c0,0-12.9-7.2-27.3-1.4L21.2,10.3z"/>
				<path fill="#FFE830" d="M21.2,10.1c0,0,10.9,1.6,20.3,3.5l7.7-9.3c0,0-13-7.2-27.5-1.4L21.2,10.1z"/>
				<path fill="#FFE82F" d="M21.2,9.9c0,0,11,1.6,20.5,3.5l7.7-9.3c0,0-13-7.2-27.7-1.4L21.2,9.9z"/>
				<path fill="#FFE82E" d="M21.2,9.7c0,0,11,1.6,20.6,3.5l7.8-9.3c0,0-13.1-7.3-27.8-1.4L21.2,9.7z"/>
				<path fill="#FFE82D" d="M21.2,9.5c0,0,11.1,1.6,20.7,3.5l7.8-9.4c0,0-13.2-7.3-28-1.4L21.2,9.5z"/>
			</g>
			<g>
				<path fill="#F5EEAB" d="M10.8,39.4c0,0-0.4,1.4-0.4,3.1l1.1-0.1l0.4-2.8L10.8,39.4z"/>
				<path fill="#F5EEA9" d="M10.3,42.6l1.1-0.1c0,0,0.4-2.8,0.4-2.9l-1.1-0.2C10.6,39.4,10.3,40.8,10.3,42.6z"/>
				<path fill="#F5EEA8" d="M10.1,42.6l1.1-0.1c0,0,0.4-2.9,0.4-2.9l-1.1-0.2C10.5,39.4,10.2,40.8,10.1,42.6z"/>
				<path fill="#F5EEA6" d="M10,42.6l1.1-0.1c0,0,0.4-2.9,0.4-2.9l-1.1-0.2C10.4,39.3,10,40.9,10,42.6z"/>
				<path fill="#F5EEA5" d="M9.9,42.6l1.1-0.1c0,0,0.3-2.9,0.4-3l-1.1-0.2C10.2,39.3,9.9,40.9,9.9,42.6z"/>
				<path fill="#F6EEA3" d="M9.8,42.6l1.1-0.1c0,0,0.3-2.9,0.3-3l-1.2-0.2C10.1,39.3,9.8,40.9,9.8,42.6z"/>
				<path fill="#F6EEA2" d="M9.7,42.6l1.1-0.1c0,0,0.3-2.9,0.3-3L10,39.3C10,39.3,9.7,40.9,9.7,42.6z"/>
				<path fill="#F6EDA0" d="M9.6,42.6l1.1-0.1c0,0,0.3-2.9,0.3-3.1l-1.2-0.2C9.8,39.2,9.5,40.9,9.6,42.6z"/>
				<path fill="#F6ED9F" d="M9.5,42.6l1.1-0.1c0,0,0.3-3,0.3-3.1l-1.2-0.2C9.7,39.2,9.4,40.9,9.5,42.6z"/>
				<path fill="#F6ED9D" d="M9.3,42.6l1.1-0.1c0,0,0.3-3,0.3-3.1l-1.2-0.2C9.6,39.2,9.3,40.9,9.3,42.6z"/>
				<path fill="#F6ED9B" d="M9.2,42.7l1.1-0.1c0,0,0.3-3,0.3-3.2l-1.2-0.2C9.4,39.2,9.1,40.9,9.2,42.7z"/>
				<path fill="#F6ED9A" d="M9.1,42.7l1.1-0.1c0,0,0.2-3,0.3-3.2l-1.2-0.2C9.3,39.1,9,40.9,9.1,42.7z"/>
				<path fill="#F6ED98" d="M9,42.7l1.1-0.1c0,0,0.2-3,0.3-3.2l-1.2-0.2C9.2,39.1,8.9,40.9,9,42.7z"/>
				<path fill="#F7ED97" d="M8.9,42.7l1.1-0.1c0,0,0.2-3,0.3-3.3L9,39.1C9,39.1,8.8,40.9,8.9,42.7z"/>
				<path fill="#F7ED95" d="M8.8,42.7l1.1-0.1c0,0,0.2-3.1,0.2-3.3l-1.3-0.2C8.9,39.1,8.7,41,8.8,42.7z"/>
				<path fill="#F7ED94" d="M8.7,42.7l1.1-0.1c0,0,0.2-3.1,0.2-3.3l-1.3-0.2C8.8,39.1,8.5,41,8.7,42.7z"/>
				<path fill="#F7ED92" d="M8.6,42.7l1.1-0.1c0,0,0.2-3.1,0.2-3.4L8.7,39C8.7,39,8.4,41,8.6,42.7z"/>
				<path fill="#F7ED91" d="M8.5,42.7l1.1-0.1c0,0,0.2-3.1,0.2-3.4L8.5,39C8.5,39,8.3,41,8.5,42.7z"/>
				<path fill="#F7ED8F" d="M8.3,42.8l1.1-0.1c0,0,0.1-3.1,0.2-3.4L8.4,39C8.4,39,8.2,41,8.3,42.8z"/>
				<path fill="#F7ED8D" d="M8.2,42.8l1.1-0.1c0,0,0.1-3.1,0.2-3.5L8.2,39C8.2,39,8,41,8.2,42.8z"/>
				<path fill="#F7ED8C" d="M8.1,42.8l1.1-0.1c0,0,0.1-3.2,0.2-3.5L8.1,39C8.1,39,7.9,41,8.1,42.8z"/>
				<path fill="#F8EC8A" d="M8,42.8l1.2-0.1c0,0,0.1-3.2,0.2-3.5L8,38.9C8,38.9,7.8,41,8,42.8z"/>
				<path fill="#F8EC89" d="M7.9,42.8L9,42.7c0,0,0.1-3.2,0.2-3.6l-1.3-0.2C7.9,38.9,7.7,41,7.9,42.8z"/>
				<path fill="#F8EC87" d="M7.8,42.8l1.2-0.1c0,0,0.1-3.2,0.1-3.6l-1.3-0.2C7.7,38.9,7.5,41,7.8,42.8z"/>
				<path fill="#F8EC86" d="M7.7,42.8l1.2-0.1c0,0,0.1-3.2,0.1-3.6l-1.4-0.2C7.6,38.8,7.4,41.1,7.7,42.8z"/>
				<path fill="#F8EC84" d="M7.5,42.8l1.2-0.1c0,0,0-3.2,0.1-3.7l-1.4-0.2C7.5,38.8,7.3,41.1,7.5,42.8z"/>
				<path fill="#F8EC83" d="M7.4,42.8l1.2-0.1c0,0,0-3.3,0.1-3.7l-1.4-0.2C7.3,38.8,7.2,41.1,7.4,42.8z"/>
				<path fill="#F8EC81" d="M7.3,42.9l1.2-0.1c0,0,0-3.3,0.1-3.7l-1.4-0.2C7.2,38.8,7,41.1,7.3,42.9z"/>
				<path fill="#F8EC7F" d="M7.2,42.9l1.2-0.1c0,0,0-3.3,0.1-3.8l-1.4-0.3C7.1,38.7,6.9,41.1,7.2,42.9z"/>
				<path fill="#F9EC7E" d="M7.1,42.9l1.2-0.1c0,0,0-3.3,0.1-3.8l-1.4-0.3C6.9,38.7,6.8,41.1,7.1,42.9z"/>
				<path fill="#F9EC7C" d="M7,42.9l1.2-0.1c0,0,0-3.3,0.1-3.8l-1.4-0.3C6.8,38.7,6.7,41.1,7,42.9z"/>
				<path fill="#F9EC7B" d="M6.9,42.9L8,42.8c0,0,0-3.3,0-3.9l-1.4-0.3C6.7,38.7,6.5,41.1,6.9,42.9z"/>
				<path fill="#F9EC79" d="M6.8,42.9l1.2-0.1c0,0,0-3.4,0-3.9l-1.4-0.3C6.5,38.6,6.4,41.1,6.8,42.9z"/>
				<path fill="#F9EC78" d="M6.6,42.9l1.2-0.1c0,0-0.1-3.4,0-3.9l-1.4-0.3C6.4,38.6,6.3,41.1,6.6,42.9z"/>
				<path fill="#F9EB76" d="M6.5,42.9l1.2-0.1c0,0-0.1-3.4,0-4l-1.5-0.3C6.3,38.6,6.1,41.2,6.5,42.9z"/>
				<path fill="#F9EB75" d="M6.4,42.9l1.2-0.1c0,0-0.1-3.4,0-4l-1.5-0.3C6.1,38.6,6,41.2,6.4,42.9z"/>
				<path fill="#F9EB73" d="M6.3,43l1.2-0.1c0,0-0.1-3.4,0-4L6,38.5C6,38.5,5.9,41.2,6.3,43z"/>
				<path fill="#FAEB71" d="M6.2,43l1.2-0.1c0,0-0.1-3.4,0-4.1l-1.5-0.3C5.9,38.5,5.8,41.2,6.2,43z"/>
				<path fill="#FAEB70" d="M6.1,43l1.2-0.1c0,0-0.1-3.5,0-4.1l-1.5-0.3C5.7,38.5,5.6,41.2,6.1,43z"/>
				<path fill="#FAEB6E" d="M6,43l1.2-0.1c0,0-0.1-3.5,0-4.1l-1.5-0.3C5.6,38.5,5.5,41.2,6,43z"/>
				<path fill="#FAEB6D" d="M5.8,43L7,42.9c0,0-0.2-3.5-0.1-4.2l-1.5-0.3C5.5,38.5,5.4,41.2,5.8,43z"/>
				<path fill="#FAEB6B" d="M5.7,43l1.2-0.1c0,0-0.2-3.5-0.1-4.2l-1.5-0.3C5.3,38.4,5.3,41.2,5.7,43z"/>
				<path fill="#FAEB6A" d="M5.6,43l1.2-0.1c0,0-0.2-3.5-0.1-4.2l-1.5-0.3C5.2,38.4,5.1,41.2,5.6,43z"/>
				<path fill="#FAEB68" d="M5.5,43l1.2-0.1c0,0-0.2-3.5-0.1-4.3l-1.5-0.3C5.1,38.4,5,41.2,5.5,43z"/>
				<path fill="#FAEB67" d="M5.4,43l1.2-0.1c0,0-0.2-3.6-0.1-4.3l-1.6-0.3C4.9,38.4,4.9,41.2,5.4,43z"/>
				<path fill="#FBEB65" d="M5.3,43.1L6.5,43c0,0-0.2-3.6-0.1-4.3l-1.6-0.3C4.8,38.3,4.8,41.3,5.3,43.1z"/>
				<path fill="#FBEB63" d="M5.2,43.1L6.4,43c0,0-0.2-3.6-0.1-4.4l-1.6-0.3C4.7,38.3,4.6,41.3,5.2,43.1z"/>
				<path fill="#FBEB62" d="M5.1,43.1L6.2,43c0,0-0.3-3.6-0.1-4.4l-1.6-0.3C4.5,38.3,4.5,41.3,5.1,43.1z"/>
				<path fill="#FBEA60" d="M4.9,43.1L6.1,43c0,0-0.3-3.6-0.1-4.4l-1.6-0.3C4.4,38.3,4.4,41.3,4.9,43.1z"/>
				<path fill="#FBEA5F" d="M4.8,43.1L6,43c0,0-0.3-3.6-0.2-4.5l-1.6-0.3C4.3,38.2,4.3,41.3,4.8,43.1z"/>
				<path fill="#FBEA5D" d="M4.7,43.1L5.9,43c0,0-0.3-3.7-0.2-4.5l-1.6-0.3C4.1,38.2,4.1,41.3,4.7,43.1z"/>
				<path fill="#FBEA5C" d="M4.6,43.1L5.8,43c0,0-0.3-3.7-0.2-4.5L4,38.2C4,38.2,4,41.3,4.6,43.1z"/>
				<path fill="#FBEA5A" d="M4.5,43.1L5.7,43c0,0-0.3-3.7-0.2-4.6l-1.6-0.3C3.9,38.2,3.9,41.3,4.5,43.1z"/>
				<path fill="#FCEA59" d="M4.4,43.1L5.6,43c0,0-0.3-3.7-0.2-4.6l-1.7-0.3C3.7,38.1,3.8,41.3,4.4,43.1z"/>
				<path fill="#FCEA57" d="M4.3,43.2l1.2-0.1c0,0-0.4-3.7-0.2-4.6l-1.7-0.3C3.6,38.1,3.6,41.3,4.3,43.2z"/>
				<path fill="#FCEA55" d="M4.1,43.2l1.2-0.1c0,0-0.4-3.7-0.2-4.7l-1.7-0.3C3.5,38.1,3.5,41.4,4.1,43.2z"/>
				<path fill="#FCEA54" d="M4,43.2l1.2-0.1c0,0-0.4-3.8-0.2-4.7l-1.7-0.3C3.3,38.1,3.4,41.4,4,43.2z"/>
				<path fill="#FCEA52" d="M3.9,43.2l1.2-0.1c0,0-0.4-3.8-0.2-4.7L3.2,38C3.2,38,3.3,41.4,3.9,43.2z"/>
				<path fill="#FCEA51" d="M3.8,43.2L5,43.1c0,0-0.4-3.8-0.3-4.8L3.1,38C3.1,38,3.1,41.4,3.8,43.2z"/>
				<path fill="#FCEA4F" d="M3.7,43.2l1.2-0.1c0,0-0.4-3.8-0.3-4.8L2.9,38C2.9,38,3,41.4,3.7,43.2z"/>
				<path fill="#FCEA4E" d="M3.6,43.2l1.2-0.1c0,0-0.4-3.8-0.3-4.8L2.8,38C2.8,38,2.9,41.4,3.6,43.2z"/>
				<path fill="#FDE94C" d="M3.5,43.2l1.2-0.1c0,0-0.5-3.8-0.3-4.9l-1.7-0.3C2.7,37.9,2.8,41.4,3.5,43.2z"/>
				<path fill="#FDE94B" d="M3.4,43.2l1.2-0.1c0,0-0.5-3.9-0.3-4.9l-1.7-0.3C2.5,37.9,2.6,41.4,3.4,43.2z"/>
				<path fill="#FDE949" d="M3.2,43.3l1.2-0.1c0,0-0.5-3.9-0.3-4.9l-1.8-0.3C2.4,37.9,2.5,41.4,3.2,43.3z"/>
				<path fill="#FDE947" d="M3.1,43.3l1.2-0.1c0,0-0.5-3.9-0.3-5l-1.8-0.3C2.3,37.9,2.4,41.4,3.1,43.3z"/>
				<path fill="#FDE946" d="M3,43.3l1.2-0.1c0,0-0.5-3.9-0.3-5l-1.8-0.3C2.1,37.9,2.3,41.4,3,43.3z"/>
				<path fill="#FDE944" d="M2.9,43.3l1.2-0.1c0,0-0.5-3.9-0.3-5L2,37.8C2,37.8,2.1,41.5,2.9,43.3z"/>
				<path fill="#FDE943" d="M2.8,43.3L4,43.2c0,0-0.5-3.9-0.4-5.1l-1.8-0.3C1.9,37.8,2,41.5,2.8,43.3z"/>
				<path fill="#FDE941" d="M2.7,43.3l1.2-0.1c0,0-0.6-4-0.4-5.1l-1.8-0.3C1.7,37.8,1.9,41.5,2.7,43.3z"/>
				<path fill="#FEE940" d="M2.6,43.3l1.2-0.1c0,0-0.6-4-0.4-5.1l-1.8-0.3C1.6,37.8,1.8,41.5,2.6,43.3z"/>
				<path fill="#FEE93E" d="M2.4,43.3l1.2-0.1c0,0-0.6-4-0.4-5.2l-1.8-0.3C1.5,37.7,1.6,41.5,2.4,43.3z"/>
				<path fill="#FEE93D" d="M2.3,43.3l1.2-0.1c0,0-0.6-4-0.4-5.2l-1.8-0.3C1.3,37.7,1.5,41.5,2.3,43.3z"/>
				<path fill="#FEE93B" d="M2.2,43.4l1.2-0.1c0,0-0.6-4-0.4-5.2l-1.8-0.3C1.2,37.7,1.4,41.5,2.2,43.4z"/>
				<path fill="#FEE939" d="M2.1,43.4l1.2-0.1c0,0-0.6-4-0.4-5.3l-1.9-0.3C1.1,37.7,1.2,41.5,2.1,43.4z"/>
				<path fill="#FEE938" d="M2,43.4l1.2-0.1c0,0-0.6-4.1-0.4-5.3l-1.9-0.3C0.9,37.6,1.1,41.5,2,43.4z"/>
				<path fill="#FEE836" d="M1.9,43.4l1.2-0.1c0,0-0.7-4.1-0.5-5.3l-1.9-0.3C0.8,37.6,1,41.5,1.9,43.4z"/>
				<path fill="#FEE835" d="M1.8,43.4L3,43.3c0,0-0.7-4.1-0.5-5.4l-1.9-0.3C0.7,37.6,0.9,41.6,1.8,43.4z"/>
				<path fill="#FFE833" d="M1.7,43.4l1.2-0.1c0,0-0.7-4.1-0.5-5.4l-1.9-0.3C0.5,37.6,0.7,41.6,1.7,43.4z"/>
				<path fill="#FFE832" d="M1.5,43.4l1.2-0.1c0,0-0.7-4.1-0.5-5.4l-1.9-0.3C0.4,37.5,0.6,41.6,1.5,43.4z"/>
				<path fill="#FFE830" d="M1.4,43.4l1.2-0.1c0,0-0.7-4.1-0.5-5.5l-1.9-0.3C0.3,37.5,0.5,41.6,1.4,43.4z"/>
				<path fill="#FFE82F" d="M1.3,43.4l1.3-0.1c0,0-0.7-4.2-0.5-5.5l-1.9-0.3C0.1,37.5,0.4,41.6,1.3,43.4z"/>
				<path fill="#FFE82D" d="M1.2,43.5l1.3-0.1c0,0-0.7-4.2-0.5-5.6L0,37.5C0,37.5,0.2,41.6,1.2,43.5z"/>
			</g>
			<g>
				<polygon fill="#F5EEAB" points="22.9,38.9 35.9,33 37.1,39.6 22.9,41.1 				"/>
				<path fill="#F5EEA9" d="M23.2,38.7l13-5.9c0,0.1,1.2,6.7,1.2,6.7l-14.2,1.6L23.2,38.7z"/>
				<path fill="#F5EEA8" d="M23.6,38.6l13-5.9c0.1,0.1,1.2,6.8,1.2,6.8L23.6,41L23.6,38.6z"/>
				<path fill="#F5EEA6" d="M23.9,38.4l13-5.9c0.1,0.2,1.2,6.9,1.2,6.9L23.9,41L23.9,38.4z"/>
				<path fill="#F5EEA5" d="M24.3,38.3l13-5.9c0.1,0.3,1.3,7,1.3,7l-14.3,1.6L24.3,38.3z"/>
				<path fill="#F6EEA3" d="M24.6,38.2l13.1-5.9c0.2,0.3,1.3,7.1,1.3,7.1l-14.3,1.6L24.6,38.2z"/>
				<path fill="#F6EEA2" d="M24.9,38l13.1-5.9c0.2,0.4,1.3,7.1,1.3,7.1l-14.3,1.6L24.9,38z"/>
				<path fill="#F6EDA0" d="M25.3,37.9L38.4,32c0.3,0.5,1.3,7.2,1.3,7.2l-14.3,1.6L25.3,37.9z"/>
				<path fill="#F6ED9F" d="M25.6,37.7l13.2-5.9c0.3,0.5,1.3,7.3,1.3,7.3l-14.3,1.6L25.6,37.7z"/>
				<path fill="#F6ED9D" d="M26,37.6l13.2-5.9c0.3,0.6,1.3,7.4,1.3,7.4l-14.3,1.6L26,37.6z"/>
				<path fill="#F6ED9B" d="M26.3,37.4l13.2-5.9c0.4,0.7,1.3,7.5,1.3,7.5l-14.3,1.6L26.3,37.4z"/>
				<path fill="#F6ED9A" d="M26.7,37.3l13.2-5.9c0.4,0.7,1.4,7.6,1.4,7.6l-14.3,1.6L26.7,37.3z"/>
				<path fill="#F6ED98" d="M27,37.2l13.3-5.9c0.4,0.8,1.4,7.7,1.4,7.7l-14.3,1.6L27,37.2z"/>
				<path fill="#F7ED97" d="M27.4,37l13.3-5.9c0.5,0.9,1.4,7.8,1.4,7.8l-14.4,1.6L27.4,37z"/>
				<path fill="#F7ED95" d="M27.7,36.9L41,30.9c0.5,0.9,1.4,7.9,1.4,7.9L28,40.4L27.7,36.9z"/>
				<path fill="#F7ED94" d="M28,36.7l13.4-5.9c0.6,1,1.4,8,1.4,8l-14.4,1.6L28,36.7z"/>
				<path fill="#F7ED92" d="M28.4,36.6l13.4-5.9c0.6,1.1,1.4,8.1,1.4,8.1l-14.4,1.6L28.4,36.6z"/>
				<path fill="#F7ED91" d="M28.7,36.4l13.4-5.9c0.6,1.1,1.4,8.1,1.4,8.1l-14.4,1.6L28.7,36.4z"/>
				<path fill="#F7ED8F" d="M29.1,36.3l13.4-5.9c0.7,1.2,1.4,8.2,1.4,8.2l-14.4,1.6L29.1,36.3z"/>
				<path fill="#F7ED8D" d="M29.4,36.1l13.5-5.9c0.7,1.3,1.5,8.3,1.5,8.3l-14.4,1.6L29.4,36.1z"/>
				<path fill="#F7ED8C" d="M29.8,36l13.5-5.9c0.7,1.3,1.5,8.4,1.5,8.4l-14.4,1.6L29.8,36z"/>
				<path fill="#F8EC8A" d="M30.1,35.9l13.5-5.9c0.8,1.4,1.5,8.5,1.5,8.5L30.7,40L30.1,35.9z"/>
				<path fill="#F8EC89" d="M30.4,35.7L44,29.8c0.8,1.5,1.5,8.6,1.5,8.6L31,39.9L30.4,35.7z"/>
				<path fill="#F8EC87" d="M30.8,35.6l13.6-5.9c0.9,1.5,1.5,8.7,1.5,8.7l-14.5,1.6L30.8,35.6z"/>
				<path fill="#F8EC86" d="M31.1,35.4l13.6-5.9c0.9,1.6,1.5,8.8,1.5,8.8l-14.5,1.6L31.1,35.4z"/>
				<path fill="#F8EC84" d="M31.5,35.3l13.6-5.9c0.9,1.7,1.5,8.9,1.5,8.9l-14.5,1.6L31.5,35.3z"/>
				<path fill="#F8EC83" d="M31.8,35.1l13.7-5.9c1,1.7,1.6,9,1.6,9l-14.5,1.6L31.8,35.1z"/>
				<path fill="#F8EC81" d="M32.2,35l13.7-5.9c1,1.8,1.6,9.1,1.6,9.1l-14.5,1.6L32.2,35z"/>
				<path fill="#F8EC7F" d="M32.5,34.9l13.7-5.9c1,1.9,1.6,9.1,1.6,9.1l-14.5,1.6L32.5,34.9z"/>
				<path fill="#F9EC7E" d="M32.9,34.7l13.7-5.9c1.1,1.9,1.6,9.2,1.6,9.2l-14.6,1.6L32.9,34.7z"/>
				<path fill="#F9EC7C" d="M33.2,34.6L47,28.6c1.1,2,1.6,9.3,1.6,9.3L34,39.5L33.2,34.6z"/>
				<path fill="#F9EC7B" d="M33.5,34.4l13.8-5.9c1.1,2.1,1.6,9.4,1.6,9.4l-14.6,1.6L33.5,34.4z"/>
				<path fill="#F9EC79" d="M33.9,34.3l13.8-5.9c1.2,2.1,1.6,9.5,1.6,9.5l-14.6,1.6L33.9,34.3z"/>
				<path fill="#F9EC78" d="M34.2,34.1l13.9-5.9c1.2,2.2,1.6,9.6,1.6,9.6l-14.6,1.6L34.2,34.1z"/>
				<path fill="#F9EB76" d="M34.6,34l13.9-5.9c1.3,2.3,1.7,9.7,1.7,9.7l-14.6,1.6L34.6,34z"/>
				<path fill="#F9EB75" d="M34.9,33.8l13.9-5.9c1.3,2.3,1.7,9.8,1.7,9.8l-14.6,1.6L34.9,33.8z"/>
				<path fill="#F9EB73" d="M35.3,33.7l13.9-5.9c1.3,2.4,1.7,9.9,1.7,9.9l-14.6,1.6L35.3,33.7z"/>
				<path fill="#FAEB71" d="M35.6,33.6l14-5.9c1.4,2.5,1.7,10,1.7,10l-14.6,1.6L35.6,33.6z"/>
				<path fill="#FAEB70" d="M35.9,33.4l14-5.9c1.4,2.5,1.7,10.1,1.7,10.1L37,39.1L35.9,33.4z"/>
				<path fill="#FAEB6E" d="M36.3,33.3l14-5.9c1.4,2.6,1.7,10.1,1.7,10.1L37.4,39L36.3,33.3z"/>
				<path fill="#FAEB6D" d="M36.6,33.1l14.1-5.9c1.5,2.7,1.7,10.2,1.7,10.2L37.7,39L36.6,33.1z"/>
				<path fill="#FAEB6B" d="M37,33L51.1,27c1.5,2.7,1.8,10.3,1.8,10.3l-14.7,1.6L37,33z"/>
				<path fill="#FAEB6A" d="M37.3,32.8l14.1-5.9c1.6,2.8,1.8,10.4,1.8,10.4l-14.7,1.5L37.3,32.8z"/>
				<path fill="#FAEB68" d="M37.7,32.7l14.1-5.9c1.6,2.9,1.8,10.5,1.8,10.5l-14.7,1.5L37.7,32.7z"/>
				<path fill="#FAEB67" d="M38,32.6l14.2-5.9c1.6,2.9,1.8,10.6,1.8,10.6l-14.7,1.5L38,32.6z"/>
				<path fill="#FBEB65" d="M38.4,32.4l14.2-5.9c1.7,3,1.8,10.7,1.8,10.7l-14.7,1.5L38.4,32.4z"/>
				<path fill="#FBEB63" d="M38.7,32.3l14.2-6c1.7,3.1,1.8,10.8,1.8,10.8L40,38.6L38.7,32.3z"/>
				<path fill="#FBEB62" d="M39,32.1l14.2-6C55,29.3,55.1,37,55.1,37l-14.8,1.5L39,32.1z"/>
				<path fill="#FBEA60" d="M39.4,32l14.3-6c1.8,3.2,1.8,11,1.8,11l-14.8,1.5L39.4,32z"/>
				<path fill="#FBEA5F" d="M39.7,31.8l14.3-6c1.8,3.3,1.9,11.1,1.9,11.1l-14.8,1.5L39.7,31.8z"/>
				<path fill="#FBEA5D" d="M40.1,31.7l14.3-6c1.9,3.3,1.9,11.1,1.9,11.1l-14.8,1.5L40.1,31.7z"/>
				<path fill="#FBEA5C" d="M40.4,31.5l14.4-6c1.9,3.4,1.9,11.2,1.9,11.2l-14.8,1.5L40.4,31.5z"/>
				<path fill="#FBEA5A" d="M40.8,31.4l14.4-6c1.9,3.5,1.9,11.3,1.9,11.3l-14.8,1.5L40.8,31.4z"/>
				<path fill="#FCEA59" d="M41.1,31.3l14.4-6c2,3.5,1.9,11.4,1.9,11.4l-14.8,1.5L41.1,31.3z"/>
				<path fill="#FCEA57" d="M41.5,31.1l14.4-6c2,3.6,1.9,11.5,1.9,11.5L43,38.2L41.5,31.1z"/>
				<path fill="#FCEA55" d="M41.8,31l14.5-6c2,3.7,1.9,11.6,1.9,11.6l-14.9,1.5L41.8,31z"/>
				<path fill="#FCEA54" d="M42.1,30.8l14.5-6c2.1,3.7,1.9,11.7,1.9,11.7l-14.9,1.5L42.1,30.8z"/>
				<path fill="#FCEA52" d="M42.5,30.7l14.5-6c2.1,3.8,2,11.8,2,11.8L44.1,38L42.5,30.7z"/>
				<path fill="#FCEA51" d="M42.8,30.5l14.6-6c2.2,3.9,2,11.9,2,11.9L44.5,38L42.8,30.5z"/>
				<path fill="#FCEA4F" d="M43.2,30.4l14.6-6c2.2,3.9,2,12,2,12l-14.9,1.5L43.2,30.4z"/>
				<path fill="#FCEA4E" d="M43.5,30.3l14.6-6c2.2,4,2,12.1,2,12.1l-14.9,1.5L43.5,30.3z"/>
				<path fill="#FDE94C" d="M43.9,30.1l14.6-6c2.3,4.1,2,12.1,2,12.1l-14.9,1.5L43.9,30.1z"/>
				<path fill="#FDE94B" d="M44.2,30l14.7-6c2.3,4.1,2,12.2,2,12.2l-14.9,1.5L44.2,30z"/>
				<path fill="#FDE949" d="M44.5,29.8l14.7-6c2.3,4.2,2,12.3,2,12.3l-15,1.5L44.5,29.8z"/>
				<path fill="#FDE947" d="M44.9,29.7l14.7-6c2.4,4.3,2.1,12.4,2.1,12.4l-15,1.5L44.9,29.7z"/>
				<path fill="#FDE946" d="M45.2,29.5l14.7-6c2.4,4.3,2.1,12.5,2.1,12.5l-15,1.5L45.2,29.5z"/>
				<path fill="#FDE944" d="M45.6,29.4l14.8-6c2.4,4.4,2.1,12.6,2.1,12.6l-15,1.5L45.6,29.4z"/>
				<path fill="#FDE943" d="M45.9,29.2l14.8-6c2.5,4.5,2.1,12.7,2.1,12.7l-15,1.5L45.9,29.2z"/>
				<path fill="#FDE941" d="M46.3,29.1l14.8-6c2.5,4.5,2.1,12.8,2.1,12.8l-15,1.5L46.3,29.1z"/>
				<path fill="#FEE940" d="M46.6,29l14.9-6c2.6,4.6,2.1,12.9,2.1,12.9l-15,1.5L46.6,29z"/>
				<path fill="#FEE93E" d="M46.9,28.8l14.9-6c2.6,4.7,2.1,13,2.1,13l-15,1.5L46.9,28.8z"/>
				<path fill="#FEE93D" d="M47.3,28.7l14.9-6c2.6,4.7,2.1,13.1,2.1,13.1l-15.1,1.5L47.3,28.7z"/>
				<path fill="#FEE93B" d="M47.6,28.5l14.9-6c2.7,4.8,2.2,13.1,2.2,13.1l-15.1,1.5L47.6,28.5z"/>
				<path fill="#FEE939" d="M48,28.4l15-6c2.7,4.9,2.2,13.2,2.2,13.2L50,37.2L48,28.4z"/>
				<path fill="#FEE938" d="M48.3,28.2l15-6c2.7,4.9,2.2,13.3,2.2,13.3l-15.1,1.5L48.3,28.2z"/>
				<path fill="#FEE836" d="M48.6,28.1l15-6c2.8,5,2.2,13.4,2.2,13.4l-15.1,1.5L48.6,28.1z"/>
				<path fill="#FEE835" d="M49,28L64,22c2.8,5.1,2.2,13.5,2.2,13.5L51.1,37L49,28z"/>
				<path fill="#FFE833" d="M49.3,27.8l15.1-6c2.9,5.1,2.2,13.6,2.2,13.6L51.5,37L49.3,27.8z"/>
				<path fill="#FFE832" d="M49.7,27.7l15.1-6c2.9,5.2,2.2,13.7,2.2,13.7l-15.1,1.5L49.7,27.7z"/>
				<path fill="#FFE830" d="M50,27.5l15.1-6c2.9,5.3,2.3,13.8,2.3,13.8l-15.2,1.5L50,27.5z"/>
				<path fill="#FFE82F" d="M50.4,27.4l15.2-6c3,5.3,2.3,13.9,2.3,13.9l-15.2,1.5L50.4,27.4z"/>
				<path fill="#FFE82D" d="M50.7,27.2l2.3,9.5l15.2-1.5c0,0,0.7-8.6-2.3-14L50.7,27.2z"/>
			</g>
		</g>
		<path clip-path="url(#SVGID_2_)" fill="#BBC26B" d="M1,41.7c0,0,11.2,8.7,32.4-1c12.6-5.8,31.6,0,31.6,0s1.3,31.2-31.7,31.8
			C33.3,72.5,3.8,73.8,1,41.7z"/>
		<g clip-path="url(#SVGID_2_)">
			<path fill="#7D9A51" d="M1.5,42c0,0,11.1,6.4,26.3,0.6s23.6-7.6,37.2-2c0,0-0.4,8.5-2.3,12.1c0,0-9.4-6.4-27.7-4.3
				S8.9,50.5,1.5,42z"/>
			<path fill="#99B54E" d="M1.5,42.9c0,0,5.4,9.5,22.2,8.4c16.8-1.1,25.7-2,38,3.7c0,0-4.8,9-10.7,12.1c0,0-5-5.1-17.1-7.7
				C22.1,56.9,5.8,55,1.5,42.9z"/>
			<path fill="#BFCF4C" d="M48.6,68.5c0,0-8.2-6-23.4-9S4.8,51.7,1,43.2c0,0-0.3,17.9,18,26.3C35,76.9,48.6,68.5,48.6,68.5z"/>
		</g>
	</g>
	<g>
		<path fill="#A3C36B" d="M152.9,61.2v2.7c-1.2-0.7-2.2-1.1-3.1-1.1s-1.6,0.3-2.2,0.9c-0.5,0.6-0.8,1.5-0.8,2.5c0,1,0.3,1.8,0.8,2.4
			c0.6,0.6,1.3,0.9,2.3,0.9c0.8,0,1.8-0.3,3-1v2.7c-1.3,0.4-2.4,0.6-3.2,0.6c-1.5,0-2.7-0.5-3.8-1.6c-1-1.1-1.6-2.4-1.6-4
			c0-1.6,0.5-3,1.6-4.1c1.1-1.1,2.3-1.7,3.9-1.7C150.7,60.4,151.7,60.7,152.9,61.2z"/>
		<path fill="#A3C36B" d="M158.7,71.7v-1.2h0c-0.3,0.5-0.7,0.8-1,1.1c-0.3,0.2-0.8,0.3-1.3,0.3c-0.8,0-1.6-0.4-2.2-1.1
			c-0.6-0.7-0.9-1.6-0.9-2.7c0-1,0.3-1.9,0.9-2.7c0.6-0.7,1.4-1.1,2.3-1.1c0.4,0,0.8,0.1,1.1,0.3c0.3,0.2,0.7,0.5,1.1,0.9v-1h2.2
			v7.2H158.7z M157.1,66.4c-0.4,0-0.8,0.2-1.1,0.5c-0.3,0.3-0.4,0.8-0.4,1.3c0,0.5,0.1,0.9,0.4,1.2c0.3,0.3,0.6,0.4,1.1,0.4
			c0.4,0,0.8-0.2,1.1-0.5c0.3-0.3,0.5-0.8,0.5-1.2c0-0.4-0.2-0.8-0.5-1.2C157.9,66.6,157.5,66.4,157.1,66.4z"/>
		<path fill="#A3C36B" d="M162.6,61.9h2.2v2.5h1v2h-1v5.3h-2.2v-5.3h-0.8v-2h0.8V61.9z"/>
		<path fill="#A3C36B" d="M171.2,71.7v-1.2h0c-0.3,0.5-0.7,0.8-1,1.1c-0.3,0.2-0.8,0.3-1.3,0.3c-0.8,0-1.6-0.4-2.2-1.1
			c-0.6-0.7-0.9-1.6-0.9-2.7c0-1,0.3-1.9,0.9-2.7c0.6-0.7,1.4-1.1,2.3-1.1c0.4,0,0.8,0.1,1.1,0.3c0.3,0.2,0.7,0.5,1.1,0.9v-1h2.2
			v7.2H171.2z M169.6,66.4c-0.4,0-0.8,0.2-1.1,0.5c-0.3,0.3-0.4,0.8-0.4,1.3c0,0.5,0.1,0.9,0.4,1.2c0.3,0.3,0.6,0.4,1.1,0.4
			c0.4,0,0.8-0.2,1.1-0.5c0.3-0.3,0.5-0.8,0.5-1.2c0-0.4-0.2-0.8-0.5-1.2C170.4,66.6,170,66.4,169.6,66.4z"/>
		<path fill="#A3C36B" d="M174.9,60.4h2.2v11.3h-2.2V60.4z"/>
		<path fill="#A3C36B" d="M178.4,61.7c0-0.4,0.1-0.7,0.4-0.9c0.3-0.3,0.6-0.4,0.9-0.4s0.7,0.1,0.9,0.4c0.3,0.3,0.4,0.6,0.4,0.9
			c0,0.4-0.1,0.7-0.4,1s-0.6,0.4-0.9,0.4s-0.7-0.1-0.9-0.4C178.5,62.4,178.4,62.1,178.4,61.7z M178.7,64.4h2.2v7.3h-2.2V64.4z"/>
		<path fill="#A3C36B" d="M182.3,64.4h6.8l-3.8,5.3h3.2v2h-6.8l3.8-5.3h-3.2V64.4z"/>
		<path fill="#A3C36B" d="M194.7,71.7v-1.2h0c-0.3,0.5-0.7,0.8-1,1.1c-0.3,0.2-0.8,0.3-1.3,0.3c-0.8,0-1.6-0.4-2.2-1.1
			c-0.6-0.7-0.9-1.6-0.9-2.7c0-1,0.3-1.9,0.9-2.7c0.6-0.7,1.4-1.1,2.3-1.1c0.4,0,0.8,0.1,1.1,0.3c0.3,0.2,0.7,0.5,1.1,0.9v-1h2.2
			v7.2H194.7z M193.1,66.4c-0.4,0-0.8,0.2-1.1,0.5c-0.3,0.3-0.4,0.8-0.4,1.3c0,0.5,0.1,0.9,0.4,1.2c0.3,0.3,0.6,0.4,1.1,0.4
			c0.4,0,0.8-0.2,1.1-0.5c0.3-0.3,0.5-0.8,0.5-1.2c0-0.4-0.2-0.8-0.5-1.2C193.9,66.6,193.5,66.4,193.1,66.4z"/>
		<path fill="#A3C36B" d="M203.1,60.4h2.2v11.3h-2.1v-1.2h0c-0.6,0.9-1.4,1.4-2.3,1.4c-0.8,0-1.5-0.4-2.1-1.1
			c-0.6-0.7-0.9-1.6-0.9-2.7c0-1,0.3-1.9,0.9-2.7c0.6-0.7,1.3-1.1,2.2-1.1c0.5,0,0.9,0.1,1.2,0.3c0.3,0.2,0.7,0.5,1,0.9V60.4z
			 M201.5,66.4c-0.4,0-0.7,0.2-1,0.5c-0.3,0.3-0.5,0.8-0.5,1.3c0,0.4,0.1,0.8,0.4,1.1c0.3,0.3,0.6,0.5,1,0.5c0.5,0,0.8-0.2,1.1-0.5
			s0.5-0.8,0.5-1.3c0-0.4-0.2-0.8-0.4-1.2C202.3,66.6,201.9,66.4,201.5,66.4z"/>
		<path fill="#A3C36B" d="M206.5,68c0-1.1,0.4-2,1.1-2.7c0.7-0.7,1.6-1.1,2.7-1.1c1,0,1.9,0.4,2.6,1.1c0.7,0.7,1.1,1.6,1.1,2.7
			c0,1.1-0.4,2-1.1,2.7c-0.7,0.7-1.6,1.1-2.6,1.1c-1.2,0-2.1-0.4-2.8-1.1C206.9,69.9,206.5,69,206.5,68z M211.9,68
			c0-0.5-0.2-0.9-0.5-1.3c-0.3-0.4-0.7-0.5-1.1-0.5c-0.4,0-0.8,0.2-1.1,0.5c-0.3,0.3-0.5,0.8-0.5,1.2c0,0.5,0.2,1,0.5,1.3
			c0.3,0.4,0.7,0.5,1.1,0.5c0.4,0,0.8-0.2,1.1-0.5C211.7,69,211.9,68.5,211.9,68z"/>
		<path fill="#A3C36B" d="M217.2,64.4v1.1h0c0.2-0.4,0.5-0.6,0.7-0.9c0.3-0.2,0.5-0.3,0.8-0.3c0.1,0,0.3,0,0.4,0v2.4
			c-0.2,0-0.4-0.1-0.5-0.1c-0.4,0-0.8,0.2-1,0.5c-0.2,0.3-0.4,0.8-0.4,1.3v3.2h-2.2v-7.3H217.2z"/>
		<path fill="#A3C36B" d="M228.6,60.4h2.2v11.3h-2.1v-1.2h0c-0.6,0.9-1.4,1.4-2.3,1.4c-0.8,0-1.5-0.4-2.1-1.1
			c-0.6-0.7-0.9-1.6-0.9-2.7c0-1,0.3-1.9,0.9-2.7s1.3-1.1,2.2-1.1c0.5,0,0.9,0.1,1.2,0.3c0.3,0.2,0.7,0.5,1,0.9V60.4z M227,66.4
			c-0.4,0-0.7,0.2-1,0.5c-0.3,0.3-0.5,0.8-0.5,1.3c0,0.4,0.1,0.8,0.4,1.1c0.3,0.3,0.6,0.5,1,0.5c0.5,0,0.8-0.2,1.1-0.5
			c0.3-0.3,0.5-0.8,0.5-1.3c0-0.4-0.2-0.8-0.4-1.2C227.8,66.6,227.4,66.4,227,66.4z"/>
		<path fill="#A3C36B" d="M238.9,68.5h-5.2c0,0.5,0.2,0.8,0.5,1.1c0.3,0.3,0.6,0.4,1,0.4c0.7,0,1.2-0.3,1.6-0.9l2,0.7
			c-0.7,1.3-1.9,1.9-3.4,1.9c-1.1,0-2-0.3-2.7-1c-0.7-0.7-1-1.6-1-2.8c0-1.1,0.4-1.9,1.1-2.6c0.7-0.7,1.6-1.1,2.6-1.1
			c1,0,1.9,0.4,2.6,1.1c0.7,0.8,1,1.7,1,2.8V68.5z M233.8,67.1h2.9c-0.2-0.9-0.7-1.4-1.4-1.4c-0.4,0-0.8,0.1-1,0.4
			C234,66.3,233.9,66.7,233.8,67.1z"/>
		<path fill="#A3C36B" d="M247.7,60.7v2.1c-0.3-0.2-0.6-0.3-0.8-0.3c-0.3,0-0.5,0.1-0.7,0.3s-0.3,0.5-0.3,0.9v0.8h1.8v2h-1.9v5.3
			h-2.2v-5.3H243v-2h0.6v-0.9c0-1.2,0.3-2.1,0.8-2.5c0.5-0.4,1.1-0.7,1.8-0.7C246.8,60.4,247.3,60.5,247.7,60.7z"/>
		<path fill="#A3C36B" d="M255.3,68.5h-5.2c0,0.5,0.2,0.8,0.5,1.1c0.3,0.3,0.6,0.4,1,0.4c0.7,0,1.2-0.3,1.6-0.9l2,0.7
			c-0.7,1.3-1.9,1.9-3.4,1.9c-1.1,0-2-0.3-2.7-1c-0.7-0.7-1-1.6-1-2.8c0-1.1,0.4-1.9,1.1-2.6c0.7-0.7,1.6-1.1,2.6-1.1
			c1,0,1.9,0.4,2.6,1.1c0.7,0.8,1,1.7,1,2.8V68.5z M250.1,67.1h2.9c-0.2-0.9-0.7-1.4-1.4-1.4c-0.4,0-0.8,0.1-1,0.4
			C250.3,66.3,250.2,66.7,250.1,67.1z"/>
		<path fill="#A3C36B" d="M258.1,64.4v1.1h0c0.2-0.4,0.5-0.6,0.7-0.9c0.3-0.2,0.5-0.3,0.8-0.3c0.1,0,0.3,0,0.4,0v2.4
			c-0.2,0-0.4-0.1-0.5-0.1c-0.4,0-0.8,0.2-1,0.5c-0.2,0.3-0.4,0.8-0.4,1.3v3.2H256v-7.3H258.1z"/>
		<path fill="#A3C36B" d="M261.6,61.9h2.2v2.5h1v2h-1v5.3h-2.2v-5.3h-0.8v-2h0.8V61.9z"/>
		<path fill="#A3C36B" d="M265.2,61.7c0-0.4,0.1-0.7,0.4-0.9c0.3-0.3,0.6-0.4,0.9-0.4c0.4,0,0.7,0.1,0.9,0.4
			c0.3,0.3,0.4,0.6,0.4,0.9c0,0.4-0.1,0.7-0.4,1s-0.6,0.4-0.9,0.4c-0.4,0-0.7-0.1-0.9-0.4C265.4,62.4,265.2,62.1,265.2,61.7z
			 M265.5,64.4h2.2v7.3h-2.2V64.4z"/>
		<path fill="#A3C36B" d="M269.3,60.4h2.2v11.3h-2.2V60.4z"/>
		<path fill="#A3C36B" d="M272.8,61.7c0-0.4,0.1-0.7,0.4-0.9c0.3-0.3,0.6-0.4,0.9-0.4c0.4,0,0.7,0.1,0.9,0.4
			c0.3,0.3,0.4,0.6,0.4,0.9c0,0.4-0.1,0.7-0.4,1c-0.3,0.3-0.6,0.4-0.9,0.4c-0.4,0-0.7-0.1-0.9-0.4C272.9,62.4,272.8,62.1,272.8,61.7
			z M273.1,64.4h2.2v7.3h-2.2V64.4z"/>
		<path fill="#A3C36B" d="M276.8,64.4h6.8l-3.8,5.3h3.2v2h-6.8l3.8-5.3h-3.2V64.4z"/>
		<path fill="#A3C36B" d="M289.1,71.7v-1.2h0c-0.3,0.5-0.7,0.8-1,1.1c-0.3,0.2-0.8,0.3-1.3,0.3c-0.8,0-1.6-0.4-2.2-1.1
			c-0.6-0.7-0.9-1.6-0.9-2.7c0-1,0.3-1.9,0.9-2.7c0.6-0.7,1.4-1.1,2.3-1.1c0.4,0,0.8,0.1,1.1,0.3c0.3,0.2,0.7,0.5,1.1,0.9v-1h2.2
			v7.2H289.1z M287.5,66.4c-0.4,0-0.8,0.2-1.1,0.5c-0.3,0.3-0.4,0.8-0.4,1.3c0,0.5,0.1,0.9,0.4,1.2c0.3,0.3,0.6,0.4,1.1,0.4
			c0.4,0,0.8-0.2,1.1-0.5c0.3-0.3,0.5-0.8,0.5-1.2c0-0.4-0.2-0.8-0.5-1.2C288.3,66.6,288,66.4,287.5,66.4z"/>
		<path fill="#A3C36B" d="M295,64.4v0.9c0.7-0.7,1.5-1,2.3-1c0.7,0,1.3,0.3,1.7,0.9c0.5,0.6,0.7,1.3,0.7,2.2v4.4h-2.2v-4.1
			c0-0.4-0.1-0.8-0.3-1.1c-0.2-0.3-0.5-0.4-0.8-0.4c-0.4,0-0.7,0.2-1,0.5c-0.3,0.4-0.4,0.8-0.4,1.4v3.6h-2.2v-7.3H295z"/>
		<path fill="#A3C36B" d="M301.2,61.9h2.2v2.5h1v2h-1v5.3h-2.2v-5.3h-0.8v-2h0.8V61.9z"/>
		<path fill="#A3C36B" d="M311.7,68.5h-5.2c0,0.5,0.2,0.8,0.5,1.1c0.3,0.3,0.6,0.4,1,0.4c0.7,0,1.2-0.3,1.6-0.9l2,0.7
			c-0.7,1.3-1.9,1.9-3.4,1.9c-1.1,0-2-0.3-2.7-1c-0.7-0.7-1-1.6-1-2.8c0-1.1,0.4-1.9,1.1-2.6c0.7-0.7,1.6-1.1,2.6-1.1
			c1,0,1.9,0.4,2.6,1.1c0.7,0.8,1,1.7,1,2.8V68.5z M306.5,67.1h2.9c-0.2-0.9-0.7-1.4-1.4-1.4c-0.4,0-0.8,0.1-1,0.4
			C306.8,66.3,306.6,66.7,306.5,67.1z"/>
		<path fill="#A3C36B" d="M317.8,65.4l-1.5,0.9c-0.4-0.4-0.8-0.6-1.2-0.6c-0.2,0-0.3,0-0.5,0.2c-0.1,0.1-0.2,0.2-0.2,0.4
			c0,0.2,0.1,0.4,0.2,0.5c0.2,0.1,0.5,0.3,1.2,0.5c0.6,0.2,1.2,0.5,1.5,0.9c0.4,0.3,0.6,0.8,0.6,1.5c0,0.6-0.3,1.2-0.8,1.6
			s-1.2,0.7-2,0.7c-0.5,0-1.1-0.1-1.6-0.4c-0.5-0.3-1-0.8-1.3-1.4l1.7-0.8c0.4,0.7,0.8,1,1.2,1c0.2,0,0.4-0.1,0.5-0.2
			c0.2-0.1,0.2-0.3,0.2-0.4c0-0.2-0.1-0.4-0.3-0.5c-0.2-0.1-0.3-0.2-0.4-0.2c0,0-0.2-0.1-0.6-0.2c-1.4-0.5-2.2-1.2-2.2-2.3
			c0-0.6,0.3-1.2,0.8-1.6c0.5-0.4,1.2-0.6,2-0.6C316.2,64.3,317.1,64.6,317.8,65.4z"/>
	</g>
	<g>
		<g>
			<path fill="#7D9A51" d="M99.2,10.3v8.9c-4-2.4-7.5-3.6-10.5-3.6c-3,0-5.4,1-7.2,3.1c-1.8,2.1-2.7,4.8-2.7,8.3
				c0,3.3,0.9,5.9,2.8,7.9c1.9,2,4.4,2.9,7.6,2.9c2.8,0,6.1-1.1,9.9-3.3v8.9c-4.3,1.4-7.9,2.2-10.8,2.2c-5,0-9.2-1.8-12.6-5.4
				c-3.5-3.6-5.2-8-5.2-13.3c0-5.3,1.8-9.8,5.3-13.5c3.5-3.7,7.8-5.5,12.9-5.5C91.9,7.8,95.4,8.6,99.2,10.3z"/>
			<path fill="#7D9A51" d="M117.9,8.3h6.1l15,36.7h-8l-2.9-7.2H114l-2.9,7.2h-7.9L117.9,8.3z M121,20.3l-4.3,10.8h8.8L121,20.3z"/>
			<path fill="#7D9A51" d="M138.7,8.3h24.8v7.8H155V45h-7.9V16.1h-8.4V8.3z"/>
			<path fill="#7D9A51" d="M168.8,8.3h20.7v7.1h-12.8v7.5h12.8v7.2h-12.8v15h-7.9V8.3z"/>
			<path fill="#7D9A51" d="M196.3,8.3H217v7.3h-12.8V23H217v7.2h-12.8v7.6H217V45h-20.7V8.3z"/>
			<path fill="#7D9A51" d="M223.7,8.3h12.1c3.7,0,6.6,1,8.7,2.9c2.1,1.9,3.2,4.6,3.2,7.9c0,1.9-0.5,3.8-1.5,5.9
				c-1,2-2.8,3.6-5.4,4.8L251.1,45H242l-9.5-14.2h-0.9V45h-7.9V8.3z M231.7,14.9v9.6h1.7c4.1,0,6.2-1.7,6.2-5.1
				c0-1.4-0.5-2.5-1.6-3.3c-1.1-0.8-2.6-1.2-4.5-1.2H231.7z"/>
			<path fill="#7D9A51" d="M254.2,8.3h24.8v7.8h-8.4V45h-7.9V16.1h-8.4V8.3z"/>
			<path fill="#7D9A51" d="M283.8,8.3h7.9V45h-7.9V8.3z"/>
			<path fill="#7D9A51" d="M299.3,8.3h7.9v28.8H318V45h-18.7V8.3z"/>
		</g>
	</g>
	<rect x="70.7" y="53.8" fill="#7D9A51" width="247.3" height="1.8"/>
</g>
</svg>
