<!-- Generator: Adobe Illustrator 18.0.0, SVG Export Plug-In  -->
<svg version="1.1"
	 xmlns="http://www.w3.org/2000/svg" xmlns:xlink="http://www.w3.org/1999/xlink" xmlns:a="http://ns.adobe.com/AdobeSVGViewerExtensions/3.0/"
	 x="0px" y="0px" width="30px" height="120px" viewBox="0 0 30 120" enable-background="new 0 0 30 120" xml:space="preserve">
<defs>
</defs>
<rect x="0" y="0" fill="none" width="30" height="30"/>
<rect x="0" y="30" fill="none" width="30" height="30"/>
<rect x="0" y="60" fill="none" width="30" height="30"/>
<rect x="0" y="90" fill="none" width="30" height="30"/>
<path fill="#8BAC44" d="M12.6,99.5c0.6,0,1.1,0.2,1.6,0.5c0.2-0.1,0.5-0.1,0.9-0.1c1.4,0,2.6,0.5,3.6,1.5c1,1,1.5,2.2,1.5,3.7
	c0,0.4,0,0.7-0.1,1.1c0.2,0.4,0.3,0.9,0.3,1.4c0,0.8-0.3,1.5-0.9,2.1c-0.6,0.6-1.3,0.9-2.1,0.9c-0.5,0-0.9-0.1-1.4-0.4
	c-0.4,0.1-0.7,0.1-0.9,0.1c-1.4,0-2.6-0.5-3.6-1.5S10,106.5,10,105c0-0.3,0-0.7,0.1-1c-0.3-0.5-0.4-1-0.4-1.5c0-0.8,0.3-1.5,0.9-2.1
	C11.1,99.8,11.8,99.5,12.6,99.5z M15,107.4c-0.3,0-0.6,0-0.7-0.1c-0.2-0.1-0.3-0.2-0.4-0.3c-0.2-0.3-0.3-0.5-0.3-0.5
	c-0.1-0.2-0.2-0.3-0.3-0.5c-0.2-0.1-0.3-0.2-0.5-0.2c-0.2,0-0.4,0.1-0.5,0.2c-0.1,0.1-0.2,0.3-0.2,0.5c0,0.3,0.1,0.6,0.3,0.9
	c0.2,0.3,0.5,0.6,0.8,0.8c0.5,0.3,1.1,0.4,1.8,0.4c0.6,0,1.1-0.1,1.6-0.3c0.5-0.2,0.8-0.5,1-0.8c0.2-0.4,0.3-0.7,0.3-1.2
	c0-0.3-0.1-0.6-0.2-0.9c-0.1-0.2-0.3-0.4-0.6-0.6c-0.3-0.2-0.6-0.3-0.9-0.4c-0.5-0.2-0.9-0.3-1.1-0.3c-0.1,0-0.2,0-0.4-0.1
	c-0.2,0-0.3-0.1-0.3-0.1c-0.2-0.1-0.3-0.1-0.4-0.2c-0.1-0.1-0.2-0.1-0.3-0.3c-0.1-0.1-0.1-0.2-0.1-0.3c0-0.2,0.1-0.3,0.3-0.5
	c0.2-0.2,0.5-0.2,0.9-0.2c0.4,0,0.7,0.1,0.9,0.2c0.2,0.2,0.3,0.4,0.4,0.6c0.1,0.2,0.2,0.3,0.3,0.4c0.1,0.1,0.3,0.1,0.4,0.1
	c0.2,0,0.4-0.1,0.5-0.2c0.1-0.1,0.2-0.3,0.2-0.5c0-0.2-0.1-0.4-0.2-0.6c-0.1-0.2-0.3-0.4-0.5-0.6c-0.2-0.2-0.5-0.3-0.9-0.4
	c-0.4-0.1-0.8-0.2-1.2-0.2c-0.6,0-1,0.1-1.5,0.3c-0.4,0.2-0.8,0.4-1,0.7c-0.2,0.3-0.3,0.7-0.3,1.1c0,0.4,0.1,0.7,0.3,1
	c0.3,0.3,0.6,0.5,0.9,0.6c0.4,0.2,0.8,0.3,1.3,0.4c0.1,0,0.2,0,0.3,0.1c0.1,0,0.2,0.1,0.3,0.1c0.1,0,0.2,0,0.2,0.1
	c0.2,0.1,0.4,0.2,0.5,0.3c0.1,0.1,0.2,0.3,0.2,0.5c0,0.3-0.1,0.5-0.4,0.6C15.8,107.4,15.4,107.4,15,107.4z M12.6,97.9
	c-1.2,0-2.3,0.5-3.2,1.3c-0.8,0.9-1.3,2-1.3,3.2c0,0.6,0.1,1.2,0.4,1.8c0,0.3-0.1,0.5-0.1,0.8c0,1.8,0.6,3.4,1.9,4.8
	c1.3,1.3,2.9,2,4.7,2c0.2,0,0.4,0,0.7,0c0.5,0.2,1.1,0.3,1.6,0.3c1.2,0,2.3-0.5,3.2-1.3c0.8-0.9,1.3-2,1.3-3.2c0-0.5-0.1-1-0.3-1.5
	c0-0.3,0.1-0.6,0.1-0.9c0-1.8-0.6-3.4-1.9-4.7c-1.3-1.3-2.8-2-4.7-2c-0.2,0-0.4,0-0.6,0C13.9,98.1,13.3,97.9,12.6,97.9z"/>
<path fill="#8BAC44" d="M22.3,67.6c-0.1-0.1-0.2-0.1-0.3-0.1c-0.1,0-0.2,0-0.3,0.1L7.7,77c-0.1,0.1-0.2,0.3-0.2,0.4
	c0,0.2,0.1,0.3,0.3,0.4l3.7,1.5l1.7,3c0.1,0.1,0.2,0.2,0.4,0.2c0,0,0,0,0,0c0.2,0,0.3-0.1,0.4-0.2l1-1.6l4.5,1.8c0.1,0,0.1,0,0.2,0
	c0.1,0,0.2,0,0.2-0.1c0.1-0.1,0.2-0.2,0.2-0.3L22.5,68C22.5,67.9,22.4,67.7,22.3,67.6z M9,77.2L19.8,70l-7.9,8.5
	c0,0-0.1-0.1-0.1-0.1L9,77.2z M12.3,78.8C12.3,78.8,12.3,78.8,12.3,78.8l8.9-9.5l-7.6,11.8L12.3,78.8z M19.3,81.4l-4-1.6
	c-0.1,0-0.2-0.1-0.3-0.1l6.2-9.6L19.3,81.4z"/>
<path fill="#8BAC44" d="M18.6,36.8h-7.1c-0.8,0-1.5,0.7-1.5,1.5v13.3c0,0.8,0.7,1.5,1.5,1.5h7.1c0.8,0,1.5-0.7,1.5-1.5V38.4
	C20.1,37.5,19.4,36.8,18.6,36.8z M13,37.6H17v0.5H13V37.6z M15,52.1c-0.6,0-1-0.5-1-1s0.5-1,1-1c0.6,0,1,0.5,1,1S15.6,52.1,15,52.1z
	 M19.1,49.1h-8.2V38.9h8.2V49.1z"/>
<path fill="#8BAC44" d="M15,6.5c-2.9,0-5.3,2.4-5.3,5.3c0,5.3,5.3,11.7,5.3,11.7s5.3-6.4,5.3-11.7C20.3,8.9,17.9,6.5,15,6.5z
	 M15,15.1c-1.8,0-3.3-1.5-3.3-3.3s1.5-3.3,3.3-3.3s3.3,1.5,3.3,3.3S16.8,15.1,15,15.1z M12.9,11.8c0-1.1,0.9-2.1,2.1-2.1
	s2.1,0.9,2.1,2.1s-0.9,2.1-2.1,2.1S12.9,12.9,12.9,11.8z"/>
</svg>
