<!-- Generator: Adobe Illustrator 18.0.0, SVG Export Plug-In  -->
<svg version="1.1"
	 xmlns="http://www.w3.org/2000/svg" xmlns:xlink="http://www.w3.org/1999/xlink" xmlns:a="http://ns.adobe.com/AdobeSVGViewerExtensions/3.0/"
	 x="0px" y="0px" width="316.6px" height="64.3px" viewBox="0 0 316.6 64.3" enable-background="new 0 0 316.6 64.3"
	 xml:space="preserve">
<defs>
</defs>
<g>
	<g>
		<path fill="#63A70A" d="M88.3,0.5h9.1l6.6,21l6.6-21h8.7l4.6,35.1h-7.3l-3.1-24.7l-7.8,24.7h-3.5l-8-24.9l-2.9,24.9h-7.4L88.3,0.5
			z"/>
		<path fill="#63A70A" d="M129,0.5h7.6v35.1H129V0.5z"/>
		<path fill="#63A70A" d="M167.1,0.5h7.5v35.1h-7.4l-16.2-22.7v22.7h-7.6V0.5h7.5L167.1,23V0.5z"/>
		<path fill="#63A70A" d="M181.7,0.5h19.9v6.9h-12.3v7.1h12.3v6.8h-12.3v7.3h12.3v6.9h-19.9V0.5z"/>
		<path fill="#63A70A" d="M208.2,0.5h12.1c3.2,0,5.9,0.9,7.9,2.8c2,1.9,3,4.4,3,7.4c0,2-0.5,3.9-1.5,5.7c-1,1.8-2.5,3.2-4.4,4
			c-2,0.9-3.7,1.4-5.1,1.4l-4.4,0.1v13.6h-7.6V0.5z M215.7,6.8v9h3c1.3,0,2.4-0.5,3.3-1.4c0.9-0.9,1.4-2,1.4-3.2
			c0-1.4-0.5-2.5-1.5-3.3c-1-0.8-2.5-1.2-4.4-1.2L215.7,6.8z"/>
		<path fill="#63A70A" d="M237.5,0.5h7.6V28h10.4v7.6h-18V0.5z"/>
		<path fill="#63A70A" d="M260.8,0.5h7.5v21.5c0,2,0.6,3.6,1.7,4.8c1.1,1.2,2.6,1.8,4.4,1.8c2.1,0,3.7-0.6,4.8-1.8
			c1.1-1.2,1.7-2.9,1.7-5.2V0.5h7.5v22.7c0,2-0.5,4.1-1.6,6.2c-1,2.1-2.6,3.8-4.8,4.9c-2.2,1.1-4.6,1.7-7.3,1.7
			c-4.8,0-8.4-1.3-10.6-4c-2.2-2.7-3.4-5.5-3.4-8.5V0.5z"/>
		<path fill="#63A70A" d="M315.7,3.7l-4.7,5.2c-2.5-1.5-4.3-2.2-5.4-2.2c-0.8,0-1.6,0.3-2.2,0.9c-0.6,0.6-0.9,1.4-0.9,2.3
			c0,1.7,1.6,3.2,4.7,4.5c2.3,1,4.1,1.9,5.2,2.7c1.2,0.8,2.2,1.9,3,3.3c0.8,1.4,1.2,2.9,1.2,4.6c0,3-1.2,5.6-3.7,7.9
			c-2.4,2.2-5.3,3.3-8.7,3.3c-3.7,0-7.3-1.7-10.8-5.1l5-5.8c2.2,2.3,4.3,3.4,6.3,3.4c0.9,0,1.8-0.4,2.6-1.2c0.8-0.8,1.3-1.7,1.3-2.5
			c0-1.8-1.9-3.4-5.8-4.8c-2.2-0.8-3.8-1.6-4.7-2.3c-0.9-0.7-1.7-1.7-2.4-3.1c-0.6-1.3-1-2.7-1-4.1c0-3.1,1-5.6,3.1-7.6
			c2-1.9,4.7-2.9,8-2.9C309.7,0,313,1.2,315.7,3.7z"/>
	</g>
	<rect x="83.9" y="44.5" fill="#63A70A" width="232.7" height="1.6"/>
	<g>
		<g>
			<defs>
				<circle id="SVGID_1_" cx="45.5" cy="32.2" r="30.7"/>
			</defs>
			<clipPath id="SVGID_2_">
				<use xlink:href="#SVGID_1_"  overflow="visible"/>
			</clipPath>
			<g clip-path="url(#SVGID_2_)">
				<g>
					<defs>
						<polygon id="SVGID_3_" points="6,37.1 8.7,47.2 8.2,49.2 0.4,47.9 0,39.5 						"/>
					</defs>
					<clipPath id="SVGID_4_">
						<use xlink:href="#SVGID_3_"  overflow="visible"/>
					</clipPath>
					<path clip-path="url(#SVGID_4_)" fill="none" d="M12,38.9l-6-1.6l-4.4,4.4l1.6,6l6,1.6l4.4-4.4L12,38.9z M8.7,47.4l-4.1-1.1
						l-1.1-4.1l3-3l4.1,1.1l1.1,4.1L8.7,47.4z"/>
				</g>
				<g>
					<path fill="#6FA138" d="M14.2,30l-6-1.6l-4.4,4.4l1.6,6l6,1.6l4.4-4.4L14.2,30z M10.9,38.5l-4.1-1.1l-1.1-4.1l3-3l4.1,1.1
						l1.1,4.1L10.9,38.5z"/>
				</g>
				<g>
					<path fill="#A0BE2C" d="M23,27.6L17,26l-4.4,4.4l1.6,6l6,1.6l4.4-4.4L23,27.6z M19.6,36.2L15.5,35l-1.1-4.1l3-3l4.1,1.1
						l1.1,4.1L19.6,36.2z"/>
				</g>
				<path fill="#89B933" d="M29.6,33.9l-6-1.6l-4.4,4.4l1.6,6l6,1.6l4.4-4.4L29.6,33.9z M26.2,42.5l-4.1-1.1L21,37.2l3-3l4.1,1.1
					l1.1,4.1L26.2,42.5z"/>
				<g>
					<path fill="#CDD626" d="M59.1,14.4l-6-1.6l-4.4,4.4l1.6,6l6,1.6l4.4-4.4L59.1,14.4z M55.8,22.9l-4.1-1.1l-1.1-4.1l3-3l4.1,1.1
						l1.1,4.1L55.8,22.9z"/>
				</g>
				<path fill="#89B933" d="M50,15.9l-8.3-2.3l-6.1,6l2.2,8.3l8.3,2.3l6.1-6L50,15.9z M45.6,28.4l-6.4-1.7l-1.7-6.4l4.7-4.7l6.4,1.7
					l1.7,6.4L45.6,28.4z"/>
				<path fill="#89B933" d="M65.9,20.4l-6-1.6l-4.4,4.4l1.6,6l6,1.6l4.4-4.4L65.9,20.4z M62.6,29l-4.1-1.1l-1.1-4.1l3-3l4.1,1.1
					l1.1,4.1L62.6,29z"/>
				<g>
					<path fill="#CDD626" d="M73.4,26.9l-6.8-1.9l-5,5l1.8,6.9l6.8,1.9l5-5L73.4,26.9z M69.6,36.6l-4.7-1.3l-1.2-4.7l3.5-3.4
						l4.7,1.3l1.2,4.7L69.6,36.6z"/>
				</g>
				<g>
					<path fill="#A0BE2C" d="M47,28.9l-6-1.6l-4.4,4.4l1.6,6l6,1.6l4.4-4.4L47,28.9z M43.7,37.4l-4.1-1.1l-1.1-4.1l3-3l4.1,1.1
						l1.1,4.1L43.7,37.4z"/>
				</g>
				<g>
					<path fill="#6FA138" d="M44.9,37.7l-11.2-2.7l-7.9,8.2l3.2,11l11.2,2.7l7.9-8.2L44.9,37.7z M39.6,54.9l-9.2-2.3l-2.7-9l6.6-6.8
						l9.2,2.3l2.7,9L39.6,54.9z"/>
				</g>
				
					<rect x="16.2" y="21" transform="matrix(0.9696 -0.2445 0.2445 0.9696 -5.3453 4.7462)" fill="#A0BE2C" width="0.4" height="5.8"/>
				
					<rect x="40.2" y="29.2" transform="matrix(0.7182 0.6959 -0.6959 0.7182 33.0159 -19.3803)" fill="#A0BE2C" width="0.4" height="3.7"/>
				
					<rect x="22.7" y="34.3" transform="matrix(0.7182 0.6959 -0.6959 0.7182 31.6153 -5.7205)" fill="#89B933" width="0.4" height="3.7"/>
				
					<rect x="19" y="27.2" transform="matrix(-0.2697 0.9629 -0.9629 -0.2697 52.376 18.2923)" fill="#A0BE2C" width="0.4" height="3.7"/>
				
					<rect x="33.2" y="16.2" transform="matrix(-0.2697 0.9629 -0.9629 -0.2697 61.0065 -7.5492)" fill="#89B933" width="0.3" height="6.4"/>
				
					<rect x="71.5" y="28.8" transform="matrix(-0.9711 0.2385 -0.2385 -0.9711 148.8083 44.105)" fill="#CDD626" width="0.4" height="4.5"/>
				
					<rect x="40.1" y="15.5" transform="matrix(0.7185 0.6956 -0.6956 0.7185 24.2121 -22.8679)" fill="#89B933" width="0.4" height="5.9"/>
				
					<rect x="60.6" y="10.3" transform="matrix(0.8131 0.5821 -0.5821 0.8131 18.5384 -33.0906)" fill="#CDD626" width="0.4" height="4.1"/>
				
					<rect x="61.3" y="10.8" transform="matrix(0.8131 0.5821 -0.5821 0.8131 18.9801 -33.4019)" fill="#CDD626" width="0.4" height="4.1"/>
			</g>
		</g>
		<g>
			<path fill="#89B933" d="M45.5,64.3c-17.7,0-32.2-14.4-32.2-32.2S27.7,0,45.5,0s32.2,14.4,32.2,32.2S63.2,64.3,45.5,64.3z
				 M45.5,2.1c-16.6,0-30.1,13.5-30.1,30.1s13.5,30.1,30.1,30.1s30.1-13.5,30.1-30.1S62.1,2.1,45.5,2.1z"/>
		</g>
	</g>
	<g>
		<path fill="#89B933" d="M184.5,53h1.6l3.9,9.6h-2.1l-0.8-1.9h-3.7l-0.8,1.9h-2.1L184.5,53z M185.3,56.2l-1.1,2.8h2.3L185.3,56.2z"
			/>
		<path fill="#89B933" d="M191.3,52.8h1.9v4.3c0.6-0.7,1.2-1,1.9-1c0.8,0,1.4,0.3,1.9,1s0.8,1.4,0.8,2.3c0,0.9-0.3,1.6-0.8,2.3
			c-0.5,0.6-1.2,1-1.9,1c-0.4,0-0.7-0.1-1-0.3c-0.3-0.2-0.6-0.5-1-0.9v1h-1.9V52.8z M194.6,58.1c-0.4,0-0.7,0.1-0.9,0.4
			c-0.2,0.3-0.4,0.6-0.4,1.1c0,0.4,0.1,0.8,0.4,1.1c0.3,0.3,0.6,0.4,1,0.4c0.4,0,0.7-0.1,0.9-0.4c0.2-0.3,0.4-0.6,0.4-1
			c0-0.4-0.1-0.8-0.4-1.1S194.9,58.1,194.6,58.1z"/>
		<path fill="#89B933" d="M203.9,57.2l-1.3,0.8c-0.4-0.4-0.7-0.6-1-0.6c-0.2,0-0.3,0-0.4,0.1c-0.1,0.1-0.2,0.2-0.2,0.3
			c0,0.2,0.1,0.4,0.2,0.4c0.1,0.1,0.5,0.2,1,0.4c0.6,0.2,1,0.4,1.3,0.7c0.3,0.3,0.5,0.7,0.5,1.3c0,0.5-0.2,1-0.7,1.4
			c-0.5,0.4-1.1,0.6-1.8,0.6c-0.5,0-0.9-0.1-1.4-0.4c-0.5-0.3-0.9-0.7-1.2-1.2l1.5-0.7c0.3,0.6,0.7,0.9,1.1,0.9
			c0.2,0,0.3-0.1,0.4-0.2c0.1-0.1,0.2-0.2,0.2-0.4c0-0.2-0.1-0.3-0.2-0.4c-0.2-0.1-0.3-0.1-0.3-0.1c0,0-0.2-0.1-0.5-0.2
			c-1.3-0.4-1.9-1.1-1.9-2c0-0.6,0.2-1,0.7-1.4c0.5-0.4,1-0.5,1.8-0.5C202.6,56.2,203.3,56.5,203.9,57.2z"/>
		<path fill="#89B933" d="M205.5,59.5c0-1,0.3-1.8,0.9-2.4c0.6-0.6,1.4-0.9,2.4-0.9c0.9,0,1.7,0.3,2.3,0.9c0.6,0.6,0.9,1.4,0.9,2.3
			c0,0.9-0.3,1.7-0.9,2.4c-0.6,0.6-1.4,0.9-2.3,0.9c-1,0-1.8-0.3-2.4-1S205.5,60.3,205.5,59.5z M210.2,59.5c0-0.4-0.1-0.8-0.4-1.1
			c-0.3-0.3-0.6-0.5-1-0.5c-0.4,0-0.7,0.1-1,0.4s-0.4,0.7-0.4,1.1c0,0.5,0.1,0.8,0.4,1.2c0.3,0.3,0.6,0.5,1,0.5c0.4,0,0.7-0.2,1-0.5
			S210.2,59.9,210.2,59.5z"/>
		<path fill="#89B933" d="M215.4,56.3v0.9h0c0.2-0.3,0.4-0.6,0.6-0.7c0.2-0.2,0.5-0.3,0.7-0.3c0.1,0,0.2,0,0.3,0v2
			c-0.2,0-0.3,0-0.5,0c-0.4,0-0.7,0.1-0.9,0.4c-0.2,0.3-0.3,0.6-0.3,1.1v2.8h-1.9v-6.3H215.4z"/>
		<path fill="#89B933" d="M218.3,52.8h1.9v4.3c0.6-0.7,1.2-1,1.9-1c0.8,0,1.4,0.3,1.9,1s0.8,1.4,0.8,2.3c0,0.9-0.3,1.6-0.8,2.3
			c-0.5,0.6-1.2,1-1.9,1c-0.4,0-0.7-0.1-1-0.3c-0.3-0.2-0.6-0.5-1-0.9v1h-1.9V52.8z M221.5,58.1c-0.4,0-0.7,0.1-0.9,0.4
			c-0.2,0.3-0.4,0.6-0.4,1.1c0,0.4,0.1,0.8,0.4,1.1c0.3,0.3,0.6,0.4,1,0.4c0.4,0,0.7-0.1,0.9-0.4c0.2-0.3,0.4-0.6,0.4-1
			c0-0.4-0.1-0.8-0.4-1.1S221.9,58.1,221.5,58.1z"/>
		<path fill="#89B933" d="M232.1,59.9h-4.5c0,0.4,0.2,0.7,0.4,1c0.2,0.3,0.5,0.4,0.8,0.4c0.6,0,1-0.3,1.4-0.8l1.7,0.6
			c-0.6,1.1-1.6,1.7-3,1.7c-1,0-1.8-0.3-2.4-0.9c-0.6-0.6-0.9-1.4-0.9-2.4c0-0.9,0.3-1.7,0.9-2.3c0.6-0.6,1.4-0.9,2.3-0.9
			c0.9,0,1.7,0.3,2.3,1c0.6,0.7,0.9,1.5,0.9,2.4V59.9z M227.7,58.7h2.5c-0.2-0.8-0.6-1.2-1.2-1.2c-0.4,0-0.7,0.1-0.9,0.3
			C227.9,58,227.7,58.3,227.7,58.7z"/>
		<path fill="#89B933" d="M235.5,56.3v0.7c0.6-0.6,1.3-0.9,2-0.9c0.6,0,1.1,0.2,1.5,0.7c0.4,0.5,0.6,1.1,0.6,1.9v3.8h-1.9v-3.5
			c0-0.4-0.1-0.7-0.3-0.9c-0.2-0.2-0.4-0.4-0.7-0.4c-0.3,0-0.6,0.2-0.8,0.5c-0.2,0.3-0.3,0.7-0.3,1.2v3.1h-1.9v-6.3H235.5z"/>
		<path fill="#89B933" d="M241.4,54.2h1.9v2.2h0.9v1.7h-0.9v4.6h-1.9v-4.6h-0.7v-1.7h0.7V54.2z"/>
		<path fill="#89B933" d="M251.1,59.9h-4.5c0,0.4,0.2,0.7,0.4,1c0.2,0.3,0.5,0.4,0.8,0.4c0.6,0,1-0.3,1.4-0.8l1.7,0.6
			c-0.6,1.1-1.6,1.7-3,1.7c-1,0-1.8-0.3-2.4-0.9c-0.6-0.6-0.9-1.4-0.9-2.4c0-0.9,0.3-1.7,0.9-2.3c0.6-0.6,1.4-0.9,2.3-0.9
			c0.9,0,1.7,0.3,2.3,1c0.6,0.7,0.9,1.5,0.9,2.4V59.9z M246.7,58.7h2.5c-0.2-0.8-0.6-1.2-1.2-1.2c-0.4,0-0.7,0.1-0.9,0.3
			C246.9,58,246.7,58.3,246.7,58.7z"/>
		<path fill="#89B933" d="M258.4,56.3v1c0.1-0.1,0.2-0.2,0.4-0.3c0.2-0.2,0.3-0.3,0.5-0.4c0.2-0.1,0.3-0.2,0.6-0.3
			c0.2-0.1,0.4-0.1,0.6-0.1c0.3,0,0.6,0.1,0.9,0.3s0.6,0.6,0.8,1.1c0.4-0.5,0.8-0.9,1.1-1.1c0.4-0.2,0.7-0.3,1-0.3
			c0.6,0,1.1,0.2,1.4,0.7c0.4,0.5,0.6,1,0.6,1.7v4h-1.9v-3.5c0-0.3-0.1-0.6-0.3-0.9s-0.4-0.4-0.7-0.4c-0.3,0-0.6,0.1-0.8,0.4
			s-0.4,0.6-0.4,1v3.4h-1.9v-3.4c0-0.4-0.1-0.7-0.3-0.9c-0.2-0.3-0.4-0.4-0.7-0.4c-0.3,0-0.6,0.1-0.8,0.4c-0.2,0.3-0.4,0.6-0.4,1
			v3.3h-1.9v-6.3H258.4z"/>
		<path fill="#89B933" d="M268.1,59.5c0-1,0.3-1.8,0.9-2.4c0.6-0.6,1.4-0.9,2.4-0.9c0.9,0,1.7,0.3,2.3,0.9c0.6,0.6,0.9,1.4,0.9,2.3
			c0,0.9-0.3,1.7-0.9,2.4c-0.6,0.6-1.4,0.9-2.3,0.9c-1,0-1.8-0.3-2.4-1S268.1,60.3,268.1,59.5z M272.8,59.5c0-0.4-0.1-0.8-0.4-1.1
			c-0.3-0.3-0.6-0.5-1-0.5c-0.4,0-0.7,0.1-1,0.4S270,59,270,59.4c0,0.5,0.1,0.8,0.4,1.2c0.3,0.3,0.6,0.5,1,0.5c0.4,0,0.7-0.2,1-0.5
			S272.8,59.9,272.8,59.5z"/>
		<path fill="#89B933" d="M276.3,52.9h1.9v9.8h-1.9V52.9z"/>
		<path fill="#89B933" d="M286,59.9h-4.5c0,0.4,0.2,0.7,0.4,1c0.2,0.3,0.5,0.4,0.8,0.4c0.6,0,1-0.3,1.4-0.8l1.7,0.6
			c-0.6,1.1-1.6,1.7-3,1.7c-1,0-1.8-0.3-2.4-0.9c-0.6-0.6-0.9-1.4-0.9-2.4c0-0.9,0.3-1.7,0.9-2.3s1.4-0.9,2.3-0.9
			c0.9,0,1.7,0.3,2.3,1c0.6,0.7,0.9,1.5,0.9,2.4V59.9z M281.5,58.7h2.5c-0.2-0.8-0.6-1.2-1.2-1.2c-0.4,0-0.7,0.1-0.9,0.3
			C281.7,58,281.6,58.3,281.5,58.7z"/>
		<path fill="#89B933" d="M291.9,60.4v1.9c-0.6,0.3-1.2,0.4-1.6,0.4c-0.9,0-1.7-0.3-2.4-0.9c-0.6-0.6-1-1.4-1-2.3
			c0-0.9,0.3-1.7,0.9-2.3c0.6-0.6,1.3-0.9,2.2-0.9c0.6,0,1.2,0.1,1.8,0.4v1.8c-0.5-0.3-1-0.4-1.5-0.4c-0.4,0-0.8,0.1-1,0.4
			c-0.3,0.3-0.4,0.6-0.4,1c0,0.4,0.1,0.7,0.4,1c0.3,0.3,0.6,0.4,1,0.4C290.8,60.8,291.3,60.7,291.9,60.4z"/>
		<path fill="#89B933" d="M293.4,56.3h1.9v3c0,0.4,0.1,0.8,0.3,1.1c0.2,0.3,0.5,0.4,0.8,0.4c0.3,0,0.6-0.1,0.9-0.4
			c0.2-0.3,0.4-0.6,0.4-1.1v-3.1h1.9V60c0,0.8-0.3,1.4-0.9,1.9c-0.6,0.5-1.3,0.8-2.2,0.8c-0.9,0-1.7-0.3-2.2-0.8
			c-0.6-0.5-0.8-1.2-0.8-2.1V56.3z"/>
		<path fill="#89B933" d="M301.4,52.9h1.9v9.8h-1.9V52.9z"/>
		<path fill="#89B933" d="M309.4,62.6v-1.1h0c-0.3,0.4-0.6,0.7-0.9,0.9s-0.7,0.3-1.1,0.3c-0.7,0-1.4-0.3-1.9-1
			c-0.5-0.6-0.8-1.4-0.8-2.3c0-0.9,0.3-1.7,0.8-2.3c0.6-0.6,1.2-1,2-1c0.4,0,0.7,0.1,1,0.2c0.3,0.2,0.6,0.4,0.9,0.8v-0.9h1.9v6.3
			H309.4z M308,58.1c-0.4,0-0.7,0.1-0.9,0.4c-0.2,0.3-0.4,0.7-0.4,1.1c0,0.4,0.1,0.8,0.4,1c0.2,0.3,0.5,0.4,0.9,0.4
			c0.4,0,0.7-0.1,1-0.4s0.4-0.7,0.4-1.1c0-0.4-0.1-0.7-0.4-1S308.4,58.1,308,58.1z"/>
		<path fill="#89B933" d="M314.9,56.3v0.9h0c0.2-0.3,0.4-0.6,0.6-0.7c0.2-0.2,0.5-0.3,0.7-0.3c0.1,0,0.2,0,0.3,0v2
			c-0.2,0-0.3,0-0.5,0c-0.4,0-0.7,0.1-0.9,0.4c-0.2,0.3-0.3,0.6-0.3,1.1v2.8H313v-6.3H314.9z"/>
	</g>
</g>
</svg>
