<!-- Generator: Adobe Illustrator 18.0.0, SVG Export Plug-In  -->
<svg version="1.1"
	 xmlns="http://www.w3.org/2000/svg" xmlns:xlink="http://www.w3.org/1999/xlink" xmlns:a="http://ns.adobe.com/AdobeSVGViewerExtensions/3.0/"
	 x="0px" y="0px" width="256.1px" height="48px" viewBox="0 0 256.1 48" enable-background="new 0 0 256.1 48" xml:space="preserve"
	>
<defs>
</defs>
<g>
	<g>
		<polygon fill="#C7D74C" points="7.6,0 48.3,0 48.3,37.1 11,37.1 22.5,29.6 40.5,29.6 40.5,7.5 7.6,7.5 		"/>
		<polygon fill="#A1BD4E" points="11,37.1 11,28.1 37.3,10.9 37.3,19.8 		"/>
		<polygon fill="#7DA251" points="37.3,10.9 0,10.9 0,48 40.7,48 40.7,40.5 7.5,40.5 7.5,18.4 25.9,18.4 		"/>
	</g>
	<path fill="#92BC52" d="M79.9,8.3V13l-16,20.3v0.2h16.2v4.8H56.9v-4.9l15.9-20.2v-0.2H57.6V8.3H79.9z"/>
	<path fill="#92BC52" d="M87.9,13.1v7.7h13.6V25H87.9v8.5h14.5v4.8h-20v-30h19.8v4.8H87.9z"/>
	<path fill="#92BC52" d="M118,8c5.3,0,8.7,0.9,10.2,2.7c1.5,1.8,2.3,5.9,2.3,12.1c0,6.9-0.8,11.2-2.3,13c-1.5,1.8-5.2,2.7-11.1,2.7
		c-5.3,0-8.7-0.9-10.2-2.6c-1.5-1.8-2.3-5.7-2.3-11.7c0-7.1,0.8-11.6,2.3-13.5C108.3,8.9,112,8,118,8z M117.5,12.9
		c-3.7,0-5.9,0.5-6.5,1.5c-0.6,1-0.9,4.4-0.9,10.2c0,4.3,0.4,6.9,1.1,7.8c0.7,0.9,2.9,1.3,6.4,1.3c3.4,0,5.5-0.5,6.1-1.5
		c0.7-1,1-4,1-9c0-5-0.3-8-1-8.9C123.2,13.4,121.1,12.9,117.5,12.9z"/>
	<path fill="#92BC52" d="M160.5,8.3v30h-9.3l-8.3-16.5c-0.4-0.8-1.1-2.3-1.9-4.3l-0.9-2.2l-0.9-2.2h-0.2l0.1,2l0.1,2l0,3.9v17.2
		h-5.5v-30h9.3l7.5,15.2c0.7,1.3,1.4,3,2.3,4.9l1.1,2.4l1.1,2.5h0.2l-0.1-1.9l-0.1-1.9l0-3.9V8.3H160.5z"/>
	<path fill="#92BC52" d="M182.5,32.5H170l-1.8,5.8h-5.8l9.6-30h8.3l9.8,30h-5.7L182.5,32.5z M181.3,28.3l-5-15.6l-4.9,15.6H181.3z"
		/>
	<path fill="#92BC52" d="M198.9,13.4v24.9h-5.5V13.4H185V8.3h22.5v5.1H198.9z"/>
	<path fill="#92BC52" d="M214.7,13.1v7.7h13.6V25h-13.6v8.5h14.5v4.8h-20v-30h19.8v4.8H214.7z"/>
	<path fill="#92BC52" d="M250.6,27.6h5.5v1c0,4.2-0.7,6.9-2.2,8.1c-1.5,1.2-4.7,1.8-9.8,1.8c-5.7,0-9.2-1-10.6-2.9
		c-1.3-1.9-2-7.1-2-15.5c0-5,0.9-8.2,2.7-9.8c1.8-1.6,5.5-2.3,11.2-2.3c4.1,0,6.9,0.6,8.3,1.9c1.4,1.3,2.1,3.8,2.1,7.6l0,0.7h-5.5
		v-0.8c0-2-0.4-3.2-1.1-3.8c-0.7-0.5-2.3-0.8-4.9-0.8c-3.4,0-5.5,0.4-6.2,1.3c-0.7,0.9-1,3.4-1,7.7c0,5.7,0.3,9.1,0.9,10.2
		c0.6,1.1,2.6,1.6,6,1.6c2.7,0,4.5-0.3,5.3-0.9c0.8-0.6,1.2-1.9,1.2-3.9L250.6,27.6z"/>
</g>
</svg>
